<svg xmlns="http://www.w3.org/2000/svg" width="900" height="520" font-family="sans-serif">
<rect width="900" height="520" fill="white"/>
<text x="450" y="26" font-size="15" font-weight="bold" text-anchor="middle">mbo/hash - 64-bit one-shot throughput</text>
<line x1="66" y1="436.3" x2="768.0" y2="436.3" stroke="#eee"/>
<text x="60" y="439.3" font-size="10" text-anchor="end">1</text>
<line x1="66" y1="332.1" x2="768.0" y2="332.1" stroke="#eee"/>
<text x="60" y="335.1" font-size="10" text-anchor="end">10</text>
<line x1="66" y1="227.8" x2="768.0" y2="227.8" stroke="#eee"/>
<text x="60" y="230.8" font-size="10" text-anchor="end">100</text>
<line x1="66" y1="123.6" x2="768.0" y2="123.6" stroke="#eee"/>
<text x="60" y="126.6" font-size="10" text-anchor="end">1000</text>
<line x1="66.0" y1="46" x2="66.0" y2="468.0" stroke="#f3f4f6"/>
<text x="66.0" y="484.0" font-size="10" text-anchor="middle">1B</text>
<line x1="124.5" y1="46" x2="124.5" y2="468.0" stroke="#f3f4f6"/>
<line x1="183.0" y1="46" x2="183.0" y2="468.0" stroke="#f3f4f6"/>
<text x="183.0" y="484.0" font-size="10" text-anchor="middle">4B</text>
<line x1="241.5" y1="46" x2="241.5" y2="468.0" stroke="#f3f4f6"/>
<line x1="300.0" y1="46" x2="300.0" y2="468.0" stroke="#f3f4f6"/>
<text x="300.0" y="484.0" font-size="10" text-anchor="middle">16B</text>
<line x1="358.5" y1="46" x2="358.5" y2="468.0" stroke="#f3f4f6"/>
<line x1="417.0" y1="46" x2="417.0" y2="468.0" stroke="#f3f4f6"/>
<text x="417.0" y="484.0" font-size="10" text-anchor="middle">64B</text>
<line x1="475.5" y1="46" x2="475.5" y2="468.0" stroke="#f3f4f6"/>
<line x1="534.0" y1="46" x2="534.0" y2="468.0" stroke="#f3f4f6"/>
<text x="534.0" y="484.0" font-size="10" text-anchor="middle">256B</text>
<line x1="592.5" y1="46" x2="592.5" y2="468.0" stroke="#f3f4f6"/>
<line x1="651.0" y1="46" x2="651.0" y2="468.0" stroke="#f3f4f6"/>
<text x="651.0" y="484.0" font-size="10" text-anchor="middle">1Ki</text>
<line x1="709.5" y1="46" x2="709.5" y2="468.0" stroke="#f3f4f6"/>
<line x1="768.0" y1="46" x2="768.0" y2="468.0" stroke="#f3f4f6"/>
<text x="768.0" y="484.0" font-size="10" text-anchor="middle">4Ki</text>
<text x="417" y="508" font-size="12" text-anchor="middle">key length (log scale)</text>
<text x="18" y="257" font-size="12" transform="rotate(-90 18 257)" text-anchor="middle">ns / op (log scale)</text>
<polyline points="66.0,399.0 124.5,400.8 158.7,397.7 183.0,395.3 201.8,397.5 217.2,394.1 230.2,395.3 241.5,404.1 251.4,404.0 268.4,404.9 282.5,404.7 294.6,404.5 300.0,404.7 309.9,396.0 314.5,396.0 326.9,396.0 344.2,396.0 358.5,396.0 373.0,389.2 389.1,389.1 390.9,389.6 392.7,389.2 404.2,381.8 415.7,381.5 417.0,382.0 419.6,374.5 434.8,374.3 450.3,366.8 465.7,354.3 481.2,351.3 496.9,346.0 512.3,338.9 527.5,331.1 534.0,338.5 543.1,336.0 558.4,324.7 573.7,325.1 589.1,312.8 604.6,310.5 620.0,303.7 635.4,294.7 650.8,285.2 651.0,292.9 666.1,282.3 681.5,276.5 696.9,266.3 712.3,260.8 727.7,251.8 743.1,243.8 758.4,238.3 768.0,236.6" fill="none" stroke="#2563eb" stroke-width="2"/>
<line x1="782.0" y1="54.0" x2="798.0" y2="54.0" stroke="#2563eb" stroke-width="2"/>
<text x="802.0" y="58.0" font-size="11" fill="#2563eb">mumbo</text>
<polyline points="66.0,407.6 124.5,404.7 158.7,407.8 183.0,411.3 201.8,411.3 217.2,411.3 230.2,411.3 241.5,412.6 251.4,411.3 268.4,412.2 282.5,412.3 294.6,411.9 300.0,411.5 309.9,405.1 314.5,405.6 326.9,404.6 344.2,404.3 358.5,405.5 373.0,396.2 389.1,396.1 390.9,396.2 392.7,396.0 404.2,388.5 415.7,389.0 417.0,389.0 419.6,381.4 434.8,381.2 450.3,374.3 465.7,364.8 481.2,361.7 496.9,353.1 512.3,344.6 527.5,348.4 534.0,344.9 543.1,340.0 558.4,335.0 573.7,326.9 589.1,320.2 604.6,316.2 620.0,308.4 635.4,299.3 650.8,295.4 651.0,295.4 666.1,281.1 681.5,280.6 696.9,268.1 712.3,259.5 727.7,255.1 743.1,249.4 758.4,239.8 768.0,235.8" fill="none" stroke="#dc2626" stroke-width="2"/>
<line x1="782.0" y1="71.0" x2="798.0" y2="71.0" stroke="#dc2626" stroke-width="2"/>
<text x="802.0" y="75.0" font-size="11" fill="#dc2626">rapidhash</text>
<polyline points="66.0,409.6 124.5,409.6 158.7,409.9 183.0,414.6 201.8,414.8 217.2,414.2 230.2,413.9 241.5,415.2 251.4,411.3 268.4,411.4 282.5,411.3 294.6,411.7 300.0,411.3 309.9,396.9 314.5,396.9 326.9,397.0 344.2,396.9 358.5,397.0 373.0,376.0 389.1,376.1 390.9,375.9 392.7,376.0 404.2,376.0 415.7,376.0 417.0,376.0 419.6,362.1 434.8,362.1 450.3,362.1 465.7,351.5 481.2,341.5 496.9,333.6 512.3,324.5 527.5,318.8 534.0,287.8 543.1,284.5 558.4,276.9 573.7,269.6 589.1,267.7 604.6,263.2 620.0,259.2 635.4,255.5 650.8,252.2 651.0,252.1 666.1,242.7 681.5,238.4 696.9,232.2 712.3,225.5 727.7,219.6 743.1,213.2 758.4,206.0 768.0,202.4" fill="none" stroke="#059669" stroke-width="2"/>
<line x1="782.0" y1="88.0" x2="798.0" y2="88.0" stroke="#059669" stroke-width="2"/>
<text x="802.0" y="92.0" font-size="11" fill="#059669">xxh3</text>
<polyline points="66.0,405.6 124.5,401.1 158.7,392.6 183.0,403.6 201.8,402.2 217.2,395.1 230.2,388.7 241.5,398.9 251.4,394.9 268.4,383.3 282.5,389.0 294.6,377.2 300.0,391.1 309.9,379.7 314.5,375.2 326.9,373.0 344.2,366.4 358.5,362.9 373.0,349.0 389.1,343.3 390.9,339.3 392.7,350.1 404.2,335.0 415.7,330.5 417.0,350.3 419.6,343.5 434.8,331.3 450.3,323.0 465.7,326.9 481.2,326.4 496.9,321.7 512.3,313.1 527.5,308.2 534.0,310.5 543.1,299.3 558.4,292.7 573.7,285.7 589.1,282.0 604.6,272.1 620.0,268.3 635.4,258.3 650.8,250.8 651.0,254.7 666.1,245.8 681.5,234.3 696.9,229.7 712.3,220.6 727.7,212.4 743.1,203.8 758.4,195.7 768.0,190.4" fill="none" stroke="#d97706" stroke-width="2"/>
<line x1="782.0" y1="105.0" x2="798.0" y2="105.0" stroke="#d97706" stroke-width="2"/>
<text x="802.0" y="109.0" font-size="11" fill="#d97706">xxh64</text>
<polyline points="66.0,390.9 124.5,387.8 158.7,387.4 183.0,385.5 201.8,386.1 217.2,386.3 230.2,387.2 241.5,386.1 251.4,382.5 268.4,379.5 282.5,378.6 294.6,378.4 300.0,374.0 309.9,368.9 314.5,368.8 326.9,367.7 344.2,362.2 358.5,359.7 373.0,354.5 389.1,352.1 390.9,352.0 392.7,348.5 404.2,345.4 415.7,342.0 417.0,337.8 419.6,336.0 434.8,332.8 450.3,325.7 465.7,314.6 481.2,308.7 496.9,299.6 512.3,291.1 527.5,282.2 534.0,277.0 543.1,272.8 558.4,262.5 573.7,252.9 589.1,243.4 604.6,234.0 620.0,223.8 635.4,214.7 650.8,206.0 651.0,205.3 666.1,197.1 681.5,188.9 696.9,179.5 712.3,170.7 727.7,162.6 743.1,153.4 758.4,145.5 768.0,140.5" fill="none" stroke="#7c3aed" stroke-width="2"/>
<line x1="782.0" y1="122.0" x2="798.0" y2="122.0" stroke="#7c3aed" stroke-width="2"/>
<text x="802.0" y="126.0" font-size="11" fill="#7c3aed">murmur3</text>
<polyline points="66.0,350.8 124.5,350.6 158.7,350.5 183.0,348.6 201.8,348.6 217.2,348.6 230.2,348.5 241.5,336.0 251.4,335.7 268.4,335.2 282.5,335.0 294.6,335.1 300.0,323.4 309.9,323.0 314.5,322.7 326.9,322.7 344.2,312.7 358.5,304.3 373.0,304.2 389.1,296.8 390.9,296.7 392.7,290.3 404.2,289.8 415.7,284.3 417.0,279.4 419.6,279.2 434.8,274.3 450.3,266.1 465.7,255.5 481.2,247.0 496.9,239.9 512.3,231.9 527.5,223.4 534.0,219.2 543.1,215.2 558.4,207.3 573.7,198.2 589.1,190.2 604.6,182.3 620.0,174.1 635.4,165.3 650.8,157.7 651.0,157.1 666.1,148.8 681.5,140.8 696.9,132.4 712.3,124.5 727.7,116.7 743.1,107.7 758.4,100.4 768.0,94.3" fill="none" stroke="#0891b2" stroke-width="2"/>
<line x1="782.0" y1="139.0" x2="798.0" y2="139.0" stroke="#0891b2" stroke-width="2"/>
<text x="802.0" y="143.0" font-size="11" fill="#0891b2">siphash24</text>
<polyline points="66.0,468.0 124.5,452.6 158.7,435.2 183.0,421.5 201.8,411.2 217.2,402.0 230.2,394.0 241.5,388.3 251.4,382.6 268.4,372.0 282.5,360.6 294.6,355.1 300.0,351.9 309.9,346.8 314.5,344.4 326.9,336.7 344.2,325.0 358.5,312.5 373.0,302.3 389.1,288.0 390.9,286.4 392.7,284.7 404.2,276.7 415.7,269.0 417.0,268.1 419.6,266.4 434.8,252.9 450.3,239.2 465.7,229.2 481.2,217.2 496.9,206.0 512.3,195.2 527.5,184.8 534.0,179.9 543.1,174.0 558.4,165.8 573.7,154.8 589.1,145.7 604.6,137.4 620.0,128.0 635.4,119.1 650.8,110.7 651.0,110.8 666.1,101.4 681.5,94.0 696.9,84.3 712.3,76.8 727.7,67.6 743.1,59.0 758.4,50.6 768.0,46.0" fill="none" stroke="#be185d" stroke-width="2"/>
<line x1="782.0" y1="156.0" x2="798.0" y2="156.0" stroke="#be185d" stroke-width="2"/>
<text x="802.0" y="160.0" font-size="11" fill="#be185d">fnv1a</text>
<polyline points="66.0,414.4 124.5,408.2 158.7,393.4 183.0,416.3 201.8,416.9 217.2,416.0 230.2,417.5 241.5,415.8 251.4,406.7 268.4,386.3 282.5,407.3 294.6,407.0 300.0,407.3 309.9,390.6 314.5,379.3 326.9,395.5 344.2,378.1 358.5,385.0 373.0,378.9 389.1,370.5 390.9,370.6 392.7,371.2 404.2,364.7 415.7,358.7 417.0,358.8 419.6,351.1 434.8,346.3 450.3,338.1 465.7,323.8 481.2,315.0 496.9,306.8 512.3,295.4 527.5,284.9 534.0,280.6 543.1,273.5 558.4,263.1 573.7,250.2 589.1,240.7 604.6,229.0 620.0,218.7 635.4,208.0 650.8,198.1 651.0,197.7 666.1,188.4 681.5,179.5 696.9,169.6 712.3,161.6 727.7,152.9 743.1,144.1 758.4,135.5 768.0,129.8" fill="none" stroke="#4b5563" stroke-width="2"/>
<line x1="782.0" y1="173.0" x2="798.0" y2="173.0" stroke="#4b5563" stroke-width="2"/>
<text x="802.0" y="177.0" font-size="11" fill="#4b5563">dumbo</text>
</svg>
