<svg xmlns="http://www.w3.org/2000/svg" width="900" height="520" font-family="sans-serif">
<rect width="900" height="520" fill="white"/>
<text x="450" y="26" font-size="15" font-weight="bold" text-anchor="middle">mbo/hash - 128-bit one-shot throughput</text>
<line x1="66" y1="357.7" x2="768.0" y2="357.7" stroke="#eee"/>
<text x="60" y="360.7" font-size="10" text-anchor="end">10</text>
<line x1="66" y1="188.6" x2="768.0" y2="188.6" stroke="#eee"/>
<text x="60" y="191.6" font-size="10" text-anchor="end">100</text>
<line x1="66.0" y1="46" x2="66.0" y2="468.0" stroke="#f3f4f6"/>
<text x="66.0" y="484.0" font-size="10" text-anchor="middle">1B</text>
<line x1="124.5" y1="46" x2="124.5" y2="468.0" stroke="#f3f4f6"/>
<line x1="183.0" y1="46" x2="183.0" y2="468.0" stroke="#f3f4f6"/>
<text x="183.0" y="484.0" font-size="10" text-anchor="middle">4B</text>
<line x1="241.5" y1="46" x2="241.5" y2="468.0" stroke="#f3f4f6"/>
<line x1="300.0" y1="46" x2="300.0" y2="468.0" stroke="#f3f4f6"/>
<text x="300.0" y="484.0" font-size="10" text-anchor="middle">16B</text>
<line x1="358.5" y1="46" x2="358.5" y2="468.0" stroke="#f3f4f6"/>
<line x1="417.0" y1="46" x2="417.0" y2="468.0" stroke="#f3f4f6"/>
<text x="417.0" y="484.0" font-size="10" text-anchor="middle">64B</text>
<line x1="475.5" y1="46" x2="475.5" y2="468.0" stroke="#f3f4f6"/>
<line x1="534.0" y1="46" x2="534.0" y2="468.0" stroke="#f3f4f6"/>
<text x="534.0" y="484.0" font-size="10" text-anchor="middle">256B</text>
<line x1="592.5" y1="46" x2="592.5" y2="468.0" stroke="#f3f4f6"/>
<line x1="651.0" y1="46" x2="651.0" y2="468.0" stroke="#f3f4f6"/>
<text x="651.0" y="484.0" font-size="10" text-anchor="middle">1Ki</text>
<line x1="709.5" y1="46" x2="709.5" y2="468.0" stroke="#f3f4f6"/>
<line x1="768.0" y1="46" x2="768.0" y2="468.0" stroke="#f3f4f6"/>
<text x="768.0" y="484.0" font-size="10" text-anchor="middle">4Ki</text>
<text x="417" y="508" font-size="12" text-anchor="middle">key length (log scale)</text>
<text x="18" y="257" font-size="12" transform="rotate(-90 18 257)" text-anchor="middle">ns / op (log scale)</text>
<polyline points="66.0,443.0 124.5,442.9 158.7,438.9 183.0,445.0 201.8,445.1 217.2,445.3 230.2,445.1 241.5,447.1 251.4,447.9 268.4,447.8 282.5,447.5 294.6,447.8 300.0,447.4 309.9,428.5 314.5,428.5 326.9,428.5 344.2,428.3 358.5,428.5 373.0,417.3 389.1,417.4 390.9,417.3 392.7,417.5 404.2,404.5 415.7,404.5 417.0,393.2 419.6,393.1 434.8,393.0 450.3,384.8 465.7,367.4 481.2,378.3 496.9,362.2 512.3,365.4 527.5,351.4 534.0,353.7 543.1,347.3 558.4,337.1 573.7,328.3 589.1,316.9 604.6,310.9 620.0,298.2 635.4,283.5 650.8,269.2 651.0,273.1 666.1,261.1 681.5,245.7 696.9,233.6 712.3,221.6 727.7,207.9 743.1,194.8 758.4,181.8 768.0,173.2" fill="none" stroke="#2563eb" stroke-width="2"/>
<line x1="782.0" y1="54.0" x2="798.0" y2="54.0" stroke="#2563eb" stroke-width="2"/>
<text x="802.0" y="58.0" font-size="11" fill="#2563eb">jumbo</text>
<polyline points="66.0,463.7 124.5,465.4 158.7,464.8 183.0,468.0 201.8,468.0 217.2,468.0 230.2,467.9 241.5,467.9 251.4,454.5 268.4,454.4 282.5,454.5 294.6,454.7 300.0,454.6 309.9,434.5 314.5,435.1 326.9,434.8 344.2,435.6 358.5,436.0 373.0,408.7 389.1,408.7 390.9,408.7 392.7,408.6 404.2,408.7 415.7,408.7 417.0,408.7 419.6,389.0 434.8,389.3 450.3,389.4 465.7,373.9 481.2,358.6 496.9,349.0 512.3,341.6 527.5,333.7 534.0,282.1 543.1,276.9 558.4,257.0 573.7,252.6 589.1,250.1 604.6,242.9 620.0,236.5 635.4,230.7 650.8,225.3 651.0,225.4 666.1,211.0 681.5,203.9 696.9,194.1 712.3,184.2 727.7,174.6 743.1,164.3 758.4,152.3 768.0,146.4" fill="none" stroke="#dc2626" stroke-width="2"/>
<line x1="782.0" y1="71.0" x2="798.0" y2="71.0" stroke="#dc2626" stroke-width="2"/>
<text x="802.0" y="75.0" font-size="11" fill="#dc2626">xxh3</text>
<polyline points="66.0,452.6 124.5,448.4 158.7,446.3 183.0,444.1 201.8,445.2 217.2,444.9 230.2,445.9 241.5,444.9 251.4,439.1 268.4,434.1 282.5,432.9 294.6,432.4 300.0,425.2 309.9,418.3 314.5,415.0 326.9,414.9 344.2,407.9 358.5,402.8 373.0,395.9 389.1,390.8 390.9,390.1 392.7,383.0 404.2,378.7 415.7,373.3 417.0,367.9 419.6,365.7 434.8,359.1 450.3,347.1 465.7,329.5 481.2,319.4 496.9,305.1 512.3,291.0 527.5,277.4 534.0,268.6 543.1,261.8 558.4,244.5 573.7,229.2 589.1,214.9 604.6,198.6 620.0,182.0 635.4,166.8 650.8,152.5 651.0,152.3 666.1,139.4 681.5,125.2 696.9,111.3 712.3,95.1 727.7,82.8 743.1,67.7 758.4,56.3 768.0,46.0" fill="none" stroke="#059669" stroke-width="2"/>
<line x1="782.0" y1="88.0" x2="798.0" y2="88.0" stroke="#059669" stroke-width="2"/>
<text x="802.0" y="92.0" font-size="11" fill="#059669">murmur3</text>
</svg>
