<svg xmlns="http://www.w3.org/2000/svg" width="900" height="520" font-family="sans-serif">
<rect width="900" height="520" fill="white"/>
<text x="450" y="26" font-size="15" font-weight="bold" text-anchor="middle">mbo/hash - 64-bit one-shot throughput</text>
<line x1="66" y1="435.6" x2="768.0" y2="435.6" stroke="#eee"/>
<text x="60" y="438.6" font-size="10" text-anchor="end">1</text>
<line x1="66" y1="331.1" x2="768.0" y2="331.1" stroke="#eee"/>
<text x="60" y="334.1" font-size="10" text-anchor="end">10</text>
<line x1="66" y1="226.5" x2="768.0" y2="226.5" stroke="#eee"/>
<text x="60" y="229.5" font-size="10" text-anchor="end">100</text>
<line x1="66" y1="122.0" x2="768.0" y2="122.0" stroke="#eee"/>
<text x="60" y="125.0" font-size="10" text-anchor="end">1000</text>
<line x1="66.0" y1="46" x2="66.0" y2="468.0" stroke="#f3f4f6"/>
<text x="66.0" y="484.0" font-size="10" text-anchor="middle">1B</text>
<line x1="124.5" y1="46" x2="124.5" y2="468.0" stroke="#f3f4f6"/>
<line x1="183.0" y1="46" x2="183.0" y2="468.0" stroke="#f3f4f6"/>
<text x="183.0" y="484.0" font-size="10" text-anchor="middle">4B</text>
<line x1="241.5" y1="46" x2="241.5" y2="468.0" stroke="#f3f4f6"/>
<line x1="300.0" y1="46" x2="300.0" y2="468.0" stroke="#f3f4f6"/>
<text x="300.0" y="484.0" font-size="10" text-anchor="middle">16B</text>
<line x1="358.5" y1="46" x2="358.5" y2="468.0" stroke="#f3f4f6"/>
<line x1="417.0" y1="46" x2="417.0" y2="468.0" stroke="#f3f4f6"/>
<text x="417.0" y="484.0" font-size="10" text-anchor="middle">64B</text>
<line x1="475.5" y1="46" x2="475.5" y2="468.0" stroke="#f3f4f6"/>
<line x1="534.0" y1="46" x2="534.0" y2="468.0" stroke="#f3f4f6"/>
<text x="534.0" y="484.0" font-size="10" text-anchor="middle">256B</text>
<line x1="592.5" y1="46" x2="592.5" y2="468.0" stroke="#f3f4f6"/>
<line x1="651.0" y1="46" x2="651.0" y2="468.0" stroke="#f3f4f6"/>
<text x="651.0" y="484.0" font-size="10" text-anchor="middle">1Ki</text>
<line x1="709.5" y1="46" x2="709.5" y2="468.0" stroke="#f3f4f6"/>
<line x1="768.0" y1="46" x2="768.0" y2="468.0" stroke="#f3f4f6"/>
<text x="768.0" y="484.0" font-size="10" text-anchor="middle">4Ki</text>
<text x="417" y="508" font-size="12" text-anchor="middle">key length (log scale)</text>
<text x="18" y="257" font-size="12" transform="rotate(-90 18 257)" text-anchor="middle">ns / op (log scale)</text>
<polyline points="66.0,399.5 124.5,396.9 158.7,396.7 183.0,398.2 201.8,394.6 217.2,396.2 230.2,396.0 241.5,402.9 251.4,404.3 268.4,404.4 282.5,404.9 294.6,405.0 300.0,404.1 309.9,395.1 314.5,395.0 326.9,395.1 344.2,395.2 358.5,395.2 373.0,388.4 389.1,388.7 390.9,387.9 392.7,388.2 404.2,380.9 415.7,380.5 417.0,380.7 419.6,373.2 434.8,373.4 450.3,366.6 465.7,353.3 481.2,350.2 496.9,344.9 512.3,337.7 527.5,329.9 534.0,337.5 543.1,335.1 558.4,323.5 573.7,324.0 589.1,311.8 604.6,309.2 620.0,302.3 635.4,293.3 650.8,283.8 651.0,291.8 666.1,281.0 681.5,275.3 696.9,264.9 712.3,259.0 727.7,250.4 743.1,242.5 758.4,236.6 768.0,235.2" fill="none" stroke="#2563eb" stroke-width="2"/>
<line x1="782.0" y1="54.0" x2="798.0" y2="54.0" stroke="#2563eb" stroke-width="2"/>
<text x="802.0" y="58.0" font-size="11" fill="#2563eb">mumbo</text>
<polyline points="66.0,405.4 124.5,405.1 158.7,405.1 183.0,410.4 201.8,410.5 217.2,410.4 230.2,410.5 241.5,411.5 251.4,412.1 268.4,411.4 282.5,411.4 294.6,411.8 300.0,411.4 309.9,404.9 314.5,404.2 326.9,403.8 344.2,404.1 358.5,405.3 373.0,395.5 389.1,395.4 390.9,395.6 392.7,395.4 404.2,388.0 415.7,387.8 417.0,387.8 419.6,379.8 434.8,379.9 450.3,372.7 465.7,363.8 481.2,360.7 496.9,352.2 512.3,343.5 527.5,347.2 534.0,343.9 543.1,339.0 558.4,334.4 573.7,325.9 589.1,320.9 604.6,315.2 620.0,307.2 635.4,298.1 650.8,294.3 651.0,294.2 666.1,279.9 681.5,279.5 696.9,267.1 712.3,258.4 727.7,253.8 743.1,248.0 758.4,238.4 768.0,234.2" fill="none" stroke="#dc2626" stroke-width="2"/>
<line x1="782.0" y1="71.0" x2="798.0" y2="71.0" stroke="#dc2626" stroke-width="2"/>
<text x="802.0" y="75.0" font-size="11" fill="#dc2626">rapidhash</text>
<polyline points="66.0,409.3 124.5,410.1 158.7,407.7 183.0,413.2 201.8,413.8 217.2,414.2 230.2,413.5 241.5,413.8 251.4,410.5 268.4,410.6 282.5,410.5 294.6,410.5 300.0,410.3 309.9,396.0 314.5,396.1 326.9,396.1 344.2,396.1 358.5,395.8 373.0,375.2 389.1,375.1 390.9,375.1 392.7,375.1 404.2,375.1 415.7,375.1 417.0,375.2 419.6,361.2 434.8,361.2 450.3,361.3 465.7,350.5 481.2,340.4 496.9,332.7 512.3,323.4 527.5,317.7 534.0,286.7 543.1,283.1 558.4,275.2 573.7,268.2 589.1,266.3 604.6,261.9 620.0,258.0 635.4,253.7 650.8,250.9 651.0,250.9 666.1,241.5 681.5,237.0 696.9,231.0 712.3,224.3 727.7,217.7 743.1,211.8 758.4,204.7 768.0,200.9" fill="none" stroke="#059669" stroke-width="2"/>
<line x1="782.0" y1="88.0" x2="798.0" y2="88.0" stroke="#059669" stroke-width="2"/>
<text x="802.0" y="92.0" font-size="11" fill="#059669">xxh3</text>
<polyline points="66.0,406.4 124.5,398.7 158.7,390.8 183.0,404.5 201.8,401.3 217.2,394.0 230.2,387.5 241.5,398.1 251.4,394.3 268.4,382.6 282.5,388.6 294.6,376.4 300.0,390.5 309.9,379.3 314.5,373.1 326.9,372.3 344.2,366.2 358.5,361.9 373.0,348.3 389.1,342.0 390.9,338.2 392.7,349.1 404.2,334.0 415.7,329.6 417.0,349.0 419.6,342.3 434.8,330.4 450.3,322.0 465.7,326.0 481.2,324.8 496.9,321.4 512.3,312.0 527.5,307.0 534.0,309.3 543.1,298.3 558.4,291.7 573.7,284.6 589.1,280.9 604.6,270.6 620.0,266.6 635.4,257.2 650.8,249.6 651.0,253.4 666.1,244.4 681.5,233.0 696.9,228.4 712.3,219.0 727.7,211.2 743.1,202.2 758.4,193.9 768.0,188.8" fill="none" stroke="#d97706" stroke-width="2"/>
<line x1="782.0" y1="105.0" x2="798.0" y2="105.0" stroke="#d97706" stroke-width="2"/>
<text x="802.0" y="109.0" font-size="11" fill="#d97706">xxh64</text>
<polyline points="66.0,389.8 124.5,386.9 158.7,385.8 183.0,385.1 201.8,386.9 217.2,386.5 230.2,386.5 241.5,385.6 251.4,381.9 268.4,378.4 282.5,378.0 294.6,377.3 300.0,373.1 309.9,367.5 314.5,367.5 326.9,366.9 344.2,361.5 358.5,358.6 373.0,353.9 389.1,350.1 390.9,350.5 392.7,347.4 404.2,344.3 415.7,341.1 417.0,336.0 419.6,335.3 434.8,332.2 450.3,324.2 465.7,314.5 481.2,306.9 496.9,297.7 512.3,289.7 527.5,281.3 534.0,275.8 543.1,272.1 558.4,261.1 573.7,251.4 589.1,241.9 604.6,232.4 620.0,222.3 635.4,212.8 650.8,204.0 651.0,203.6 666.1,195.6 681.5,186.3 696.9,177.6 712.3,168.7 727.7,160.5 743.1,151.8 758.4,143.2 768.0,137.7" fill="none" stroke="#7c3aed" stroke-width="2"/>
<line x1="782.0" y1="122.0" x2="798.0" y2="122.0" stroke="#7c3aed" stroke-width="2"/>
<text x="802.0" y="126.0" font-size="11" fill="#7c3aed">murmur3</text>
<polyline points="66.0,350.2 124.5,350.0 158.7,349.7 183.0,347.9 201.8,348.7 217.2,348.4 230.2,348.5 241.5,334.7 251.4,334.7 268.4,334.2 282.5,334.2 294.6,334.3 300.0,322.2 309.9,321.8 314.5,321.6 326.9,321.6 344.2,311.6 358.5,303.2 373.0,303.3 389.1,295.7 390.9,295.6 392.7,289.2 404.2,288.4 415.7,283.3 417.0,278.1 419.6,278.0 434.8,273.1 450.3,264.9 465.7,254.3 481.2,245.8 496.9,238.6 512.3,230.5 527.5,222.2 534.0,217.7 543.1,214.1 558.4,205.5 573.7,196.8 589.1,188.5 604.6,180.8 620.0,172.3 635.4,163.9 650.8,155.7 651.0,155.3 666.1,147.2 681.5,139.5 696.9,130.8 712.3,122.5 727.7,114.4 743.1,105.8 758.4,97.7 768.0,92.5" fill="none" stroke="#0891b2" stroke-width="2"/>
<line x1="782.0" y1="139.0" x2="798.0" y2="139.0" stroke="#0891b2" stroke-width="2"/>
<text x="802.0" y="143.0" font-size="11" fill="#0891b2">siphash24</text>
<polyline points="66.0,468.0 124.5,451.7 158.7,433.7 183.0,420.9 201.8,408.5 217.2,398.9 230.2,391.7 241.5,386.0 251.4,381.5 268.4,371.5 282.5,359.9 294.6,353.4 300.0,350.5 309.9,346.7 314.5,343.5 326.9,335.6 344.2,324.1 358.5,311.3 373.0,301.2 389.1,286.9 390.9,283.9 392.7,283.6 404.2,275.5 415.7,267.8 417.0,266.9 419.6,265.2 434.8,251.8 450.3,237.8 465.7,227.5 481.2,215.4 496.9,204.5 512.3,193.9 527.5,183.3 534.0,178.4 543.1,173.3 558.4,163.5 573.7,153.2 589.1,144.6 604.6,136.1 620.0,126.4 635.4,117.7 650.8,108.3 651.0,109.0 666.1,99.7 681.5,91.3 696.9,83.2 712.3,74.0 727.7,65.9 743.1,57.4 758.4,49.7 768.0,46.0" fill="none" stroke="#be185d" stroke-width="2"/>
<line x1="782.0" y1="156.0" x2="798.0" y2="156.0" stroke="#be185d" stroke-width="2"/>
<text x="802.0" y="160.0" font-size="11" fill="#be185d">fnv1a</text>
<polyline points="66.0,413.9 124.5,406.2 158.7,391.5 183.0,415.3 201.8,416.6 217.2,412.4 230.2,413.0 241.5,416.1 251.4,405.9 268.4,382.8 282.5,406.6 294.6,406.8 300.0,406.5 309.9,390.9 314.5,377.9 326.9,393.3 344.2,374.9 358.5,383.5 373.0,377.4 389.1,368.6 390.9,368.3 392.7,369.7 404.2,361.4 415.7,356.8 417.0,356.9 419.6,349.4 434.8,345.2 450.3,336.0 465.7,321.9 481.2,313.8 496.9,304.5 512.3,293.6 527.5,283.1 534.0,279.1 543.1,271.9 558.4,261.2 573.7,248.7 589.1,239.1 604.6,227.5 620.0,217.1 635.4,206.1 650.8,196.5 651.0,196.4 666.1,186.5 681.5,177.3 696.9,168.1 712.3,159.6 727.7,151.7 743.1,142.3 758.4,133.1 768.0,127.7" fill="none" stroke="#4b5563" stroke-width="2"/>
<line x1="782.0" y1="173.0" x2="798.0" y2="173.0" stroke="#4b5563" stroke-width="2"/>
<text x="802.0" y="177.0" font-size="11" fill="#4b5563">dumbo</text>
</svg>
