<svg xmlns="http://www.w3.org/2000/svg" width="900" height="520" font-family="sans-serif">
<rect width="900" height="520" fill="white"/>
<text x="450" y="26" font-size="15" font-weight="bold" text-anchor="middle">mbo/hash - 128-bit one-shot throughput</text>
<line x1="66" y1="357.3" x2="768.0" y2="357.3" stroke="#eee"/>
<text x="60" y="360.3" font-size="10" text-anchor="end">10</text>
<line x1="66" y1="189.0" x2="768.0" y2="189.0" stroke="#eee"/>
<text x="60" y="192.0" font-size="10" text-anchor="end">100</text>
<line x1="66.0" y1="46" x2="66.0" y2="468.0" stroke="#f3f4f6"/>
<text x="66.0" y="484.0" font-size="10" text-anchor="middle">1B</text>
<line x1="124.5" y1="46" x2="124.5" y2="468.0" stroke="#f3f4f6"/>
<line x1="183.0" y1="46" x2="183.0" y2="468.0" stroke="#f3f4f6"/>
<text x="183.0" y="484.0" font-size="10" text-anchor="middle">4B</text>
<line x1="241.5" y1="46" x2="241.5" y2="468.0" stroke="#f3f4f6"/>
<line x1="300.0" y1="46" x2="300.0" y2="468.0" stroke="#f3f4f6"/>
<text x="300.0" y="484.0" font-size="10" text-anchor="middle">16B</text>
<line x1="358.5" y1="46" x2="358.5" y2="468.0" stroke="#f3f4f6"/>
<line x1="417.0" y1="46" x2="417.0" y2="468.0" stroke="#f3f4f6"/>
<text x="417.0" y="484.0" font-size="10" text-anchor="middle">64B</text>
<line x1="475.5" y1="46" x2="475.5" y2="468.0" stroke="#f3f4f6"/>
<line x1="534.0" y1="46" x2="534.0" y2="468.0" stroke="#f3f4f6"/>
<text x="534.0" y="484.0" font-size="10" text-anchor="middle">256B</text>
<line x1="592.5" y1="46" x2="592.5" y2="468.0" stroke="#f3f4f6"/>
<line x1="651.0" y1="46" x2="651.0" y2="468.0" stroke="#f3f4f6"/>
<text x="651.0" y="484.0" font-size="10" text-anchor="middle">1Ki</text>
<line x1="709.5" y1="46" x2="709.5" y2="468.0" stroke="#f3f4f6"/>
<line x1="768.0" y1="46" x2="768.0" y2="468.0" stroke="#f3f4f6"/>
<text x="768.0" y="484.0" font-size="10" text-anchor="middle">4Ki</text>
<text x="417" y="508" font-size="12" text-anchor="middle">key length (log scale)</text>
<text x="18" y="257" font-size="12" transform="rotate(-90 18 257)" text-anchor="middle">ns / op (log scale)</text>
<polyline points="66.0,442.4 124.5,442.1 158.7,438.4 183.0,442.2 201.8,442.6 217.2,444.2 230.2,443.5 241.5,447.0 251.4,447.0 268.4,446.3 282.5,446.7 294.6,446.6 300.0,446.9 309.9,427.8 314.5,427.7 326.9,427.6 344.2,427.6 358.5,427.6 373.0,416.6 389.1,417.0 390.9,416.6 392.7,416.6 404.2,403.6 415.7,403.8 417.0,392.6 419.6,392.6 434.8,392.6 450.3,384.4 465.7,367.2 481.2,378.7 496.9,362.0 512.3,365.0 527.5,351.0 534.0,353.2 543.1,346.8 558.4,336.8 573.7,328.0 589.1,316.8 604.6,310.9 620.0,298.1 635.4,283.4 650.8,269.5 651.0,273.1 666.1,261.2 681.5,245.7 696.9,233.8 712.3,221.8 727.7,207.9 743.1,195.0 758.4,182.1 768.0,173.7" fill="none" stroke="#2563eb" stroke-width="2"/>
<line x1="782.0" y1="54.0" x2="798.0" y2="54.0" stroke="#2563eb" stroke-width="2"/>
<text x="802.0" y="58.0" font-size="11" fill="#2563eb">jumbo</text>
<polyline points="66.0,464.9 124.5,466.5 158.7,464.2 183.0,467.4 201.8,467.5 217.2,467.3 230.2,468.0 241.5,467.5 251.4,454.2 268.4,454.0 282.5,454.1 294.6,454.3 300.0,454.0 309.9,434.0 314.5,433.4 326.9,434.3 344.2,433.9 358.5,435.2 373.0,408.0 389.1,407.6 390.9,407.9 392.7,407.9 404.2,408.0 415.7,407.9 417.0,407.9 419.6,388.8 434.8,388.6 450.3,388.5 465.7,373.0 481.2,358.2 496.9,348.8 512.3,341.0 527.5,333.4 534.0,282.0 543.1,276.9 558.4,256.4 573.7,252.3 589.1,249.9 604.6,242.9 620.0,236.5 635.4,227.7 650.8,225.6 651.0,225.6 666.1,211.3 681.5,204.2 696.9,194.5 712.3,184.4 727.7,175.0 743.1,164.5 758.4,152.8 768.0,147.0" fill="none" stroke="#dc2626" stroke-width="2"/>
<line x1="782.0" y1="71.0" x2="798.0" y2="71.0" stroke="#dc2626" stroke-width="2"/>
<text x="802.0" y="75.0" font-size="11" fill="#dc2626">xxh3</text>
<polyline points="66.0,452.0 124.5,448.0 158.7,445.7 183.0,445.8 201.8,446.4 217.2,445.8 230.2,446.3 241.5,444.8 251.4,438.7 268.4,433.8 282.5,432.7 294.6,433.2 300.0,425.4 309.9,416.3 314.5,414.7 326.9,415.6 344.2,406.2 358.5,401.8 373.0,394.3 389.1,387.7 390.9,387.9 392.7,383.7 404.2,378.5 415.7,372.9 417.0,365.5 419.6,362.6 434.8,359.7 450.3,347.1 465.7,328.9 481.2,319.1 496.9,305.1 512.3,290.9 527.5,277.7 534.0,268.4 543.1,261.8 558.4,244.7 573.7,229.4 589.1,213.7 604.6,198.4 620.0,182.1 635.4,167.7 650.8,153.2 651.0,153.8 666.1,142.1 681.5,124.4 696.9,109.9 712.3,95.7 727.7,82.1 743.1,68.2 758.4,54.5 768.0,46.0" fill="none" stroke="#059669" stroke-width="2"/>
<line x1="782.0" y1="88.0" x2="798.0" y2="88.0" stroke="#059669" stroke-width="2"/>
<text x="802.0" y="92.0" font-size="11" fill="#059669">murmur3</text>
</svg>
