<svg xmlns="http://www.w3.org/2000/svg" width="900" height="536" font-family="sans-serif">
<rect width="900" height="536" fill="white"/>
<text x="450" y="24" font-size="15" font-weight="bold" text-anchor="middle">mbo/hash - mixed-length latency</text>
<text x="450" y="44" font-size="12" fill="#6b7280" text-anchor="middle">AMD Ryzen 9 9950X 16-Core Processor · Linux · x86_64 · 10-core · gcc-15 · cc23c11a</text>
<line x1="66" y1="421.7" x2="768.0" y2="421.7" stroke="#eee"/>
<text x="60" y="424.7" font-size="10" text-anchor="end">1</text>
<line x1="66" y1="312.2" x2="768.0" y2="312.2" stroke="#eee"/>
<text x="60" y="315.2" font-size="10" text-anchor="end">10</text>
<line x1="66" y1="202.7" x2="768.0" y2="202.7" stroke="#eee"/>
<text x="60" y="205.7" font-size="10" text-anchor="end">100</text>
<line x1="66" y1="93.2" x2="768.0" y2="93.2" stroke="#eee"/>
<text x="60" y="96.2" font-size="10" text-anchor="end">1000</text>
<line x1="66.0" y1="62" x2="66.0" y2="484.0" stroke="#f3f4f6"/>
<text x="66.0" y="500.0" font-size="10" text-anchor="middle">1 B</text>
<line x1="124.5" y1="62" x2="124.5" y2="484.0" stroke="#f3f4f6"/>
<line x1="183.0" y1="62" x2="183.0" y2="484.0" stroke="#f3f4f6"/>
<text x="183.0" y="500.0" font-size="10" text-anchor="middle">4 B</text>
<line x1="241.5" y1="62" x2="241.5" y2="484.0" stroke="#f3f4f6"/>
<line x1="300.0" y1="62" x2="300.0" y2="484.0" stroke="#f3f4f6"/>
<text x="300.0" y="500.0" font-size="10" text-anchor="middle">16 B</text>
<line x1="358.5" y1="62" x2="358.5" y2="484.0" stroke="#f3f4f6"/>
<line x1="417.0" y1="62" x2="417.0" y2="484.0" stroke="#f3f4f6"/>
<text x="417.0" y="500.0" font-size="10" text-anchor="middle">64 B</text>
<line x1="475.5" y1="62" x2="475.5" y2="484.0" stroke="#f3f4f6"/>
<line x1="534.0" y1="62" x2="534.0" y2="484.0" stroke="#f3f4f6"/>
<text x="534.0" y="500.0" font-size="10" text-anchor="middle">256 B</text>
<line x1="592.5" y1="62" x2="592.5" y2="484.0" stroke="#f3f4f6"/>
<line x1="651.0" y1="62" x2="651.0" y2="484.0" stroke="#f3f4f6"/>
<text x="651.0" y="500.0" font-size="10" text-anchor="middle">1 KiB</text>
<line x1="709.5" y1="62" x2="709.5" y2="484.0" stroke="#f3f4f6"/>
<line x1="768.0" y1="62" x2="768.0" y2="484.0" stroke="#f3f4f6"/>
<text x="768.0" y="500.0" font-size="10" text-anchor="middle">4 KiB</text>
<text x="417" y="524" font-size="12" text-anchor="middle">key length (log scale)</text>
<text x="18" y="273" font-size="12" transform="rotate(-90 18 273)" text-anchor="middle">ns / op (log scale)</text>
<polyline points="66.0,360.4 124.5,375.6 158.7,350.2 183.0,353.5 201.8,354.4 217.2,353.0 230.2,352.6 241.5,363.1 251.4,355.1 268.4,352.9 275.7,352.1 282.5,353.3 294.6,353.1 300.0,352.6 309.9,348.1 314.5,351.4 326.9,350.7 330.6,351.0 334.2,349.7 337.7,349.7 344.2,347.0 350.2,357.2 355.8,350.5 358.5,349.3 373.0,348.9 377.3,343.0 389.1,343.3 390.9,339.1 392.7,344.3 394.5,343.8 404.2,342.2 415.7,338.2 417.0,343.4 419.6,339.1 426.9,335.0 434.8,331.5 435.8,335.6 450.3,320.9 460.4,329.3 465.7,325.5 474.8,327.5 475.5,321.7 481.2,322.2 496.9,317.2 512.3,317.7 527.5,308.5 534.0,335.4 543.1,303.9 558.4,298.5 573.7,296.6 589.1,293.0 604.6,289.3 620.0,281.9 635.4,281.5 650.8,262.3 651.0,274.4 666.1,268.4 681.5,249.0 696.9,244.7 712.3,236.1 727.7,228.8 743.1,224.4 758.4,223.4 768.0,213.8" fill="none" stroke="#2563eb" stroke-width="2"/>
<line x1="782.0" y1="70.0" x2="798.0" y2="70.0" stroke="#2563eb" stroke-width="2"/>
<text x="802.0" y="74.0" font-size="11" fill="#2563eb">mumbo</text>
<polyline points="66.0,375.8 124.5,375.8 158.7,357.1 183.0,356.1 201.8,375.7 217.2,375.7 230.2,356.8 241.5,353.8 251.4,358.6 268.4,352.1 275.7,355.5 282.5,352.4 294.6,353.9 300.0,354.6 309.9,349.9 314.5,352.7 326.9,352.0 330.6,349.7 334.2,350.5 337.7,353.6 344.2,349.3 350.2,348.8 355.8,348.1 358.5,343.7 373.0,347.0 377.3,347.3 389.1,343.7 390.9,348.6 392.7,340.8 394.5,340.9 404.2,349.3 415.7,334.5 417.0,340.8 419.6,341.2 426.9,337.4 434.8,334.1 435.8,336.4 450.3,332.1 460.4,329.7 465.7,333.5 474.8,328.4 475.5,329.5 481.2,328.5 496.9,323.0 512.3,322.4 527.5,318.3 534.0,321.8 543.1,315.3 558.4,316.5 573.7,308.3 589.1,308.5 604.6,303.8 620.0,298.7 635.4,292.5 650.8,290.4 651.0,312.7 666.1,285.8 681.5,281.6 696.9,276.8 712.3,285.1 727.7,263.5 743.1,250.4 758.4,260.8 768.0,244.7" fill="none" stroke="#dc2626" stroke-width="2"/>
<line x1="782.0" y1="87.0" x2="798.0" y2="87.0" stroke="#dc2626" stroke-width="2"/>
<text x="802.0" y="91.0" font-size="11" fill="#dc2626">rapidhash</text>
<polyline points="66.0,450.7 124.5,448.6 158.7,426.2 183.0,450.9 201.8,427.0 217.2,426.2 230.2,399.9 241.5,450.8 251.4,395.3 268.4,387.2 275.7,347.1 282.5,450.8 294.6,354.0 300.0,352.5 309.9,406.1 314.5,353.9 326.9,361.2 330.6,450.6 334.2,444.7 337.7,377.3 344.2,347.3 350.2,345.2 355.8,354.0 358.5,346.2 373.0,344.9 377.3,344.8 389.1,347.8 390.9,343.9 392.7,343.2 394.5,349.1 404.2,351.6 415.7,343.2 417.0,400.2 419.6,343.3 426.9,343.3 434.8,339.5 435.8,345.0 450.3,341.3 460.4,338.2 465.7,340.3 474.8,338.7 475.5,334.7 481.2,414.5 496.9,334.7 512.3,330.5 527.5,328.0 534.0,322.0 543.1,309.8 558.4,275.5 573.7,259.5 589.1,238.8 604.6,275.7 620.0,219.8 635.4,227.1 650.8,217.9 651.0,236.3 666.1,221.9 681.5,204.3 696.9,202.4 712.3,197.5 727.7,194.2 743.1,195.0 758.4,178.3 768.0,181.3" fill="none" stroke="#059669" stroke-width="2"/>
<line x1="782.0" y1="104.0" x2="798.0" y2="104.0" stroke="#059669" stroke-width="2"/>
<text x="802.0" y="108.0" font-size="11" fill="#059669">xxh3</text>
<polyline points="66.0,345.0 124.5,333.5 158.7,341.0 183.0,345.4 201.8,339.1 217.2,340.5 230.2,343.8 241.5,332.2 251.4,329.4 268.4,331.7 275.7,332.6 282.5,328.2 294.6,325.1 300.0,328.1 309.9,330.2 314.5,326.0 326.9,325.3 330.6,322.2 334.2,361.3 337.7,318.5 344.2,320.8 350.2,343.2 355.8,317.4 358.5,320.1 373.0,308.6 377.3,315.6 389.1,312.0 390.9,319.3 392.7,307.2 394.5,361.3 404.2,313.4 415.7,307.8 417.0,298.2 419.6,309.2 426.9,309.1 434.8,304.4 435.8,307.2 450.3,301.3 460.4,294.3 465.7,310.6 474.8,296.9 475.5,293.0 481.2,298.9 496.9,290.7 512.3,292.5 527.5,298.5 534.0,287.4 543.1,294.4 558.4,285.2 573.7,284.0 589.1,273.5 604.6,270.3 620.0,275.5 635.4,262.1 650.8,262.4 651.0,247.0 666.1,255.7 681.5,248.8 696.9,280.7 712.3,247.0 727.7,231.5 743.1,238.6 758.4,202.9 768.0,217.9" fill="none" stroke="#d97706" stroke-width="2"/>
<line x1="782.0" y1="121.0" x2="798.0" y2="121.0" stroke="#d97706" stroke-width="2"/>
<text x="802.0" y="125.0" font-size="11" fill="#d97706">xxh64</text>
<polyline points="66.0,354.4 124.5,354.3 158.7,333.4 183.0,341.2 201.8,333.6 217.2,354.4 230.2,329.3 241.5,329.7 251.4,333.4 268.4,327.1 275.7,331.3 282.5,354.3 294.6,329.6 300.0,331.5 309.9,327.3 314.5,327.7 326.9,330.0 330.6,326.1 334.2,326.8 337.7,326.0 344.2,326.4 350.2,326.4 355.8,325.5 358.5,327.4 373.0,324.9 377.3,324.3 389.1,323.0 390.9,325.8 392.7,323.2 394.5,323.1 404.2,317.1 415.7,320.0 417.0,321.6 419.6,319.6 426.9,317.2 434.8,316.9 435.8,316.1 450.3,312.3 460.4,314.5 465.7,312.6 474.8,308.6 475.5,308.0 481.2,305.0 496.9,304.4 512.3,299.7 527.5,297.5 534.0,288.7 543.1,288.1 558.4,298.7 573.7,278.5 589.1,269.6 604.6,265.9 620.0,248.1 635.4,252.9 650.8,239.5 651.0,241.8 666.1,243.0 681.5,219.9 696.9,216.9 712.3,211.8 727.7,207.0 743.1,192.1 758.4,186.4 768.0,181.2" fill="none" stroke="#7c3aed" stroke-width="2"/>
<line x1="782.0" y1="138.0" x2="798.0" y2="138.0" stroke="#7c3aed" stroke-width="2"/>
<text x="802.0" y="142.0" font-size="11" fill="#7c3aed">murmur3</text>
<polyline points="66.0,325.9 124.5,325.7 158.7,323.8 183.0,323.9 201.8,324.1 217.2,323.8 230.2,323.7 241.5,323.7 251.4,323.1 268.4,322.2 275.7,322.6 282.5,322.9 294.6,324.5 300.0,320.2 309.9,322.0 314.5,325.3 326.9,315.8 330.6,315.7 334.2,318.1 337.7,310.2 344.2,317.4 350.2,309.8 355.8,306.5 358.5,325.6 373.0,297.4 377.3,325.8 389.1,305.1 390.9,307.7 392.7,298.8 394.5,302.9 404.2,307.2 415.7,299.6 417.0,304.2 419.6,299.0 426.9,294.5 434.8,298.2 435.8,296.1 450.3,292.0 460.4,267.8 465.7,281.5 474.8,277.1 475.5,279.7 481.2,282.0 496.9,270.1 512.3,272.1 527.5,275.2 534.0,257.6 543.1,251.9 558.4,240.3 573.7,243.7 589.1,226.5 604.6,222.5 620.0,210.8 635.4,202.3 650.8,191.9 651.0,197.4 666.1,181.8 681.5,183.5 696.9,146.6 712.3,174.9 727.7,156.2 743.1,151.8 758.4,141.4 768.0,137.7" fill="none" stroke="#0891b2" stroke-width="2"/>
<line x1="782.0" y1="155.0" x2="798.0" y2="155.0" stroke="#0891b2" stroke-width="2"/>
<text x="802.0" y="159.0" font-size="11" fill="#0891b2">siphash24</text>
<polyline points="66.0,461.5 124.5,446.3 158.7,395.2 183.0,377.3 201.8,484.0 217.2,392.9 230.2,359.0 241.5,359.6 251.4,360.5 268.4,341.2 275.7,364.2 282.5,415.5 294.6,357.2 300.0,330.1 309.9,320.4 314.5,330.2 326.9,322.9 330.6,309.3 334.2,308.0 337.7,304.1 344.2,304.7 350.2,331.3 355.8,301.6 358.5,484.0 373.0,383.2 377.3,290.4 389.1,276.7 390.9,293.2 392.7,299.8 394.5,284.5 404.2,293.4 415.7,297.1 417.0,484.0 419.6,262.9 426.9,340.7 434.8,254.8 435.8,255.9 450.3,249.9 460.4,248.0 465.7,236.6 474.8,239.4 475.5,248.7 481.2,231.1 496.9,216.8 512.3,221.5 527.5,213.2 534.0,197.3 543.1,201.0 558.4,185.8 573.7,182.0 589.1,162.9 604.6,162.6 620.0,157.3 635.4,153.1 650.8,143.3 651.0,145.9 666.1,120.1 681.5,128.4 696.9,104.1 712.3,105.8 727.7,97.6 743.1,87.7 758.4,81.9 768.0,62.0" fill="none" stroke="#be185d" stroke-width="2"/>
<line x1="782.0" y1="172.0" x2="798.0" y2="172.0" stroke="#be185d" stroke-width="2"/>
<text x="802.0" y="176.0" font-size="11" fill="#be185d">fnv1a</text>
<polyline points="66.0,359.2 124.5,344.0 158.7,339.3 183.0,346.8 201.8,340.1 217.2,359.0 230.2,341.9 241.5,339.8 251.4,341.7 268.4,358.9 275.7,342.8 282.5,341.6 294.6,336.5 300.0,338.4 309.9,333.7 314.5,334.1 326.9,333.0 330.6,334.8 334.2,339.0 337.7,332.9 344.2,344.9 350.2,331.4 355.8,331.1 358.5,328.1 373.0,332.8 377.3,327.5 389.1,322.8 390.9,322.3 392.7,324.7 394.5,317.0 404.2,322.2 415.7,313.0 417.0,321.7 419.6,310.1 426.9,307.3 434.8,299.7 435.8,310.7 450.3,314.7 460.4,303.7 465.7,305.2 474.8,297.3 475.5,281.6 481.2,299.3 496.9,292.4 512.3,289.3 527.5,267.3 534.0,270.8 543.1,276.5 558.4,266.8 573.7,269.4 589.1,257.8 604.6,240.0 620.0,303.0 635.4,224.5 650.8,219.2 651.0,227.9 666.1,214.4 681.5,201.9 696.9,186.4 712.3,178.3 727.7,181.6 743.1,163.4 758.4,181.6 768.0,163.3" fill="none" stroke="#4b5563" stroke-width="2"/>
<line x1="782.0" y1="189.0" x2="798.0" y2="189.0" stroke="#4b5563" stroke-width="2"/>
<text x="802.0" y="193.0" font-size="11" fill="#4b5563">dumbo</text>
</svg>
