<svg xmlns="http://www.w3.org/2000/svg" width="900" height="536" font-family="sans-serif">
<rect width="900" height="536" fill="white"/>
<text x="450" y="24" font-size="15" font-weight="bold" text-anchor="middle">mbo/hash - 64-bit latency</text>
<text x="450" y="44" font-size="12" fill="#6b7280" text-anchor="middle">AMD Ryzen 9 9950X 16-Core Processor · Linux · x86_64 · 10-core · clang-22 · 29b54ccd</text>
<line x1="66" y1="471.8" x2="768.0" y2="471.8" stroke="#eee"/>
<text x="60" y="474.8" font-size="10" text-anchor="end">0.5</text>
<line x1="66" y1="439.0" x2="768.0" y2="439.0" stroke="#eee"/>
<text x="60" y="442.0" font-size="10" text-anchor="end">1</text>
<line x1="66" y1="406.2" x2="768.0" y2="406.2" stroke="#eee"/>
<text x="60" y="409.2" font-size="10" text-anchor="end">2</text>
<line x1="66" y1="362.8" x2="768.0" y2="362.8" stroke="#eee"/>
<text x="60" y="365.8" font-size="10" text-anchor="end">5</text>
<line x1="66" y1="330.0" x2="768.0" y2="330.0" stroke="#eee"/>
<text x="60" y="333.0" font-size="10" text-anchor="end">10</text>
<line x1="66" y1="297.2" x2="768.0" y2="297.2" stroke="#eee"/>
<text x="60" y="300.2" font-size="10" text-anchor="end">20</text>
<line x1="66" y1="253.9" x2="768.0" y2="253.9" stroke="#eee"/>
<text x="60" y="256.9" font-size="10" text-anchor="end">50</text>
<line x1="66" y1="221.1" x2="768.0" y2="221.1" stroke="#eee"/>
<text x="60" y="224.1" font-size="10" text-anchor="end">100</text>
<line x1="66" y1="188.3" x2="768.0" y2="188.3" stroke="#eee"/>
<text x="60" y="191.3" font-size="10" text-anchor="end">200</text>
<line x1="66" y1="144.9" x2="768.0" y2="144.9" stroke="#eee"/>
<text x="60" y="147.9" font-size="10" text-anchor="end">500</text>
<line x1="66" y1="112.1" x2="768.0" y2="112.1" stroke="#eee"/>
<text x="60" y="115.1" font-size="10" text-anchor="end">1000</text>
<line x1="66" y1="79.3" x2="768.0" y2="79.3" stroke="#eee"/>
<text x="60" y="82.3" font-size="10" text-anchor="end">2000</text>
<line x1="66.0" y1="62" x2="66.0" y2="484.0" stroke="#f3f4f6"/>
<text x="66.0" y="500.0" font-size="10" text-anchor="middle">1 B</text>
<line x1="124.5" y1="62" x2="124.5" y2="484.0" stroke="#f3f4f6"/>
<line x1="183.0" y1="62" x2="183.0" y2="484.0" stroke="#f3f4f6"/>
<text x="183.0" y="500.0" font-size="10" text-anchor="middle">4 B</text>
<line x1="241.5" y1="62" x2="241.5" y2="484.0" stroke="#f3f4f6"/>
<line x1="300.0" y1="62" x2="300.0" y2="484.0" stroke="#f3f4f6"/>
<text x="300.0" y="500.0" font-size="10" text-anchor="middle">16 B</text>
<line x1="358.5" y1="62" x2="358.5" y2="484.0" stroke="#f3f4f6"/>
<line x1="417.0" y1="62" x2="417.0" y2="484.0" stroke="#f3f4f6"/>
<text x="417.0" y="500.0" font-size="10" text-anchor="middle">64 B</text>
<line x1="475.5" y1="62" x2="475.5" y2="484.0" stroke="#f3f4f6"/>
<line x1="534.0" y1="62" x2="534.0" y2="484.0" stroke="#f3f4f6"/>
<text x="534.0" y="500.0" font-size="10" text-anchor="middle">256 B</text>
<line x1="592.5" y1="62" x2="592.5" y2="484.0" stroke="#f3f4f6"/>
<line x1="651.0" y1="62" x2="651.0" y2="484.0" stroke="#f3f4f6"/>
<text x="651.0" y="500.0" font-size="10" text-anchor="middle">1 KiB</text>
<line x1="709.5" y1="62" x2="709.5" y2="484.0" stroke="#f3f4f6"/>
<line x1="768.0" y1="62" x2="768.0" y2="484.0" stroke="#f3f4f6"/>
<text x="768.0" y="500.0" font-size="10" text-anchor="middle">4 KiB</text>
<text x="417" y="524" font-size="12" text-anchor="middle">key length (log scale)</text>
<text x="18" y="273" font-size="12" transform="rotate(-90 18 273)" text-anchor="middle">ns / op (log scale)</text>
<polyline points="66.0,425.5 124.5,421.6 158.7,420.8 183.0,427.2 201.8,427.2 217.2,427.3 230.2,426.9 241.5,427.2 251.4,428.7 268.4,428.6 275.7,428.7 282.5,428.6 294.6,428.6 300.0,428.6 309.9,412.4 314.5,412.5 326.9,412.4 330.6,412.3 334.2,412.3 337.7,412.3 344.2,412.2 350.2,412.3 355.8,412.4 358.5,412.3 373.0,403.6 377.3,403.7 389.1,403.6 390.9,403.7 392.7,403.6 394.5,396.2 404.2,396.2 415.7,396.2 417.0,396.1 419.6,389.4 426.9,389.4 434.8,388.9 435.8,389.4 450.3,381.3 460.4,374.9 465.7,365.2 474.8,364.4 475.5,359.2 481.2,359.2 496.9,350.5 512.3,342.2 527.5,335.6 534.0,336.1 543.1,333.0 558.4,322.4 573.7,315.2 589.1,303.0 604.6,295.9 620.0,287.0 635.4,280.3 650.8,270.6 651.0,269.6 666.1,260.4 681.5,250.6 696.9,242.0 712.3,232.7 727.7,223.4 743.1,214.0 758.4,205.1 768.0,198.8" fill="none" stroke="#2563eb" stroke-width="2"/>
<line x1="782.0" y1="70.0" x2="798.0" y2="70.0" stroke="#2563eb" stroke-width="2"/>
<text x="802.0" y="74.0" font-size="11" fill="#2563eb">mumbo</text>
<polyline points="66.0,420.3 124.5,420.3 158.7,420.3 183.0,420.7 201.8,420.7 217.2,420.7 230.2,420.6 241.5,420.7 251.4,420.8 268.4,420.8 275.7,418.8 282.5,420.7 294.6,420.8 300.0,420.8 309.9,415.0 314.5,415.1 326.9,415.0 330.6,415.0 334.2,415.0 337.7,415.0 344.2,414.9 350.2,414.9 355.8,414.9 358.5,415.0 373.0,407.5 377.3,407.6 389.1,407.6 390.9,407.5 392.7,407.5 394.5,400.6 404.2,400.6 415.7,400.6 417.0,400.7 419.6,393.0 426.9,393.0 434.8,392.7 435.8,393.0 450.3,386.4 460.4,380.3 465.7,378.2 474.8,378.2 475.5,378.2 481.2,374.6 496.9,367.3 512.3,357.3 527.5,358.0 534.0,355.2 543.1,349.0 558.4,346.1 573.7,333.5 589.1,330.9 604.6,326.2 620.0,316.3 635.4,304.3 650.8,304.6 651.0,304.5 666.1,287.7 681.5,288.9 696.9,275.2 712.3,267.0 727.7,261.7 743.1,256.2 758.4,246.0 768.0,241.8" fill="none" stroke="#dc2626" stroke-width="2"/>
<line x1="782.0" y1="87.0" x2="798.0" y2="87.0" stroke="#dc2626" stroke-width="2"/>
<text x="802.0" y="91.0" font-size="11" fill="#dc2626">rapidhash</text>
<polyline points="66.0,413.8 124.5,413.8 158.7,413.8 183.0,415.4 201.8,415.4 217.2,415.4 230.2,415.4 241.5,415.4 251.4,418.2 268.4,418.3 275.7,418.3 282.5,418.2 294.6,418.2 300.0,418.3 309.9,408.2 314.5,408.2 326.9,408.2 330.6,408.1 334.2,408.2 337.7,408.1 344.2,408.1 350.2,408.2 355.8,408.1 358.5,408.2 373.0,389.9 377.3,389.9 389.1,389.8 390.9,389.9 392.7,389.9 394.5,390.0 404.2,389.9 415.7,389.9 417.0,390.0 419.6,377.0 426.9,376.9 434.8,376.9 435.8,377.0 450.3,376.3 460.4,366.9 465.7,366.8 474.8,366.4 475.5,366.9 481.2,357.0 496.9,345.7 512.3,340.1 527.5,336.0 534.0,280.1 543.1,280.0 558.4,280.0 573.7,280.0 589.1,280.0 604.6,263.6 620.0,263.6 635.4,263.5 650.8,263.6 651.0,263.7 666.1,245.7 681.5,245.6 696.9,237.0 712.3,228.3 727.7,228.3 743.1,222.1 758.4,210.8 768.0,210.8" fill="none" stroke="#059669" stroke-width="2"/>
<line x1="782.0" y1="104.0" x2="798.0" y2="104.0" stroke="#059669" stroke-width="2"/>
<text x="802.0" y="108.0" font-size="11" fill="#059669">xxh3</text>
<polyline points="66.0,405.9 124.5,401.8 158.7,396.9 183.0,406.2 201.8,394.9 217.2,391.6 230.2,388.5 241.5,401.9 251.4,394.4 268.4,383.2 275.7,396.7 282.5,388.5 294.6,377.9 300.0,393.9 309.9,380.1 314.5,374.3 326.9,373.5 330.6,369.1 334.2,385.4 337.7,378.6 344.2,369.3 350.2,373.2 355.8,364.1 358.5,369.5 373.0,355.1 377.3,361.0 389.1,349.1 390.9,345.8 392.7,355.5 394.5,351.6 404.2,340.1 415.7,335.1 417.0,359.9 419.6,351.4 426.9,352.9 434.8,336.8 435.8,348.2 450.3,328.4 460.4,335.1 465.7,333.3 474.8,323.3 475.5,346.1 481.2,336.4 496.9,332.2 512.3,324.3 527.5,319.7 534.0,324.7 543.1,311.9 558.4,302.3 573.7,297.4 589.1,296.1 604.6,284.8 620.0,282.6 635.4,272.0 650.8,265.0 651.0,270.9 666.1,260.5 681.5,250.1 696.9,245.8 712.3,237.7 727.7,229.0 743.1,221.3 758.4,212.6 768.0,208.3" fill="none" stroke="#d97706" stroke-width="2"/>
<line x1="782.0" y1="121.0" x2="798.0" y2="121.0" stroke="#d97706" stroke-width="2"/>
<text x="802.0" y="125.0" font-size="11" fill="#d97706">xxh64</text>
<polyline points="66.0,386.0 124.5,386.0 158.7,386.0 183.0,401.7 201.8,401.7 217.2,401.7 230.2,401.7 241.5,401.7 251.4,315.1 268.4,315.1 275.7,394.0 282.5,394.0 294.6,394.1 300.0,389.0 309.9,312.8 314.5,312.7 326.9,379.9 330.6,379.8 334.2,379.8 337.7,366.5 344.2,366.4 350.2,373.6 355.8,373.6 358.5,372.3 373.0,367.0 377.3,366.8 389.1,361.6 390.9,361.5 392.7,361.4 394.5,345.1 404.2,355.8 415.7,351.6 417.0,350.6 419.6,337.1 426.9,346.5 434.8,343.3 435.8,342.5 450.3,336.3 460.4,324.9 465.7,317.2 474.8,324.5 475.5,323.4 481.2,312.0 496.9,313.1 512.3,305.5 527.5,298.0 534.0,295.0 543.1,289.9 558.4,281.8 573.7,271.4 589.1,265.2 604.6,257.1 620.0,248.4 635.4,238.4 650.8,231.7 651.0,231.6 666.1,222.5 681.5,214.8 696.9,206.1 712.3,197.6 727.7,189.0 743.1,180.5 758.4,171.7 768.0,166.6" fill="none" stroke="#7c3aed" stroke-width="2"/>
<line x1="782.0" y1="138.0" x2="798.0" y2="138.0" stroke="#7c3aed" stroke-width="2"/>
<text x="802.0" y="142.0" font-size="11" fill="#7c3aed">murmur3</text>
<polyline points="66.0,340.9 124.5,340.9 158.7,340.9 183.0,362.3 201.8,362.3 217.2,362.3 230.2,362.3 241.5,354.0 251.4,327.1 268.4,327.0 275.7,353.1 282.5,353.1 294.6,353.1 300.0,342.2 309.9,325.8 314.5,325.8 326.9,342.2 330.6,342.2 334.2,334.0 337.7,324.0 344.2,324.0 350.2,333.6 355.8,333.6 358.5,325.8 373.0,325.7 377.3,319.9 389.1,319.6 390.9,319.6 392.7,313.6 394.5,306.8 404.2,313.5 415.7,308.9 417.0,303.9 419.6,299.3 426.9,300.2 434.8,299.9 435.8,295.8 450.3,292.5 460.4,282.6 465.7,279.8 474.8,280.3 475.5,277.7 481.2,272.7 496.9,268.6 512.3,260.9 527.5,252.9 534.0,248.6 543.1,244.7 558.4,236.7 573.7,227.1 589.1,220.0 604.6,211.8 620.0,203.1 635.4,193.9 650.8,186.4 651.0,186.0 666.1,177.3 681.5,169.4 696.9,160.8 712.3,152.3 727.7,143.4 743.1,134.9 758.4,126.1 768.0,121.0" fill="none" stroke="#0891b2" stroke-width="2"/>
<line x1="782.0" y1="155.0" x2="798.0" y2="155.0" stroke="#0891b2" stroke-width="2"/>
<text x="802.0" y="159.0" font-size="11" fill="#0891b2">siphash24</text>
<polyline points="66.0,484.0 124.5,463.9 158.7,449.2 183.0,440.4 201.8,431.5 217.2,422.8 230.2,416.3 241.5,427.7 251.4,418.8 268.4,404.6 275.7,398.6 282.5,393.5 294.6,383.2 300.0,384.6 309.9,375.6 314.5,370.2 326.9,359.4 330.6,356.1 334.2,358.0 337.7,354.5 344.2,347.8 350.2,339.6 355.8,335.9 358.5,335.7 373.0,323.0 377.3,322.0 389.1,309.7 390.9,308.5 392.7,308.7 394.5,306.7 404.2,296.8 415.7,287.8 417.0,287.4 419.6,285.6 426.9,280.8 434.8,273.6 435.8,274.5 450.3,260.3 460.4,252.1 465.7,247.8 474.8,240.5 475.5,240.5 481.2,236.1 496.9,224.5 512.3,213.8 527.5,203.7 534.0,199.8 543.1,193.7 558.4,183.9 573.7,174.7 589.1,165.2 604.6,156.0 620.0,147.0 635.4,137.9 650.8,128.9 651.0,128.8 666.1,120.1 681.5,111.2 696.9,102.4 712.3,93.6 727.7,84.9 743.1,76.2 758.4,67.5 768.0,62.0" fill="none" stroke="#be185d" stroke-width="2"/>
<line x1="782.0" y1="172.0" x2="798.0" y2="172.0" stroke="#be185d" stroke-width="2"/>
<text x="802.0" y="176.0" font-size="11" fill="#be185d">fnv1a</text>
<polyline points="66.0,428.3 124.5,421.2 158.7,415.4 183.0,429.5 201.8,429.5 217.2,429.6 230.2,429.5 241.5,429.6 251.4,411.0 268.4,402.6 275.7,411.5 282.5,411.5 294.6,411.6 300.0,411.6 309.9,398.9 314.5,396.1 326.9,403.7 330.6,403.6 334.2,403.6 337.7,395.1 344.2,388.9 350.2,395.6 355.8,395.5 358.5,395.5 373.0,386.0 377.3,385.6 389.1,379.5 390.9,379.5 392.7,379.5 394.5,373.2 404.2,373.6 415.7,367.6 417.0,367.9 419.6,367.3 426.9,369.2 434.8,361.7 435.8,361.0 450.3,350.4 460.4,341.3 465.7,339.0 474.8,336.9 475.5,336.9 481.2,334.2 496.9,322.2 512.3,311.9 527.5,300.7 534.0,297.3 543.1,293.0 558.4,284.2 573.7,273.3 589.1,262.1 604.6,250.7 620.0,239.1 635.4,228.5 650.8,218.8 651.0,218.8 666.1,208.9 681.5,199.4 696.9,189.8 712.3,180.6 727.7,171.4 743.1,162.4 758.4,153.3 768.0,147.7" fill="none" stroke="#4b5563" stroke-width="2"/>
<line x1="782.0" y1="189.0" x2="798.0" y2="189.0" stroke="#4b5563" stroke-width="2"/>
<text x="802.0" y="193.0" font-size="11" fill="#4b5563">dumbo</text>
</svg>
