<svg xmlns="http://www.w3.org/2000/svg" width="900" height="536" font-family="sans-serif">
<rect width="900" height="536" fill="white"/>
<text x="450" y="24" font-size="15" font-weight="bold" text-anchor="middle">mbo/hash - 64-bit throughput (Short)</text>
<text x="450" y="44" font-size="12" fill="#6b7280" text-anchor="middle">AMD Ryzen 9 9950X 16-Core Processor · Linux · x86_64 · 10-core · gcc-15 · 80a4c8a8</text>
<line x1="66" y1="416.1" x2="768.0" y2="416.1" stroke="#eee"/>
<text x="60" y="419.1" font-size="10" text-anchor="end">1</text>
<line x1="66" y1="75.3" x2="768.0" y2="75.3" stroke="#eee"/>
<text x="60" y="78.3" font-size="10" text-anchor="end">10</text>
<line x1="66.0" y1="62" x2="66.0" y2="484.0" stroke="#f3f4f6"/>
<line x1="241.5" y1="62" x2="241.5" y2="484.0" stroke="#f3f4f6"/>
<text x="241.5" y="500.0" font-size="10" text-anchor="middle">16 B</text>
<line x1="417.0" y1="62" x2="417.0" y2="484.0" stroke="#f3f4f6"/>
<line x1="592.5" y1="62" x2="592.5" y2="484.0" stroke="#f3f4f6"/>
<text x="592.5" y="500.0" font-size="10" text-anchor="middle">64 B</text>
<line x1="768.0" y1="62" x2="768.0" y2="484.0" stroke="#f3f4f6"/>
<text x="417" y="524" font-size="12" text-anchor="middle">max length (log scale)</text>
<text x="18" y="273" font-size="12" transform="rotate(-90 18 273)" text-anchor="middle">GiB / s (log scale)</text>
<polyline points="66.0,285.6 168.7,201.3 241.5,148.6 333.4,122.6 409.0,97.5 460.5,103.6 544.8,89.0 649.0,88.5 768.0,88.5" fill="none" stroke="#2563eb" stroke-width="2"/>
<line x1="782.0" y1="70.0" x2="798.0" y2="70.0" stroke="#2563eb" stroke-width="2"/>
<text x="802.0" y="74.0" font-size="11" fill="#2563eb">mumbo</text>
<polyline points="66.0,310.7 168.7,221.3 241.5,172.8 333.4,142.1 409.0,113.1 460.5,114.1 544.8,97.8 649.0,98.0 768.0,98.1" fill="none" stroke="#dc2626" stroke-width="2"/>
<line x1="782.0" y1="87.0" x2="798.0" y2="87.0" stroke="#dc2626" stroke-width="2"/>
<text x="802.0" y="91.0" font-size="11" fill="#dc2626">rapidhash</text>
<polyline points="66.0,247.7 168.7,157.3 241.5,101.5 333.4,88.7 409.0,67.3 460.5,73.1 544.8,62.3 649.0,62.2 768.0,62.0" fill="none" stroke="#059669" stroke-width="2"/>
<line x1="782.0" y1="104.0" x2="798.0" y2="104.0" stroke="#059669" stroke-width="2"/>
<text x="802.0" y="108.0" font-size="11" fill="#059669">xxh3</text>
<polyline points="66.0,341.7 168.7,280.1 241.5,244.5 333.4,216.9 409.0,194.9 460.5,197.7 544.8,188.3 649.0,187.1 768.0,186.1" fill="none" stroke="#d97706" stroke-width="2"/>
<line x1="782.0" y1="121.0" x2="798.0" y2="121.0" stroke="#d97706" stroke-width="2"/>
<text x="802.0" y="125.0" font-size="11" fill="#d97706">xxh64</text>
<polyline points="66.0,378.9 168.7,309.5 241.5,259.4 333.4,230.4 409.0,206.7 460.5,208.1 544.8,194.8 649.0,194.6 768.0,194.6" fill="none" stroke="#7c3aed" stroke-width="2"/>
<line x1="782.0" y1="138.0" x2="798.0" y2="138.0" stroke="#7c3aed" stroke-width="2"/>
<text x="802.0" y="142.0" font-size="11" fill="#7c3aed">murmur3</text>
<polyline points="66.0,484.0 168.7,419.8 241.5,373.6 333.4,345.5 409.0,323.3 460.5,325.6 544.8,313.3 649.0,313.6 768.0,313.7" fill="none" stroke="#0891b2" stroke-width="2"/>
<line x1="782.0" y1="155.0" x2="798.0" y2="155.0" stroke="#0891b2" stroke-width="2"/>
<text x="802.0" y="159.0" font-size="11" fill="#0891b2">siphash24</text>
<polyline points="66.0,257.3 168.7,252.4 241.5,247.8 333.4,254.6 409.0,255.3 460.5,262.6 544.8,265.2 649.0,267.1 768.0,266.7" fill="none" stroke="#be185d" stroke-width="2"/>
<line x1="782.0" y1="172.0" x2="798.0" y2="172.0" stroke="#be185d" stroke-width="2"/>
<text x="802.0" y="176.0" font-size="11" fill="#be185d">fnv1a</text>
<polyline points="66.0,274.8 168.7,218.6 241.5,166.8 333.4,143.5 409.0,123.9 460.5,127.2 544.8,117.6 649.0,118.5 768.0,118.4" fill="none" stroke="#4b5563" stroke-width="2"/>
<line x1="782.0" y1="189.0" x2="798.0" y2="189.0" stroke="#4b5563" stroke-width="2"/>
<text x="802.0" y="193.0" font-size="11" fill="#4b5563">dumbo</text>
</svg>
