<svg xmlns="http://www.w3.org/2000/svg" width="900" height="626" font-family="sans-serif">
<rect width="900" height="626" fill="white"/>
<text x="450" y="24" font-size="15" font-weight="bold" text-anchor="middle">mbo/hash - 64-bit throughput (Short)</text>
<text x="450" y="44" font-size="12" fill="#6b7280" text-anchor="middle">AMD Ryzen 9 9950X 16-Core Processor · Linux · x86_64 · 10-core · gcc-15 · 29b54ccd · higher is better</text>
<line x1="66" y1="491.8" x2="768.0" y2="491.8" stroke="#eee"/>
<text x="60" y="494.8" font-size="10" text-anchor="end">1</text>
<line x1="66" y1="367.2" x2="768.0" y2="367.2" stroke="#eee"/>
<text x="60" y="370.2" font-size="10" text-anchor="end">2</text>
<line x1="66" y1="202.5" x2="768.0" y2="202.5" stroke="#eee"/>
<text x="60" y="205.5" font-size="10" text-anchor="end">5</text>
<line x1="66" y1="78.0" x2="768.0" y2="78.0" stroke="#eee"/>
<text x="60" y="81.0" font-size="10" text-anchor="end">10</text>
<line x1="66.0" y1="62" x2="66.0" y2="574.0" stroke="#f3f4f6"/>
<line x1="241.5" y1="62" x2="241.5" y2="574.0" stroke="#f3f4f6"/>
<text x="241.5" y="590.0" font-size="10" text-anchor="middle">16 B</text>
<line x1="417.0" y1="62" x2="417.0" y2="574.0" stroke="#f3f4f6"/>
<line x1="592.5" y1="62" x2="592.5" y2="574.0" stroke="#f3f4f6"/>
<text x="592.5" y="590.0" font-size="10" text-anchor="middle">64 B</text>
<line x1="768.0" y1="62" x2="768.0" y2="574.0" stroke="#f3f4f6"/>
<text x="417" y="614" font-size="12" text-anchor="middle">max length (log scale)</text>
<text x="18" y="318" font-size="12" transform="rotate(-90 18 318)" text-anchor="middle">GiB / s (log scale)</text>
<polyline points="66.0,334.1 168.7,231.7 241.5,165.0 333.4,135.8 409.0,104.4 460.5,112.6 544.8,93.6 649.0,93.1 768.0,93.8" fill="none" stroke="#2563eb" stroke-width="2"/>
<line x1="782.0" y1="70.0" x2="798.0" y2="70.0" stroke="#2563eb" stroke-width="2"/>
<text x="802.0" y="74.0" font-size="11" fill="#2563eb">mumbo</text>
<polyline points="66.0,345.6 168.7,236.8 241.5,168.8 333.4,141.4 409.0,106.3 460.5,107.8 544.8,88.1 649.0,88.4 768.0,88.7" fill="none" stroke="#dc2626" stroke-width="2"/>
<line x1="782.0" y1="87.0" x2="798.0" y2="87.0" stroke="#dc2626" stroke-width="2"/>
<text x="802.0" y="91.0" font-size="11" fill="#dc2626">rapidhash</text>
<polyline points="66.0,287.2 168.7,177.3 241.5,109.9 333.4,93.1 409.0,68.9 460.5,75.4 544.8,62.0 649.0,62.1 768.0,62.0" fill="none" stroke="#059669" stroke-width="2"/>
<line x1="782.0" y1="104.0" x2="798.0" y2="104.0" stroke="#059669" stroke-width="2"/>
<text x="802.0" y="108.0" font-size="11" fill="#059669">xxh3</text>
<polyline points="66.0,401.4 168.7,326.8 241.5,283.6 333.4,250.4 409.0,223.1 460.5,227.1 544.8,215.6 649.0,213.8 768.0,212.8" fill="none" stroke="#d97706" stroke-width="2"/>
<line x1="782.0" y1="121.0" x2="798.0" y2="121.0" stroke="#d97706" stroke-width="2"/>
<text x="802.0" y="125.0" font-size="11" fill="#d97706">xxh64</text>
<polyline points="66.0,446.3 168.7,362.5 241.5,301.3 333.4,266.1 409.0,237.4 460.5,239.2 544.8,222.9 649.0,222.9 768.0,222.8" fill="none" stroke="#7c3aed" stroke-width="2"/>
<line x1="782.0" y1="138.0" x2="798.0" y2="138.0" stroke="#7c3aed" stroke-width="2"/>
<text x="802.0" y="142.0" font-size="11" fill="#7c3aed">murmur3</text>
<polyline points="66.0,574.0 168.7,496.3 241.5,440.2 333.4,406.2 409.0,379.1 460.5,382.2 544.8,367.4 649.0,367.5 768.0,367.6" fill="none" stroke="#0891b2" stroke-width="2"/>
<line x1="782.0" y1="155.0" x2="798.0" y2="155.0" stroke="#0891b2" stroke-width="2"/>
<text x="802.0" y="159.0" font-size="11" fill="#0891b2">siphash24</text>
<polyline points="66.0,299.0 168.7,293.1 241.5,287.4 333.4,295.7 409.0,296.4 460.5,305.7 544.8,309.0 649.0,311.3 768.0,310.3" fill="none" stroke="#be185d" stroke-width="2"/>
<line x1="782.0" y1="172.0" x2="798.0" y2="172.0" stroke="#be185d" stroke-width="2"/>
<text x="802.0" y="176.0" font-size="11" fill="#be185d">fnv1a</text>
<polyline points="66.0,320.4 168.7,252.5 241.5,189.7 333.4,160.9 409.0,138.0 460.5,141.3 544.8,130.4 649.0,131.0 768.0,130.6" fill="none" stroke="#4b5563" stroke-width="2"/>
<line x1="782.0" y1="189.0" x2="798.0" y2="189.0" stroke="#4b5563" stroke-width="2"/>
<text x="802.0" y="193.0" font-size="11" fill="#4b5563">dumbo</text>
</svg>
