<svg xmlns="http://www.w3.org/2000/svg" width="900" height="536" font-family="sans-serif">
<rect width="900" height="536" fill="white"/>
<text x="450" y="24" font-size="15" font-weight="bold" text-anchor="middle">mbo/hash - 64-bit throughput (Web)</text>
<text x="450" y="44" font-size="12" fill="#6b7280" text-anchor="middle">AMD Ryzen 9 9950X 16-Core Processor · Linux · x86_64 · 10-core · gcc-15 · 80a4c8a8</text>
<line x1="66" y1="184.2" x2="768.0" y2="184.2" stroke="#eee"/>
<text x="60" y="187.2" font-size="10" text-anchor="end">10</text>
<line x1="74.1" y1="62" x2="74.1" y2="484.0" stroke="#f3f4f6"/>
<text x="74.1" y="500.0" font-size="10" text-anchor="middle">16 B</text>
<line x1="160.8" y1="62" x2="160.8" y2="484.0" stroke="#f3f4f6"/>
<line x1="247.6" y1="62" x2="247.6" y2="484.0" stroke="#f3f4f6"/>
<text x="247.6" y="500.0" font-size="10" text-anchor="middle">64 B</text>
<line x1="334.3" y1="62" x2="334.3" y2="484.0" stroke="#f3f4f6"/>
<line x1="421.0" y1="62" x2="421.0" y2="484.0" stroke="#f3f4f6"/>
<text x="421.0" y="500.0" font-size="10" text-anchor="middle">256 B</text>
<line x1="507.8" y1="62" x2="507.8" y2="484.0" stroke="#f3f4f6"/>
<line x1="594.5" y1="62" x2="594.5" y2="484.0" stroke="#f3f4f6"/>
<text x="594.5" y="500.0" font-size="10" text-anchor="middle">1 KiB</text>
<line x1="681.3" y1="62" x2="681.3" y2="484.0" stroke="#f3f4f6"/>
<line x1="768.0" y1="62" x2="768.0" y2="484.0" stroke="#f3f4f6"/>
<text x="768.0" y="500.0" font-size="10" text-anchor="middle">4 KiB</text>
<text x="417" y="524" font-size="12" text-anchor="middle">max length (log scale)</text>
<text x="18" y="273" font-size="12" transform="rotate(-90 18 273)" text-anchor="middle">GiB / s (log scale)</text>
<polyline points="66.0,284.9 144.1,217.7 203.5,160.8 267.4,120.7 326.2,105.6 402.1,108.3 507.8,105.4 681.3,95.7 768.0,97.6" fill="none" stroke="#2563eb" stroke-width="2"/>
<line x1="782.0" y1="70.0" x2="798.0" y2="70.0" stroke="#2563eb" stroke-width="2"/>
<text x="802.0" y="74.0" font-size="11" fill="#2563eb">mumbo</text>
<polyline points="66.0,303.7 144.1,230.4 203.5,161.9 267.4,120.2 326.2,99.3 402.1,89.5 507.8,79.5 681.3,62.0 768.0,64.4" fill="none" stroke="#dc2626" stroke-width="2"/>
<line x1="782.0" y1="87.0" x2="798.0" y2="87.0" stroke="#dc2626" stroke-width="2"/>
<text x="802.0" y="91.0" font-size="11" fill="#dc2626">rapidhash</text>
<polyline points="66.0,242.8 144.1,194.8 203.5,158.7 267.4,131.8 326.2,114.7 402.1,107.7 507.8,167.7 681.3,172.0 768.0,179.3" fill="none" stroke="#059669" stroke-width="2"/>
<line x1="782.0" y1="104.0" x2="798.0" y2="104.0" stroke="#059669" stroke-width="2"/>
<text x="802.0" y="108.0" font-size="11" fill="#059669">xxh3</text>
<polyline points="66.0,360.0 144.1,301.5 203.5,268.6 267.4,244.5 326.2,223.4 402.1,212.0 507.8,199.0 681.3,177.3 768.0,178.9" fill="none" stroke="#d97706" stroke-width="2"/>
<line x1="782.0" y1="121.0" x2="798.0" y2="121.0" stroke="#d97706" stroke-width="2"/>
<text x="802.0" y="125.0" font-size="11" fill="#d97706">xxh64</text>
<polyline points="66.0,381.7 144.1,317.4 203.5,263.0 267.4,233.3 326.2,216.1 402.1,207.2 507.8,201.4 681.3,190.8 768.0,192.7" fill="none" stroke="#7c3aed" stroke-width="2"/>
<line x1="782.0" y1="138.0" x2="798.0" y2="138.0" stroke="#7c3aed" stroke-width="2"/>
<text x="802.0" y="142.0" font-size="11" fill="#7c3aed">murmur3</text>
<polyline points="66.0,484.0 144.1,425.1 203.5,379.4 267.4,357.1 326.2,344.8 402.1,338.2 507.8,334.8 681.3,327.0 768.0,328.6" fill="none" stroke="#0891b2" stroke-width="2"/>
<line x1="782.0" y1="155.0" x2="798.0" y2="155.0" stroke="#0891b2" stroke-width="2"/>
<text x="802.0" y="159.0" font-size="11" fill="#0891b2">siphash24</text>
<polyline points="66.0,338.7 144.1,359.3 203.5,373.8 267.4,396.8 326.2,411.9 402.1,417.2 507.8,425.8 681.3,434.3 768.0,434.5" fill="none" stroke="#be185d" stroke-width="2"/>
<line x1="782.0" y1="172.0" x2="798.0" y2="172.0" stroke="#be185d" stroke-width="2"/>
<text x="802.0" y="176.0" font-size="11" fill="#be185d">fnv1a</text>
<polyline points="66.0,293.3 144.1,241.2 203.5,201.4 267.4,185.9 326.2,184.5 402.1,183.4 507.8,191.7 681.3,199.8 768.0,199.7" fill="none" stroke="#4b5563" stroke-width="2"/>
<line x1="782.0" y1="189.0" x2="798.0" y2="189.0" stroke="#4b5563" stroke-width="2"/>
<text x="802.0" y="193.0" font-size="11" fill="#4b5563">dumbo</text>
</svg>
