<svg xmlns="http://www.w3.org/2000/svg" width="900" height="536" font-family="sans-serif">
<rect width="900" height="536" fill="white"/>
<text x="450" y="24" font-size="15" font-weight="bold" text-anchor="middle">mbo/hash - 64-bit throughput (Web)</text>
<text x="450" y="44" font-size="12" fill="#6b7280" text-anchor="middle">AMD Ryzen 9 9950X 16-Core Processor · Linux · x86_64 · 10-core · gcc-15 · 29b54ccd</text>
<line x1="66" y1="406.3" x2="768.0" y2="406.3" stroke="#eee"/>
<text x="60" y="409.3" font-size="10" text-anchor="end">2</text>
<line x1="66" y1="280.0" x2="768.0" y2="280.0" stroke="#eee"/>
<text x="60" y="283.0" font-size="10" text-anchor="end">5</text>
<line x1="66" y1="184.4" x2="768.0" y2="184.4" stroke="#eee"/>
<text x="60" y="187.4" font-size="10" text-anchor="end">10</text>
<line x1="66" y1="88.9" x2="768.0" y2="88.9" stroke="#eee"/>
<text x="60" y="91.9" font-size="10" text-anchor="end">20</text>
<line x1="74.1" y1="62" x2="74.1" y2="484.0" stroke="#f3f4f6"/>
<text x="74.1" y="500.0" font-size="10" text-anchor="middle">16 B</text>
<line x1="160.8" y1="62" x2="160.8" y2="484.0" stroke="#f3f4f6"/>
<line x1="247.6" y1="62" x2="247.6" y2="484.0" stroke="#f3f4f6"/>
<text x="247.6" y="500.0" font-size="10" text-anchor="middle">64 B</text>
<line x1="334.3" y1="62" x2="334.3" y2="484.0" stroke="#f3f4f6"/>
<line x1="421.0" y1="62" x2="421.0" y2="484.0" stroke="#f3f4f6"/>
<text x="421.0" y="500.0" font-size="10" text-anchor="middle">256 B</text>
<line x1="507.8" y1="62" x2="507.8" y2="484.0" stroke="#f3f4f6"/>
<line x1="594.5" y1="62" x2="594.5" y2="484.0" stroke="#f3f4f6"/>
<text x="594.5" y="500.0" font-size="10" text-anchor="middle">1 KiB</text>
<line x1="681.3" y1="62" x2="681.3" y2="484.0" stroke="#f3f4f6"/>
<line x1="768.0" y1="62" x2="768.0" y2="484.0" stroke="#f3f4f6"/>
<text x="768.0" y="500.0" font-size="10" text-anchor="middle">4 KiB</text>
<text x="417" y="524" font-size="12" text-anchor="middle">max length (log scale)</text>
<text x="18" y="273" font-size="12" transform="rotate(-90 18 273)" text-anchor="middle">GiB / s (log scale)</text>
<polyline points="66.0,287.5 144.1,218.5 203.5,161.0 267.4,122.5 326.2,105.8 402.1,108.5 507.8,105.2 681.3,96.1 768.0,98.0" fill="none" stroke="#2563eb" stroke-width="2"/>
<line x1="782.0" y1="70.0" x2="798.0" y2="70.0" stroke="#2563eb" stroke-width="2"/>
<text x="802.0" y="74.0" font-size="11" fill="#2563eb">mumbo</text>
<polyline points="66.0,289.5 144.1,217.6 203.5,149.8 267.4,114.4 326.2,99.3 402.1,89.7 507.8,79.2 681.3,62.0 768.0,64.7" fill="none" stroke="#dc2626" stroke-width="2"/>
<line x1="782.0" y1="87.0" x2="798.0" y2="87.0" stroke="#dc2626" stroke-width="2"/>
<text x="802.0" y="91.0" font-size="11" fill="#dc2626">rapidhash</text>
<polyline points="66.0,243.1 144.1,195.0 203.5,158.9 267.4,131.9 326.2,115.1 402.1,107.9 507.8,167.2 681.3,171.6 768.0,178.7" fill="none" stroke="#059669" stroke-width="2"/>
<line x1="782.0" y1="104.0" x2="798.0" y2="104.0" stroke="#059669" stroke-width="2"/>
<text x="802.0" y="108.0" font-size="11" fill="#059669">xxh3</text>
<polyline points="66.0,360.1 144.1,301.8 203.5,268.7 267.4,244.7 326.2,223.4 402.1,212.1 507.8,199.1 681.3,177.4 768.0,179.2" fill="none" stroke="#d97706" stroke-width="2"/>
<line x1="782.0" y1="121.0" x2="798.0" y2="121.0" stroke="#d97706" stroke-width="2"/>
<text x="802.0" y="125.0" font-size="11" fill="#d97706">xxh64</text>
<polyline points="66.0,381.9 144.1,317.3 203.5,263.1 267.4,233.4 326.2,216.2 402.1,207.3 507.8,201.5 681.3,190.7 768.0,192.9" fill="none" stroke="#7c3aed" stroke-width="2"/>
<line x1="782.0" y1="138.0" x2="798.0" y2="138.0" stroke="#7c3aed" stroke-width="2"/>
<text x="802.0" y="142.0" font-size="11" fill="#7c3aed">murmur3</text>
<polyline points="66.0,484.0 144.1,425.1 203.5,379.6 267.4,357.4 326.2,345.2 402.1,338.4 507.8,335.0 681.3,327.1 768.0,328.6" fill="none" stroke="#0891b2" stroke-width="2"/>
<line x1="782.0" y1="155.0" x2="798.0" y2="155.0" stroke="#0891b2" stroke-width="2"/>
<text x="802.0" y="159.0" font-size="11" fill="#0891b2">siphash24</text>
<polyline points="66.0,338.8 144.1,359.5 203.5,377.1 267.4,398.0 326.2,412.3 402.1,417.6 507.8,425.9 681.3,434.5 768.0,434.5" fill="none" stroke="#be185d" stroke-width="2"/>
<line x1="782.0" y1="172.0" x2="798.0" y2="172.0" stroke="#be185d" stroke-width="2"/>
<text x="802.0" y="176.0" font-size="11" fill="#be185d">fnv1a</text>
<polyline points="66.0,293.7 144.1,241.8 203.5,201.9 267.4,186.6 326.2,185.3 402.1,183.9 507.8,191.7 681.3,199.9 768.0,199.9" fill="none" stroke="#4b5563" stroke-width="2"/>
<line x1="782.0" y1="189.0" x2="798.0" y2="189.0" stroke="#4b5563" stroke-width="2"/>
<text x="802.0" y="193.0" font-size="11" fill="#4b5563">dumbo</text>
</svg>
