<svg xmlns="http://www.w3.org/2000/svg" width="900" height="536" font-family="sans-serif">
<rect width="900" height="536" fill="white"/>
<text x="450" y="24" font-size="15" font-weight="bold" text-anchor="middle">mbo/hash - 64-bit latency</text>
<text x="450" y="44" font-size="12" fill="#6b7280" text-anchor="middle">AMD Ryzen 9 9950X 16-Core Processor · Linux · x86_64 · 10-core · gcc-15 · 29b54ccd</text>
<line x1="66" y1="468.8" x2="768.0" y2="468.8" stroke="#eee"/>
<text x="60" y="471.8" font-size="10" text-anchor="end">0.5</text>
<line x1="66" y1="436.2" x2="768.0" y2="436.2" stroke="#eee"/>
<text x="60" y="439.2" font-size="10" text-anchor="end">1</text>
<line x1="66" y1="403.7" x2="768.0" y2="403.7" stroke="#eee"/>
<text x="60" y="406.7" font-size="10" text-anchor="end">2</text>
<line x1="66" y1="360.7" x2="768.0" y2="360.7" stroke="#eee"/>
<text x="60" y="363.7" font-size="10" text-anchor="end">5</text>
<line x1="66" y1="328.1" x2="768.0" y2="328.1" stroke="#eee"/>
<text x="60" y="331.1" font-size="10" text-anchor="end">10</text>
<line x1="66" y1="295.5" x2="768.0" y2="295.5" stroke="#eee"/>
<text x="60" y="298.5" font-size="10" text-anchor="end">20</text>
<line x1="66" y1="252.5" x2="768.0" y2="252.5" stroke="#eee"/>
<text x="60" y="255.5" font-size="10" text-anchor="end">50</text>
<line x1="66" y1="220.0" x2="768.0" y2="220.0" stroke="#eee"/>
<text x="60" y="223.0" font-size="10" text-anchor="end">100</text>
<line x1="66" y1="187.4" x2="768.0" y2="187.4" stroke="#eee"/>
<text x="60" y="190.4" font-size="10" text-anchor="end">200</text>
<line x1="66" y1="144.4" x2="768.0" y2="144.4" stroke="#eee"/>
<text x="60" y="147.4" font-size="10" text-anchor="end">500</text>
<line x1="66" y1="111.8" x2="768.0" y2="111.8" stroke="#eee"/>
<text x="60" y="114.8" font-size="10" text-anchor="end">1000</text>
<line x1="66" y1="79.3" x2="768.0" y2="79.3" stroke="#eee"/>
<text x="60" y="82.3" font-size="10" text-anchor="end">2000</text>
<line x1="66.0" y1="62" x2="66.0" y2="484.0" stroke="#f3f4f6"/>
<text x="66.0" y="500.0" font-size="10" text-anchor="middle">1 B</text>
<line x1="124.5" y1="62" x2="124.5" y2="484.0" stroke="#f3f4f6"/>
<line x1="183.0" y1="62" x2="183.0" y2="484.0" stroke="#f3f4f6"/>
<text x="183.0" y="500.0" font-size="10" text-anchor="middle">4 B</text>
<line x1="241.5" y1="62" x2="241.5" y2="484.0" stroke="#f3f4f6"/>
<line x1="300.0" y1="62" x2="300.0" y2="484.0" stroke="#f3f4f6"/>
<text x="300.0" y="500.0" font-size="10" text-anchor="middle">16 B</text>
<line x1="358.5" y1="62" x2="358.5" y2="484.0" stroke="#f3f4f6"/>
<line x1="417.0" y1="62" x2="417.0" y2="484.0" stroke="#f3f4f6"/>
<text x="417.0" y="500.0" font-size="10" text-anchor="middle">64 B</text>
<line x1="475.5" y1="62" x2="475.5" y2="484.0" stroke="#f3f4f6"/>
<line x1="534.0" y1="62" x2="534.0" y2="484.0" stroke="#f3f4f6"/>
<text x="534.0" y="500.0" font-size="10" text-anchor="middle">256 B</text>
<line x1="592.5" y1="62" x2="592.5" y2="484.0" stroke="#f3f4f6"/>
<line x1="651.0" y1="62" x2="651.0" y2="484.0" stroke="#f3f4f6"/>
<text x="651.0" y="500.0" font-size="10" text-anchor="middle">1 KiB</text>
<line x1="709.5" y1="62" x2="709.5" y2="484.0" stroke="#f3f4f6"/>
<line x1="768.0" y1="62" x2="768.0" y2="484.0" stroke="#f3f4f6"/>
<text x="768.0" y="500.0" font-size="10" text-anchor="middle">4 KiB</text>
<text x="417" y="524" font-size="12" text-anchor="middle">key length (log scale)</text>
<text x="18" y="273" font-size="12" transform="rotate(-90 18 273)" text-anchor="middle">ns / op (log scale)</text>
<polyline points="66.0,421.1 124.5,418.2 158.7,418.0 183.0,424.2 201.8,424.3 217.2,424.3 230.2,424.2 241.5,424.2 251.4,424.3 268.4,424.2 275.7,424.2 282.5,424.2 294.6,424.0 300.0,424.0 309.9,407.3 314.5,407.8 326.9,407.9 330.6,407.7 334.2,407.9 337.7,407.9 344.2,407.9 350.2,407.7 355.8,407.8 358.5,408.0 373.0,403.2 377.3,403.3 389.1,403.3 390.9,403.4 392.7,403.4 394.5,397.4 404.2,397.3 415.7,397.4 417.0,397.4 419.6,389.6 426.9,389.8 434.8,389.8 435.8,389.8 450.3,381.6 460.4,374.2 465.7,369.1 474.8,369.1 475.5,327.5 481.2,328.7 496.9,321.5 512.3,313.6 527.5,307.2 534.0,320.2 543.1,316.3 558.4,302.2 573.7,306.3 589.1,292.4 604.6,288.5 620.0,281.1 635.4,273.0 650.8,264.9 651.0,269.4 666.1,259.4 681.5,252.6 696.9,243.0 712.3,236.1 727.7,227.2 743.1,219.2 758.4,211.6 768.0,206.5" fill="none" stroke="#2563eb" stroke-width="2"/>
<line x1="782.0" y1="70.0" x2="798.0" y2="70.0" stroke="#2563eb" stroke-width="2"/>
<text x="802.0" y="74.0" font-size="11" fill="#2563eb">mumbo</text>
<polyline points="66.0,412.8 124.5,412.7 158.7,412.7 183.0,412.9 201.8,412.9 217.2,413.0 230.2,412.9 241.5,418.3 251.4,418.3 268.4,418.3 275.7,418.3 282.5,418.4 294.6,418.3 300.0,418.3 309.9,407.8 314.5,407.8 326.9,407.8 330.6,407.8 334.2,407.8 337.7,407.8 344.2,407.8 350.2,407.8 355.8,407.8 358.5,407.8 373.0,403.4 377.3,403.4 389.1,403.4 390.9,403.4 392.7,403.4 394.5,399.3 404.2,399.5 415.7,399.5 417.0,399.5 419.6,392.0 426.9,392.0 434.8,392.0 435.8,392.0 450.3,385.2 460.4,379.1 465.7,372.9 474.8,372.9 475.5,372.8 481.2,369.1 496.9,361.8 512.3,352.9 527.5,355.9 534.0,353.2 543.1,346.3 558.4,340.2 573.7,329.0 589.1,327.0 604.6,320.1 620.0,312.2 635.4,300.9 650.8,297.4 651.0,297.3 666.1,283.5 681.5,281.5 696.9,269.9 712.3,261.6 727.7,255.7 743.1,248.7 758.4,239.5 768.0,235.0" fill="none" stroke="#dc2626" stroke-width="2"/>
<line x1="782.0" y1="87.0" x2="798.0" y2="87.0" stroke="#dc2626" stroke-width="2"/>
<text x="802.0" y="91.0" font-size="11" fill="#dc2626">rapidhash</text>
<polyline points="66.0,432.6 124.5,432.7 158.7,432.6 183.0,436.9 201.8,436.9 217.2,437.0 230.2,436.9 241.5,437.0 251.4,447.6 268.4,447.6 275.7,447.6 282.5,447.6 294.6,447.6 300.0,447.5 309.9,413.6 314.5,413.7 326.9,413.6 330.6,413.7 334.2,413.7 337.7,413.6 344.2,413.6 350.2,413.6 355.8,413.7 358.5,413.7 373.0,393.0 377.3,393.1 389.1,393.0 390.9,393.0 392.7,393.1 394.5,393.0 404.2,392.7 415.7,393.0 417.0,393.0 419.6,377.8 426.9,378.3 434.8,378.3 435.8,378.3 450.3,377.5 460.4,366.9 465.7,367.3 474.8,367.2 475.5,367.6 481.2,354.3 496.9,347.3 512.3,341.1 527.5,335.7 534.0,248.1 543.1,245.0 558.4,242.2 573.7,239.6 589.1,237.0 604.6,232.1 620.0,228.3 635.4,224.4 650.8,220.8 651.0,220.8 666.1,210.3 681.5,206.4 696.9,200.0 712.3,190.3 727.7,185.2 743.1,179.4 758.4,169.9 768.0,165.5" fill="none" stroke="#059669" stroke-width="2"/>
<line x1="782.0" y1="104.0" x2="798.0" y2="104.0" stroke="#059669" stroke-width="2"/>
<text x="802.0" y="108.0" font-size="11" fill="#059669">xxh3</text>
<polyline points="66.0,417.3 124.5,408.9 158.7,401.5 183.0,416.9 201.8,405.4 217.2,398.3 230.2,391.6 241.5,405.4 251.4,396.1 268.4,384.7 275.7,396.2 282.5,388.2 294.6,377.0 300.0,396.1 309.9,382.9 314.5,377.7 326.9,375.7 330.6,370.8 334.2,387.6 337.7,380.4 344.2,370.7 350.2,373.9 355.8,364.3 358.5,368.9 373.0,353.6 377.3,359.9 389.1,347.6 390.9,344.4 392.7,355.0 394.5,351.2 404.2,340.2 415.7,335.4 417.0,358.5 419.6,351.3 426.9,351.5 434.8,336.6 435.8,347.7 450.3,328.2 460.4,334.4 465.7,333.7 474.8,323.0 475.5,343.9 481.2,334.7 496.9,330.2 512.3,322.7 527.5,318.4 534.0,323.2 543.1,309.8 558.4,302.1 573.7,296.8 589.1,296.0 604.6,284.4 620.0,282.2 635.4,271.7 650.8,264.6 651.0,269.6 666.1,260.1 681.5,249.3 696.9,245.1 712.3,237.0 727.7,228.5 743.1,220.7 758.4,211.5 768.0,207.5" fill="none" stroke="#d97706" stroke-width="2"/>
<line x1="782.0" y1="121.0" x2="798.0" y2="121.0" stroke="#d97706" stroke-width="2"/>
<text x="802.0" y="125.0" font-size="11" fill="#d97706">xxh64</text>
<polyline points="66.0,395.8 124.5,391.2 158.7,387.4 183.0,392.0 201.8,392.0 217.2,391.9 230.2,392.0 241.5,392.0 251.4,384.7 268.4,379.0 275.7,384.9 282.5,384.9 294.6,384.9 300.0,388.4 309.9,375.4 314.5,373.0 326.9,377.0 330.6,377.0 334.2,376.9 337.7,371.3 344.2,365.7 350.2,371.9 355.8,372.0 358.5,375.3 373.0,365.8 377.3,365.8 389.1,361.5 390.9,361.5 392.7,364.1 394.5,358.2 404.2,357.2 415.7,354.0 417.0,355.6 419.6,349.0 426.9,349.6 434.8,346.5 435.8,348.1 450.3,341.0 460.4,333.3 465.7,331.8 474.8,330.5 475.5,330.6 481.2,325.6 496.9,318.7 512.3,311.0 527.5,303.2 534.0,300.1 543.1,294.7 558.4,286.0 573.7,277.1 589.1,269.2 604.6,260.9 620.0,252.0 635.4,241.8 650.8,235.1 651.0,235.1 666.1,226.4 681.5,218.1 696.9,208.6 712.3,200.9 727.7,191.6 743.1,183.2 758.4,174.7 768.0,169.4" fill="none" stroke="#7c3aed" stroke-width="2"/>
<line x1="782.0" y1="138.0" x2="798.0" y2="138.0" stroke="#7c3aed" stroke-width="2"/>
<text x="802.0" y="142.0" font-size="11" fill="#7c3aed">murmur3</text>
<polyline points="66.0,357.7 124.5,354.7 158.7,352.0 183.0,358.9 201.8,359.1 217.2,359.3 230.2,359.0 241.5,348.4 251.4,344.8 268.4,340.5 275.7,343.8 282.5,343.8 294.6,343.8 300.0,338.5 309.9,336.5 314.5,335.1 326.9,337.4 330.6,337.3 334.2,329.9 337.7,329.6 344.2,327.8 350.2,329.4 355.8,329.4 358.5,322.7 373.0,322.5 377.3,316.3 389.1,316.2 390.9,316.2 392.7,310.8 394.5,310.6 404.2,310.5 415.7,305.6 417.0,301.4 419.6,300.7 426.9,297.1 434.8,297.1 435.8,293.4 450.3,289.8 460.4,282.8 465.7,280.5 474.8,278.0 475.5,275.6 481.2,273.1 496.9,266.5 512.3,259.0 527.5,251.0 534.0,246.8 543.1,242.9 558.4,235.0 573.7,226.3 589.1,218.4 604.6,208.8 620.0,200.7 635.4,192.4 650.8,184.3 651.0,184.2 666.1,175.9 681.5,167.7 696.9,159.3 712.3,150.9 727.7,142.5 743.1,134.1 758.4,125.6 768.0,120.3" fill="none" stroke="#0891b2" stroke-width="2"/>
<line x1="782.0" y1="155.0" x2="798.0" y2="155.0" stroke="#0891b2" stroke-width="2"/>
<text x="802.0" y="159.0" font-size="11" fill="#0891b2">siphash24</text>
<polyline points="66.0,484.0 124.5,466.4 158.7,451.4 183.0,440.2 201.8,428.8 217.2,422.8 230.2,415.7 241.5,409.3 251.4,402.8 268.4,392.2 275.7,387.0 282.5,383.0 294.6,374.6 300.0,370.6 309.9,363.9 314.5,360.7 326.9,351.4 330.6,348.0 334.2,344.2 337.7,342.1 344.2,337.9 350.2,333.5 355.8,329.3 358.5,327.1 373.0,316.8 377.3,313.6 389.1,301.8 390.9,300.4 392.7,298.6 394.5,297.4 404.2,291.2 415.7,282.3 417.0,281.6 419.6,279.1 426.9,274.2 434.8,269.4 435.8,268.8 450.3,257.8 460.4,249.6 465.7,245.3 474.8,238.6 475.5,238.2 481.2,234.1 496.9,220.8 512.3,210.6 527.5,201.4 534.0,197.0 543.1,191.5 558.4,182.1 573.7,173.1 589.1,163.9 604.6,154.9 620.0,145.8 635.4,137.0 650.8,128.2 651.0,128.0 666.1,119.5 681.5,110.7 696.9,102.1 712.3,93.3 727.7,84.6 743.1,76.0 758.4,67.4 768.0,62.0" fill="none" stroke="#be185d" stroke-width="2"/>
<line x1="782.0" y1="172.0" x2="798.0" y2="172.0" stroke="#be185d" stroke-width="2"/>
<text x="802.0" y="176.0" font-size="11" fill="#be185d">fnv1a</text>
<polyline points="66.0,430.9 124.5,422.5 158.7,415.2 183.0,425.7 201.8,425.8 217.2,425.7 230.2,425.7 241.5,425.7 251.4,417.8 268.4,406.2 275.7,420.4 282.5,420.5 294.6,420.5 300.0,420.4 309.9,402.6 314.5,398.0 326.9,409.2 330.6,409.2 334.2,409.2 337.7,397.4 344.2,390.3 350.2,398.3 355.8,398.3 358.5,398.4 373.0,390.0 377.3,390.0 389.1,381.1 390.9,380.2 392.7,380.9 394.5,373.5 404.2,373.8 415.7,368.1 417.0,367.9 419.6,351.9 426.9,351.2 434.8,354.7 435.8,354.8 450.3,345.9 460.4,336.4 465.7,334.0 474.8,332.1 475.5,332.1 481.2,324.4 496.9,312.6 512.3,302.7 527.5,294.4 534.0,291.2 543.1,285.5 558.4,276.6 573.7,266.2 589.1,255.7 604.6,244.5 620.0,233.2 635.4,222.1 650.8,212.6 651.0,212.6 666.1,202.3 681.5,192.8 696.9,183.5 712.3,174.2 727.7,165.2 743.1,156.3 758.4,147.3 768.0,141.8" fill="none" stroke="#4b5563" stroke-width="2"/>
<line x1="782.0" y1="189.0" x2="798.0" y2="189.0" stroke="#4b5563" stroke-width="2"/>
<text x="802.0" y="193.0" font-size="11" fill="#4b5563">dumbo</text>
</svg>
