<svg xmlns="http://www.w3.org/2000/svg" width="900" height="626" font-family="sans-serif">
<rect width="900" height="626" fill="white"/>
<text x="450" y="24" font-size="15" font-weight="bold" text-anchor="middle">mbo/hash - 64-bit throughput (Web)</text>
<text x="450" y="44" font-size="12" fill="#6b7280" text-anchor="middle">AMD Ryzen 9 9950X 16-Core Processor · Linux · x86_64 · 10-core · clang-22 · 29b54ccd · higher is better</text>
<line x1="66" y1="464.7" x2="768.0" y2="464.7" stroke="#eee"/>
<text x="60" y="467.7" font-size="10" text-anchor="end">2</text>
<line x1="66" y1="315.4" x2="768.0" y2="315.4" stroke="#eee"/>
<text x="60" y="318.4" font-size="10" text-anchor="end">5</text>
<line x1="66" y1="202.4" x2="768.0" y2="202.4" stroke="#eee"/>
<text x="60" y="205.4" font-size="10" text-anchor="end">10</text>
<line x1="66" y1="89.5" x2="768.0" y2="89.5" stroke="#eee"/>
<text x="60" y="92.5" font-size="10" text-anchor="end">20</text>
<line x1="74.1" y1="62" x2="74.1" y2="574.0" stroke="#f3f4f6"/>
<text x="74.1" y="590.0" font-size="10" text-anchor="middle">16 B</text>
<line x1="160.8" y1="62" x2="160.8" y2="574.0" stroke="#f3f4f6"/>
<line x1="247.6" y1="62" x2="247.6" y2="574.0" stroke="#f3f4f6"/>
<text x="247.6" y="590.0" font-size="10" text-anchor="middle">64 B</text>
<line x1="334.3" y1="62" x2="334.3" y2="574.0" stroke="#f3f4f6"/>
<line x1="421.0" y1="62" x2="421.0" y2="574.0" stroke="#f3f4f6"/>
<text x="421.0" y="590.0" font-size="10" text-anchor="middle">256 B</text>
<line x1="507.8" y1="62" x2="507.8" y2="574.0" stroke="#f3f4f6"/>
<line x1="594.5" y1="62" x2="594.5" y2="574.0" stroke="#f3f4f6"/>
<text x="594.5" y="590.0" font-size="10" text-anchor="middle">1 KiB</text>
<line x1="681.3" y1="62" x2="681.3" y2="574.0" stroke="#f3f4f6"/>
<line x1="768.0" y1="62" x2="768.0" y2="574.0" stroke="#f3f4f6"/>
<text x="768.0" y="590.0" font-size="10" text-anchor="middle">4 KiB</text>
<text x="417" y="614" font-size="12" text-anchor="middle">max length (log scale)</text>
<text x="18" y="318" font-size="12" transform="rotate(-90 18 318)" text-anchor="middle">GiB / s (log scale)</text>
<polyline points="66.0,320.0 144.1,252.7 203.5,181.5 267.4,142.1 326.2,123.4 402.1,118.8 507.8,114.6 681.3,103.0 768.0,105.0" fill="none" stroke="#2563eb" stroke-width="2"/>
<line x1="782.0" y1="70.0" x2="798.0" y2="70.0" stroke="#2563eb" stroke-width="2"/>
<text x="802.0" y="74.0" font-size="11" fill="#2563eb">mumbo</text>
<polyline points="66.0,345.4 144.1,246.7 203.5,174.4 267.4,134.2 326.2,111.4 402.1,98.1 507.8,85.1 681.3,62.0 768.0,65.5" fill="none" stroke="#dc2626" stroke-width="2"/>
<line x1="782.0" y1="87.0" x2="798.0" y2="87.0" stroke="#dc2626" stroke-width="2"/>
<text x="802.0" y="91.0" font-size="11" fill="#dc2626">rapidhash</text>
<polyline points="66.0,350.6 144.1,261.0 203.5,202.7 267.4,164.1 326.2,140.2 402.1,133.1 507.8,144.7 681.3,135.5 768.0,140.0" fill="none" stroke="#059669" stroke-width="2"/>
<line x1="782.0" y1="104.0" x2="798.0" y2="104.0" stroke="#059669" stroke-width="2"/>
<text x="802.0" y="108.0" font-size="11" fill="#059669">xxh3</text>
<polyline points="66.0,439.8 144.1,357.8 203.5,313.7 267.4,282.8 326.2,257.4 402.1,242.9 507.8,227.6 681.3,201.2 768.0,203.6" fill="none" stroke="#d97706" stroke-width="2"/>
<line x1="782.0" y1="121.0" x2="798.0" y2="121.0" stroke="#d97706" stroke-width="2"/>
<text x="802.0" y="125.0" font-size="11" fill="#d97706">xxh64</text>
<polyline points="66.0,437.2 144.1,367.8 203.5,310.2 267.4,279.8 326.2,262.8 402.1,251.7 507.8,244.4 681.3,232.2 768.0,233.9" fill="none" stroke="#7c3aed" stroke-width="2"/>
<line x1="782.0" y1="138.0" x2="798.0" y2="138.0" stroke="#7c3aed" stroke-width="2"/>
<text x="802.0" y="142.0" font-size="11" fill="#7c3aed">murmur3</text>
<polyline points="66.0,574.0 144.1,498.4 203.5,440.6 267.4,412.4 326.2,397.4 402.1,388.0 507.8,383.3 681.3,372.5 768.0,374.9" fill="none" stroke="#0891b2" stroke-width="2"/>
<line x1="782.0" y1="155.0" x2="798.0" y2="155.0" stroke="#0891b2" stroke-width="2"/>
<text x="802.0" y="159.0" font-size="11" fill="#0891b2">siphash24</text>
<polyline points="66.0,395.8 144.1,406.2 203.5,415.7 267.4,433.6 326.2,453.9 402.1,462.0 507.8,474.1 681.3,488.4 768.0,487.9" fill="none" stroke="#be185d" stroke-width="2"/>
<line x1="782.0" y1="172.0" x2="798.0" y2="172.0" stroke="#be185d" stroke-width="2"/>
<text x="802.0" y="176.0" font-size="11" fill="#be185d">fnv1a</text>
<polyline points="66.0,364.7 144.1,295.2 203.5,242.0 267.4,215.0 326.2,206.9 402.1,203.3 507.8,208.5 681.3,214.2 768.0,215.0" fill="none" stroke="#4b5563" stroke-width="2"/>
<line x1="782.0" y1="189.0" x2="798.0" y2="189.0" stroke="#4b5563" stroke-width="2"/>
<text x="802.0" y="193.0" font-size="11" fill="#4b5563">dumbo</text>
</svg>
