<svg xmlns="http://www.w3.org/2000/svg" width="900" height="536" font-family="sans-serif">
<rect width="900" height="536" fill="white"/>
<text x="450" y="24" font-size="15" font-weight="bold" text-anchor="middle">mbo/hash - 128-bit one-shot throughput</text>
<text x="450" y="44" font-size="12" fill="#6b7280" text-anchor="middle">AMD Ryzen 9 9950X 16-Core Processor · x86_64 · 10-core · gcc-15 · 1417af5e</text>
<line x1="66" y1="326.1" x2="768.0" y2="326.1" stroke="#eee"/>
<text x="60" y="329.1" font-size="10" text-anchor="end">10</text>
<line x1="66" y1="151.1" x2="768.0" y2="151.1" stroke="#eee"/>
<text x="60" y="154.1" font-size="10" text-anchor="end">100</text>
<line x1="66.0" y1="62" x2="66.0" y2="484.0" stroke="#f3f4f6"/>
<text x="66.0" y="500.0" font-size="10" text-anchor="middle">1B</text>
<line x1="124.5" y1="62" x2="124.5" y2="484.0" stroke="#f3f4f6"/>
<line x1="183.0" y1="62" x2="183.0" y2="484.0" stroke="#f3f4f6"/>
<text x="183.0" y="500.0" font-size="10" text-anchor="middle">4B</text>
<line x1="241.5" y1="62" x2="241.5" y2="484.0" stroke="#f3f4f6"/>
<line x1="300.0" y1="62" x2="300.0" y2="484.0" stroke="#f3f4f6"/>
<text x="300.0" y="500.0" font-size="10" text-anchor="middle">16B</text>
<line x1="358.5" y1="62" x2="358.5" y2="484.0" stroke="#f3f4f6"/>
<line x1="417.0" y1="62" x2="417.0" y2="484.0" stroke="#f3f4f6"/>
<text x="417.0" y="500.0" font-size="10" text-anchor="middle">64B</text>
<line x1="475.5" y1="62" x2="475.5" y2="484.0" stroke="#f3f4f6"/>
<line x1="534.0" y1="62" x2="534.0" y2="484.0" stroke="#f3f4f6"/>
<text x="534.0" y="500.0" font-size="10" text-anchor="middle">256B</text>
<line x1="592.5" y1="62" x2="592.5" y2="484.0" stroke="#f3f4f6"/>
<line x1="651.0" y1="62" x2="651.0" y2="484.0" stroke="#f3f4f6"/>
<text x="651.0" y="500.0" font-size="10" text-anchor="middle">1Ki</text>
<line x1="709.5" y1="62" x2="709.5" y2="484.0" stroke="#f3f4f6"/>
<line x1="768.0" y1="62" x2="768.0" y2="484.0" stroke="#f3f4f6"/>
<text x="768.0" y="500.0" font-size="10" text-anchor="middle">4Ki</text>
<text x="417" y="524" font-size="12" text-anchor="middle">key length (log scale)</text>
<text x="18" y="273" font-size="12" transform="rotate(-90 18 273)" text-anchor="middle">ns / op (log scale)</text>
<polyline points="66.0,435.4 124.5,434.4 158.7,435.2 183.0,440.2 201.8,440.2 217.2,440.1 230.2,440.1 241.5,440.8 251.4,441.0 268.4,441.1 282.5,441.1 294.6,441.0 300.0,441.0 309.9,423.4 314.5,423.5 326.9,423.5 344.2,423.5 358.5,423.4 373.0,406.8 389.1,406.8 390.9,406.8 392.7,406.9 404.2,395.7 415.7,395.8 417.0,383.9 419.6,383.8 434.8,383.8 450.3,373.7 465.7,356.2 474.8,356.2 475.5,368.1 481.2,367.6 496.9,351.0 512.3,354.5 527.5,339.9 534.0,343.0 543.1,336.3 558.4,325.6 573.7,317.5 589.1,305.6 604.6,300.2 620.0,288.4 635.4,275.3 650.8,261.8 651.0,264.5 666.1,252.9 681.5,237.8 696.9,226.3 712.3,214.8 727.7,201.0 743.1,187.8 758.4,175.4 768.0,167.0" fill="none" stroke="#2563eb" stroke-width="2"/>
<line x1="782.0" y1="70.0" x2="798.0" y2="70.0" stroke="#2563eb" stroke-width="2"/>
<text x="802.0" y="74.0" font-size="11" fill="#2563eb">jumbo</text>
<polyline points="66.0,472.2 124.5,472.3 158.7,472.2 183.0,483.9 201.8,483.9 217.2,484.0 230.2,483.9 241.5,484.0 251.4,463.4 268.4,463.4 282.5,463.4 294.6,463.3 300.0,463.2 309.9,439.9 314.5,439.8 326.9,439.9 344.2,439.8 358.5,439.9 373.0,413.8 389.1,414.0 390.9,414.1 392.7,414.1 404.2,413.7 415.7,414.2 417.0,414.1 419.6,393.7 434.8,393.7 450.3,393.3 465.7,377.9 474.8,377.9 475.5,378.5 481.2,345.1 496.9,335.7 512.3,326.3 527.5,318.0 534.0,192.9 543.1,188.3 558.4,183.8 573.7,179.8 589.1,175.9 604.6,168.6 620.0,162.1 635.4,156.1 650.8,150.5 651.0,150.5 666.1,133.4 681.5,127.0 696.9,117.3 712.3,101.5 727.7,93.4 743.1,83.4 758.4,67.5 768.0,62.0" fill="none" stroke="#dc2626" stroke-width="2"/>
<line x1="782.0" y1="87.0" x2="798.0" y2="87.0" stroke="#dc2626" stroke-width="2"/>
<text x="802.0" y="91.0" font-size="11" fill="#dc2626">xxh3</text>
<polyline points="66.0,428.7 124.5,421.9 158.7,415.9 183.0,421.9 201.8,421.9 217.2,421.8 230.2,421.9 241.5,421.9 251.4,412.2 268.4,403.6 282.5,413.3 294.6,413.1 300.0,416.7 309.9,399.5 314.5,394.7 326.9,399.8 344.2,384.2 358.5,397.5 373.0,383.6 389.1,377.4 390.9,377.3 392.7,380.9 404.2,369.9 415.7,364.3 417.0,366.8 419.6,357.8 434.8,353.6 450.3,344.5 465.7,330.6 474.8,327.7 475.5,327.6 481.2,320.6 496.9,309.0 512.3,296.8 527.5,285.2 534.0,279.4 543.1,271.1 558.4,257.2 573.7,243.0 589.1,230.5 604.6,217.0 620.0,202.4 635.4,188.2 650.8,175.3 651.0,175.1 666.1,161.4 681.5,147.8 696.9,133.6 712.3,120.0 727.7,104.8 743.1,91.2 758.4,77.6 768.0,69.1" fill="none" stroke="#059669" stroke-width="2"/>
<line x1="782.0" y1="104.0" x2="798.0" y2="104.0" stroke="#059669" stroke-width="2"/>
<text x="802.0" y="108.0" font-size="11" fill="#059669">murmur3</text>
</svg>
