<svg xmlns="http://www.w3.org/2000/svg" width="900" height="536" font-family="sans-serif">
<rect width="900" height="536" fill="white"/>
<text x="450" y="24" font-size="15" font-weight="bold" text-anchor="middle">mbo/hash - 64-bit one-shot throughput</text>
<text x="450" y="44" font-size="12" fill="#6b7280" text-anchor="middle">AMD Ryzen 9 9950X 16-Core Processor · x86_64 · 10-core · gcc-15 · 1417af5e</text>
<line x1="66" y1="436.4" x2="768.0" y2="436.4" stroke="#eee"/>
<text x="60" y="439.4" font-size="10" text-anchor="end">1</text>
<line x1="66" y1="328.2" x2="768.0" y2="328.2" stroke="#eee"/>
<text x="60" y="331.2" font-size="10" text-anchor="end">10</text>
<line x1="66" y1="220.0" x2="768.0" y2="220.0" stroke="#eee"/>
<text x="60" y="223.0" font-size="10" text-anchor="end">100</text>
<line x1="66" y1="111.9" x2="768.0" y2="111.9" stroke="#eee"/>
<text x="60" y="114.9" font-size="10" text-anchor="end">1000</text>
<line x1="66.0" y1="62" x2="66.0" y2="484.0" stroke="#f3f4f6"/>
<text x="66.0" y="500.0" font-size="10" text-anchor="middle">1B</text>
<line x1="124.5" y1="62" x2="124.5" y2="484.0" stroke="#f3f4f6"/>
<line x1="183.0" y1="62" x2="183.0" y2="484.0" stroke="#f3f4f6"/>
<text x="183.0" y="500.0" font-size="10" text-anchor="middle">4B</text>
<line x1="241.5" y1="62" x2="241.5" y2="484.0" stroke="#f3f4f6"/>
<line x1="300.0" y1="62" x2="300.0" y2="484.0" stroke="#f3f4f6"/>
<text x="300.0" y="500.0" font-size="10" text-anchor="middle">16B</text>
<line x1="358.5" y1="62" x2="358.5" y2="484.0" stroke="#f3f4f6"/>
<line x1="417.0" y1="62" x2="417.0" y2="484.0" stroke="#f3f4f6"/>
<text x="417.0" y="500.0" font-size="10" text-anchor="middle">64B</text>
<line x1="475.5" y1="62" x2="475.5" y2="484.0" stroke="#f3f4f6"/>
<line x1="534.0" y1="62" x2="534.0" y2="484.0" stroke="#f3f4f6"/>
<text x="534.0" y="500.0" font-size="10" text-anchor="middle">256B</text>
<line x1="592.5" y1="62" x2="592.5" y2="484.0" stroke="#f3f4f6"/>
<line x1="651.0" y1="62" x2="651.0" y2="484.0" stroke="#f3f4f6"/>
<text x="651.0" y="500.0" font-size="10" text-anchor="middle">1Ki</text>
<line x1="709.5" y1="62" x2="709.5" y2="484.0" stroke="#f3f4f6"/>
<line x1="768.0" y1="62" x2="768.0" y2="484.0" stroke="#f3f4f6"/>
<text x="768.0" y="500.0" font-size="10" text-anchor="middle">4Ki</text>
<text x="417" y="524" font-size="12" text-anchor="middle">key length (log scale)</text>
<text x="18" y="273" font-size="12" transform="rotate(-90 18 273)" text-anchor="middle">ns / op (log scale)</text>
<polyline points="66.0,421.0 124.5,418.1 158.7,417.9 183.0,424.2 201.8,424.2 217.2,424.1 230.2,424.2 241.5,424.1 251.4,424.1 268.4,424.1 282.5,424.2 294.6,424.2 300.0,424.1 309.9,407.9 314.5,407.8 326.9,407.8 344.2,407.9 358.5,407.6 373.0,403.3 389.1,403.4 390.9,403.4 392.7,403.4 404.2,397.3 415.7,397.3 417.0,397.3 419.6,389.7 434.8,389.7 450.3,381.8 465.7,368.8 474.8,368.8 475.5,327.0 481.2,326.7 496.9,321.4 512.3,313.6 527.5,307.2 534.0,319.8 543.1,316.1 558.4,302.2 573.7,306.3 589.1,292.3 604.6,288.4 620.0,281.0 635.4,272.9 650.8,264.7 651.0,269.4 666.1,259.4 681.5,252.5 696.9,242.9 712.3,236.1 727.7,227.1 743.1,219.2 758.4,211.5 768.0,206.4" fill="none" stroke="#2563eb" stroke-width="2"/>
<line x1="782.0" y1="70.0" x2="798.0" y2="70.0" stroke="#2563eb" stroke-width="2"/>
<text x="802.0" y="74.0" font-size="11" fill="#2563eb">mumbo</text>
<polyline points="66.0,411.0 124.5,412.7 158.7,412.7 183.0,411.2 201.8,412.9 217.2,412.9 230.2,412.8 241.5,418.3 251.4,418.3 268.4,418.3 282.5,418.3 294.6,418.3 300.0,418.3 309.9,407.8 314.5,407.7 326.9,407.8 344.2,407.8 358.5,407.8 373.0,403.3 389.1,403.4 390.9,403.4 392.7,403.4 404.2,399.4 415.7,399.5 417.0,399.5 419.6,392.0 434.8,391.9 450.3,385.4 465.7,372.8 474.8,372.8 475.5,372.9 481.2,369.1 496.9,362.0 512.3,352.9 527.5,355.7 534.0,353.2 543.1,346.3 558.4,340.1 573.7,328.9 589.1,327.0 604.6,320.1 620.0,312.3 635.4,300.8 650.8,297.3 651.0,297.3 666.1,283.5 681.5,281.5 696.9,269.9 712.3,261.5 727.7,255.7 743.1,248.7 758.4,239.5 768.0,235.0" fill="none" stroke="#dc2626" stroke-width="2"/>
<line x1="782.0" y1="87.0" x2="798.0" y2="87.0" stroke="#dc2626" stroke-width="2"/>
<text x="802.0" y="91.0" font-size="11" fill="#dc2626">rapidhash</text>
<polyline points="66.0,432.5 124.5,432.6 158.7,432.5 183.0,436.9 201.8,436.9 217.2,436.9 230.2,436.9 241.5,436.9 251.4,447.5 268.4,447.5 282.5,447.5 294.6,447.5 300.0,447.3 309.9,413.6 314.5,413.6 326.9,413.6 344.2,413.6 358.5,413.6 373.0,393.0 389.1,392.3 390.9,393.0 392.7,393.0 404.2,393.0 415.7,393.0 417.0,393.0 419.6,378.0 434.8,378.0 450.3,377.9 465.7,367.0 474.8,367.1 475.5,367.5 481.2,354.5 496.9,346.8 512.3,340.9 527.5,335.3 534.0,248.3 543.1,245.2 558.4,242.4 573.7,239.7 589.1,237.3 604.6,232.6 620.0,228.4 635.4,224.5 650.8,221.0 651.0,220.9 666.1,210.6 681.5,206.3 696.9,200.1 712.3,190.3 727.7,185.1 743.1,178.7 758.4,168.9 768.0,165.4" fill="none" stroke="#059669" stroke-width="2"/>
<line x1="782.0" y1="104.0" x2="798.0" y2="104.0" stroke="#059669" stroke-width="2"/>
<text x="802.0" y="108.0" font-size="11" fill="#059669">xxh3</text>
<polyline points="66.0,417.4 124.5,408.9 158.7,401.5 183.0,416.8 201.8,405.4 217.2,398.3 230.2,391.5 241.5,405.3 251.4,396.1 268.4,384.7 282.5,388.1 294.6,376.9 300.0,396.0 309.9,382.9 314.5,377.6 326.9,375.5 344.2,370.4 358.5,368.8 373.0,353.6 389.1,347.5 390.9,344.3 392.7,355.0 404.2,340.1 415.7,335.5 417.0,358.4 419.6,351.3 434.8,336.5 450.3,328.2 465.7,333.6 474.8,323.1 475.5,343.9 481.2,334.6 496.9,330.1 512.3,322.5 527.5,318.3 534.0,323.1 543.1,309.7 558.4,302.2 573.7,296.9 589.1,296.2 604.6,284.4 620.0,282.4 635.4,271.6 650.8,264.5 651.0,269.5 666.1,260.0 681.5,249.2 696.9,245.0 712.3,236.9 727.7,228.4 743.1,220.6 758.4,212.0 768.0,207.4" fill="none" stroke="#d97706" stroke-width="2"/>
<line x1="782.0" y1="121.0" x2="798.0" y2="121.0" stroke="#d97706" stroke-width="2"/>
<text x="802.0" y="125.0" font-size="11" fill="#d97706">xxh64</text>
<polyline points="66.0,395.5 124.5,391.1 158.7,387.2 183.0,391.8 201.8,391.7 217.2,391.8 230.2,391.8 241.5,391.8 251.4,384.5 268.4,378.9 282.5,384.7 294.6,384.7 300.0,388.4 309.9,375.3 314.5,372.8 326.9,376.8 344.2,365.6 358.5,375.2 373.0,365.7 389.1,361.4 390.9,361.3 392.7,364.0 404.2,357.2 415.7,353.8 417.0,355.4 419.6,348.9 434.8,346.5 450.3,340.9 465.7,331.8 474.8,330.4 475.5,330.6 481.2,325.6 496.9,318.7 512.3,311.1 527.5,303.2 534.0,300.1 543.1,294.8 558.4,286.0 573.7,277.1 589.1,269.2 604.6,260.9 620.0,252.1 635.4,243.3 650.8,235.2 651.0,235.1 666.1,226.4 681.5,218.1 696.9,209.4 712.3,200.9 727.7,191.5 743.1,183.1 758.4,174.6 768.0,169.4" fill="none" stroke="#7c3aed" stroke-width="2"/>
<line x1="782.0" y1="138.0" x2="798.0" y2="138.0" stroke="#7c3aed" stroke-width="2"/>
<text x="802.0" y="142.0" font-size="11" fill="#7c3aed">murmur3</text>
<polyline points="66.0,358.1 124.5,354.8 158.7,351.8 183.0,359.7 201.8,359.5 217.2,358.8 230.2,359.5 241.5,348.4 251.4,344.7 268.4,340.5 282.5,343.8 294.6,343.8 300.0,338.4 309.9,336.5 314.5,335.1 326.9,337.3 344.2,327.7 358.5,322.6 373.0,322.4 389.1,316.1 390.9,316.1 392.7,310.8 404.2,310.5 415.7,305.5 417.0,301.4 419.6,300.6 434.8,297.1 450.3,289.8 465.7,280.5 474.8,278.0 475.5,275.6 481.2,273.1 496.9,266.5 512.3,259.0 527.5,251.0 534.0,246.8 543.1,242.9 558.4,235.0 573.7,226.3 589.1,218.4 604.6,209.0 620.0,200.6 635.4,192.4 650.8,184.3 651.0,184.2 666.1,175.9 681.5,167.7 696.9,159.3 712.3,150.9 727.7,142.5 743.1,134.0 758.4,125.5 768.0,120.3" fill="none" stroke="#0891b2" stroke-width="2"/>
<line x1="782.0" y1="155.0" x2="798.0" y2="155.0" stroke="#0891b2" stroke-width="2"/>
<text x="802.0" y="159.0" font-size="11" fill="#0891b2">siphash24</text>
<polyline points="66.0,484.0 124.5,466.5 158.7,451.4 183.0,440.0 201.8,428.9 217.2,422.9 230.2,415.6 241.5,409.3 251.4,402.8 268.4,392.2 282.5,382.9 294.6,374.6 300.0,370.7 309.9,364.0 314.5,360.8 326.9,351.6 344.2,338.0 358.5,327.2 373.0,316.8 389.1,301.9 390.9,300.3 392.7,298.5 404.2,291.3 415.7,282.8 417.0,281.8 419.6,279.4 434.8,269.2 450.3,257.9 465.7,245.4 474.8,238.7 475.5,238.2 481.2,233.9 496.9,220.8 512.3,210.6 527.5,201.4 534.0,197.0 543.1,191.5 558.4,182.1 573.7,173.1 589.1,163.9 604.6,154.9 620.0,145.8 635.4,137.0 650.8,128.2 651.0,128.0 666.1,119.5 681.5,110.7 696.9,102.0 712.3,93.3 727.7,84.6 743.1,76.0 758.4,67.4 768.0,62.0" fill="none" stroke="#be185d" stroke-width="2"/>
<line x1="782.0" y1="172.0" x2="798.0" y2="172.0" stroke="#be185d" stroke-width="2"/>
<text x="802.0" y="176.0" font-size="11" fill="#be185d">fnv1a</text>
<polyline points="66.0,430.8 124.5,422.4 158.7,415.2 183.0,425.7 201.8,425.6 217.2,425.7 230.2,425.6 241.5,425.7 251.4,417.8 268.4,406.1 282.5,420.5 294.6,420.5 300.0,420.4 309.9,402.5 314.5,397.9 326.9,409.2 344.2,390.3 358.5,398.2 373.0,390.0 389.1,381.1 390.9,380.6 392.7,381.0 404.2,373.8 415.7,368.1 417.0,368.3 419.6,354.5 434.8,354.8 450.3,345.8 465.7,334.2 474.8,332.2 475.5,332.2 481.2,325.0 496.9,313.1 512.3,302.9 527.5,294.6 534.0,291.6 543.1,285.6 558.4,276.7 573.7,266.2 589.1,255.8 604.6,244.5 620.0,233.3 635.4,222.0 650.8,212.6 651.0,212.7 666.1,202.3 681.5,192.8 696.9,183.5 712.3,174.3 727.7,165.1 743.1,156.3 758.4,147.3 768.0,141.8" fill="none" stroke="#4b5563" stroke-width="2"/>
<line x1="782.0" y1="189.0" x2="798.0" y2="189.0" stroke="#4b5563" stroke-width="2"/>
<text x="802.0" y="193.0" font-size="11" fill="#4b5563">dumbo</text>
</svg>
