<svg xmlns="http://www.w3.org/2000/svg" width="900" height="536" font-family="sans-serif">
<rect width="900" height="536" fill="white"/>
<text x="450" y="24" font-size="15" font-weight="bold" text-anchor="middle">mbo/hash - 128-bit latency</text>
<text x="450" y="44" font-size="12" fill="#6b7280" text-anchor="middle">AMD Ryzen 9 9950X 16-Core Processor · Linux · x86_64 · 10-core · clang-22 · 29b54ccd · lower is better</text>
<line x1="66" y1="482.1" x2="768.0" y2="482.1" stroke="#eee"/>
<text x="60" y="485.1" font-size="10" text-anchor="end">2</text>
<line x1="66" y1="406.1" x2="768.0" y2="406.1" stroke="#eee"/>
<text x="60" y="409.1" font-size="10" text-anchor="end">5</text>
<line x1="66" y1="348.6" x2="768.0" y2="348.6" stroke="#eee"/>
<text x="60" y="351.6" font-size="10" text-anchor="end">10</text>
<line x1="66" y1="291.1" x2="768.0" y2="291.1" stroke="#eee"/>
<text x="60" y="294.1" font-size="10" text-anchor="end">20</text>
<line x1="66" y1="215.1" x2="768.0" y2="215.1" stroke="#eee"/>
<text x="60" y="218.1" font-size="10" text-anchor="end">50</text>
<line x1="66" y1="157.6" x2="768.0" y2="157.6" stroke="#eee"/>
<text x="60" y="160.6" font-size="10" text-anchor="end">100</text>
<line x1="66" y1="100.1" x2="768.0" y2="100.1" stroke="#eee"/>
<text x="60" y="103.1" font-size="10" text-anchor="end">200</text>
<line x1="66.0" y1="62" x2="66.0" y2="484.0" stroke="#f3f4f6"/>
<text x="66.0" y="500.0" font-size="10" text-anchor="middle">1 B</text>
<line x1="124.5" y1="62" x2="124.5" y2="484.0" stroke="#f3f4f6"/>
<line x1="183.0" y1="62" x2="183.0" y2="484.0" stroke="#f3f4f6"/>
<text x="183.0" y="500.0" font-size="10" text-anchor="middle">4 B</text>
<line x1="241.5" y1="62" x2="241.5" y2="484.0" stroke="#f3f4f6"/>
<line x1="300.0" y1="62" x2="300.0" y2="484.0" stroke="#f3f4f6"/>
<text x="300.0" y="500.0" font-size="10" text-anchor="middle">16 B</text>
<line x1="358.5" y1="62" x2="358.5" y2="484.0" stroke="#f3f4f6"/>
<line x1="417.0" y1="62" x2="417.0" y2="484.0" stroke="#f3f4f6"/>
<text x="417.0" y="500.0" font-size="10" text-anchor="middle">64 B</text>
<line x1="475.5" y1="62" x2="475.5" y2="484.0" stroke="#f3f4f6"/>
<line x1="534.0" y1="62" x2="534.0" y2="484.0" stroke="#f3f4f6"/>
<text x="534.0" y="500.0" font-size="10" text-anchor="middle">256 B</text>
<line x1="592.5" y1="62" x2="592.5" y2="484.0" stroke="#f3f4f6"/>
<line x1="651.0" y1="62" x2="651.0" y2="484.0" stroke="#f3f4f6"/>
<text x="651.0" y="500.0" font-size="10" text-anchor="middle">1 KiB</text>
<line x1="709.5" y1="62" x2="709.5" y2="484.0" stroke="#f3f4f6"/>
<line x1="768.0" y1="62" x2="768.0" y2="484.0" stroke="#f3f4f6"/>
<text x="768.0" y="500.0" font-size="10" text-anchor="middle">4 KiB</text>
<text x="417" y="524" font-size="12" text-anchor="middle">key length (log scale)</text>
<text x="18" y="273" font-size="12" transform="rotate(-90 18 273)" text-anchor="middle">ns / op (log scale)</text>
<polyline points="66.0,473.1 124.5,469.1 158.7,456.3 183.0,467.8 201.8,467.9 217.2,467.8 230.2,467.9 241.5,475.0 251.4,476.3 268.4,476.3 275.7,476.2 282.5,476.1 294.6,476.2 300.0,476.3 309.9,458.6 314.5,458.6 326.9,458.6 330.6,458.4 334.2,458.5 337.7,458.5 344.2,458.5 350.2,458.5 355.8,458.5 358.5,458.5 373.0,442.7 377.3,442.8 389.1,442.7 390.9,442.7 392.7,442.9 394.5,428.2 404.2,428.2 415.7,428.2 417.0,417.5 419.6,417.5 426.9,417.2 434.8,416.8 435.8,417.2 450.3,407.6 460.4,398.3 465.7,390.1 474.8,390.0 475.5,402.0 481.2,401.7 496.9,384.7 512.3,386.8 527.5,371.3 534.0,375.5 543.1,367.1 558.4,355.6 573.7,346.9 589.1,333.3 604.6,327.5 620.0,314.2 635.4,300.5 650.8,284.3 651.0,287.6 666.1,274.3 681.5,257.8 696.9,244.4 712.3,231.6 727.7,216.2 743.1,201.8 758.4,188.0 768.0,178.7" fill="none" stroke="#2563eb" stroke-width="2"/>
<line x1="782.0" y1="70.0" x2="798.0" y2="70.0" stroke="#2563eb" stroke-width="2"/>
<text x="802.0" y="74.0" font-size="11" fill="#2563eb">jumbo</text>
<polyline points="66.0,469.2 124.5,469.2 158.7,469.2 183.0,483.9 201.8,483.9 217.2,483.9 230.2,484.0 241.5,483.9 251.4,469.2 268.4,469.1 275.7,469.1 282.5,469.1 294.6,469.1 300.0,469.2 309.9,450.1 314.5,450.1 326.9,450.2 330.6,449.8 334.2,450.1 337.7,450.0 344.2,450.1 350.2,449.9 355.8,450.1 358.5,450.1 373.0,428.1 377.3,428.1 389.1,428.0 390.9,428.1 392.7,428.1 394.5,428.0 404.2,428.2 415.7,427.6 417.0,428.1 419.6,408.2 426.9,408.7 434.8,408.5 435.8,408.6 450.3,406.9 460.4,393.7 465.7,393.6 474.8,393.2 475.5,394.1 481.2,374.3 496.9,364.0 512.3,353.8 527.5,345.9 534.0,270.0 543.1,269.8 558.4,269.7 573.7,269.7 589.1,269.8 604.6,238.2 620.0,237.4 635.4,236.7 650.8,238.0 651.0,238.1 666.1,206.7 681.5,206.8 696.9,190.4 712.3,174.5 727.7,174.4 743.1,163.0 758.4,142.4 768.0,142.5" fill="none" stroke="#dc2626" stroke-width="2"/>
<line x1="782.0" y1="87.0" x2="798.0" y2="87.0" stroke="#dc2626" stroke-width="2"/>
<text x="802.0" y="91.0" font-size="11" fill="#dc2626">xxh3</text>
<polyline points="66.0,446.5 124.5,446.4 158.7,446.5 183.0,475.9 201.8,475.8 217.2,475.9 230.2,476.0 241.5,475.9 251.4,322.3 268.4,322.3 275.7,459.4 282.5,459.4 294.6,459.6 300.0,449.9 309.9,318.7 314.5,318.7 326.9,434.7 330.6,434.6 334.2,434.7 337.7,412.0 344.2,411.9 350.2,423.9 355.8,423.8 358.5,421.9 373.0,412.2 377.3,412.2 389.1,403.2 390.9,403.1 392.7,402.7 394.5,373.8 404.2,393.0 415.7,385.8 417.0,383.9 419.6,360.7 426.9,374.4 434.8,370.8 435.8,368.4 450.3,356.5 460.4,339.2 465.7,324.2 474.8,338.7 475.5,336.8 481.2,317.0 496.9,318.5 512.3,305.5 527.5,292.3 534.0,286.9 543.1,278.0 558.4,264.0 573.7,245.8 589.1,234.8 604.6,220.6 620.0,205.5 635.4,187.9 650.8,176.2 651.0,176.0 666.1,160.0 681.5,146.4 696.9,131.3 712.3,116.2 727.7,101.4 743.1,86.4 758.4,70.9 768.0,62.0" fill="none" stroke="#059669" stroke-width="2"/>
<line x1="782.0" y1="104.0" x2="798.0" y2="104.0" stroke="#059669" stroke-width="2"/>
<text x="802.0" y="108.0" font-size="11" fill="#059669">murmur3</text>
</svg>
