<svg xmlns="http://www.w3.org/2000/svg" width="900" height="536" font-family="sans-serif">
<rect width="900" height="536" fill="white"/>
<text x="450" y="24" font-size="15" font-weight="bold" text-anchor="middle">mbo/hash - 64-bit throughput (Short)</text>
<text x="450" y="44" font-size="12" fill="#6b7280" text-anchor="middle">AMD Ryzen 9 9950X 16-Core Processor · Linux · x86_64 · 10-core · clang-22 · 29b54ccd</text>
<line x1="66" y1="393.5" x2="768.0" y2="393.5" stroke="#eee"/>
<text x="60" y="396.5" font-size="10" text-anchor="end">1</text>
<line x1="66" y1="289.3" x2="768.0" y2="289.3" stroke="#eee"/>
<text x="60" y="292.3" font-size="10" text-anchor="end">2</text>
<line x1="66" y1="151.6" x2="768.0" y2="151.6" stroke="#eee"/>
<text x="60" y="154.6" font-size="10" text-anchor="end">5</text>
<line x1="66.0" y1="62" x2="66.0" y2="484.0" stroke="#f3f4f6"/>
<line x1="241.5" y1="62" x2="241.5" y2="484.0" stroke="#f3f4f6"/>
<text x="241.5" y="500.0" font-size="10" text-anchor="middle">16 B</text>
<line x1="417.0" y1="62" x2="417.0" y2="484.0" stroke="#f3f4f6"/>
<line x1="592.5" y1="62" x2="592.5" y2="484.0" stroke="#f3f4f6"/>
<text x="592.5" y="500.0" font-size="10" text-anchor="middle">64 B</text>
<line x1="768.0" y1="62" x2="768.0" y2="484.0" stroke="#f3f4f6"/>
<text x="417" y="524" font-size="12" text-anchor="middle">max length (log scale)</text>
<text x="18" y="273" font-size="12" transform="rotate(-90 18 273)" text-anchor="middle">GiB / s (log scale)</text>
<polyline points="66.0,269.7 168.7,174.7 241.5,118.4 333.4,100.1 409.0,75.0 460.5,77.2 544.8,62.1 649.0,62.0 768.0,62.3" fill="none" stroke="#2563eb" stroke-width="2"/>
<line x1="782.0" y1="70.0" x2="798.0" y2="70.0" stroke="#2563eb" stroke-width="2"/>
<text x="802.0" y="74.0" font-size="11" fill="#2563eb">mumbo</text>
<polyline points="66.0,378.3 168.7,199.3 241.5,148.2 333.4,109.9 409.0,78.7 460.5,80.6 544.8,64.8 649.0,64.8 768.0,65.0" fill="none" stroke="#dc2626" stroke-width="2"/>
<line x1="782.0" y1="87.0" x2="798.0" y2="87.0" stroke="#dc2626" stroke-width="2"/>
<text x="802.0" y="91.0" font-size="11" fill="#dc2626">rapidhash</text>
<polyline points="66.0,293.5 168.7,203.4 241.5,147.3 333.4,116.0 409.0,87.5 460.5,91.4 544.8,77.1 649.0,77.3 768.0,77.6" fill="none" stroke="#059669" stroke-width="2"/>
<line x1="782.0" y1="104.0" x2="798.0" y2="104.0" stroke="#059669" stroke-width="2"/>
<text x="802.0" y="108.0" font-size="11" fill="#059669">xxh3</text>
<polyline points="66.0,364.3 168.7,284.2 241.5,238.1 333.4,207.2 409.0,183.2 460.5,186.5 544.8,175.4 649.0,173.7 768.0,173.5" fill="none" stroke="#d97706" stroke-width="2"/>
<line x1="782.0" y1="121.0" x2="798.0" y2="121.0" stroke="#d97706" stroke-width="2"/>
<text x="802.0" y="125.0" font-size="11" fill="#d97706">xxh64</text>
<polyline points="66.0,357.8 168.7,286.5 241.5,235.6 333.4,211.9 409.0,186.5 460.5,189.8 544.8,176.7 649.0,176.5 768.0,177.2" fill="none" stroke="#7c3aed" stroke-width="2"/>
<line x1="782.0" y1="138.0" x2="798.0" y2="138.0" stroke="#7c3aed" stroke-width="2"/>
<text x="802.0" y="142.0" font-size="11" fill="#7c3aed">murmur3</text>
<polyline points="66.0,484.0 168.7,422.2 241.5,358.2 333.4,329.0 409.0,304.7 460.5,307.2 544.8,295.4 649.0,295.5 768.0,296.5" fill="none" stroke="#0891b2" stroke-width="2"/>
<line x1="782.0" y1="155.0" x2="798.0" y2="155.0" stroke="#0891b2" stroke-width="2"/>
<text x="802.0" y="159.0" font-size="11" fill="#0891b2">siphash24</text>
<polyline points="66.0,260.0 168.7,234.5 241.5,225.8 333.4,228.9 409.0,227.9 460.5,234.8 544.8,236.9 649.0,239.1 768.0,238.6" fill="none" stroke="#be185d" stroke-width="2"/>
<line x1="782.0" y1="172.0" x2="798.0" y2="172.0" stroke="#be185d" stroke-width="2"/>
<text x="802.0" y="176.0" font-size="11" fill="#be185d">fnv1a</text>
<polyline points="66.0,278.1 168.7,223.3 241.5,173.9 333.4,146.5 409.0,123.0 460.5,125.1 544.8,113.2 649.0,113.3 768.0,113.8" fill="none" stroke="#4b5563" stroke-width="2"/>
<line x1="782.0" y1="189.0" x2="798.0" y2="189.0" stroke="#4b5563" stroke-width="2"/>
<text x="802.0" y="193.0" font-size="11" fill="#4b5563">dumbo</text>
</svg>
