<svg xmlns="http://www.w3.org/2000/svg" width="900" height="536" font-family="sans-serif">
<rect width="900" height="536" fill="white"/>
<text x="450" y="24" font-size="15" font-weight="bold" text-anchor="middle">mbo/hash - 128-bit latency</text>
<text x="450" y="44" font-size="12" fill="#6b7280" text-anchor="middle">AMD Ryzen 9 9950X 16-Core Processor · Linux · x86_64 · 10-core · gcc-15 · 80a4c8a8</text>
<line x1="66" y1="448.1" x2="768.0" y2="448.1" stroke="#eee"/>
<text x="60" y="451.1" font-size="10" text-anchor="end">2</text>
<line x1="66" y1="378.5" x2="768.0" y2="378.5" stroke="#eee"/>
<text x="60" y="381.5" font-size="10" text-anchor="end">5</text>
<line x1="66" y1="325.8" x2="768.0" y2="325.8" stroke="#eee"/>
<text x="60" y="328.8" font-size="10" text-anchor="end">10</text>
<line x1="66" y1="273.2" x2="768.0" y2="273.2" stroke="#eee"/>
<text x="60" y="276.2" font-size="10" text-anchor="end">20</text>
<line x1="66" y1="203.6" x2="768.0" y2="203.6" stroke="#eee"/>
<text x="60" y="206.6" font-size="10" text-anchor="end">50</text>
<line x1="66" y1="150.9" x2="768.0" y2="150.9" stroke="#eee"/>
<text x="60" y="153.9" font-size="10" text-anchor="end">100</text>
<line x1="66" y1="98.3" x2="768.0" y2="98.3" stroke="#eee"/>
<text x="60" y="101.3" font-size="10" text-anchor="end">200</text>
<line x1="66.0" y1="62" x2="66.0" y2="484.0" stroke="#f3f4f6"/>
<text x="66.0" y="500.0" font-size="10" text-anchor="middle">1 B</text>
<line x1="124.5" y1="62" x2="124.5" y2="484.0" stroke="#f3f4f6"/>
<line x1="183.0" y1="62" x2="183.0" y2="484.0" stroke="#f3f4f6"/>
<text x="183.0" y="500.0" font-size="10" text-anchor="middle">4 B</text>
<line x1="241.5" y1="62" x2="241.5" y2="484.0" stroke="#f3f4f6"/>
<line x1="300.0" y1="62" x2="300.0" y2="484.0" stroke="#f3f4f6"/>
<text x="300.0" y="500.0" font-size="10" text-anchor="middle">16 B</text>
<line x1="358.5" y1="62" x2="358.5" y2="484.0" stroke="#f3f4f6"/>
<line x1="417.0" y1="62" x2="417.0" y2="484.0" stroke="#f3f4f6"/>
<text x="417.0" y="500.0" font-size="10" text-anchor="middle">64 B</text>
<line x1="475.5" y1="62" x2="475.5" y2="484.0" stroke="#f3f4f6"/>
<line x1="534.0" y1="62" x2="534.0" y2="484.0" stroke="#f3f4f6"/>
<text x="534.0" y="500.0" font-size="10" text-anchor="middle">256 B</text>
<line x1="592.5" y1="62" x2="592.5" y2="484.0" stroke="#f3f4f6"/>
<line x1="651.0" y1="62" x2="651.0" y2="484.0" stroke="#f3f4f6"/>
<text x="651.0" y="500.0" font-size="10" text-anchor="middle">1 KiB</text>
<line x1="709.5" y1="62" x2="709.5" y2="484.0" stroke="#f3f4f6"/>
<line x1="768.0" y1="62" x2="768.0" y2="484.0" stroke="#f3f4f6"/>
<text x="768.0" y="500.0" font-size="10" text-anchor="middle">4 KiB</text>
<text x="417" y="524" font-size="12" text-anchor="middle">key length (log scale)</text>
<text x="18" y="273" font-size="12" transform="rotate(-90 18 273)" text-anchor="middle">ns / op (log scale)</text>
<polyline points="66.0,435.3 124.5,434.7 158.7,435.0 183.0,440.0 201.8,440.1 217.2,440.1 230.2,440.1 241.5,440.6 251.4,440.9 268.4,440.9 275.7,440.9 282.5,440.9 294.6,440.8 300.0,440.9 309.9,423.2 314.5,423.4 326.9,423.3 330.6,423.3 334.2,423.4 337.7,423.3 344.2,423.3 350.2,423.3 355.8,423.4 358.5,423.4 373.0,406.8 377.3,406.8 389.1,406.7 390.9,406.8 392.7,406.8 394.5,395.8 404.2,395.8 415.7,395.8 417.0,383.9 419.6,382.9 426.9,383.8 434.8,383.8 435.8,383.9 450.3,373.5 460.4,364.6 465.7,356.2 474.8,356.1 475.5,368.0 481.2,367.7 496.9,350.9 512.3,352.7 527.5,339.7 534.0,343.1 543.1,336.3 558.4,325.7 573.7,317.5 589.1,305.6 604.6,300.4 620.0,288.6 635.4,275.4 650.8,262.0 651.0,264.7 666.1,253.1 681.5,238.1 696.9,226.4 712.3,214.9 727.7,201.1 743.1,187.9 758.4,175.7 768.0,167.1" fill="none" stroke="#2563eb" stroke-width="2"/>
<line x1="782.0" y1="70.0" x2="798.0" y2="70.0" stroke="#2563eb" stroke-width="2"/>
<text x="802.0" y="74.0" font-size="11" fill="#2563eb">jumbo</text>
<polyline points="66.0,472.3 124.5,472.2 158.7,472.3 183.0,484.0 201.8,484.0 217.2,484.0 230.2,484.0 241.5,484.0 251.4,463.3 268.4,463.3 275.7,463.3 282.5,463.4 294.6,463.3 300.0,463.2 309.9,439.8 314.5,439.8 326.9,439.9 330.6,439.8 334.2,439.9 337.7,439.8 344.2,439.8 350.2,439.7 355.8,439.8 358.5,439.9 373.0,413.3 377.3,414.1 389.1,414.0 390.9,414.0 392.7,414.0 394.5,414.1 404.2,414.1 415.7,414.2 417.0,414.2 419.6,393.1 426.9,393.9 434.8,393.4 435.8,393.8 450.3,393.1 460.4,377.9 465.7,377.3 474.8,377.9 475.5,378.5 481.2,345.0 496.9,335.4 512.3,326.3 527.5,317.8 534.0,192.0 543.1,187.5 558.4,182.5 573.7,179.2 589.1,175.4 604.6,168.0 620.0,161.6 635.4,155.5 650.8,149.9 651.0,150.0 666.1,133.2 681.5,126.9 696.9,117.0 712.3,101.4 727.7,93.2 743.1,83.1 758.4,67.4 768.0,62.0" fill="none" stroke="#dc2626" stroke-width="2"/>
<line x1="782.0" y1="87.0" x2="798.0" y2="87.0" stroke="#dc2626" stroke-width="2"/>
<text x="802.0" y="91.0" font-size="11" fill="#dc2626">xxh3</text>
<polyline points="66.0,428.8 124.5,422.0 158.7,416.0 183.0,422.0 201.8,422.0 217.2,422.0 230.2,422.0 241.5,421.9 251.4,412.3 268.4,403.7 275.7,413.3 282.5,413.3 294.6,413.3 300.0,416.8 309.9,399.5 314.5,394.8 326.9,399.7 330.6,399.8 334.2,399.8 337.7,392.0 344.2,384.1 350.2,393.1 355.8,393.0 358.5,397.5 373.0,383.6 377.3,383.7 389.1,377.4 390.9,377.5 392.7,380.8 394.5,371.0 404.2,370.0 415.7,364.2 417.0,366.8 419.6,357.7 426.9,357.3 434.8,353.5 435.8,354.8 450.3,344.6 460.4,332.0 465.7,330.6 474.8,327.7 475.5,327.5 481.2,320.6 496.9,308.9 512.3,296.3 527.5,285.0 534.0,279.2 543.1,270.9 558.4,257.1 573.7,242.7 589.1,230.4 604.6,216.9 620.0,202.4 635.4,188.2 650.8,175.2 651.0,175.1 666.1,161.3 681.5,147.7 696.9,133.6 712.3,119.9 727.7,105.0 743.1,91.4 758.4,77.7 768.0,69.2" fill="none" stroke="#059669" stroke-width="2"/>
<line x1="782.0" y1="104.0" x2="798.0" y2="104.0" stroke="#059669" stroke-width="2"/>
<text x="802.0" y="108.0" font-size="11" fill="#059669">murmur3</text>
</svg>
