<svg xmlns="http://www.w3.org/2000/svg" width="900" height="626" font-family="sans-serif">
<rect width="900" height="626" fill="white"/>
<text x="450" y="24" font-size="15" font-weight="bold" text-anchor="middle">mbo/hash - 64-bit throughput (Web)</text>
<text x="450" y="44" font-size="12" fill="#6b7280" text-anchor="middle">AMD Ryzen 9 9950X 16-Core Processor · Linux · x86_64 · 10-core · gcc-15 · 29b54ccd · higher is better</text>
<line x1="66" y1="479.7" x2="768.0" y2="479.7" stroke="#eee"/>
<text x="60" y="482.7" font-size="10" text-anchor="end">2</text>
<line x1="66" y1="326.5" x2="768.0" y2="326.5" stroke="#eee"/>
<text x="60" y="329.5" font-size="10" text-anchor="end">5</text>
<line x1="66" y1="210.6" x2="768.0" y2="210.6" stroke="#eee"/>
<text x="60" y="213.6" font-size="10" text-anchor="end">10</text>
<line x1="66" y1="94.6" x2="768.0" y2="94.6" stroke="#eee"/>
<text x="60" y="97.6" font-size="10" text-anchor="end">20</text>
<line x1="74.1" y1="62" x2="74.1" y2="574.0" stroke="#f3f4f6"/>
<text x="74.1" y="590.0" font-size="10" text-anchor="middle">16 B</text>
<line x1="160.8" y1="62" x2="160.8" y2="574.0" stroke="#f3f4f6"/>
<line x1="247.6" y1="62" x2="247.6" y2="574.0" stroke="#f3f4f6"/>
<text x="247.6" y="590.0" font-size="10" text-anchor="middle">64 B</text>
<line x1="334.3" y1="62" x2="334.3" y2="574.0" stroke="#f3f4f6"/>
<line x1="421.0" y1="62" x2="421.0" y2="574.0" stroke="#f3f4f6"/>
<text x="421.0" y="590.0" font-size="10" text-anchor="middle">256 B</text>
<line x1="507.8" y1="62" x2="507.8" y2="574.0" stroke="#f3f4f6"/>
<line x1="594.5" y1="62" x2="594.5" y2="574.0" stroke="#f3f4f6"/>
<text x="594.5" y="590.0" font-size="10" text-anchor="middle">1 KiB</text>
<line x1="681.3" y1="62" x2="681.3" y2="574.0" stroke="#f3f4f6"/>
<line x1="768.0" y1="62" x2="768.0" y2="574.0" stroke="#f3f4f6"/>
<text x="768.0" y="590.0" font-size="10" text-anchor="middle">4 KiB</text>
<text x="417" y="614" font-size="12" text-anchor="middle">max length (log scale)</text>
<text x="18" y="318" font-size="12" transform="rotate(-90 18 318)" text-anchor="middle">GiB / s (log scale)</text>
<polyline points="66.0,335.6 144.1,251.9 203.5,182.1 267.4,135.3 326.2,115.2 402.1,118.4 507.8,114.4 681.3,103.4 768.0,105.7" fill="none" stroke="#2563eb" stroke-width="2"/>
<line x1="782.0" y1="70.0" x2="798.0" y2="70.0" stroke="#2563eb" stroke-width="2"/>
<text x="802.0" y="74.0" font-size="11" fill="#2563eb">mumbo</text>
<polyline points="66.0,338.1 144.1,250.8 203.5,168.5 267.4,125.6 326.2,107.2 402.1,95.6 507.8,82.9 681.3,62.0 768.0,65.3" fill="none" stroke="#dc2626" stroke-width="2"/>
<line x1="782.0" y1="87.0" x2="798.0" y2="87.0" stroke="#dc2626" stroke-width="2"/>
<text x="802.0" y="91.0" font-size="11" fill="#dc2626">rapidhash</text>
<polyline points="66.0,281.7 144.1,223.4 203.5,179.6 267.4,146.8 326.2,126.4 402.1,117.7 507.8,189.6 681.3,195.0 768.0,203.5" fill="none" stroke="#059669" stroke-width="2"/>
<line x1="782.0" y1="104.0" x2="798.0" y2="104.0" stroke="#059669" stroke-width="2"/>
<text x="802.0" y="108.0" font-size="11" fill="#059669">xxh3</text>
<polyline points="66.0,423.7 144.1,352.9 203.5,312.8 267.4,283.7 326.2,257.8 402.1,244.1 507.8,228.4 681.3,202.0 768.0,204.2" fill="none" stroke="#d97706" stroke-width="2"/>
<line x1="782.0" y1="121.0" x2="798.0" y2="121.0" stroke="#d97706" stroke-width="2"/>
<text x="802.0" y="125.0" font-size="11" fill="#d97706">xxh64</text>
<polyline points="66.0,450.1 144.1,371.7 203.5,305.9 267.4,269.9 326.2,249.1 402.1,238.3 507.8,231.3 681.3,218.2 768.0,220.8" fill="none" stroke="#7c3aed" stroke-width="2"/>
<line x1="782.0" y1="138.0" x2="798.0" y2="138.0" stroke="#7c3aed" stroke-width="2"/>
<text x="802.0" y="142.0" font-size="11" fill="#7c3aed">murmur3</text>
<polyline points="66.0,574.0 144.1,502.5 203.5,447.4 267.4,420.4 326.2,405.6 402.1,397.3 507.8,393.2 681.3,383.6 768.0,385.5" fill="none" stroke="#0891b2" stroke-width="2"/>
<line x1="782.0" y1="155.0" x2="798.0" y2="155.0" stroke="#0891b2" stroke-width="2"/>
<text x="802.0" y="159.0" font-size="11" fill="#0891b2">siphash24</text>
<polyline points="66.0,397.9 144.1,423.0 203.5,444.3 267.4,469.7 326.2,487.0 402.1,493.4 507.8,503.5 681.3,513.9 768.0,513.9" fill="none" stroke="#be185d" stroke-width="2"/>
<line x1="782.0" y1="172.0" x2="798.0" y2="172.0" stroke="#be185d" stroke-width="2"/>
<text x="802.0" y="176.0" font-size="11" fill="#be185d">fnv1a</text>
<polyline points="66.0,343.2 144.1,280.2 203.5,231.8 267.4,213.1 326.2,211.6 402.1,209.9 507.8,219.3 681.3,229.3 768.0,229.3" fill="none" stroke="#4b5563" stroke-width="2"/>
<line x1="782.0" y1="189.0" x2="798.0" y2="189.0" stroke="#4b5563" stroke-width="2"/>
<text x="802.0" y="193.0" font-size="11" fill="#4b5563">dumbo</text>
</svg>
