<svg xmlns="http://www.w3.org/2000/svg" width="900" height="536" font-family="sans-serif">
<rect width="900" height="536" fill="white"/>
<text x="450" y="24" font-size="15" font-weight="bold" text-anchor="middle">mbo/hash - 128-bit one-shot throughput</text>
<text x="450" y="44" font-size="12" fill="#6b7280" text-anchor="middle">AMD Ryzen 9 9950X 16-Core Processor · Linux · x86_64 · 10-core · gcc-15 · cc23c11a</text>
<line x1="66" y1="325.7" x2="768.0" y2="325.7" stroke="#eee"/>
<text x="60" y="328.7" font-size="10" text-anchor="end">10</text>
<line x1="66" y1="150.8" x2="768.0" y2="150.8" stroke="#eee"/>
<text x="60" y="153.8" font-size="10" text-anchor="end">100</text>
<line x1="66.0" y1="62" x2="66.0" y2="484.0" stroke="#f3f4f6"/>
<text x="66.0" y="500.0" font-size="10" text-anchor="middle">1 B</text>
<line x1="124.5" y1="62" x2="124.5" y2="484.0" stroke="#f3f4f6"/>
<line x1="183.0" y1="62" x2="183.0" y2="484.0" stroke="#f3f4f6"/>
<text x="183.0" y="500.0" font-size="10" text-anchor="middle">4 B</text>
<line x1="241.5" y1="62" x2="241.5" y2="484.0" stroke="#f3f4f6"/>
<line x1="300.0" y1="62" x2="300.0" y2="484.0" stroke="#f3f4f6"/>
<text x="300.0" y="500.0" font-size="10" text-anchor="middle">16 B</text>
<line x1="358.5" y1="62" x2="358.5" y2="484.0" stroke="#f3f4f6"/>
<line x1="417.0" y1="62" x2="417.0" y2="484.0" stroke="#f3f4f6"/>
<text x="417.0" y="500.0" font-size="10" text-anchor="middle">64 B</text>
<line x1="475.5" y1="62" x2="475.5" y2="484.0" stroke="#f3f4f6"/>
<line x1="534.0" y1="62" x2="534.0" y2="484.0" stroke="#f3f4f6"/>
<text x="534.0" y="500.0" font-size="10" text-anchor="middle">256 B</text>
<line x1="592.5" y1="62" x2="592.5" y2="484.0" stroke="#f3f4f6"/>
<line x1="651.0" y1="62" x2="651.0" y2="484.0" stroke="#f3f4f6"/>
<text x="651.0" y="500.0" font-size="10" text-anchor="middle">1 KiB</text>
<line x1="709.5" y1="62" x2="709.5" y2="484.0" stroke="#f3f4f6"/>
<line x1="768.0" y1="62" x2="768.0" y2="484.0" stroke="#f3f4f6"/>
<text x="768.0" y="500.0" font-size="10" text-anchor="middle">4 KiB</text>
<text x="417" y="524" font-size="12" text-anchor="middle">key length (log scale)</text>
<text x="18" y="273" font-size="12" transform="rotate(-90 18 273)" text-anchor="middle">ns / op (log scale)</text>
<polyline points="66.0,435.2 124.5,434.2 158.7,435.0 183.0,439.9 201.8,439.9 217.2,439.9 230.2,439.8 241.5,440.5 251.4,440.7 268.4,440.8 275.7,440.7 282.5,440.7 294.6,440.7 300.0,440.8 309.9,423.3 314.5,423.3 326.9,423.3 330.6,423.3 334.2,423.3 337.7,423.3 344.2,423.2 350.2,423.2 355.8,423.2 358.5,423.3 373.0,406.7 377.3,406.7 389.1,406.7 390.9,406.6 392.7,406.8 394.5,395.7 404.2,395.7 415.7,395.7 417.0,383.7 419.6,383.8 426.9,383.7 434.8,383.8 435.8,383.8 450.3,373.6 460.4,364.5 465.7,356.0 474.8,355.9 475.5,368.0 481.2,368.0 496.9,351.1 512.3,354.3 527.5,339.8 534.0,342.9 543.1,336.1 558.4,325.7 573.7,317.6 589.1,305.6 604.6,300.3 620.0,288.5 635.4,275.4 650.8,261.7 651.0,264.7 666.1,253.1 681.5,238.1 696.9,226.4 712.3,214.9 727.7,201.1 743.1,188.0 758.4,175.7 768.0,167.1" fill="none" stroke="#2563eb" stroke-width="2"/>
<line x1="782.0" y1="70.0" x2="798.0" y2="70.0" stroke="#2563eb" stroke-width="2"/>
<text x="802.0" y="74.0" font-size="11" fill="#2563eb">jumbo</text>
<polyline points="66.0,472.3 124.5,472.3 158.7,472.3 183.0,484.0 201.8,484.0 217.2,484.0 230.2,483.9 241.5,484.0 251.4,463.3 268.4,463.2 275.7,463.3 282.5,463.3 294.6,463.3 300.0,463.3 309.9,439.8 314.5,439.9 326.9,440.0 330.6,439.8 334.2,439.9 337.7,440.0 344.2,439.8 350.2,439.9 355.8,439.9 358.5,440.0 373.0,414.0 377.3,414.2 389.1,414.0 390.9,414.0 392.7,414.0 394.5,414.0 404.2,414.0 415.7,413.4 417.0,414.1 419.6,393.6 426.9,393.9 434.8,393.2 435.8,393.9 450.3,393.4 460.4,377.8 465.7,377.8 474.8,377.8 475.5,378.6 481.2,345.3 496.9,335.7 512.3,326.6 527.5,318.4 534.0,192.8 543.1,188.0 558.4,183.7 573.7,179.7 589.1,175.9 604.6,168.5 620.0,162.0 635.4,155.7 650.8,150.3 651.0,150.4 666.1,133.4 681.5,127.1 696.9,117.3 712.3,101.7 727.7,93.5 743.1,83.4 758.4,67.7 768.0,62.0" fill="none" stroke="#dc2626" stroke-width="2"/>
<line x1="782.0" y1="87.0" x2="798.0" y2="87.0" stroke="#dc2626" stroke-width="2"/>
<text x="802.0" y="91.0" font-size="11" fill="#dc2626">xxh3</text>
<polyline points="66.0,428.8 124.5,422.0 158.7,415.8 183.0,421.9 201.8,422.1 217.2,422.0 230.2,421.9 241.5,421.8 251.4,412.3 268.4,403.7 275.7,413.2 282.5,413.2 294.6,413.1 300.0,416.7 309.9,399.4 314.5,394.8 326.9,399.6 330.6,399.8 334.2,400.0 337.7,392.0 344.2,384.2 350.2,393.0 355.8,393.0 358.5,397.4 373.0,383.6 377.3,383.5 389.1,377.4 390.9,377.4 392.7,380.9 394.5,371.0 404.2,369.9 415.7,364.3 417.0,366.8 419.6,357.7 426.9,357.3 434.8,353.6 435.8,354.8 450.3,344.5 460.4,332.0 465.7,330.5 474.8,327.7 475.5,327.5 481.2,320.5 496.9,308.9 512.3,296.6 527.5,285.0 534.0,279.2 543.1,270.9 558.4,257.1 573.7,242.8 589.1,230.4 604.6,216.9 620.0,202.3 635.4,188.1 650.8,175.2 651.0,175.0 666.1,160.2 681.5,147.7 696.9,133.6 712.3,119.8 727.7,104.9 743.1,91.3 758.4,77.6 768.0,69.1" fill="none" stroke="#059669" stroke-width="2"/>
<line x1="782.0" y1="104.0" x2="798.0" y2="104.0" stroke="#059669" stroke-width="2"/>
<text x="802.0" y="108.0" font-size="11" fill="#059669">murmur3</text>
</svg>
