<svg xmlns="http://www.w3.org/2000/svg" width="900" height="536" font-family="sans-serif">
<rect width="900" height="536" fill="white"/>
<text x="450" y="24" font-size="15" font-weight="bold" text-anchor="middle">mbo/hash - 64-bit latency</text>
<text x="450" y="44" font-size="12" fill="#6b7280" text-anchor="middle">AMD Ryzen 9 9950X 16-Core Processor · Linux · x86_64 · 10-core · gcc-15 · 80a4c8a8</text>
<line x1="66" y1="436.2" x2="768.0" y2="436.2" stroke="#eee"/>
<text x="60" y="439.2" font-size="10" text-anchor="end">1</text>
<line x1="66" y1="328.0" x2="768.0" y2="328.0" stroke="#eee"/>
<text x="60" y="331.0" font-size="10" text-anchor="end">10</text>
<line x1="66" y1="219.9" x2="768.0" y2="219.9" stroke="#eee"/>
<text x="60" y="222.9" font-size="10" text-anchor="end">100</text>
<line x1="66" y1="111.8" x2="768.0" y2="111.8" stroke="#eee"/>
<text x="60" y="114.8" font-size="10" text-anchor="end">1000</text>
<line x1="66.0" y1="62" x2="66.0" y2="484.0" stroke="#f3f4f6"/>
<text x="66.0" y="500.0" font-size="10" text-anchor="middle">1 B</text>
<line x1="124.5" y1="62" x2="124.5" y2="484.0" stroke="#f3f4f6"/>
<line x1="183.0" y1="62" x2="183.0" y2="484.0" stroke="#f3f4f6"/>
<text x="183.0" y="500.0" font-size="10" text-anchor="middle">4 B</text>
<line x1="241.5" y1="62" x2="241.5" y2="484.0" stroke="#f3f4f6"/>
<line x1="300.0" y1="62" x2="300.0" y2="484.0" stroke="#f3f4f6"/>
<text x="300.0" y="500.0" font-size="10" text-anchor="middle">16 B</text>
<line x1="358.5" y1="62" x2="358.5" y2="484.0" stroke="#f3f4f6"/>
<line x1="417.0" y1="62" x2="417.0" y2="484.0" stroke="#f3f4f6"/>
<text x="417.0" y="500.0" font-size="10" text-anchor="middle">64 B</text>
<line x1="475.5" y1="62" x2="475.5" y2="484.0" stroke="#f3f4f6"/>
<line x1="534.0" y1="62" x2="534.0" y2="484.0" stroke="#f3f4f6"/>
<text x="534.0" y="500.0" font-size="10" text-anchor="middle">256 B</text>
<line x1="592.5" y1="62" x2="592.5" y2="484.0" stroke="#f3f4f6"/>
<line x1="651.0" y1="62" x2="651.0" y2="484.0" stroke="#f3f4f6"/>
<text x="651.0" y="500.0" font-size="10" text-anchor="middle">1 KiB</text>
<line x1="709.5" y1="62" x2="709.5" y2="484.0" stroke="#f3f4f6"/>
<line x1="768.0" y1="62" x2="768.0" y2="484.0" stroke="#f3f4f6"/>
<text x="768.0" y="500.0" font-size="10" text-anchor="middle">4 KiB</text>
<text x="417" y="524" font-size="12" text-anchor="middle">key length (log scale)</text>
<text x="18" y="273" font-size="12" transform="rotate(-90 18 273)" text-anchor="middle">ns / op (log scale)</text>
<polyline points="66.0,421.0 124.5,418.1 158.7,418.0 183.0,424.2 201.8,424.1 217.2,424.2 230.2,424.2 241.5,423.5 251.4,424.1 268.4,424.0 275.7,424.0 282.5,424.0 294.6,424.2 300.0,424.1 309.9,407.9 314.5,407.9 326.9,407.0 330.6,407.8 334.2,407.9 337.7,407.3 344.2,407.8 350.2,407.8 355.8,407.8 358.5,407.6 373.0,403.2 377.3,403.2 389.1,403.2 390.9,403.2 392.7,403.2 394.5,397.3 404.2,397.3 415.7,397.3 417.0,397.3 419.6,389.5 426.9,389.7 434.8,389.7 435.8,389.7 450.3,381.6 460.4,374.5 465.7,368.9 474.8,368.9 475.5,328.1 481.2,328.0 496.9,321.4 512.3,313.5 527.5,307.1 534.0,320.1 543.1,316.2 558.4,302.2 573.7,306.1 589.1,292.3 604.6,288.5 620.0,281.0 635.4,272.9 650.8,264.8 651.0,269.3 666.1,259.5 681.5,252.6 696.9,243.0 712.3,236.1 727.7,227.1 743.1,219.2 758.4,211.6 768.0,206.3" fill="none" stroke="#2563eb" stroke-width="2"/>
<line x1="782.0" y1="70.0" x2="798.0" y2="70.0" stroke="#2563eb" stroke-width="2"/>
<text x="802.0" y="74.0" font-size="11" fill="#2563eb">mumbo</text>
<polyline points="66.0,411.1 124.5,412.7 158.7,412.8 183.0,412.9 201.8,412.7 217.2,412.8 230.2,411.2 241.5,418.3 251.4,418.2 268.4,418.3 275.7,418.2 282.5,418.3 294.6,418.2 300.0,418.2 309.9,407.8 314.5,407.8 326.9,407.7 330.6,407.8 334.2,407.8 337.7,407.7 344.2,407.8 350.2,407.7 355.8,407.7 358.5,407.7 373.0,403.3 377.3,403.3 389.1,403.3 390.9,403.3 392.7,403.3 394.5,399.4 404.2,399.4 415.7,399.4 417.0,399.5 419.6,392.0 426.9,391.9 434.8,391.9 435.8,392.0 450.3,385.4 460.4,379.4 465.7,372.8 474.8,372.8 475.5,372.8 481.2,369.0 496.9,361.8 512.3,351.3 527.5,355.6 534.0,353.2 543.1,346.3 558.4,339.6 573.7,328.9 589.1,327.0 604.6,320.1 620.0,312.3 635.4,300.9 650.8,297.3 651.0,297.3 666.1,283.4 681.5,281.5 696.9,270.0 712.3,261.5 727.7,255.7 743.1,248.7 758.4,239.5 768.0,235.0" fill="none" stroke="#dc2626" stroke-width="2"/>
<line x1="782.0" y1="87.0" x2="798.0" y2="87.0" stroke="#dc2626" stroke-width="2"/>
<text x="802.0" y="91.0" font-size="11" fill="#dc2626">rapidhash</text>
<polyline points="66.0,432.5 124.5,432.6 158.7,432.6 183.0,436.8 201.8,436.9 217.2,436.9 230.2,436.9 241.5,436.9 251.4,447.4 268.4,447.4 275.7,447.6 282.5,447.5 294.6,447.4 300.0,447.4 309.9,413.6 314.5,413.6 326.9,413.6 330.6,413.6 334.2,413.6 337.7,413.5 344.2,413.5 350.2,413.4 355.8,413.5 358.5,413.6 373.0,393.0 377.3,392.9 389.1,392.9 390.9,392.3 392.7,393.0 394.5,392.9 404.2,393.0 415.7,393.0 417.0,393.0 419.6,377.7 426.9,378.2 434.8,377.8 435.8,378.3 450.3,377.7 460.4,367.1 465.7,366.9 474.8,367.2 475.5,367.6 481.2,354.2 496.9,346.4 512.3,340.9 527.5,335.1 534.0,247.6 543.1,244.6 558.4,241.4 573.7,239.3 589.1,236.7 604.6,232.0 620.0,227.9 635.4,224.1 650.8,220.5 651.0,220.5 666.1,209.9 681.5,205.9 696.9,199.7 712.3,189.9 727.7,184.7 743.1,177.6 758.4,168.6 768.0,165.1" fill="none" stroke="#059669" stroke-width="2"/>
<line x1="782.0" y1="104.0" x2="798.0" y2="104.0" stroke="#059669" stroke-width="2"/>
<text x="802.0" y="108.0" font-size="11" fill="#059669">xxh3</text>
<polyline points="66.0,417.3 124.5,408.9 158.7,401.4 183.0,416.8 201.8,405.3 217.2,398.3 230.2,391.5 241.5,405.4 251.4,396.0 268.4,384.7 275.7,396.1 282.5,388.0 294.6,376.9 300.0,395.9 309.9,382.9 314.5,377.7 326.9,375.6 330.6,370.6 334.2,387.6 337.7,380.3 344.2,370.6 350.2,373.8 355.8,364.3 358.5,368.8 373.0,353.6 377.3,360.0 389.1,347.6 390.9,344.3 392.7,355.0 394.5,351.1 404.2,340.1 415.7,335.2 417.0,358.4 419.6,351.2 426.9,351.4 434.8,336.6 435.8,347.7 450.3,328.3 460.4,334.3 465.7,333.5 474.8,323.0 475.5,343.8 481.2,334.7 496.9,330.2 512.3,322.6 527.5,318.3 534.0,323.1 543.1,309.7 558.4,302.1 573.7,296.8 589.1,296.1 604.6,284.2 620.0,282.2 635.4,271.5 650.8,264.5 651.0,269.5 666.1,260.0 681.5,249.2 696.9,245.0 712.3,237.0 727.7,228.4 743.1,220.7 758.4,212.0 768.0,207.5" fill="none" stroke="#d97706" stroke-width="2"/>
<line x1="782.0" y1="121.0" x2="798.0" y2="121.0" stroke="#d97706" stroke-width="2"/>
<text x="802.0" y="125.0" font-size="11" fill="#d97706">xxh64</text>
<polyline points="66.0,395.6 124.5,391.2 158.7,387.3 183.0,391.9 201.8,391.9 217.2,391.9 230.2,391.9 241.5,391.9 251.4,384.7 268.4,379.0 275.7,384.8 282.5,384.8 294.6,384.9 300.0,388.4 309.9,375.3 314.5,372.9 326.9,376.8 330.6,376.8 334.2,376.9 337.7,371.2 344.2,365.7 350.2,371.9 355.8,371.9 358.5,375.2 373.0,365.8 377.3,365.8 389.1,361.4 390.9,361.4 392.7,364.0 394.5,358.1 404.2,357.3 415.7,353.9 417.0,355.4 419.6,348.9 426.9,349.6 434.8,346.5 435.8,348.1 450.3,340.9 460.4,333.2 465.7,331.8 474.8,330.4 475.5,330.5 481.2,325.5 496.9,318.6 512.3,311.0 527.5,303.1 534.0,300.0 543.1,294.6 558.4,285.9 573.7,277.0 589.1,269.2 604.6,260.8 620.0,252.0 635.4,243.2 650.8,235.1 651.0,235.0 666.1,226.4 681.5,218.1 696.9,208.6 712.3,200.8 727.7,191.5 743.1,183.1 758.4,174.6 768.0,169.4" fill="none" stroke="#7c3aed" stroke-width="2"/>
<line x1="782.0" y1="138.0" x2="798.0" y2="138.0" stroke="#7c3aed" stroke-width="2"/>
<text x="802.0" y="142.0" font-size="11" fill="#7c3aed">murmur3</text>
<polyline points="66.0,357.6 124.5,355.2 158.7,352.1 183.0,359.2 201.8,358.8 217.2,358.9 230.2,359.2 241.5,348.4 251.4,344.7 268.4,340.5 275.7,343.8 282.5,343.8 294.6,343.8 300.0,338.5 309.9,336.5 314.5,335.2 326.9,337.4 330.6,337.4 334.2,329.9 337.7,329.6 344.2,327.8 350.2,329.4 355.8,329.4 358.5,322.6 373.0,322.4 377.3,316.2 389.1,316.2 390.9,316.1 392.7,310.7 394.5,310.6 404.2,310.6 415.7,305.5 417.0,301.2 419.6,300.6 426.9,297.0 434.8,297.1 435.8,293.4 450.3,289.7 460.4,282.8 465.7,280.5 474.8,277.9 475.5,275.5 481.2,273.0 496.9,266.5 512.3,259.0 527.5,250.9 534.0,246.8 543.1,242.8 558.4,234.9 573.7,226.3 589.1,218.3 604.6,208.8 620.0,200.7 635.4,192.3 650.8,184.1 651.0,184.2 666.1,175.8 681.5,167.7 696.9,159.3 712.3,150.9 727.7,142.3 743.1,134.0 758.4,125.5 768.0,120.3" fill="none" stroke="#0891b2" stroke-width="2"/>
<line x1="782.0" y1="155.0" x2="798.0" y2="155.0" stroke="#0891b2" stroke-width="2"/>
<text x="802.0" y="159.0" font-size="11" fill="#0891b2">siphash24</text>
<polyline points="66.0,484.0 124.5,466.4 158.7,451.4 183.0,440.0 201.8,425.3 217.2,422.8 230.2,415.7 241.5,409.2 251.4,402.9 268.4,392.2 275.7,386.9 282.5,382.9 294.6,374.5 300.0,370.6 309.9,363.9 314.5,360.7 326.9,351.3 330.6,347.5 334.2,344.1 337.7,342.0 344.2,337.9 350.2,333.6 355.8,329.2 358.5,327.1 373.0,316.8 377.3,313.6 389.1,302.0 390.9,299.9 392.7,298.2 394.5,297.5 404.2,291.2 415.7,282.5 417.0,281.7 419.6,279.2 426.9,274.0 434.8,269.1 435.8,268.5 450.3,257.7 460.4,249.4 465.7,245.3 474.8,238.6 475.5,238.1 481.2,233.9 496.9,220.8 512.3,210.6 527.5,201.3 534.0,196.9 543.1,191.4 558.4,182.1 573.7,173.1 589.1,163.8 604.6,154.9 620.0,145.8 635.4,136.9 650.8,128.1 651.0,128.0 666.1,119.4 681.5,110.7 696.9,102.0 712.3,93.3 727.7,84.6 743.1,75.9 758.4,67.3 768.0,62.0" fill="none" stroke="#be185d" stroke-width="2"/>
<line x1="782.0" y1="172.0" x2="798.0" y2="172.0" stroke="#be185d" stroke-width="2"/>
<text x="802.0" y="176.0" font-size="11" fill="#be185d">fnv1a</text>
<polyline points="66.0,430.7 124.5,422.5 158.7,415.2 183.0,425.6 201.8,425.6 217.2,425.6 230.2,425.6 241.5,425.6 251.4,417.7 268.4,406.1 275.7,420.4 282.5,420.5 294.6,420.4 300.0,420.4 309.9,402.5 314.5,397.9 326.9,409.2 330.6,409.2 334.2,409.2 337.7,397.3 344.2,390.3 350.2,398.4 355.8,398.3 358.5,398.2 373.0,389.9 377.3,390.0 389.1,380.9 390.9,380.5 392.7,381.0 394.5,373.4 404.2,373.9 415.7,368.4 417.0,368.4 419.6,356.0 426.9,357.5 434.8,354.6 435.8,354.7 450.3,345.6 460.4,336.3 465.7,334.0 474.8,332.0 475.5,332.1 481.2,324.7 496.9,312.8 512.3,302.8 527.5,294.3 534.0,291.3 543.1,285.4 558.4,276.6 573.7,266.2 589.1,255.7 604.6,244.4 620.0,233.2 635.4,221.9 650.8,212.6 651.0,212.6 666.1,202.2 681.5,192.7 696.9,183.4 712.3,174.2 727.7,165.1 743.1,156.2 758.4,147.3 768.0,141.8" fill="none" stroke="#4b5563" stroke-width="2"/>
<line x1="782.0" y1="189.0" x2="798.0" y2="189.0" stroke="#4b5563" stroke-width="2"/>
<text x="802.0" y="193.0" font-size="11" fill="#4b5563">dumbo</text>
</svg>
