<svg xmlns="http://www.w3.org/2000/svg" width="900" height="536" font-family="sans-serif">
<rect width="900" height="536" fill="white"/>
<text x="450" y="24" font-size="15" font-weight="bold" text-anchor="middle">mbo/hash - 128-bit throughput (Web)</text>
<text x="450" y="44" font-size="12" fill="#6b7280" text-anchor="middle">AMD Ryzen 9 9950X 16-Core Processor · Linux · x86_64 · 10-core · gcc-15 · 29b54ccd</text>
<line x1="66" y1="311.1" x2="768.0" y2="311.1" stroke="#eee"/>
<text x="60" y="314.1" font-size="10" text-anchor="end">5</text>
<line x1="66" y1="161.0" x2="768.0" y2="161.0" stroke="#eee"/>
<text x="60" y="164.0" font-size="10" text-anchor="end">10</text>
<line x1="74.1" y1="62" x2="74.1" y2="484.0" stroke="#f3f4f6"/>
<text x="74.1" y="500.0" font-size="10" text-anchor="middle">16 B</text>
<line x1="160.8" y1="62" x2="160.8" y2="484.0" stroke="#f3f4f6"/>
<line x1="247.6" y1="62" x2="247.6" y2="484.0" stroke="#f3f4f6"/>
<text x="247.6" y="500.0" font-size="10" text-anchor="middle">64 B</text>
<line x1="334.3" y1="62" x2="334.3" y2="484.0" stroke="#f3f4f6"/>
<line x1="421.0" y1="62" x2="421.0" y2="484.0" stroke="#f3f4f6"/>
<text x="421.0" y="500.0" font-size="10" text-anchor="middle">256 B</text>
<line x1="507.8" y1="62" x2="507.8" y2="484.0" stroke="#f3f4f6"/>
<line x1="594.5" y1="62" x2="594.5" y2="484.0" stroke="#f3f4f6"/>
<text x="594.5" y="500.0" font-size="10" text-anchor="middle">1 KiB</text>
<line x1="681.3" y1="62" x2="681.3" y2="484.0" stroke="#f3f4f6"/>
<line x1="768.0" y1="62" x2="768.0" y2="484.0" stroke="#f3f4f6"/>
<text x="768.0" y="500.0" font-size="10" text-anchor="middle">4 KiB</text>
<text x="417" y="524" font-size="12" text-anchor="middle">max length (log scale)</text>
<text x="18" y="273" font-size="12" transform="rotate(-90 18 273)" text-anchor="middle">GiB / s (log scale)</text>
<polyline points="66.0,418.7 144.1,308.5 203.5,216.3 267.4,167.8 326.2,139.5 402.1,117.8 507.8,97.2 681.3,62.0 768.0,66.8" fill="none" stroke="#2563eb" stroke-width="2"/>
<line x1="782.0" y1="70.0" x2="798.0" y2="70.0" stroke="#2563eb" stroke-width="2"/>
<text x="802.0" y="74.0" font-size="11" fill="#2563eb">jumbo</text>
<polyline points="66.0,380.3 144.1,282.2 203.5,203.9 267.4,152.8 326.2,118.8 402.1,104.8 507.8,173.3 681.3,173.0 768.0,183.6" fill="none" stroke="#dc2626" stroke-width="2"/>
<line x1="782.0" y1="87.0" x2="798.0" y2="87.0" stroke="#dc2626" stroke-width="2"/>
<text x="802.0" y="91.0" font-size="11" fill="#dc2626">xxh3</text>
<polyline points="66.0,484.0 144.1,380.8 203.5,293.6 267.4,246.3 326.2,218.5 402.1,203.7 507.8,194.1 681.3,176.2 768.0,179.7" fill="none" stroke="#059669" stroke-width="2"/>
<line x1="782.0" y1="104.0" x2="798.0" y2="104.0" stroke="#059669" stroke-width="2"/>
<text x="802.0" y="108.0" font-size="11" fill="#059669">murmur3</text>
</svg>
