<svg xmlns="http://www.w3.org/2000/svg" width="900" height="626" font-family="sans-serif">
<rect width="900" height="626" fill="white"/>
<text x="450" y="24" font-size="15" font-weight="bold" text-anchor="middle">mbo/hash - 64-bit latency</text>
<text x="450" y="44" font-size="12" fill="#6b7280" text-anchor="middle">AMD Ryzen 9 9950X 16-Core Processor · Linux · x86_64 · 10-core · clang-22 · 29b54ccd · lower is better</text>
<line x1="66" y1="559.2" x2="768.0" y2="559.2" stroke="#eee"/>
<text x="60" y="562.2" font-size="10" text-anchor="end">0.5</text>
<line x1="66" y1="519.4" x2="768.0" y2="519.4" stroke="#eee"/>
<text x="60" y="522.4" font-size="10" text-anchor="end">1</text>
<line x1="66" y1="479.6" x2="768.0" y2="479.6" stroke="#eee"/>
<text x="60" y="482.6" font-size="10" text-anchor="end">2</text>
<line x1="66" y1="427.0" x2="768.0" y2="427.0" stroke="#eee"/>
<text x="60" y="430.0" font-size="10" text-anchor="end">5</text>
<line x1="66" y1="387.2" x2="768.0" y2="387.2" stroke="#eee"/>
<text x="60" y="390.2" font-size="10" text-anchor="end">10</text>
<line x1="66" y1="347.4" x2="768.0" y2="347.4" stroke="#eee"/>
<text x="60" y="350.4" font-size="10" text-anchor="end">20</text>
<line x1="66" y1="294.8" x2="768.0" y2="294.8" stroke="#eee"/>
<text x="60" y="297.8" font-size="10" text-anchor="end">50</text>
<line x1="66" y1="255.0" x2="768.0" y2="255.0" stroke="#eee"/>
<text x="60" y="258.0" font-size="10" text-anchor="end">100</text>
<line x1="66" y1="215.2" x2="768.0" y2="215.2" stroke="#eee"/>
<text x="60" y="218.2" font-size="10" text-anchor="end">200</text>
<line x1="66" y1="162.6" x2="768.0" y2="162.6" stroke="#eee"/>
<text x="60" y="165.6" font-size="10" text-anchor="end">500</text>
<line x1="66" y1="122.8" x2="768.0" y2="122.8" stroke="#eee"/>
<text x="60" y="125.8" font-size="10" text-anchor="end">1000</text>
<line x1="66" y1="83.0" x2="768.0" y2="83.0" stroke="#eee"/>
<text x="60" y="86.0" font-size="10" text-anchor="end">2000</text>
<line x1="66.0" y1="62" x2="66.0" y2="574.0" stroke="#f3f4f6"/>
<text x="66.0" y="590.0" font-size="10" text-anchor="middle">1 B</text>
<line x1="124.5" y1="62" x2="124.5" y2="574.0" stroke="#f3f4f6"/>
<line x1="183.0" y1="62" x2="183.0" y2="574.0" stroke="#f3f4f6"/>
<text x="183.0" y="590.0" font-size="10" text-anchor="middle">4 B</text>
<line x1="241.5" y1="62" x2="241.5" y2="574.0" stroke="#f3f4f6"/>
<line x1="300.0" y1="62" x2="300.0" y2="574.0" stroke="#f3f4f6"/>
<text x="300.0" y="590.0" font-size="10" text-anchor="middle">16 B</text>
<line x1="358.5" y1="62" x2="358.5" y2="574.0" stroke="#f3f4f6"/>
<line x1="417.0" y1="62" x2="417.0" y2="574.0" stroke="#f3f4f6"/>
<text x="417.0" y="590.0" font-size="10" text-anchor="middle">64 B</text>
<line x1="475.5" y1="62" x2="475.5" y2="574.0" stroke="#f3f4f6"/>
<line x1="534.0" y1="62" x2="534.0" y2="574.0" stroke="#f3f4f6"/>
<text x="534.0" y="590.0" font-size="10" text-anchor="middle">256 B</text>
<line x1="592.5" y1="62" x2="592.5" y2="574.0" stroke="#f3f4f6"/>
<line x1="651.0" y1="62" x2="651.0" y2="574.0" stroke="#f3f4f6"/>
<text x="651.0" y="590.0" font-size="10" text-anchor="middle">1 KiB</text>
<line x1="709.5" y1="62" x2="709.5" y2="574.0" stroke="#f3f4f6"/>
<line x1="768.0" y1="62" x2="768.0" y2="574.0" stroke="#f3f4f6"/>
<text x="768.0" y="590.0" font-size="10" text-anchor="middle">4 KiB</text>
<text x="417" y="614" font-size="12" text-anchor="middle">key length (log scale)</text>
<text x="18" y="318" font-size="12" transform="rotate(-90 18 318)" text-anchor="middle">ns / op (log scale)</text>
<polyline points="66.0,503.0 124.5,498.3 158.7,497.3 183.0,505.0 201.8,505.1 217.2,505.2 230.2,504.8 241.5,505.1 251.4,507.0 268.4,506.7 275.7,506.9 282.5,506.8 294.6,506.8 300.0,506.8 309.9,487.1 314.5,487.2 326.9,487.1 330.6,487.1 334.2,487.1 337.7,487.0 344.2,486.9 350.2,487.0 355.8,487.1 358.5,487.0 373.0,476.5 377.3,476.5 389.1,476.4 390.9,476.6 392.7,476.5 394.5,467.4 404.2,467.5 415.7,467.5 417.0,467.4 419.6,459.3 426.9,459.2 434.8,458.6 435.8,459.3 450.3,449.4 460.4,441.6 465.7,429.8 474.8,428.9 475.5,422.6 481.2,422.5 496.9,412.0 512.3,401.9 527.5,394.0 534.0,394.5 543.1,390.8 558.4,378.0 573.7,369.2 589.1,354.4 604.6,345.8 620.0,335.0 635.4,326.8 650.8,315.1 651.0,313.9 666.1,302.8 681.5,290.8 696.9,280.4 712.3,269.2 727.7,257.8 743.1,246.5 758.4,235.7 768.0,228.0" fill="none" stroke="#2563eb" stroke-width="2"/>
<line x1="782.0" y1="70.0" x2="798.0" y2="70.0" stroke="#2563eb" stroke-width="2"/>
<text x="802.0" y="74.0" font-size="11" fill="#2563eb">mumbo</text>
<polyline points="66.0,496.7 124.5,496.7 158.7,496.7 183.0,497.2 201.8,497.1 217.2,497.3 230.2,497.1 241.5,497.1 251.4,497.3 268.4,497.3 275.7,494.9 282.5,497.2 294.6,497.3 300.0,497.3 309.9,490.3 314.5,490.4 326.9,490.3 330.6,490.3 334.2,490.3 337.7,490.3 344.2,490.2 350.2,490.2 355.8,490.2 358.5,490.3 373.0,481.2 377.3,481.3 389.1,481.3 390.9,481.2 392.7,481.2 394.5,472.9 404.2,472.9 415.7,472.8 417.0,472.9 419.6,463.6 426.9,463.6 434.8,463.2 435.8,463.6 450.3,455.6 460.4,448.1 465.7,445.6 474.8,445.6 475.5,445.6 481.2,441.3 496.9,432.4 512.3,420.2 527.5,421.2 534.0,417.7 543.1,410.2 558.4,406.7 573.7,391.4 589.1,388.3 604.6,382.6 620.0,370.6 635.4,356.0 650.8,356.3 651.0,356.2 666.1,335.9 681.5,337.3 696.9,320.7 712.3,310.7 727.7,304.3 743.1,297.6 758.4,285.3 768.0,280.1" fill="none" stroke="#dc2626" stroke-width="2"/>
<line x1="782.0" y1="87.0" x2="798.0" y2="87.0" stroke="#dc2626" stroke-width="2"/>
<text x="802.0" y="91.0" font-size="11" fill="#dc2626">rapidhash</text>
<polyline points="66.0,488.8 124.5,488.8 158.7,488.8 183.0,490.8 201.8,490.8 217.2,490.7 230.2,490.8 241.5,490.8 251.4,494.2 268.4,494.2 275.7,494.3 282.5,494.2 294.6,494.2 300.0,494.2 309.9,482.1 314.5,482.1 326.9,482.1 330.6,481.9 334.2,482.0 337.7,481.9 344.2,482.0 350.2,482.0 355.8,482.0 358.5,482.1 373.0,459.8 377.3,459.8 389.1,459.8 390.9,459.8 392.7,459.8 394.5,459.9 404.2,459.8 415.7,459.8 417.0,459.9 419.6,444.1 426.9,444.1 434.8,444.0 435.8,444.2 450.3,443.3 460.4,431.9 465.7,431.8 474.8,431.3 475.5,432.0 481.2,419.9 496.9,406.2 512.3,399.4 527.5,394.4 534.0,326.6 543.1,326.5 558.4,326.5 573.7,326.5 589.1,326.5 604.6,306.6 620.0,306.5 635.4,306.5 650.8,306.6 651.0,306.7 666.1,284.9 681.5,284.8 696.9,274.3 712.3,263.8 727.7,263.7 743.1,256.3 758.4,242.5 768.0,242.6" fill="none" stroke="#059669" stroke-width="2"/>
<line x1="782.0" y1="104.0" x2="798.0" y2="104.0" stroke="#059669" stroke-width="2"/>
<text x="802.0" y="108.0" font-size="11" fill="#059669">xxh3</text>
<polyline points="66.0,479.2 124.5,474.2 158.7,468.4 183.0,479.6 201.8,465.9 217.2,461.9 230.2,458.1 241.5,474.4 251.4,465.2 268.4,451.7 275.7,468.0 282.5,458.1 294.6,445.3 300.0,464.7 309.9,447.9 314.5,440.9 326.9,440.0 330.6,434.6 334.2,454.4 337.7,446.1 344.2,434.8 350.2,439.5 355.8,428.5 358.5,435.1 373.0,417.6 377.3,424.7 389.1,410.3 390.9,406.3 392.7,418.1 394.5,413.4 404.2,399.4 415.7,393.3 417.0,423.4 419.6,413.1 426.9,414.9 434.8,395.5 435.8,409.3 450.3,385.2 460.4,393.3 465.7,391.1 474.8,379.0 475.5,406.7 481.2,394.9 496.9,389.8 512.3,380.2 527.5,374.7 534.0,380.8 543.1,365.2 558.4,353.5 573.7,347.6 589.1,346.0 604.6,332.3 620.0,329.6 635.4,316.7 650.8,308.3 651.0,315.5 666.1,302.9 681.5,290.2 696.9,284.9 712.3,275.2 727.7,264.7 743.1,255.3 758.4,244.8 768.0,239.5" fill="none" stroke="#d97706" stroke-width="2"/>
<line x1="782.0" y1="121.0" x2="798.0" y2="121.0" stroke="#d97706" stroke-width="2"/>
<text x="802.0" y="125.0" font-size="11" fill="#d97706">xxh64</text>
<polyline points="66.0,455.1 124.5,455.1 158.7,455.1 183.0,474.1 201.8,474.1 217.2,474.1 230.2,474.1 241.5,474.1 251.4,369.1 268.4,369.1 275.7,464.7 282.5,464.8 294.6,464.9 300.0,458.8 309.9,366.2 314.5,366.2 326.9,447.7 330.6,447.5 334.2,447.6 337.7,431.4 344.2,431.3 350.2,440.0 355.8,440.0 358.5,438.5 373.0,432.0 377.3,431.8 389.1,425.5 390.9,425.4 392.7,425.3 394.5,405.5 404.2,418.5 415.7,413.4 417.0,412.2 419.6,395.7 426.9,407.2 434.8,403.3 435.8,402.3 450.3,394.8 460.4,381.0 465.7,371.6 474.8,380.5 475.5,379.2 481.2,365.4 496.9,366.6 512.3,357.5 527.5,348.3 534.0,344.6 543.1,338.5 558.4,328.7 573.7,316.1 589.1,308.6 604.6,298.7 620.0,288.2 635.4,276.0 650.8,267.8 651.0,267.8 666.1,256.7 681.5,247.4 696.9,236.8 712.3,226.5 727.7,216.1 743.1,205.7 758.4,195.1 768.0,188.9" fill="none" stroke="#7c3aed" stroke-width="2"/>
<line x1="782.0" y1="138.0" x2="798.0" y2="138.0" stroke="#7c3aed" stroke-width="2"/>
<text x="802.0" y="142.0" font-size="11" fill="#7c3aed">murmur3</text>
<polyline points="66.0,400.4 124.5,400.4 158.7,400.4 183.0,426.4 201.8,426.4 217.2,426.4 230.2,426.4 241.5,416.3 251.4,383.6 268.4,383.6 275.7,415.1 282.5,415.2 294.6,415.2 300.0,401.9 309.9,382.1 314.5,382.0 326.9,402.0 330.6,402.0 334.2,392.0 337.7,379.9 344.2,379.9 350.2,391.6 355.8,391.6 358.5,382.0 373.0,382.0 377.3,374.9 389.1,374.5 390.9,374.6 392.7,367.2 394.5,359.0 404.2,367.2 415.7,361.5 417.0,355.5 419.6,349.9 426.9,351.0 434.8,350.7 435.8,345.7 450.3,341.7 460.4,329.7 465.7,326.2 474.8,326.9 475.5,323.7 481.2,317.6 496.9,312.7 512.3,303.3 527.5,293.7 534.0,288.4 543.1,283.7 558.4,273.9 573.7,262.3 589.1,253.6 604.6,243.8 620.0,233.3 635.4,222.1 650.8,212.9 651.0,212.4 666.1,201.9 681.5,192.3 696.9,181.8 712.3,171.5 727.7,160.8 743.1,150.5 758.4,139.8 768.0,133.6" fill="none" stroke="#0891b2" stroke-width="2"/>
<line x1="782.0" y1="155.0" x2="798.0" y2="155.0" stroke="#0891b2" stroke-width="2"/>
<text x="802.0" y="159.0" font-size="11" fill="#0891b2">siphash24</text>
<polyline points="66.0,574.0 124.5,549.6 158.7,531.8 183.0,521.1 201.8,510.3 217.2,499.7 230.2,491.9 241.5,505.7 251.4,494.9 268.4,477.7 275.7,470.4 282.5,464.2 294.6,451.7 300.0,453.4 309.9,442.5 314.5,436.0 326.9,422.9 330.6,418.8 334.2,421.1 337.7,416.9 344.2,408.7 350.2,398.9 355.8,394.3 358.5,394.0 373.0,378.6 377.3,377.5 389.1,362.5 390.9,361.1 392.7,361.3 394.5,358.9 404.2,346.9 415.7,335.9 417.0,335.4 419.6,333.3 426.9,327.5 434.8,318.8 435.8,319.8 450.3,302.6 460.4,292.6 465.7,287.4 474.8,278.5 475.5,278.5 481.2,273.2 496.9,259.2 512.3,246.2 527.5,233.9 534.0,229.2 543.1,221.8 558.4,209.9 573.7,198.8 589.1,187.3 604.6,176.1 620.0,165.1 635.4,154.1 650.8,143.2 651.0,143.0 666.1,132.4 681.5,121.7 696.9,111.0 712.3,100.4 727.7,89.8 743.1,79.2 758.4,68.6 768.0,62.0" fill="none" stroke="#be185d" stroke-width="2"/>
<line x1="782.0" y1="172.0" x2="798.0" y2="172.0" stroke="#be185d" stroke-width="2"/>
<text x="802.0" y="176.0" font-size="11" fill="#be185d">fnv1a</text>
<polyline points="66.0,506.4 124.5,497.8 158.7,490.8 183.0,507.9 201.8,507.9 217.2,508.0 230.2,507.9 241.5,508.0 251.4,485.4 268.4,475.2 275.7,486.1 282.5,486.1 294.6,486.1 300.0,486.1 309.9,470.8 314.5,467.3 326.9,476.5 330.6,476.4 334.2,476.5 337.7,466.2 344.2,458.7 350.2,466.7 355.8,466.7 358.5,466.6 373.0,455.1 377.3,454.6 389.1,447.3 390.9,447.3 392.7,447.3 394.5,439.5 404.2,440.0 415.7,432.8 417.0,433.1 419.6,432.4 426.9,434.7 434.8,425.7 435.8,424.8 450.3,411.9 460.4,400.9 465.7,398.0 474.8,395.5 475.5,395.5 481.2,392.3 496.9,377.7 512.3,365.2 527.5,351.6 534.0,347.5 543.1,342.3 558.4,331.5 573.7,318.4 589.1,304.8 604.6,290.9 620.0,276.8 635.4,263.9 650.8,252.2 651.0,252.2 666.1,240.2 681.5,228.7 696.9,217.1 712.3,205.8 727.7,194.7 743.1,183.8 758.4,172.7 768.0,166.0" fill="none" stroke="#4b5563" stroke-width="2"/>
<line x1="782.0" y1="189.0" x2="798.0" y2="189.0" stroke="#4b5563" stroke-width="2"/>
<text x="802.0" y="193.0" font-size="11" fill="#4b5563">dumbo</text>
</svg>
