<svg xmlns="http://www.w3.org/2000/svg" width="900" height="536" font-family="sans-serif">
<rect width="900" height="536" fill="white"/>
<text x="450" y="24" font-size="15" font-weight="bold" text-anchor="middle">mbo/hash - 64-bit throughput (Web)</text>
<text x="450" y="44" font-size="12" fill="#6b7280" text-anchor="middle">AMD Ryzen 9 9950X 16-Core Processor · Linux · x86_64 · 10-core · clang-22 · 29b54ccd</text>
<line x1="66" y1="393.9" x2="768.0" y2="393.9" stroke="#eee"/>
<text x="60" y="396.9" font-size="10" text-anchor="end">2</text>
<line x1="66" y1="270.8" x2="768.0" y2="270.8" stroke="#eee"/>
<text x="60" y="273.8" font-size="10" text-anchor="end">5</text>
<line x1="66" y1="177.8" x2="768.0" y2="177.8" stroke="#eee"/>
<text x="60" y="180.8" font-size="10" text-anchor="end">10</text>
<line x1="66" y1="84.7" x2="768.0" y2="84.7" stroke="#eee"/>
<text x="60" y="87.7" font-size="10" text-anchor="end">20</text>
<line x1="74.1" y1="62" x2="74.1" y2="484.0" stroke="#f3f4f6"/>
<text x="74.1" y="500.0" font-size="10" text-anchor="middle">16 B</text>
<line x1="160.8" y1="62" x2="160.8" y2="484.0" stroke="#f3f4f6"/>
<line x1="247.6" y1="62" x2="247.6" y2="484.0" stroke="#f3f4f6"/>
<text x="247.6" y="500.0" font-size="10" text-anchor="middle">64 B</text>
<line x1="334.3" y1="62" x2="334.3" y2="484.0" stroke="#f3f4f6"/>
<line x1="421.0" y1="62" x2="421.0" y2="484.0" stroke="#f3f4f6"/>
<text x="421.0" y="500.0" font-size="10" text-anchor="middle">256 B</text>
<line x1="507.8" y1="62" x2="507.8" y2="484.0" stroke="#f3f4f6"/>
<line x1="594.5" y1="62" x2="594.5" y2="484.0" stroke="#f3f4f6"/>
<text x="594.5" y="500.0" font-size="10" text-anchor="middle">1 KiB</text>
<line x1="681.3" y1="62" x2="681.3" y2="484.0" stroke="#f3f4f6"/>
<line x1="768.0" y1="62" x2="768.0" y2="484.0" stroke="#f3f4f6"/>
<text x="768.0" y="500.0" font-size="10" text-anchor="middle">4 KiB</text>
<text x="417" y="524" font-size="12" text-anchor="middle">max length (log scale)</text>
<text x="18" y="273" font-size="12" transform="rotate(-90 18 273)" text-anchor="middle">GiB / s (log scale)</text>
<polyline points="66.0,274.6 144.1,219.2 203.5,160.5 267.4,128.0 326.2,112.6 402.1,108.8 507.8,105.3 681.3,95.8 768.0,97.4" fill="none" stroke="#2563eb" stroke-width="2"/>
<line x1="782.0" y1="70.0" x2="798.0" y2="70.0" stroke="#2563eb" stroke-width="2"/>
<text x="802.0" y="74.0" font-size="11" fill="#2563eb">mumbo</text>
<polyline points="66.0,295.5 144.1,214.3 203.5,154.6 267.4,121.5 326.2,102.7 402.1,91.8 507.8,81.0 681.3,62.0 768.0,64.9" fill="none" stroke="#dc2626" stroke-width="2"/>
<line x1="782.0" y1="87.0" x2="798.0" y2="87.0" stroke="#dc2626" stroke-width="2"/>
<text x="802.0" y="91.0" font-size="11" fill="#dc2626">rapidhash</text>
<polyline points="66.0,299.9 144.1,226.0 203.5,178.0 267.4,146.2 326.2,126.4 402.1,120.6 507.8,130.1 681.3,122.6 768.0,126.3" fill="none" stroke="#059669" stroke-width="2"/>
<line x1="782.0" y1="104.0" x2="798.0" y2="104.0" stroke="#059669" stroke-width="2"/>
<text x="802.0" y="108.0" font-size="11" fill="#059669">xxh3</text>
<polyline points="66.0,373.4 144.1,305.8 203.5,269.4 267.4,244.0 326.2,223.1 402.1,211.1 507.8,198.5 681.3,176.7 768.0,178.7" fill="none" stroke="#d97706" stroke-width="2"/>
<line x1="782.0" y1="121.0" x2="798.0" y2="121.0" stroke="#d97706" stroke-width="2"/>
<text x="802.0" y="125.0" font-size="11" fill="#d97706">xxh64</text>
<polyline points="66.0,371.2 144.1,314.1 203.5,266.6 267.4,241.5 326.2,227.5 402.1,218.4 507.8,212.3 681.3,202.3 768.0,203.7" fill="none" stroke="#7c3aed" stroke-width="2"/>
<line x1="782.0" y1="138.0" x2="798.0" y2="138.0" stroke="#7c3aed" stroke-width="2"/>
<text x="802.0" y="142.0" font-size="11" fill="#7c3aed">murmur3</text>
<polyline points="66.0,484.0 144.1,421.7 203.5,374.0 267.4,350.8 326.2,338.5 402.1,330.7 507.8,326.8 681.3,317.9 768.0,319.9" fill="none" stroke="#0891b2" stroke-width="2"/>
<line x1="782.0" y1="155.0" x2="798.0" y2="155.0" stroke="#0891b2" stroke-width="2"/>
<text x="802.0" y="159.0" font-size="11" fill="#0891b2">siphash24</text>
<polyline points="66.0,337.1 144.1,345.7 203.5,353.6 267.4,368.2 326.2,385.0 402.1,391.7 507.8,401.7 681.3,413.4 768.0,413.0" fill="none" stroke="#be185d" stroke-width="2"/>
<line x1="782.0" y1="172.0" x2="798.0" y2="172.0" stroke="#be185d" stroke-width="2"/>
<text x="802.0" y="176.0" font-size="11" fill="#be185d">fnv1a</text>
<polyline points="66.0,311.5 144.1,254.2 203.5,210.4 267.4,188.1 326.2,181.4 402.1,178.5 507.8,182.8 681.3,187.4 768.0,188.1" fill="none" stroke="#4b5563" stroke-width="2"/>
<line x1="782.0" y1="189.0" x2="798.0" y2="189.0" stroke="#4b5563" stroke-width="2"/>
<text x="802.0" y="193.0" font-size="11" fill="#4b5563">dumbo</text>
</svg>
