<svg xmlns="http://www.w3.org/2000/svg" width="900" height="626" font-family="sans-serif">
<rect width="900" height="626" fill="white"/>
<text x="450" y="24" font-size="15" font-weight="bold" text-anchor="middle">mbo/hash - 64-bit latency</text>
<text x="450" y="44" font-size="12" fill="#6b7280" text-anchor="middle">AMD Ryzen 9 9950X 16-Core Processor · Linux · x86_64 · 10-core · gcc-15 · 29b54ccd · lower is better</text>
<line x1="66" y1="555.6" x2="768.0" y2="555.6" stroke="#eee"/>
<text x="60" y="558.6" font-size="10" text-anchor="end">0.5</text>
<line x1="66" y1="516.1" x2="768.0" y2="516.1" stroke="#eee"/>
<text x="60" y="519.1" font-size="10" text-anchor="end">1</text>
<line x1="66" y1="476.6" x2="768.0" y2="476.6" stroke="#eee"/>
<text x="60" y="479.6" font-size="10" text-anchor="end">2</text>
<line x1="66" y1="424.3" x2="768.0" y2="424.3" stroke="#eee"/>
<text x="60" y="427.3" font-size="10" text-anchor="end">5</text>
<line x1="66" y1="384.9" x2="768.0" y2="384.9" stroke="#eee"/>
<text x="60" y="387.9" font-size="10" text-anchor="end">10</text>
<line x1="66" y1="345.4" x2="768.0" y2="345.4" stroke="#eee"/>
<text x="60" y="348.4" font-size="10" text-anchor="end">20</text>
<line x1="66" y1="293.1" x2="768.0" y2="293.1" stroke="#eee"/>
<text x="60" y="296.1" font-size="10" text-anchor="end">50</text>
<line x1="66" y1="253.7" x2="768.0" y2="253.7" stroke="#eee"/>
<text x="60" y="256.7" font-size="10" text-anchor="end">100</text>
<line x1="66" y1="214.2" x2="768.0" y2="214.2" stroke="#eee"/>
<text x="60" y="217.2" font-size="10" text-anchor="end">200</text>
<line x1="66" y1="161.9" x2="768.0" y2="161.9" stroke="#eee"/>
<text x="60" y="164.9" font-size="10" text-anchor="end">500</text>
<line x1="66" y1="122.5" x2="768.0" y2="122.5" stroke="#eee"/>
<text x="60" y="125.5" font-size="10" text-anchor="end">1000</text>
<line x1="66" y1="83.0" x2="768.0" y2="83.0" stroke="#eee"/>
<text x="60" y="86.0" font-size="10" text-anchor="end">2000</text>
<line x1="66.0" y1="62" x2="66.0" y2="574.0" stroke="#f3f4f6"/>
<text x="66.0" y="590.0" font-size="10" text-anchor="middle">1 B</text>
<line x1="124.5" y1="62" x2="124.5" y2="574.0" stroke="#f3f4f6"/>
<line x1="183.0" y1="62" x2="183.0" y2="574.0" stroke="#f3f4f6"/>
<text x="183.0" y="590.0" font-size="10" text-anchor="middle">4 B</text>
<line x1="241.5" y1="62" x2="241.5" y2="574.0" stroke="#f3f4f6"/>
<line x1="300.0" y1="62" x2="300.0" y2="574.0" stroke="#f3f4f6"/>
<text x="300.0" y="590.0" font-size="10" text-anchor="middle">16 B</text>
<line x1="358.5" y1="62" x2="358.5" y2="574.0" stroke="#f3f4f6"/>
<line x1="417.0" y1="62" x2="417.0" y2="574.0" stroke="#f3f4f6"/>
<text x="417.0" y="590.0" font-size="10" text-anchor="middle">64 B</text>
<line x1="475.5" y1="62" x2="475.5" y2="574.0" stroke="#f3f4f6"/>
<line x1="534.0" y1="62" x2="534.0" y2="574.0" stroke="#f3f4f6"/>
<text x="534.0" y="590.0" font-size="10" text-anchor="middle">256 B</text>
<line x1="592.5" y1="62" x2="592.5" y2="574.0" stroke="#f3f4f6"/>
<line x1="651.0" y1="62" x2="651.0" y2="574.0" stroke="#f3f4f6"/>
<text x="651.0" y="590.0" font-size="10" text-anchor="middle">1 KiB</text>
<line x1="709.5" y1="62" x2="709.5" y2="574.0" stroke="#f3f4f6"/>
<line x1="768.0" y1="62" x2="768.0" y2="574.0" stroke="#f3f4f6"/>
<text x="768.0" y="590.0" font-size="10" text-anchor="middle">4 KiB</text>
<text x="417" y="614" font-size="12" text-anchor="middle">key length (log scale)</text>
<text x="18" y="318" font-size="12" transform="rotate(-90 18 318)" text-anchor="middle">ns / op (log scale)</text>
<polyline points="66.0,497.7 124.5,494.1 158.7,494.0 183.0,501.4 201.8,501.5 217.2,501.5 230.2,501.5 241.5,501.4 251.4,501.6 268.4,501.4 275.7,501.4 282.5,501.4 294.6,501.3 300.0,501.3 309.9,481.0 314.5,481.6 326.9,481.7 330.6,481.4 334.2,481.7 337.7,481.7 344.2,481.6 350.2,481.5 355.8,481.6 358.5,481.8 373.0,476.0 377.3,476.1 389.1,476.1 390.9,476.2 392.7,476.2 394.5,468.9 404.2,468.9 415.7,468.9 417.0,468.9 419.6,459.5 426.9,459.7 434.8,459.7 435.8,459.7 450.3,449.8 460.4,440.8 465.7,434.6 474.8,434.5 475.5,384.2 481.2,385.5 496.9,376.8 512.3,367.3 527.5,359.5 534.0,375.2 543.1,370.5 558.4,353.5 573.7,358.4 589.1,341.5 604.6,336.8 620.0,327.8 635.4,318.1 650.8,308.2 651.0,313.6 666.1,301.5 681.5,293.3 696.9,281.6 712.3,273.3 727.7,262.4 743.1,252.8 758.4,243.5 768.0,237.3" fill="none" stroke="#2563eb" stroke-width="2"/>
<line x1="782.0" y1="70.0" x2="798.0" y2="70.0" stroke="#2563eb" stroke-width="2"/>
<text x="802.0" y="74.0" font-size="11" fill="#2563eb">mumbo</text>
<polyline points="66.0,487.6 124.5,487.5 158.7,487.5 183.0,487.7 201.8,487.8 217.2,487.8 230.2,487.7 241.5,494.3 251.4,494.3 268.4,494.3 275.7,494.3 282.5,494.4 294.6,494.3 300.0,494.3 309.9,481.5 314.5,481.6 326.9,481.5 330.6,481.6 334.2,481.6 337.7,481.6 344.2,481.6 350.2,481.5 355.8,481.5 358.5,481.6 373.0,476.2 377.3,476.2 389.1,476.2 390.9,476.2 392.7,476.2 394.5,471.3 404.2,471.4 415.7,471.5 417.0,471.5 419.6,462.4 426.9,462.4 434.8,462.3 435.8,462.4 450.3,454.1 460.4,446.8 465.7,439.2 474.8,439.2 475.5,439.1 481.2,434.6 496.9,425.8 512.3,414.9 527.5,418.5 534.0,415.3 543.1,406.9 558.4,399.5 573.7,385.9 589.1,383.6 604.6,375.1 620.0,365.6 635.4,351.8 650.8,347.6 651.0,347.5 666.1,330.8 681.5,328.3 696.9,314.3 712.3,304.2 727.7,297.0 743.1,288.6 758.4,277.4 768.0,271.9" fill="none" stroke="#dc2626" stroke-width="2"/>
<line x1="782.0" y1="87.0" x2="798.0" y2="87.0" stroke="#dc2626" stroke-width="2"/>
<text x="802.0" y="91.0" font-size="11" fill="#dc2626">rapidhash</text>
<polyline points="66.0,511.7 124.5,511.7 158.7,511.7 183.0,516.9 201.8,516.9 217.2,517.0 230.2,516.9 241.5,516.9 251.4,529.9 268.4,529.8 275.7,529.8 282.5,529.8 294.6,529.8 300.0,529.7 309.9,488.6 314.5,488.6 326.9,488.6 330.6,488.7 334.2,488.7 337.7,488.6 344.2,488.6 350.2,488.6 355.8,488.6 358.5,488.7 373.0,463.6 377.3,463.7 389.1,463.6 390.9,463.6 392.7,463.7 394.5,463.6 404.2,463.3 415.7,463.6 417.0,463.6 419.6,445.1 426.9,445.8 434.8,445.7 435.8,445.8 450.3,444.8 460.4,431.9 465.7,432.4 474.8,432.2 475.5,432.7 481.2,416.7 496.9,408.1 512.3,400.6 527.5,394.1 534.0,287.8 543.1,284.0 558.4,280.7 573.7,277.5 589.1,274.4 604.6,268.4 620.0,263.7 635.4,259.0 650.8,254.7 651.0,254.6 666.1,241.9 681.5,237.2 696.9,229.4 712.3,217.6 727.7,211.4 743.1,204.4 758.4,192.9 768.0,187.5" fill="none" stroke="#059669" stroke-width="2"/>
<line x1="782.0" y1="104.0" x2="798.0" y2="104.0" stroke="#059669" stroke-width="2"/>
<text x="802.0" y="108.0" font-size="11" fill="#059669">xxh3</text>
<polyline points="66.0,493.1 124.5,482.9 158.7,474.0 183.0,492.6 201.8,478.6 217.2,470.1 230.2,461.9 241.5,478.7 251.4,467.4 268.4,453.5 275.7,467.5 282.5,457.8 294.6,444.2 300.0,467.3 309.9,451.4 314.5,445.1 326.9,442.6 330.6,436.6 334.2,457.1 337.7,448.3 344.2,436.5 350.2,440.4 355.8,428.8 358.5,434.3 373.0,415.8 377.3,423.4 389.1,408.5 390.9,404.6 392.7,417.5 394.5,412.8 404.2,399.5 415.7,393.7 417.0,421.7 419.6,413.0 426.9,413.3 434.8,395.2 435.8,408.7 450.3,385.0 460.4,392.5 465.7,391.6 474.8,378.7 475.5,404.1 481.2,392.9 496.9,387.4 512.3,378.3 527.5,373.0 534.0,378.9 543.1,362.7 558.4,353.3 573.7,346.9 589.1,345.9 604.6,331.9 620.0,329.2 635.4,316.4 650.8,307.8 651.0,313.9 666.1,302.3 681.5,289.2 696.9,284.2 712.3,274.3 727.7,264.0 743.1,254.5 758.4,243.4 768.0,238.5" fill="none" stroke="#d97706" stroke-width="2"/>
<line x1="782.0" y1="121.0" x2="798.0" y2="121.0" stroke="#d97706" stroke-width="2"/>
<text x="802.0" y="125.0" font-size="11" fill="#d97706">xxh64</text>
<polyline points="66.0,466.9 124.5,461.5 158.7,456.8 183.0,462.3 201.8,462.3 217.2,462.3 230.2,462.3 241.5,462.4 251.4,453.5 268.4,446.7 275.7,453.7 282.5,453.8 294.6,453.7 300.0,458.1 309.9,442.3 314.5,439.3 326.9,444.1 330.6,444.2 334.2,444.1 337.7,437.2 344.2,430.4 350.2,438.0 355.8,438.1 358.5,442.2 373.0,430.6 377.3,430.7 389.1,425.3 390.9,425.4 392.7,428.5 394.5,421.4 404.2,420.2 415.7,416.2 417.0,418.2 419.6,410.2 426.9,410.9 434.8,407.2 435.8,409.1 450.3,400.5 460.4,391.2 465.7,389.4 474.8,387.8 475.5,387.9 481.2,381.8 496.9,373.4 512.3,364.1 527.5,354.6 534.0,350.8 543.1,344.3 558.4,333.7 573.7,323.0 589.1,313.4 604.6,303.3 620.0,292.6 635.4,280.2 650.8,272.1 651.0,272.1 666.1,261.5 681.5,251.4 696.9,239.9 712.3,230.5 727.7,219.2 743.1,209.0 758.4,198.8 768.0,192.3" fill="none" stroke="#7c3aed" stroke-width="2"/>
<line x1="782.0" y1="138.0" x2="798.0" y2="138.0" stroke="#7c3aed" stroke-width="2"/>
<text x="802.0" y="142.0" font-size="11" fill="#7c3aed">murmur3</text>
<polyline points="66.0,420.7 124.5,417.2 158.7,413.9 183.0,422.2 201.8,422.4 217.2,422.7 230.2,422.3 241.5,409.5 251.4,405.1 268.4,399.9 275.7,403.9 282.5,403.9 294.6,403.9 300.0,397.4 309.9,395.0 314.5,393.4 326.9,396.1 330.6,396.0 334.2,387.0 337.7,386.7 344.2,384.5 350.2,386.5 355.8,386.5 358.5,378.3 373.0,378.1 377.3,370.5 389.1,370.4 390.9,370.4 392.7,363.8 394.5,363.6 404.2,363.5 415.7,357.5 417.0,352.4 419.6,351.6 426.9,347.3 434.8,347.3 435.8,342.8 450.3,338.3 460.4,329.9 465.7,327.1 474.8,324.0 475.5,321.1 481.2,318.1 496.9,310.2 512.3,301.0 527.5,291.3 534.0,286.3 543.1,281.4 558.4,271.9 573.7,261.4 589.1,251.8 604.6,240.2 620.0,230.3 635.4,220.2 650.8,210.3 651.0,210.3 666.1,200.1 681.5,190.2 696.9,180.0 712.3,169.9 727.7,159.6 743.1,149.4 758.4,139.1 768.0,132.8" fill="none" stroke="#0891b2" stroke-width="2"/>
<line x1="782.0" y1="155.0" x2="798.0" y2="155.0" stroke="#0891b2" stroke-width="2"/>
<text x="802.0" y="159.0" font-size="11" fill="#0891b2">siphash24</text>
<polyline points="66.0,574.0 124.5,552.6 158.7,534.4 183.0,520.8 201.8,507.0 217.2,499.8 230.2,491.1 241.5,483.4 251.4,475.5 268.4,462.6 275.7,456.3 282.5,451.4 294.6,441.3 300.0,436.4 309.9,428.3 314.5,424.4 326.9,413.2 330.6,409.0 334.2,404.4 337.7,401.8 344.2,396.8 350.2,391.4 355.8,386.3 358.5,383.6 373.0,371.1 377.3,367.3 389.1,353.0 390.9,351.2 392.7,349.0 394.5,347.6 404.2,340.1 415.7,329.3 417.0,328.4 419.6,325.4 426.9,319.5 434.8,313.6 435.8,312.9 450.3,299.6 460.4,289.6 465.7,284.4 474.8,276.2 475.5,275.8 481.2,270.8 496.9,254.7 512.3,242.3 527.5,231.1 534.0,225.8 543.1,219.1 558.4,207.7 573.7,196.8 589.1,185.6 604.6,174.7 620.0,163.7 635.4,153.0 650.8,142.3 651.0,142.1 666.1,131.8 681.5,121.1 696.9,110.6 712.3,100.0 727.7,89.5 743.1,79.0 758.4,68.5 768.0,62.0" fill="none" stroke="#be185d" stroke-width="2"/>
<line x1="782.0" y1="172.0" x2="798.0" y2="172.0" stroke="#be185d" stroke-width="2"/>
<text x="802.0" y="176.0" font-size="11" fill="#be185d">fnv1a</text>
<polyline points="66.0,509.6 124.5,499.4 158.7,490.6 183.0,503.2 201.8,503.4 217.2,503.3 230.2,503.3 241.5,503.3 251.4,493.7 268.4,479.6 275.7,496.9 282.5,496.9 294.6,496.9 300.0,496.8 309.9,475.2 314.5,469.6 326.9,483.2 330.6,483.2 334.2,483.2 337.7,469.0 344.2,460.3 350.2,470.0 355.8,470.0 358.5,470.2 373.0,460.0 377.3,460.0 389.1,449.2 390.9,448.1 392.7,448.9 394.5,440.0 404.2,440.3 415.7,433.4 417.0,433.1 419.6,413.7 426.9,412.9 434.8,417.1 435.8,417.2 450.3,406.4 460.4,394.9 465.7,392.0 474.8,389.7 475.5,389.7 481.2,380.4 496.9,366.1 512.3,354.1 527.5,344.0 534.0,340.1 543.1,333.1 558.4,322.4 573.7,309.7 589.1,297.0 604.6,283.4 620.0,269.8 635.4,256.2 650.8,244.8 651.0,244.8 666.1,232.2 681.5,220.7 696.9,209.4 712.3,198.2 727.7,187.2 743.1,176.4 758.4,165.5 768.0,158.9" fill="none" stroke="#4b5563" stroke-width="2"/>
<line x1="782.0" y1="189.0" x2="798.0" y2="189.0" stroke="#4b5563" stroke-width="2"/>
<text x="802.0" y="193.0" font-size="11" fill="#4b5563">dumbo</text>
</svg>
