<svg xmlns="http://www.w3.org/2000/svg" width="900" height="626" font-family="sans-serif">
<rect width="900" height="626" fill="white"/>
<text x="450" y="24" font-size="15" font-weight="bold" text-anchor="middle">mbo/hash - 64-bit throughput (Short)</text>
<text x="450" y="44" font-size="12" fill="#6b7280" text-anchor="middle">AMD Ryzen 9 9950X 16-Core Processor · Linux · x86_64 · 10-core · clang-22 · 29b54ccd · higher is better</text>
<line x1="66" y1="464.2" x2="768.0" y2="464.2" stroke="#eee"/>
<text x="60" y="467.2" font-size="10" text-anchor="end">1</text>
<line x1="66" y1="337.8" x2="768.0" y2="337.8" stroke="#eee"/>
<text x="60" y="340.8" font-size="10" text-anchor="end">2</text>
<line x1="66" y1="170.7" x2="768.0" y2="170.7" stroke="#eee"/>
<text x="60" y="173.7" font-size="10" text-anchor="end">5</text>
<line x1="66.0" y1="62" x2="66.0" y2="574.0" stroke="#f3f4f6"/>
<line x1="241.5" y1="62" x2="241.5" y2="574.0" stroke="#f3f4f6"/>
<text x="241.5" y="590.0" font-size="10" text-anchor="middle">16 B</text>
<line x1="417.0" y1="62" x2="417.0" y2="574.0" stroke="#f3f4f6"/>
<line x1="592.5" y1="62" x2="592.5" y2="574.0" stroke="#f3f4f6"/>
<text x="592.5" y="590.0" font-size="10" text-anchor="middle">64 B</text>
<line x1="768.0" y1="62" x2="768.0" y2="574.0" stroke="#f3f4f6"/>
<text x="417" y="614" font-size="12" text-anchor="middle">max length (log scale)</text>
<text x="18" y="318" font-size="12" transform="rotate(-90 18 318)" text-anchor="middle">GiB / s (log scale)</text>
<polyline points="66.0,314.1 168.7,198.8 241.5,130.4 333.4,108.2 409.0,77.8 460.5,80.4 544.8,62.1 649.0,62.0 768.0,62.4" fill="none" stroke="#2563eb" stroke-width="2"/>
<line x1="782.0" y1="70.0" x2="798.0" y2="70.0" stroke="#2563eb" stroke-width="2"/>
<text x="802.0" y="74.0" font-size="11" fill="#2563eb">mumbo</text>
<polyline points="66.0,445.8 168.7,228.5 241.5,166.5 333.4,120.1 409.0,82.2 460.5,84.6 544.8,65.4 649.0,65.4 768.0,65.6" fill="none" stroke="#dc2626" stroke-width="2"/>
<line x1="782.0" y1="87.0" x2="798.0" y2="87.0" stroke="#dc2626" stroke-width="2"/>
<text x="802.0" y="91.0" font-size="11" fill="#dc2626">rapidhash</text>
<polyline points="66.0,342.9 168.7,233.5 241.5,165.5 333.4,127.6 409.0,92.9 460.5,97.6 544.8,80.4 649.0,80.6 768.0,80.9" fill="none" stroke="#059669" stroke-width="2"/>
<line x1="782.0" y1="104.0" x2="798.0" y2="104.0" stroke="#059669" stroke-width="2"/>
<text x="802.0" y="108.0" font-size="11" fill="#059669">xxh3</text>
<polyline points="66.0,428.8 168.7,331.6 241.5,275.6 333.4,238.2 409.0,209.0 460.5,213.1 544.8,199.6 649.0,197.5 768.0,197.3" fill="none" stroke="#d97706" stroke-width="2"/>
<line x1="782.0" y1="121.0" x2="798.0" y2="121.0" stroke="#d97706" stroke-width="2"/>
<text x="802.0" y="125.0" font-size="11" fill="#d97706">xxh64</text>
<polyline points="66.0,420.9 168.7,334.4 241.5,272.6 333.4,243.8 409.0,213.0 460.5,217.1 544.8,201.2 649.0,200.9 768.0,201.8" fill="none" stroke="#7c3aed" stroke-width="2"/>
<line x1="782.0" y1="138.0" x2="798.0" y2="138.0" stroke="#7c3aed" stroke-width="2"/>
<text x="802.0" y="142.0" font-size="11" fill="#7c3aed">murmur3</text>
<polyline points="66.0,574.0 168.7,499.0 241.5,421.4 333.4,386.0 409.0,356.4 460.5,359.5 544.8,345.2 649.0,345.3 768.0,346.5" fill="none" stroke="#0891b2" stroke-width="2"/>
<line x1="782.0" y1="155.0" x2="798.0" y2="155.0" stroke="#0891b2" stroke-width="2"/>
<text x="802.0" y="159.0" font-size="11" fill="#0891b2">siphash24</text>
<polyline points="66.0,302.2 168.7,271.3 241.5,260.7 333.4,264.5 409.0,263.3 460.5,271.6 544.8,274.2 649.0,276.9 768.0,276.3" fill="none" stroke="#be185d" stroke-width="2"/>
<line x1="782.0" y1="172.0" x2="798.0" y2="172.0" stroke="#be185d" stroke-width="2"/>
<text x="802.0" y="176.0" font-size="11" fill="#be185d">fnv1a</text>
<polyline points="66.0,324.1 168.7,257.7 241.5,197.8 333.4,164.5 409.0,136.0 460.5,138.6 544.8,124.2 649.0,124.3 768.0,124.8" fill="none" stroke="#4b5563" stroke-width="2"/>
<line x1="782.0" y1="189.0" x2="798.0" y2="189.0" stroke="#4b5563" stroke-width="2"/>
<text x="802.0" y="193.0" font-size="11" fill="#4b5563">dumbo</text>
</svg>
