<svg xmlns="http://www.w3.org/2000/svg" width="900" height="536" font-family="sans-serif">
<rect width="900" height="536" fill="white"/>
<text x="450" y="24" font-size="15" font-weight="bold" text-anchor="middle">mbo/hash - 128-bit latency</text>
<text x="450" y="44" font-size="12" fill="#6b7280" text-anchor="middle">AMD Ryzen 9 9950X 16-Core Processor · Linux · x86_64 · 10-core · gcc-15 · 29b54ccd</text>
<line x1="66" y1="462.7" x2="768.0" y2="462.7" stroke="#eee"/>
<text x="60" y="465.7" font-size="10" text-anchor="end">2</text>
<line x1="66" y1="390.4" x2="768.0" y2="390.4" stroke="#eee"/>
<text x="60" y="393.4" font-size="10" text-anchor="end">5</text>
<line x1="66" y1="335.8" x2="768.0" y2="335.8" stroke="#eee"/>
<text x="60" y="338.8" font-size="10" text-anchor="end">10</text>
<line x1="66" y1="281.1" x2="768.0" y2="281.1" stroke="#eee"/>
<text x="60" y="284.1" font-size="10" text-anchor="end">20</text>
<line x1="66" y1="208.9" x2="768.0" y2="208.9" stroke="#eee"/>
<text x="60" y="211.9" font-size="10" text-anchor="end">50</text>
<line x1="66" y1="154.2" x2="768.0" y2="154.2" stroke="#eee"/>
<text x="60" y="157.2" font-size="10" text-anchor="end">100</text>
<line x1="66" y1="99.5" x2="768.0" y2="99.5" stroke="#eee"/>
<text x="60" y="102.5" font-size="10" text-anchor="end">200</text>
<line x1="66.0" y1="62" x2="66.0" y2="484.0" stroke="#f3f4f6"/>
<text x="66.0" y="500.0" font-size="10" text-anchor="middle">1 B</text>
<line x1="124.5" y1="62" x2="124.5" y2="484.0" stroke="#f3f4f6"/>
<line x1="183.0" y1="62" x2="183.0" y2="484.0" stroke="#f3f4f6"/>
<text x="183.0" y="500.0" font-size="10" text-anchor="middle">4 B</text>
<line x1="241.5" y1="62" x2="241.5" y2="484.0" stroke="#f3f4f6"/>
<line x1="300.0" y1="62" x2="300.0" y2="484.0" stroke="#f3f4f6"/>
<text x="300.0" y="500.0" font-size="10" text-anchor="middle">16 B</text>
<line x1="358.5" y1="62" x2="358.5" y2="484.0" stroke="#f3f4f6"/>
<line x1="417.0" y1="62" x2="417.0" y2="484.0" stroke="#f3f4f6"/>
<text x="417.0" y="500.0" font-size="10" text-anchor="middle">64 B</text>
<line x1="475.5" y1="62" x2="475.5" y2="484.0" stroke="#f3f4f6"/>
<line x1="534.0" y1="62" x2="534.0" y2="484.0" stroke="#f3f4f6"/>
<text x="534.0" y="500.0" font-size="10" text-anchor="middle">256 B</text>
<line x1="592.5" y1="62" x2="592.5" y2="484.0" stroke="#f3f4f6"/>
<line x1="651.0" y1="62" x2="651.0" y2="484.0" stroke="#f3f4f6"/>
<text x="651.0" y="500.0" font-size="10" text-anchor="middle">1 KiB</text>
<line x1="709.5" y1="62" x2="709.5" y2="484.0" stroke="#f3f4f6"/>
<line x1="768.0" y1="62" x2="768.0" y2="484.0" stroke="#f3f4f6"/>
<text x="768.0" y="500.0" font-size="10" text-anchor="middle">4 KiB</text>
<text x="417" y="524" font-size="12" text-anchor="middle">key length (log scale)</text>
<text x="18" y="273" font-size="12" transform="rotate(-90 18 273)" text-anchor="middle">ns / op (log scale)</text>
<polyline points="66.0,449.3 124.5,448.9 158.7,449.1 183.0,454.3 201.8,454.4 217.2,454.3 230.2,454.3 241.5,455.0 251.4,455.2 268.4,455.2 275.7,455.2 282.5,455.1 294.6,455.2 300.0,455.2 309.9,437.0 314.5,437.0 326.9,437.0 330.6,437.0 334.2,437.1 337.7,436.9 344.2,437.0 350.2,437.0 355.8,436.9 358.5,437.0 373.0,419.7 377.3,419.8 389.1,419.9 390.9,419.8 392.7,419.7 394.5,408.4 404.2,408.4 415.7,408.4 417.0,395.9 419.6,395.0 426.9,396.0 434.8,395.9 435.8,395.9 450.3,385.1 460.4,375.5 465.7,367.2 474.8,367.1 475.5,379.5 481.2,379.1 496.9,361.9 512.3,365.5 527.5,350.2 534.0,353.4 543.1,346.5 558.4,335.6 573.7,327.0 589.1,314.8 604.6,309.3 620.0,296.2 635.4,281.5 650.8,269.4 651.0,272.1 666.1,260.1 681.5,244.6 696.9,232.4 712.3,220.5 727.7,206.2 743.1,192.6 758.4,179.6 768.0,170.9" fill="none" stroke="#2563eb" stroke-width="2"/>
<line x1="782.0" y1="70.0" x2="798.0" y2="70.0" stroke="#2563eb" stroke-width="2"/>
<text x="802.0" y="74.0" font-size="11" fill="#2563eb">jumbo</text>
<polyline points="66.0,466.2 124.5,466.3 158.7,466.0 183.0,483.9 201.8,483.8 217.2,484.0 230.2,484.0 241.5,483.8 251.4,470.7 268.4,470.6 275.7,470.7 282.5,470.7 294.6,470.7 300.0,470.7 309.9,454.1 314.5,454.1 326.9,453.9 330.6,453.9 334.2,454.0 337.7,454.0 344.2,454.0 350.2,453.9 355.8,453.9 358.5,454.0 373.0,424.7 377.3,424.7 389.1,424.7 390.9,424.6 392.7,424.7 394.5,424.1 404.2,424.0 415.7,424.7 417.0,424.7 419.6,401.1 426.9,402.0 434.8,401.4 435.8,401.8 450.3,401.1 460.4,386.6 465.7,386.7 474.8,386.9 475.5,387.5 481.2,351.4 496.9,341.6 512.3,331.6 527.5,323.6 534.0,197.7 543.1,192.8 558.4,188.3 573.7,184.0 589.1,180.1 604.6,172.4 620.0,165.6 635.4,159.5 650.8,153.6 651.0,153.6 666.1,136.0 681.5,129.1 696.9,119.6 712.3,103.1 727.7,94.6 743.1,84.1 758.4,67.8 768.0,62.0" fill="none" stroke="#dc2626" stroke-width="2"/>
<line x1="782.0" y1="87.0" x2="798.0" y2="87.0" stroke="#dc2626" stroke-width="2"/>
<text x="802.0" y="91.0" font-size="11" fill="#dc2626">xxh3</text>
<polyline points="66.0,442.6 124.5,435.7 158.7,429.2 183.0,435.6 201.8,435.5 217.2,435.4 230.2,435.6 241.5,435.5 251.4,425.5 268.4,416.6 275.7,426.6 282.5,426.6 294.6,426.5 300.0,430.1 309.9,412.1 314.5,407.3 326.9,412.6 330.6,412.5 334.2,412.5 337.7,404.6 344.2,396.3 350.2,405.5 355.8,405.5 358.5,410.2 373.0,395.7 377.3,395.8 389.1,389.3 390.9,389.3 392.7,392.9 394.5,382.6 404.2,381.4 415.7,375.7 417.0,378.2 419.6,368.9 426.9,368.3 434.8,364.5 435.8,365.8 450.3,355.2 460.4,342.2 465.7,340.7 474.8,337.6 475.5,337.5 481.2,330.3 496.9,318.2 512.3,305.5 527.5,293.4 534.0,287.4 543.1,278.8 558.4,264.4 573.7,249.6 589.1,236.7 604.6,222.8 620.0,207.6 635.4,191.8 650.8,179.4 651.0,179.2 666.1,165.0 681.5,150.9 696.9,136.3 712.3,122.0 727.7,106.6 743.1,92.4 758.4,78.2 768.0,69.3" fill="none" stroke="#059669" stroke-width="2"/>
<line x1="782.0" y1="104.0" x2="798.0" y2="104.0" stroke="#059669" stroke-width="2"/>
<text x="802.0" y="108.0" font-size="11" fill="#059669">murmur3</text>
</svg>
