<svg xmlns="http://www.w3.org/2000/svg" width="900" height="536" font-family="sans-serif">
<rect width="900" height="536" fill="white"/>
<text x="450" y="24" font-size="15" font-weight="bold" text-anchor="middle">mbo/hash - 64-bit latency</text>
<text x="450" y="44" font-size="12" fill="#6b7280" text-anchor="middle">Apple M5 Pro · MacOS · arm64 · 18-core · clang-21 · 29b54ccd</text>
<line x1="66" y1="484.0" x2="768.0" y2="484.0" stroke="#eee"/>
<text x="60" y="487.0" font-size="10" text-anchor="end">0.5</text>
<line x1="66" y1="452.6" x2="768.0" y2="452.6" stroke="#eee"/>
<text x="60" y="455.6" font-size="10" text-anchor="end">1</text>
<line x1="66" y1="421.3" x2="768.0" y2="421.3" stroke="#eee"/>
<text x="60" y="424.3" font-size="10" text-anchor="end">2</text>
<line x1="66" y1="379.8" x2="768.0" y2="379.8" stroke="#eee"/>
<text x="60" y="382.8" font-size="10" text-anchor="end">5</text>
<line x1="66" y1="348.5" x2="768.0" y2="348.5" stroke="#eee"/>
<text x="60" y="351.5" font-size="10" text-anchor="end">10</text>
<line x1="66" y1="317.1" x2="768.0" y2="317.1" stroke="#eee"/>
<text x="60" y="320.1" font-size="10" text-anchor="end">20</text>
<line x1="66" y1="275.7" x2="768.0" y2="275.7" stroke="#eee"/>
<text x="60" y="278.7" font-size="10" text-anchor="end">50</text>
<line x1="66" y1="244.3" x2="768.0" y2="244.3" stroke="#eee"/>
<text x="60" y="247.3" font-size="10" text-anchor="end">100</text>
<line x1="66" y1="212.9" x2="768.0" y2="212.9" stroke="#eee"/>
<text x="60" y="215.9" font-size="10" text-anchor="end">200</text>
<line x1="66" y1="171.5" x2="768.0" y2="171.5" stroke="#eee"/>
<text x="60" y="174.5" font-size="10" text-anchor="end">500</text>
<line x1="66" y1="140.1" x2="768.0" y2="140.1" stroke="#eee"/>
<text x="60" y="143.1" font-size="10" text-anchor="end">1000</text>
<line x1="66" y1="108.8" x2="768.0" y2="108.8" stroke="#eee"/>
<text x="60" y="111.8" font-size="10" text-anchor="end">2000</text>
<line x1="66" y1="67.3" x2="768.0" y2="67.3" stroke="#eee"/>
<text x="60" y="70.3" font-size="10" text-anchor="end">5000</text>
<line x1="66.0" y1="62" x2="66.0" y2="484.0" stroke="#f3f4f6"/>
<text x="66.0" y="500.0" font-size="10" text-anchor="middle">1 B</text>
<line x1="124.5" y1="62" x2="124.5" y2="484.0" stroke="#f3f4f6"/>
<line x1="183.0" y1="62" x2="183.0" y2="484.0" stroke="#f3f4f6"/>
<text x="183.0" y="500.0" font-size="10" text-anchor="middle">4 B</text>
<line x1="241.5" y1="62" x2="241.5" y2="484.0" stroke="#f3f4f6"/>
<line x1="300.0" y1="62" x2="300.0" y2="484.0" stroke="#f3f4f6"/>
<text x="300.0" y="500.0" font-size="10" text-anchor="middle">16 B</text>
<line x1="358.5" y1="62" x2="358.5" y2="484.0" stroke="#f3f4f6"/>
<line x1="417.0" y1="62" x2="417.0" y2="484.0" stroke="#f3f4f6"/>
<text x="417.0" y="500.0" font-size="10" text-anchor="middle">64 B</text>
<line x1="475.5" y1="62" x2="475.5" y2="484.0" stroke="#f3f4f6"/>
<line x1="534.0" y1="62" x2="534.0" y2="484.0" stroke="#f3f4f6"/>
<text x="534.0" y="500.0" font-size="10" text-anchor="middle">256 B</text>
<line x1="592.5" y1="62" x2="592.5" y2="484.0" stroke="#f3f4f6"/>
<line x1="651.0" y1="62" x2="651.0" y2="484.0" stroke="#f3f4f6"/>
<text x="651.0" y="500.0" font-size="10" text-anchor="middle">1 KiB</text>
<line x1="709.5" y1="62" x2="709.5" y2="484.0" stroke="#f3f4f6"/>
<line x1="768.0" y1="62" x2="768.0" y2="484.0" stroke="#f3f4f6"/>
<text x="768.0" y="500.0" font-size="10" text-anchor="middle">4 KiB</text>
<text x="417" y="524" font-size="12" text-anchor="middle">key length (log scale)</text>
<text x="18" y="273" font-size="12" transform="rotate(-90 18 273)" text-anchor="middle">ns / op (log scale)</text>
<polyline points="66.0,418.4 124.5,415.2 158.7,414.8 183.0,409.6 201.8,410.5 217.2,407.3 230.2,414.2 241.5,419.2 251.4,422.0 268.4,421.2 275.7,422.1 282.5,421.8 294.6,421.0 300.0,421.6 309.9,412.3 314.5,412.1 326.9,411.8 330.6,412.3 334.2,412.3 337.7,412.3 344.2,412.1 350.2,412.3 355.8,412.3 358.5,412.2 373.0,405.5 377.3,405.9 389.1,404.7 390.9,405.4 392.7,405.0 394.5,398.4 404.2,398.3 415.7,398.4 417.0,396.3 419.6,390.9 426.9,391.0 434.8,391.0 435.8,389.9 450.3,383.3 460.4,376.6 465.7,370.8 474.8,371.0 475.5,367.6 481.2,367.6 496.9,362.0 512.3,355.0 527.5,347.6 534.0,354.9 543.1,352.5 558.4,340.4 573.7,341.5 589.1,329.3 604.6,326.9 620.0,320.1 635.4,310.4 650.8,301.6 651.0,309.4 666.1,298.6 681.5,292.6 696.9,282.8 712.3,277.3 727.7,268.0 743.1,260.3 758.4,254.7 768.0,253.0" fill="none" stroke="#2563eb" stroke-width="2"/>
<line x1="782.0" y1="70.0" x2="798.0" y2="70.0" stroke="#2563eb" stroke-width="2"/>
<text x="802.0" y="74.0" font-size="11" fill="#2563eb">mumbo</text>
<polyline points="66.0,422.4 124.5,421.5 158.7,424.2 183.0,427.2 201.8,427.5 217.2,427.6 230.2,427.6 241.5,428.3 251.4,428.4 268.4,428.0 275.7,428.8 282.5,428.4 294.6,427.9 300.0,427.7 309.9,421.4 314.5,420.8 326.9,420.1 330.6,421.2 334.2,420.4 337.7,419.7 344.2,421.5 350.2,421.3 355.8,422.7 358.5,420.8 373.0,412.4 377.3,411.8 389.1,412.2 390.9,412.2 392.7,412.0 394.5,405.0 404.2,404.7 415.7,404.4 417.0,404.8 419.6,397.5 426.9,397.3 434.8,396.8 435.8,397.7 450.3,390.0 460.4,383.8 465.7,381.2 474.8,381.2 475.5,381.2 481.2,378.4 496.9,369.5 512.3,361.1 527.5,364.3 534.0,361.4 543.1,356.3 558.4,351.7 573.7,343.4 589.1,338.3 604.6,332.7 620.0,324.7 635.4,315.5 650.8,311.5 651.0,311.8 666.1,297.6 681.5,297.1 696.9,284.9 712.3,276.1 727.7,271.3 743.1,265.8 758.4,256.2 768.0,252.0" fill="none" stroke="#dc2626" stroke-width="2"/>
<line x1="782.0" y1="87.0" x2="798.0" y2="87.0" stroke="#dc2626" stroke-width="2"/>
<text x="802.0" y="91.0" font-size="11" fill="#dc2626">rapidhash</text>
<polyline points="66.0,427.1 124.5,427.1 158.7,426.4 183.0,430.4 201.8,430.0 217.2,431.0 230.2,429.6 241.5,430.4 251.4,427.3 268.4,427.0 275.7,427.6 282.5,427.6 294.6,426.8 300.0,427.7 309.9,413.3 314.5,413.1 326.9,413.3 330.6,413.3 334.2,413.3 337.7,412.9 344.2,413.1 350.2,413.3 355.8,413.3 358.5,413.3 373.0,392.4 377.3,392.4 389.1,392.0 390.9,392.4 392.7,392.4 394.5,392.3 404.2,392.1 415.7,392.3 417.0,391.8 419.6,378.4 426.9,377.8 434.8,378.4 435.8,378.4 450.3,378.3 460.4,367.8 465.7,367.6 474.8,367.8 475.5,367.8 481.2,357.6 496.9,349.3 512.3,340.9 527.5,335.3 534.0,304.1 543.1,300.9 558.4,291.6 573.7,285.4 589.1,283.9 604.6,279.5 620.0,275.4 635.4,271.5 650.8,268.2 651.0,268.3 666.1,259.1 681.5,254.3 696.9,248.6 712.3,242.1 727.7,235.6 743.1,229.7 758.4,222.4 768.0,218.8" fill="none" stroke="#059669" stroke-width="2"/>
<line x1="782.0" y1="104.0" x2="798.0" y2="104.0" stroke="#059669" stroke-width="2"/>
<text x="802.0" y="108.0" font-size="11" fill="#059669">xxh3</text>
<polyline points="66.0,420.5 124.5,415.3 158.7,408.2 183.0,421.9 201.8,418.8 217.2,410.9 230.2,405.3 241.5,416.2 251.4,411.3 268.4,398.6 275.7,411.2 282.5,405.3 294.6,393.8 300.0,406.7 309.9,396.4 314.5,391.4 326.9,390.1 330.6,384.9 334.2,398.9 337.7,393.1 344.2,382.2 350.2,388.4 355.8,377.7 358.5,379.3 373.0,365.2 377.3,371.8 389.1,359.5 390.9,355.8 392.7,366.5 394.5,362.3 404.2,351.5 415.7,347.1 417.0,366.2 419.6,359.8 426.9,360.9 434.8,348.3 435.8,356.7 450.3,338.8 460.4,344.2 465.7,342.4 474.8,333.7 475.5,349.2 481.2,342.3 496.9,338.1 512.3,329.6 527.5,323.8 534.0,326.6 543.1,315.5 558.4,309.1 573.7,302.3 589.1,298.5 604.6,288.3 620.0,284.3 635.4,274.8 650.8,267.2 651.0,270.9 666.1,262.1 681.5,250.8 696.9,246.0 712.3,237.7 727.7,228.2 743.1,220.1 758.4,212.2 768.0,206.7" fill="none" stroke="#d97706" stroke-width="2"/>
<line x1="782.0" y1="121.0" x2="798.0" y2="121.0" stroke="#d97706" stroke-width="2"/>
<text x="802.0" y="125.0" font-size="11" fill="#d97706">xxh64</text>
<polyline points="66.0,405.9 124.5,404.0 158.7,403.2 183.0,400.2 201.8,400.9 217.2,400.8 230.2,400.4 241.5,400.6 251.4,396.5 268.4,395.2 275.7,394.7 282.5,394.0 294.6,394.7 300.0,390.1 309.9,384.3 314.5,384.7 326.9,383.3 330.6,384.9 334.2,384.7 337.7,380.8 344.2,378.3 350.2,379.4 355.8,379.8 358.5,375.8 373.0,372.1 377.3,372.4 389.1,369.1 390.9,368.9 392.7,365.2 394.5,362.6 404.2,361.4 415.7,357.6 417.0,355.3 419.6,351.5 426.9,350.1 434.8,349.9 435.8,346.2 450.3,342.0 460.4,335.4 465.7,331.2 474.8,330.0 475.5,326.4 481.2,325.6 496.9,315.1 512.3,307.4 527.5,298.7 534.0,293.5 543.1,289.1 558.4,278.7 573.7,269.2 589.1,259.5 604.6,250.2 620.0,240.1 635.4,230.9 650.8,221.9 651.0,221.5 666.1,212.7 681.5,204.1 696.9,195.5 712.3,186.6 727.7,178.1 743.1,169.6 758.4,161.0 768.0,155.8" fill="none" stroke="#7c3aed" stroke-width="2"/>
<line x1="782.0" y1="138.0" x2="798.0" y2="138.0" stroke="#7c3aed" stroke-width="2"/>
<text x="802.0" y="142.0" font-size="11" fill="#7c3aed">murmur3</text>
<polyline points="66.0,367.4 124.5,367.1 158.7,366.4 183.0,364.9 201.8,365.0 217.2,365.0 230.2,365.6 241.5,352.5 251.4,352.8 268.4,351.7 275.7,351.4 282.5,351.6 294.6,351.6 300.0,339.6 309.9,339.3 314.5,338.9 326.9,339.2 330.6,338.6 334.2,329.2 337.7,329.0 344.2,329.1 350.2,328.9 355.8,329.0 358.5,320.9 373.0,320.4 377.3,313.1 389.1,312.9 390.9,313.0 392.7,306.7 394.5,306.6 404.2,306.5 415.7,300.7 417.0,295.8 419.6,295.5 426.9,290.9 434.8,290.7 435.8,286.6 450.3,282.5 460.4,275.1 465.7,271.9 474.8,268.9 475.5,266.1 481.2,263.5 496.9,256.4 512.3,248.4 527.5,239.8 534.0,235.6 543.1,232.0 558.4,223.4 573.7,214.7 589.1,206.7 604.6,198.7 620.0,190.3 635.4,181.8 650.8,173.7 651.0,173.4 666.1,165.3 681.5,157.3 696.9,148.9 712.3,140.7 727.7,132.4 743.1,123.8 758.4,115.9 768.0,110.8" fill="none" stroke="#0891b2" stroke-width="2"/>
<line x1="782.0" y1="155.0" x2="798.0" y2="155.0" stroke="#0891b2" stroke-width="2"/>
<text x="802.0" y="159.0" font-size="11" fill="#0891b2">siphash24</text>
<polyline points="66.0,484.0 124.5,468.6 158.7,450.7 183.0,437.4 201.8,425.8 217.2,416.7 230.2,410.7 241.5,405.0 251.4,398.6 268.4,386.6 275.7,380.5 282.5,377.2 294.6,370.2 300.0,366.9 309.9,363.3 314.5,361.2 326.9,352.3 330.6,350.7 334.2,348.4 337.7,346.2 344.2,341.1 350.2,336.8 355.8,331.2 358.5,329.0 373.0,318.7 377.3,315.6 389.1,304.5 390.9,302.8 392.7,301.1 394.5,299.9 404.2,293.0 415.7,285.5 417.0,284.6 419.6,282.9 426.9,272.4 434.8,269.4 435.8,268.3 450.3,255.6 460.4,248.4 465.7,245.3 474.8,236.7 475.5,236.6 481.2,233.2 496.9,222.2 512.3,211.9 527.5,201.8 534.0,196.9 543.1,190.6 558.4,180.9 573.7,171.3 589.1,162.2 604.6,153.0 620.0,144.5 635.4,135.2 650.8,126.5 651.0,126.5 666.1,118.9 681.5,109.3 696.9,101.0 712.3,92.4 727.7,84.5 743.1,75.8 758.4,67.1 768.0,62.0" fill="none" stroke="#be185d" stroke-width="2"/>
<line x1="782.0" y1="172.0" x2="798.0" y2="172.0" stroke="#be185d" stroke-width="2"/>
<text x="802.0" y="176.0" font-size="11" fill="#be185d">fnv1a</text>
<polyline points="66.0,431.1 124.5,421.8 158.7,406.8 183.0,433.3 201.8,431.7 217.2,431.2 230.2,432.0 241.5,432.6 251.4,423.0 268.4,400.1 275.7,423.4 282.5,423.3 294.6,424.0 300.0,424.0 309.9,407.6 314.5,396.3 326.9,412.2 330.6,412.6 334.2,412.8 337.7,403.5 344.2,391.6 350.2,401.8 355.8,401.0 358.5,400.3 373.0,395.7 377.3,395.9 389.1,387.3 390.9,387.2 392.7,388.1 394.5,380.0 404.2,380.3 415.7,374.4 417.0,373.7 419.6,367.2 426.9,369.2 434.8,364.0 435.8,363.2 450.3,354.5 460.4,343.5 465.7,340.2 474.8,338.2 475.5,338.4 481.2,331.3 496.9,322.1 512.3,311.6 527.5,301.1 534.0,296.6 543.1,290.0 558.4,279.1 573.7,266.7 589.1,257.0 604.6,244.2 620.0,234.9 635.4,224.4 650.8,214.3 651.0,214.2 666.1,204.5 681.5,195.4 696.9,186.2 712.3,177.2 727.7,168.5 743.1,159.8 758.4,151.0 768.0,145.8" fill="none" stroke="#4b5563" stroke-width="2"/>
<line x1="782.0" y1="189.0" x2="798.0" y2="189.0" stroke="#4b5563" stroke-width="2"/>
<text x="802.0" y="193.0" font-size="11" fill="#4b5563">dumbo</text>
</svg>
