<svg xmlns="http://www.w3.org/2000/svg" width="900" height="626" font-family="sans-serif">
<rect width="900" height="626" fill="white"/>
<text x="450" y="24" font-size="15" font-weight="bold" text-anchor="middle">mbo/hash - 64-bit throughput (Web)</text>
<text x="450" y="44" font-size="12" fill="#6b7280" text-anchor="middle">Apple M5 Pro · MacOS · arm64 · 18-core · clang-21 · 29b54ccd · higher is better</text>
<line x1="66" y1="549.2" x2="768.0" y2="549.2" stroke="#eee"/>
<text x="60" y="552.2" font-size="10" text-anchor="end">1</text>
<line x1="66" y1="419.4" x2="768.0" y2="419.4" stroke="#eee"/>
<text x="60" y="422.4" font-size="10" text-anchor="end">2</text>
<line x1="66" y1="247.7" x2="768.0" y2="247.7" stroke="#eee"/>
<text x="60" y="250.7" font-size="10" text-anchor="end">5</text>
<line x1="66" y1="117.8" x2="768.0" y2="117.8" stroke="#eee"/>
<text x="60" y="120.8" font-size="10" text-anchor="end">10</text>
<line x1="74.1" y1="62" x2="74.1" y2="574.0" stroke="#f3f4f6"/>
<text x="74.1" y="590.0" font-size="10" text-anchor="middle">16 B</text>
<line x1="160.8" y1="62" x2="160.8" y2="574.0" stroke="#f3f4f6"/>
<line x1="247.6" y1="62" x2="247.6" y2="574.0" stroke="#f3f4f6"/>
<text x="247.6" y="590.0" font-size="10" text-anchor="middle">64 B</text>
<line x1="334.3" y1="62" x2="334.3" y2="574.0" stroke="#f3f4f6"/>
<line x1="421.0" y1="62" x2="421.0" y2="574.0" stroke="#f3f4f6"/>
<text x="421.0" y="590.0" font-size="10" text-anchor="middle">256 B</text>
<line x1="507.8" y1="62" x2="507.8" y2="574.0" stroke="#f3f4f6"/>
<line x1="594.5" y1="62" x2="594.5" y2="574.0" stroke="#f3f4f6"/>
<text x="594.5" y="590.0" font-size="10" text-anchor="middle">1 KiB</text>
<line x1="681.3" y1="62" x2="681.3" y2="574.0" stroke="#f3f4f6"/>
<line x1="768.0" y1="62" x2="768.0" y2="574.0" stroke="#f3f4f6"/>
<text x="768.0" y="590.0" font-size="10" text-anchor="middle">4 KiB</text>
<text x="417" y="614" font-size="12" text-anchor="middle">max length (log scale)</text>
<text x="18" y="318" font-size="12" transform="rotate(-90 18 318)" text-anchor="middle">GiB / s (log scale)</text>
<polyline points="66.0,422.1 144.1,324.5 203.5,227.4 267.4,175.8 326.2,139.4 402.1,121.4 507.8,102.5 681.3,69.9 768.0,77.8" fill="none" stroke="#2563eb" stroke-width="2"/>
<line x1="782.0" y1="70.0" x2="798.0" y2="70.0" stroke="#2563eb" stroke-width="2"/>
<text x="802.0" y="74.0" font-size="11" fill="#2563eb">mumbo</text>
<polyline points="66.0,449.9 144.1,290.6 203.5,211.1 267.4,191.7 326.2,137.6 402.1,113.9 507.8,98.9 681.3,62.0 768.0,65.3" fill="none" stroke="#dc2626" stroke-width="2"/>
<line x1="782.0" y1="87.0" x2="798.0" y2="87.0" stroke="#dc2626" stroke-width="2"/>
<text x="802.0" y="91.0" font-size="11" fill="#dc2626">rapidhash</text>
<polyline points="66.0,385.7 144.1,313.5 203.5,232.5 267.4,177.3 326.2,144.4 402.1,134.7 507.8,140.5 681.3,119.5 768.0,125.3" fill="none" stroke="#059669" stroke-width="2"/>
<line x1="782.0" y1="104.0" x2="798.0" y2="104.0" stroke="#059669" stroke-width="2"/>
<text x="802.0" y="108.0" font-size="11" fill="#059669">xxh3</text>
<polyline points="66.0,465.9 144.1,377.1 203.5,313.8 267.4,261.3 326.2,228.9 402.1,209.6 507.8,194.4 681.3,168.0 768.0,184.7" fill="none" stroke="#d97706" stroke-width="2"/>
<line x1="782.0" y1="121.0" x2="798.0" y2="121.0" stroke="#d97706" stroke-width="2"/>
<text x="802.0" y="125.0" font-size="11" fill="#d97706">xxh64</text>
<polyline points="66.0,473.4 144.1,388.2 203.5,299.3 267.4,251.3 326.2,234.5 402.1,222.6 507.8,222.9 681.3,224.1 768.0,227.1" fill="none" stroke="#7c3aed" stroke-width="2"/>
<line x1="782.0" y1="138.0" x2="798.0" y2="138.0" stroke="#7c3aed" stroke-width="2"/>
<text x="802.0" y="142.0" font-size="11" fill="#7c3aed">murmur3</text>
<polyline points="66.0,574.0 144.1,511.5 203.5,465.7 267.4,447.2 326.2,438.5 402.1,433.7 507.8,434.3 681.3,430.8 768.0,432.5" fill="none" stroke="#0891b2" stroke-width="2"/>
<line x1="782.0" y1="155.0" x2="798.0" y2="155.0" stroke="#0891b2" stroke-width="2"/>
<text x="802.0" y="159.0" font-size="11" fill="#0891b2">siphash24</text>
<polyline points="66.0,440.1 144.1,450.3 203.5,501.2 267.4,506.7 326.2,523.9 402.1,529.8 507.8,545.9 681.3,564.2 768.0,564.4" fill="none" stroke="#be185d" stroke-width="2"/>
<line x1="782.0" y1="172.0" x2="798.0" y2="172.0" stroke="#be185d" stroke-width="2"/>
<text x="802.0" y="176.0" font-size="11" fill="#be185d">fnv1a</text>
<polyline points="66.0,368.8 144.1,289.0 203.5,219.2 267.4,177.8 326.2,173.1 402.1,168.7 507.8,185.1 681.3,205.5 768.0,205.7" fill="none" stroke="#4b5563" stroke-width="2"/>
<line x1="782.0" y1="189.0" x2="798.0" y2="189.0" stroke="#4b5563" stroke-width="2"/>
<text x="802.0" y="193.0" font-size="11" fill="#4b5563">dumbo</text>
</svg>
