<svg xmlns="http://www.w3.org/2000/svg" width="900" height="626" font-family="sans-serif">
<rect width="900" height="626" fill="white"/>
<text x="450" y="24" font-size="15" font-weight="bold" text-anchor="middle">mbo/hash - 64-bit throughput (Short)</text>
<text x="450" y="44" font-size="12" fill="#6b7280" text-anchor="middle">Apple M5 Pro · MacOS · arm64 · 18-core · clang-21 · 29b54ccd · higher is better</text>
<line x1="66" y1="419.1" x2="768.0" y2="419.1" stroke="#eee"/>
<text x="60" y="422.1" font-size="10" text-anchor="end">1</text>
<line x1="66" y1="261.9" x2="768.0" y2="261.9" stroke="#eee"/>
<text x="60" y="264.9" font-size="10" text-anchor="end">2</text>
<line x1="66.0" y1="62" x2="66.0" y2="574.0" stroke="#f3f4f6"/>
<line x1="241.5" y1="62" x2="241.5" y2="574.0" stroke="#f3f4f6"/>
<text x="241.5" y="590.0" font-size="10" text-anchor="middle">16 B</text>
<line x1="417.0" y1="62" x2="417.0" y2="574.0" stroke="#f3f4f6"/>
<line x1="592.5" y1="62" x2="592.5" y2="574.0" stroke="#f3f4f6"/>
<text x="592.5" y="590.0" font-size="10" text-anchor="middle">64 B</text>
<line x1="768.0" y1="62" x2="768.0" y2="574.0" stroke="#f3f4f6"/>
<text x="417" y="614" font-size="12" text-anchor="middle">max length (log scale)</text>
<text x="18" y="318" font-size="12" transform="rotate(-90 18 318)" text-anchor="middle">GiB / s (log scale)</text>
<polyline points="66.0,435.4 168.7,290.7 241.5,210.0 333.4,144.4 409.0,112.1 460.5,118.5 544.8,103.9 649.0,100.7 768.0,103.8" fill="none" stroke="#2563eb" stroke-width="2"/>
<line x1="782.0" y1="70.0" x2="798.0" y2="70.0" stroke="#2563eb" stroke-width="2"/>
<text x="802.0" y="74.0" font-size="11" fill="#2563eb">mumbo</text>
<polyline points="66.0,482.6 168.7,328.4 241.5,212.5 333.4,111.4 409.0,73.6 460.5,86.5 544.8,66.3 649.0,62.0 768.0,73.9" fill="none" stroke="#dc2626" stroke-width="2"/>
<line x1="782.0" y1="87.0" x2="798.0" y2="87.0" stroke="#dc2626" stroke-width="2"/>
<text x="802.0" y="91.0" font-size="11" fill="#dc2626">rapidhash</text>
<polyline points="66.0,408.6 168.7,256.1 241.5,189.1 333.4,138.9 409.0,96.8 460.5,105.9 544.8,83.3 649.0,83.7 768.0,87.7" fill="none" stroke="#059669" stroke-width="2"/>
<line x1="782.0" y1="104.0" x2="798.0" y2="104.0" stroke="#059669" stroke-width="2"/>
<text x="802.0" y="108.0" font-size="11" fill="#059669">xxh3</text>
<polyline points="66.0,439.8 168.7,337.0 241.5,263.5 333.4,233.7 409.0,194.1 460.5,198.8 544.8,178.8 649.0,179.3 768.0,179.0" fill="none" stroke="#d97706" stroke-width="2"/>
<line x1="782.0" y1="121.0" x2="798.0" y2="121.0" stroke="#d97706" stroke-width="2"/>
<text x="802.0" y="125.0" font-size="11" fill="#d97706">xxh64</text>
<polyline points="66.0,507.5 168.7,397.4 241.5,261.2 333.4,229.9 409.0,196.5 460.5,203.2 544.8,187.0 649.0,186.5 768.0,189.0" fill="none" stroke="#7c3aed" stroke-width="2"/>
<line x1="782.0" y1="138.0" x2="798.0" y2="138.0" stroke="#7c3aed" stroke-width="2"/>
<text x="802.0" y="142.0" font-size="11" fill="#7c3aed">murmur3</text>
<polyline points="66.0,574.0 168.7,483.6 241.5,417.2 333.4,384.1 409.0,355.3 460.5,359.9 544.8,345.9 649.0,346.1 768.0,346.9" fill="none" stroke="#0891b2" stroke-width="2"/>
<line x1="782.0" y1="155.0" x2="798.0" y2="155.0" stroke="#0891b2" stroke-width="2"/>
<text x="802.0" y="159.0" font-size="11" fill="#0891b2">siphash24</text>
<polyline points="66.0,332.4 168.7,312.0 241.5,312.9 333.4,280.2 409.0,285.7 460.5,309.1 544.8,306.3 649.0,310.5 768.0,317.2" fill="none" stroke="#be185d" stroke-width="2"/>
<line x1="782.0" y1="172.0" x2="798.0" y2="172.0" stroke="#be185d" stroke-width="2"/>
<text x="802.0" y="176.0" font-size="11" fill="#be185d">fnv1a</text>
<polyline points="66.0,320.7 168.7,226.2 241.5,139.1 333.4,109.5 409.0,65.8 460.5,69.6 544.8,63.5 649.0,62.1 768.0,63.6" fill="none" stroke="#4b5563" stroke-width="2"/>
<line x1="782.0" y1="189.0" x2="798.0" y2="189.0" stroke="#4b5563" stroke-width="2"/>
<text x="802.0" y="193.0" font-size="11" fill="#4b5563">dumbo</text>
</svg>
