<svg xmlns="http://www.w3.org/2000/svg" width="900" height="536" font-family="sans-serif">
<rect width="900" height="536" fill="white"/>
<text x="450" y="24" font-size="15" font-weight="bold" text-anchor="middle">mbo/hash - 64-bit one-shot throughput</text>
<text x="450" y="44" font-size="12" fill="#6b7280" text-anchor="middle">Apple M5 Pro · arm64 · 18-core · clang-22 · 1417af5e</text>
<line x1="66" y1="452.0" x2="768.0" y2="452.0" stroke="#eee"/>
<text x="60" y="455.0" font-size="10" text-anchor="end">1</text>
<line x1="66" y1="347.7" x2="768.0" y2="347.7" stroke="#eee"/>
<text x="60" y="350.7" font-size="10" text-anchor="end">10</text>
<line x1="66" y1="243.5" x2="768.0" y2="243.5" stroke="#eee"/>
<text x="60" y="246.5" font-size="10" text-anchor="end">100</text>
<line x1="66" y1="139.2" x2="768.0" y2="139.2" stroke="#eee"/>
<text x="60" y="142.2" font-size="10" text-anchor="end">1000</text>
<line x1="66.0" y1="62" x2="66.0" y2="484.0" stroke="#f3f4f6"/>
<text x="66.0" y="500.0" font-size="10" text-anchor="middle">1B</text>
<line x1="124.5" y1="62" x2="124.5" y2="484.0" stroke="#f3f4f6"/>
<line x1="183.0" y1="62" x2="183.0" y2="484.0" stroke="#f3f4f6"/>
<text x="183.0" y="500.0" font-size="10" text-anchor="middle">4B</text>
<line x1="241.5" y1="62" x2="241.5" y2="484.0" stroke="#f3f4f6"/>
<line x1="300.0" y1="62" x2="300.0" y2="484.0" stroke="#f3f4f6"/>
<text x="300.0" y="500.0" font-size="10" text-anchor="middle">16B</text>
<line x1="358.5" y1="62" x2="358.5" y2="484.0" stroke="#f3f4f6"/>
<line x1="417.0" y1="62" x2="417.0" y2="484.0" stroke="#f3f4f6"/>
<text x="417.0" y="500.0" font-size="10" text-anchor="middle">64B</text>
<line x1="475.5" y1="62" x2="475.5" y2="484.0" stroke="#f3f4f6"/>
<line x1="534.0" y1="62" x2="534.0" y2="484.0" stroke="#f3f4f6"/>
<text x="534.0" y="500.0" font-size="10" text-anchor="middle">256B</text>
<line x1="592.5" y1="62" x2="592.5" y2="484.0" stroke="#f3f4f6"/>
<line x1="651.0" y1="62" x2="651.0" y2="484.0" stroke="#f3f4f6"/>
<text x="651.0" y="500.0" font-size="10" text-anchor="middle">1Ki</text>
<line x1="709.5" y1="62" x2="709.5" y2="484.0" stroke="#f3f4f6"/>
<line x1="768.0" y1="62" x2="768.0" y2="484.0" stroke="#f3f4f6"/>
<text x="768.0" y="500.0" font-size="10" text-anchor="middle">4Ki</text>
<text x="417" y="524" font-size="12" text-anchor="middle">key length (log scale)</text>
<text x="18" y="273" font-size="12" transform="rotate(-90 18 273)" text-anchor="middle">ns / op (log scale)</text>
<polyline points="66.0,416.9 124.5,414.9 158.7,414.3 183.0,414.5 201.8,413.5 217.2,415.3 230.2,413.8 241.5,418.7 251.4,419.7 268.4,420.0 282.5,420.4 294.6,420.5 300.0,420.4 309.9,411.7 314.5,411.6 326.9,411.7 344.2,411.7 358.5,411.6 373.0,404.2 389.1,404.2 390.9,404.3 392.7,404.1 404.2,397.1 415.7,396.9 417.0,397.0 419.6,390.4 434.8,390.5 450.3,383.1 465.7,370.0 474.8,370.5 475.5,366.9 481.2,366.9 496.9,361.6 512.3,354.5 527.5,346.8 534.0,354.1 543.1,351.7 558.4,340.2 573.7,340.9 589.1,328.6 604.6,326.1 620.0,319.3 635.4,310.2 650.8,300.8 651.0,308.6 666.1,298.0 681.5,292.3 696.9,282.1 712.3,276.5 727.7,267.5 743.1,259.5 758.4,254.0 768.0,252.3" fill="none" stroke="#2563eb" stroke-width="2"/>
<line x1="782.0" y1="70.0" x2="798.0" y2="70.0" stroke="#2563eb" stroke-width="2"/>
<text x="802.0" y="74.0" font-size="11" fill="#2563eb">mumbo</text>
<polyline points="66.0,421.3 124.5,422.4 158.7,421.4 183.0,427.0 201.8,427.0 217.2,427.0 230.2,427.0 241.5,428.6 251.4,428.5 268.4,428.2 282.5,428.5 294.6,428.1 300.0,427.8 309.9,421.0 314.5,421.0 326.9,422.1 344.2,421.7 358.5,420.8 373.0,413.6 389.1,413.2 390.9,413.3 392.7,413.5 404.2,404.3 415.7,404.7 417.0,404.0 419.6,396.5 434.8,396.9 450.3,389.4 465.7,380.5 474.8,380.6 475.5,380.6 481.2,377.2 496.9,368.9 512.3,360.3 527.5,364.3 534.0,361.2 543.1,355.6 558.4,350.8 573.7,342.4 589.1,337.6 604.6,331.7 620.0,324.0 635.4,314.6 650.8,311.0 651.0,311.0 666.1,296.8 681.5,296.3 696.9,284.1 712.3,275.1 727.7,270.6 743.1,265.0 758.4,255.4 768.0,251.4" fill="none" stroke="#dc2626" stroke-width="2"/>
<line x1="782.0" y1="87.0" x2="798.0" y2="87.0" stroke="#dc2626" stroke-width="2"/>
<text x="802.0" y="91.0" font-size="11" fill="#dc2626">rapidhash</text>
<polyline points="66.0,411.8 124.5,411.0 158.7,411.9 183.0,410.4 201.8,411.2 217.2,412.4 230.2,410.6 241.5,411.9 251.4,412.7 268.4,412.6 282.5,413.4 294.6,413.1 300.0,414.0 309.9,403.9 314.5,403.9 326.9,403.9 344.2,403.9 358.5,403.9 373.0,386.7 389.1,386.8 390.9,386.8 392.7,386.7 404.2,386.8 415.7,386.8 417.0,386.7 419.6,374.2 434.8,374.2 450.3,374.2 465.7,364.5 474.8,364.4 475.5,364.5 481.2,354.9 496.9,346.6 512.3,337.6 527.5,332.2 534.0,303.7 543.1,300.3 558.4,289.7 573.7,287.2 589.1,284.2 604.6,279.4 620.0,274.9 635.4,271.0 650.8,267.5 651.0,267.4 666.1,259.1 681.5,255.0 696.9,248.8 712.3,241.7 727.7,235.8 743.1,229.2 758.4,221.5 768.0,217.8" fill="none" stroke="#059669" stroke-width="2"/>
<line x1="782.0" y1="104.0" x2="798.0" y2="104.0" stroke="#059669" stroke-width="2"/>
<text x="802.0" y="108.0" font-size="11" fill="#059669">xxh3</text>
<polyline points="66.0,413.6 124.5,408.3 158.7,398.2 183.0,412.6 201.8,412.2 217.2,405.7 230.2,394.5 241.5,407.2 251.4,410.8 268.4,395.9 282.5,405.3 294.6,391.0 300.0,399.8 309.9,396.1 314.5,386.6 326.9,389.8 344.2,378.3 358.5,378.5 373.0,365.1 389.1,359.0 390.9,355.0 392.7,365.7 404.2,350.7 415.7,346.4 417.0,366.0 419.6,359.3 434.8,347.3 450.3,339.0 465.7,341.9 474.8,333.5 475.5,349.3 481.2,342.6 496.9,338.0 512.3,329.0 527.5,323.7 534.0,326.1 543.1,314.9 558.4,308.4 573.7,301.5 589.1,297.2 604.6,287.7 620.0,283.9 635.4,274.1 650.8,266.5 651.0,270.3 666.1,261.4 681.5,249.9 696.9,245.5 712.3,237.2 727.7,228.5 743.1,220.0 758.4,211.4 768.0,207.2" fill="none" stroke="#d97706" stroke-width="2"/>
<line x1="782.0" y1="121.0" x2="798.0" y2="121.0" stroke="#d97706" stroke-width="2"/>
<text x="802.0" y="125.0" font-size="11" fill="#d97706">xxh64</text>
<polyline points="66.0,405.4 124.5,404.3 158.7,402.3 183.0,401.2 201.8,401.9 217.2,402.5 230.2,401.8 241.5,401.7 251.4,398.3 268.4,394.8 282.5,393.6 294.6,393.8 300.0,390.7 309.9,385.6 314.5,384.3 326.9,382.8 344.2,378.2 358.5,377.5 373.0,372.1 389.1,366.2 390.9,366.5 392.7,365.8 404.2,361.7 415.7,357.1 417.0,355.6 419.6,351.3 434.8,348.8 450.3,341.4 465.7,331.2 474.8,329.0 475.5,327.7 481.2,325.2 496.9,315.1 512.3,306.9 527.5,298.4 534.0,293.7 543.1,288.4 558.4,278.4 573.7,269.5 589.1,259.3 604.6,249.3 620.0,239.4 635.4,231.7 650.8,221.2 651.0,221.9 666.1,212.0 681.5,203.9 696.9,195.3 712.3,187.0 727.7,178.9 743.1,169.0 758.4,161.4 768.0,155.8" fill="none" stroke="#7c3aed" stroke-width="2"/>
<line x1="782.0" y1="138.0" x2="798.0" y2="138.0" stroke="#7c3aed" stroke-width="2"/>
<text x="802.0" y="142.0" font-size="11" fill="#7c3aed">murmur3</text>
<polyline points="66.0,367.8 124.5,366.6 158.7,366.6 183.0,364.4 201.8,365.1 217.2,364.2 230.2,364.6 241.5,351.9 251.4,351.6 268.4,351.2 282.5,351.0 294.6,351.2 300.0,339.2 309.9,338.8 314.5,338.5 326.9,338.5 344.2,328.6 358.5,320.1 373.0,320.1 389.1,312.5 390.9,312.5 392.7,305.8 404.2,305.6 415.7,300.1 417.0,295.1 419.6,294.8 434.8,290.1 450.3,282.0 465.7,271.3 474.8,268.3 475.5,265.4 481.2,262.7 496.9,255.8 512.3,247.5 527.5,239.6 534.0,235.4 543.1,231.1 558.4,222.6 573.7,215.1 589.1,206.1 604.6,197.8 620.0,189.5 635.4,181.0 650.8,173.0 651.0,172.5 666.1,164.4 681.5,156.3 696.9,148.3 712.3,139.9 727.7,131.7 743.1,123.6 758.4,115.3 768.0,109.8" fill="none" stroke="#0891b2" stroke-width="2"/>
<line x1="782.0" y1="155.0" x2="798.0" y2="155.0" stroke="#0891b2" stroke-width="2"/>
<text x="802.0" y="159.0" font-size="11" fill="#0891b2">siphash24</text>
<polyline points="66.0,484.0 124.5,468.3 158.7,450.6 183.0,437.5 201.8,425.4 217.2,416.8 230.2,409.8 241.5,402.4 251.4,397.1 268.4,388.5 282.5,375.3 294.6,369.8 300.0,367.5 309.9,362.7 314.5,360.3 326.9,352.6 344.2,340.7 358.5,328.2 373.0,317.9 389.1,303.7 390.9,302.0 392.7,299.6 404.2,292.3 415.7,284.7 417.0,283.8 419.6,282.1 434.8,268.5 450.3,255.1 465.7,245.3 474.8,236.2 475.5,235.8 481.2,232.4 496.9,221.2 512.3,211.1 527.5,200.8 534.0,195.6 543.1,189.9 558.4,181.2 573.7,170.5 589.1,161.5 604.6,152.9 620.0,143.2 635.4,135.4 650.8,125.6 651.0,128.4 666.1,117.2 681.5,108.9 696.9,99.9 712.3,91.9 727.7,83.0 743.1,74.9 758.4,66.2 768.0,62.0" fill="none" stroke="#be185d" stroke-width="2"/>
<line x1="782.0" y1="172.0" x2="798.0" y2="172.0" stroke="#be185d" stroke-width="2"/>
<text x="802.0" y="176.0" font-size="11" fill="#be185d">fnv1a</text>
<polyline points="66.0,431.6 124.5,425.4 158.7,418.7 183.0,434.7 201.8,434.3 217.2,434.3 230.2,434.4 241.5,434.6 251.4,421.5 268.4,411.6 282.5,423.1 294.6,423.2 300.0,422.9 309.9,406.3 314.5,402.2 326.9,410.9 344.2,394.8 358.5,402.3 373.0,393.8 389.1,387.5 390.9,386.3 392.7,386.8 404.2,380.1 415.7,374.9 417.0,374.9 419.6,367.2 434.8,363.4 450.3,353.7 465.7,339.0 474.8,338.0 475.5,338.1 481.2,331.1 496.9,322.7 512.3,311.4 527.5,300.4 534.0,296.5 543.1,289.6 558.4,278.8 573.7,266.2 589.1,256.3 604.6,245.0 620.0,233.9 635.4,224.2 650.8,213.4 651.0,213.6 666.1,204.2 681.5,195.1 696.9,185.2 712.3,176.3 727.7,168.1 743.1,160.3 758.4,150.2 768.0,145.4" fill="none" stroke="#4b5563" stroke-width="2"/>
<line x1="782.0" y1="189.0" x2="798.0" y2="189.0" stroke="#4b5563" stroke-width="2"/>
<text x="802.0" y="193.0" font-size="11" fill="#4b5563">dumbo</text>
</svg>
