<svg xmlns="http://www.w3.org/2000/svg" width="900" height="536" font-family="sans-serif">
<rect width="900" height="536" fill="white"/>
<text x="450" y="24" font-size="15" font-weight="bold" text-anchor="middle">mbo/hash - 64-bit throughput (Short)</text>
<text x="450" y="44" font-size="12" fill="#6b7280" text-anchor="middle">Apple M5 Pro · MacOS · arm64 · 18-core · clang-21 · 29b54ccd</text>
<line x1="66" y1="356.4" x2="768.0" y2="356.4" stroke="#eee"/>
<text x="60" y="359.4" font-size="10" text-anchor="end">1</text>
<line x1="66" y1="226.8" x2="768.0" y2="226.8" stroke="#eee"/>
<text x="60" y="229.8" font-size="10" text-anchor="end">2</text>
<line x1="66.0" y1="62" x2="66.0" y2="484.0" stroke="#f3f4f6"/>
<line x1="241.5" y1="62" x2="241.5" y2="484.0" stroke="#f3f4f6"/>
<text x="241.5" y="500.0" font-size="10" text-anchor="middle">16 B</text>
<line x1="417.0" y1="62" x2="417.0" y2="484.0" stroke="#f3f4f6"/>
<line x1="592.5" y1="62" x2="592.5" y2="484.0" stroke="#f3f4f6"/>
<text x="592.5" y="500.0" font-size="10" text-anchor="middle">64 B</text>
<line x1="768.0" y1="62" x2="768.0" y2="484.0" stroke="#f3f4f6"/>
<text x="417" y="524" font-size="12" text-anchor="middle">max length (log scale)</text>
<text x="18" y="273" font-size="12" transform="rotate(-90 18 273)" text-anchor="middle">GiB / s (log scale)</text>
<polyline points="66.0,369.8 168.7,250.5 241.5,183.9 333.4,130.0 409.0,103.3 460.5,108.5 544.8,96.6 649.0,93.9 768.0,96.4" fill="none" stroke="#2563eb" stroke-width="2"/>
<line x1="782.0" y1="70.0" x2="798.0" y2="70.0" stroke="#2563eb" stroke-width="2"/>
<text x="802.0" y="74.0" font-size="11" fill="#2563eb">mumbo</text>
<polyline points="66.0,408.6 168.7,281.6 241.5,186.0 333.4,102.7 409.0,71.5 460.5,82.2 544.8,65.6 649.0,62.0 768.0,71.8" fill="none" stroke="#dc2626" stroke-width="2"/>
<line x1="782.0" y1="87.0" x2="798.0" y2="87.0" stroke="#dc2626" stroke-width="2"/>
<text x="802.0" y="91.0" font-size="11" fill="#dc2626">rapidhash</text>
<polyline points="66.0,347.7 168.7,222.0 241.5,166.7 333.4,125.4 409.0,90.6 460.5,98.2 544.8,79.5 649.0,79.9 768.0,83.2" fill="none" stroke="#059669" stroke-width="2"/>
<line x1="782.0" y1="104.0" x2="798.0" y2="104.0" stroke="#059669" stroke-width="2"/>
<text x="802.0" y="108.0" font-size="11" fill="#059669">xxh3</text>
<polyline points="66.0,373.4 168.7,288.7 241.5,228.1 333.4,203.6 409.0,170.8 460.5,174.8 544.8,158.3 649.0,158.7 768.0,158.4" fill="none" stroke="#d97706" stroke-width="2"/>
<line x1="782.0" y1="121.0" x2="798.0" y2="121.0" stroke="#d97706" stroke-width="2"/>
<text x="802.0" y="125.0" font-size="11" fill="#d97706">xxh64</text>
<polyline points="66.0,429.2 168.7,338.4 241.5,226.2 333.4,200.4 409.0,172.9 460.5,178.4 544.8,165.0 649.0,164.6 768.0,166.6" fill="none" stroke="#7c3aed" stroke-width="2"/>
<line x1="782.0" y1="138.0" x2="798.0" y2="138.0" stroke="#7c3aed" stroke-width="2"/>
<text x="802.0" y="142.0" font-size="11" fill="#7c3aed">murmur3</text>
<polyline points="66.0,484.0 168.7,409.5 241.5,354.7 333.4,327.5 409.0,303.7 460.5,307.5 544.8,296.0 649.0,296.2 768.0,296.8" fill="none" stroke="#0891b2" stroke-width="2"/>
<line x1="782.0" y1="155.0" x2="798.0" y2="155.0" stroke="#0891b2" stroke-width="2"/>
<text x="802.0" y="159.0" font-size="11" fill="#0891b2">siphash24</text>
<polyline points="66.0,284.9 168.7,268.0 241.5,268.8 333.4,241.9 409.0,246.4 460.5,265.7 544.8,263.3 649.0,266.8 768.0,272.4" fill="none" stroke="#be185d" stroke-width="2"/>
<line x1="782.0" y1="172.0" x2="798.0" y2="172.0" stroke="#be185d" stroke-width="2"/>
<text x="802.0" y="176.0" font-size="11" fill="#be185d">fnv1a</text>
<polyline points="66.0,275.2 168.7,197.4 241.5,125.6 333.4,101.1 409.0,65.1 460.5,68.2 544.8,63.3 649.0,62.1 768.0,63.3" fill="none" stroke="#4b5563" stroke-width="2"/>
<line x1="782.0" y1="189.0" x2="798.0" y2="189.0" stroke="#4b5563" stroke-width="2"/>
<text x="802.0" y="193.0" font-size="11" fill="#4b5563">dumbo</text>
</svg>
