<svg xmlns="http://www.w3.org/2000/svg" width="900" height="626" font-family="sans-serif">
<rect width="900" height="626" fill="white"/>
<text x="450" y="24" font-size="15" font-weight="bold" text-anchor="middle">mbo/hash - 64-bit latency</text>
<text x="450" y="44" font-size="12" fill="#6b7280" text-anchor="middle">Apple M5 Pro · MacOS · arm64 · 18-core · clang-21 · 29b54ccd · lower is better</text>
<line x1="66" y1="574.0" x2="768.0" y2="574.0" stroke="#eee"/>
<text x="60" y="577.0" font-size="10" text-anchor="end">0.5</text>
<line x1="66" y1="535.9" x2="768.0" y2="535.9" stroke="#eee"/>
<text x="60" y="538.9" font-size="10" text-anchor="end">1</text>
<line x1="66" y1="497.9" x2="768.0" y2="497.9" stroke="#eee"/>
<text x="60" y="500.9" font-size="10" text-anchor="end">2</text>
<line x1="66" y1="447.6" x2="768.0" y2="447.6" stroke="#eee"/>
<text x="60" y="450.6" font-size="10" text-anchor="end">5</text>
<line x1="66" y1="409.6" x2="768.0" y2="409.6" stroke="#eee"/>
<text x="60" y="412.6" font-size="10" text-anchor="end">10</text>
<line x1="66" y1="371.5" x2="768.0" y2="371.5" stroke="#eee"/>
<text x="60" y="374.5" font-size="10" text-anchor="end">20</text>
<line x1="66" y1="321.2" x2="768.0" y2="321.2" stroke="#eee"/>
<text x="60" y="324.2" font-size="10" text-anchor="end">50</text>
<line x1="66" y1="283.2" x2="768.0" y2="283.2" stroke="#eee"/>
<text x="60" y="286.2" font-size="10" text-anchor="end">100</text>
<line x1="66" y1="245.1" x2="768.0" y2="245.1" stroke="#eee"/>
<text x="60" y="248.1" font-size="10" text-anchor="end">200</text>
<line x1="66" y1="194.8" x2="768.0" y2="194.8" stroke="#eee"/>
<text x="60" y="197.8" font-size="10" text-anchor="end">500</text>
<line x1="66" y1="156.8" x2="768.0" y2="156.8" stroke="#eee"/>
<text x="60" y="159.8" font-size="10" text-anchor="end">1000</text>
<line x1="66" y1="118.8" x2="768.0" y2="118.8" stroke="#eee"/>
<text x="60" y="121.8" font-size="10" text-anchor="end">2000</text>
<line x1="66" y1="68.5" x2="768.0" y2="68.5" stroke="#eee"/>
<text x="60" y="71.5" font-size="10" text-anchor="end">5000</text>
<line x1="66.0" y1="62" x2="66.0" y2="574.0" stroke="#f3f4f6"/>
<text x="66.0" y="590.0" font-size="10" text-anchor="middle">1 B</text>
<line x1="124.5" y1="62" x2="124.5" y2="574.0" stroke="#f3f4f6"/>
<line x1="183.0" y1="62" x2="183.0" y2="574.0" stroke="#f3f4f6"/>
<text x="183.0" y="590.0" font-size="10" text-anchor="middle">4 B</text>
<line x1="241.5" y1="62" x2="241.5" y2="574.0" stroke="#f3f4f6"/>
<line x1="300.0" y1="62" x2="300.0" y2="574.0" stroke="#f3f4f6"/>
<text x="300.0" y="590.0" font-size="10" text-anchor="middle">16 B</text>
<line x1="358.5" y1="62" x2="358.5" y2="574.0" stroke="#f3f4f6"/>
<line x1="417.0" y1="62" x2="417.0" y2="574.0" stroke="#f3f4f6"/>
<text x="417.0" y="590.0" font-size="10" text-anchor="middle">64 B</text>
<line x1="475.5" y1="62" x2="475.5" y2="574.0" stroke="#f3f4f6"/>
<line x1="534.0" y1="62" x2="534.0" y2="574.0" stroke="#f3f4f6"/>
<text x="534.0" y="590.0" font-size="10" text-anchor="middle">256 B</text>
<line x1="592.5" y1="62" x2="592.5" y2="574.0" stroke="#f3f4f6"/>
<line x1="651.0" y1="62" x2="651.0" y2="574.0" stroke="#f3f4f6"/>
<text x="651.0" y="590.0" font-size="10" text-anchor="middle">1 KiB</text>
<line x1="709.5" y1="62" x2="709.5" y2="574.0" stroke="#f3f4f6"/>
<line x1="768.0" y1="62" x2="768.0" y2="574.0" stroke="#f3f4f6"/>
<text x="768.0" y="590.0" font-size="10" text-anchor="middle">4 KiB</text>
<text x="417" y="614" font-size="12" text-anchor="middle">key length (log scale)</text>
<text x="18" y="318" font-size="12" transform="rotate(-90 18 318)" text-anchor="middle">ns / op (log scale)</text>
<polyline points="66.0,494.4 124.5,490.5 158.7,490.0 183.0,483.8 201.8,484.8 217.2,480.9 230.2,489.4 241.5,495.4 251.4,498.8 268.4,497.8 275.7,498.9 282.5,498.6 294.6,497.6 300.0,498.3 309.9,487.0 314.5,486.7 326.9,486.4 330.6,487.0 334.2,487.0 337.7,487.0 344.2,486.8 350.2,487.0 355.8,487.0 358.5,486.9 373.0,478.7 377.3,479.2 389.1,477.8 390.9,478.7 392.7,478.2 394.5,470.1 404.2,470.0 415.7,470.1 417.0,467.6 419.6,461.1 426.9,461.2 434.8,461.2 435.8,459.9 450.3,451.8 460.4,443.7 465.7,436.6 474.8,436.9 475.5,432.8 481.2,432.8 496.9,425.9 512.3,417.5 527.5,408.5 534.0,417.3 543.1,414.5 558.4,399.7 573.7,401.1 589.1,386.3 604.6,383.4 620.0,375.2 635.4,363.3 650.8,352.7 651.0,362.2 666.1,349.0 681.5,341.7 696.9,329.9 712.3,323.2 727.7,312.0 743.1,302.6 758.4,295.8 768.0,293.7" fill="none" stroke="#2563eb" stroke-width="2"/>
<line x1="782.0" y1="70.0" x2="798.0" y2="70.0" stroke="#2563eb" stroke-width="2"/>
<text x="802.0" y="74.0" font-size="11" fill="#2563eb">mumbo</text>
<polyline points="66.0,499.3 124.5,498.2 158.7,501.4 183.0,505.1 201.8,505.5 217.2,505.6 230.2,505.6 241.5,506.5 251.4,506.6 268.4,506.1 275.7,507.1 282.5,506.6 294.6,505.9 300.0,505.7 309.9,498.1 314.5,497.3 326.9,496.5 330.6,497.8 334.2,496.8 337.7,495.9 344.2,498.2 350.2,497.9 355.8,499.6 358.5,497.3 373.0,487.1 377.3,486.4 389.1,486.9 390.9,486.9 392.7,486.6 394.5,478.2 404.2,477.8 415.7,477.4 417.0,478.0 419.6,469.0 426.9,468.9 434.8,468.3 435.8,469.3 450.3,460.0 460.4,452.4 465.7,449.3 474.8,449.2 475.5,449.2 481.2,445.8 496.9,435.1 512.3,424.9 527.5,428.8 534.0,425.3 543.1,419.0 558.4,413.5 573.7,403.4 589.1,397.2 604.6,390.4 620.0,380.7 635.4,369.5 650.8,364.7 651.0,365.1 666.1,347.8 681.5,347.2 696.9,332.5 712.3,321.8 727.7,316.0 743.1,309.3 758.4,297.7 768.0,292.5" fill="none" stroke="#dc2626" stroke-width="2"/>
<line x1="782.0" y1="87.0" x2="798.0" y2="87.0" stroke="#dc2626" stroke-width="2"/>
<text x="802.0" y="91.0" font-size="11" fill="#dc2626">rapidhash</text>
<polyline points="66.0,505.0 124.5,505.0 158.7,504.1 183.0,509.0 201.8,508.5 217.2,509.6 230.2,508.0 241.5,508.9 251.4,505.2 268.4,504.9 275.7,505.5 282.5,505.6 294.6,504.6 300.0,505.6 309.9,488.2 314.5,488.0 326.9,488.2 330.6,488.2 334.2,488.2 337.7,487.7 344.2,487.9 350.2,488.2 355.8,488.2 358.5,488.2 373.0,462.8 377.3,462.8 389.1,462.3 390.9,462.9 392.7,462.8 394.5,462.8 404.2,462.5 415.7,462.7 417.0,462.2 419.6,445.9 426.9,445.2 434.8,445.9 435.8,445.9 450.3,445.7 460.4,433.1 465.7,432.8 474.8,433.1 475.5,433.0 481.2,420.7 496.9,410.5 512.3,400.4 527.5,393.5 534.0,355.7 543.1,351.8 558.4,340.6 573.7,333.1 589.1,331.3 604.6,325.8 620.0,320.9 635.4,316.1 650.8,312.2 651.0,312.3 666.1,301.2 681.5,295.3 696.9,288.4 712.3,280.5 727.7,272.6 743.1,265.5 758.4,256.6 768.0,252.3" fill="none" stroke="#059669" stroke-width="2"/>
<line x1="782.0" y1="104.0" x2="798.0" y2="104.0" stroke="#059669" stroke-width="2"/>
<text x="802.0" y="108.0" font-size="11" fill="#059669">xxh3</text>
<polyline points="66.0,496.9 124.5,490.7 158.7,482.0 183.0,498.6 201.8,494.9 217.2,485.3 230.2,478.5 241.5,491.7 251.4,485.8 268.4,470.4 275.7,485.7 282.5,478.5 294.6,464.6 300.0,480.2 309.9,467.7 314.5,461.7 326.9,460.1 330.6,453.8 334.2,470.7 337.7,463.7 344.2,450.5 350.2,458.1 355.8,445.1 358.5,447.0 373.0,429.8 377.3,437.8 389.1,422.9 390.9,418.4 392.7,431.5 394.5,426.4 404.2,413.3 415.7,407.9 417.0,431.1 419.6,423.3 426.9,424.7 434.8,409.3 435.8,419.5 450.3,397.8 460.4,404.4 465.7,402.2 474.8,391.6 475.5,410.5 481.2,402.1 496.9,397.0 512.3,386.7 527.5,379.7 534.0,383.0 543.1,369.5 558.4,361.8 573.7,353.6 589.1,348.9 604.6,336.5 620.0,331.8 635.4,320.2 650.8,311.0 651.0,315.5 666.1,304.8 681.5,291.0 696.9,285.2 712.3,275.2 727.7,263.6 743.1,253.8 758.4,244.2 768.0,237.6" fill="none" stroke="#d97706" stroke-width="2"/>
<line x1="782.0" y1="121.0" x2="798.0" y2="121.0" stroke="#d97706" stroke-width="2"/>
<text x="802.0" y="125.0" font-size="11" fill="#d97706">xxh64</text>
<polyline points="66.0,479.3 124.5,476.9 158.7,475.9 183.0,472.3 201.8,473.2 217.2,473.1 230.2,472.6 241.5,472.8 251.4,467.8 268.4,466.3 275.7,465.7 282.5,464.9 294.6,465.7 300.0,460.0 309.9,453.0 314.5,453.6 326.9,451.8 330.6,453.8 334.2,453.5 337.7,448.8 344.2,445.8 350.2,447.1 355.8,447.5 358.5,442.7 373.0,438.3 377.3,438.6 389.1,434.5 390.9,434.4 392.7,429.9 394.5,426.7 404.2,425.3 415.7,420.7 417.0,417.9 419.6,413.3 426.9,411.5 434.8,411.2 435.8,406.8 450.3,401.7 460.4,393.7 465.7,388.6 474.8,387.2 475.5,382.8 481.2,381.8 496.9,369.1 512.3,359.7 527.5,349.2 534.0,342.9 543.1,337.5 558.4,325.0 573.7,313.4 589.1,301.7 604.6,290.3 620.0,278.1 635.4,266.9 650.8,256.0 651.0,255.5 666.1,244.9 681.5,234.4 696.9,223.9 712.3,213.1 727.7,202.8 743.1,192.5 758.4,182.1 768.0,175.8" fill="none" stroke="#7c3aed" stroke-width="2"/>
<line x1="782.0" y1="138.0" x2="798.0" y2="138.0" stroke="#7c3aed" stroke-width="2"/>
<text x="802.0" y="142.0" font-size="11" fill="#7c3aed">murmur3</text>
<polyline points="66.0,432.5 124.5,432.1 158.7,431.3 183.0,429.5 201.8,429.7 217.2,429.6 230.2,430.4 241.5,414.4 251.4,414.8 268.4,413.5 275.7,413.2 282.5,413.4 294.6,413.4 300.0,398.8 309.9,398.4 314.5,398.0 326.9,398.4 330.6,397.6 334.2,386.1 337.7,385.9 344.2,386.1 350.2,385.8 355.8,385.9 358.5,376.1 373.0,375.5 377.3,366.7 389.1,366.4 390.9,366.5 392.7,358.8 394.5,358.8 404.2,358.7 415.7,351.6 417.0,345.6 419.6,345.3 426.9,339.7 434.8,339.5 435.8,334.5 450.3,329.6 460.4,320.6 465.7,316.7 474.8,313.0 475.5,309.6 481.2,306.5 496.9,297.8 512.3,288.1 527.5,277.8 534.0,272.6 543.1,268.2 558.4,257.8 573.7,247.2 589.1,237.5 604.6,227.8 620.0,217.6 635.4,207.4 650.8,197.5 651.0,197.1 666.1,187.4 681.5,177.6 696.9,167.5 712.3,157.5 727.7,147.5 743.1,137.0 758.4,127.4 768.0,121.2" fill="none" stroke="#0891b2" stroke-width="2"/>
<line x1="782.0" y1="155.0" x2="798.0" y2="155.0" stroke="#0891b2" stroke-width="2"/>
<text x="802.0" y="159.0" font-size="11" fill="#0891b2">siphash24</text>
<polyline points="66.0,574.0 124.5,555.3 158.7,533.6 183.0,517.4 201.8,503.4 217.2,492.4 230.2,485.1 241.5,478.1 251.4,470.4 268.4,455.9 275.7,448.5 282.5,444.5 294.6,435.9 300.0,432.0 309.9,427.5 314.5,425.0 326.9,414.2 330.6,412.3 334.2,409.5 337.7,406.8 344.2,400.6 350.2,395.4 355.8,388.6 358.5,386.0 373.0,373.4 377.3,369.7 389.1,356.2 390.9,354.2 392.7,352.1 394.5,350.7 404.2,342.3 415.7,333.2 417.0,332.0 419.6,330.0 426.9,317.2 434.8,313.7 435.8,312.3 450.3,296.9 460.4,288.2 465.7,284.4 474.8,274.0 475.5,273.8 481.2,269.7 496.9,256.3 512.3,243.8 527.5,231.6 534.0,225.7 543.1,218.0 558.4,206.2 573.7,194.6 589.1,183.6 604.6,172.5 620.0,162.0 635.4,150.8 650.8,140.3 651.0,140.2 666.1,131.1 681.5,119.4 696.9,109.4 712.3,98.9 727.7,89.3 743.1,78.7 758.4,68.2 768.0,62.0" fill="none" stroke="#be185d" stroke-width="2"/>
<line x1="782.0" y1="172.0" x2="798.0" y2="172.0" stroke="#be185d" stroke-width="2"/>
<text x="802.0" y="176.0" font-size="11" fill="#be185d">fnv1a</text>
<polyline points="66.0,509.9 124.5,498.6 158.7,480.4 183.0,512.5 201.8,510.6 217.2,510.0 230.2,510.9 241.5,511.6 251.4,500.0 268.4,472.2 275.7,500.5 282.5,500.4 294.6,501.2 300.0,501.1 309.9,481.3 314.5,467.6 326.9,486.9 330.6,487.4 334.2,487.6 337.7,476.4 344.2,461.9 350.2,474.3 355.8,473.4 358.5,472.4 373.0,466.9 377.3,467.1 389.1,456.7 390.9,456.5 392.7,457.6 394.5,447.8 404.2,448.2 415.7,441.0 417.0,440.1 419.6,432.3 426.9,434.7 434.8,428.4 435.8,427.5 450.3,416.8 460.4,403.5 465.7,399.5 474.8,397.1 475.5,397.3 481.2,388.8 496.9,377.6 512.3,364.9 527.5,352.1 534.0,346.7 543.1,338.6 558.4,325.4 573.7,310.4 589.1,298.6 604.6,283.0 620.0,271.8 635.4,259.1 650.8,246.8 651.0,246.7 666.1,234.8 681.5,223.9 696.9,212.7 712.3,201.8 727.7,191.2 743.1,180.7 758.4,170.0 768.0,163.6" fill="none" stroke="#4b5563" stroke-width="2"/>
<line x1="782.0" y1="189.0" x2="798.0" y2="189.0" stroke="#4b5563" stroke-width="2"/>
<text x="802.0" y="193.0" font-size="11" fill="#4b5563">dumbo</text>
</svg>
