<svg xmlns="http://www.w3.org/2000/svg" width="900" height="536" font-family="sans-serif">
<rect width="900" height="536" fill="white"/>
<text x="450" y="24" font-size="15" font-weight="bold" text-anchor="middle">mbo/hash - mixed-length latency</text>
<text x="450" y="44" font-size="12" fill="#6b7280" text-anchor="middle">Apple M5 Pro · MacOS · arm64 · 18-core · clang-21 · cc23c11a</text>
<line x1="66" y1="448.8" x2="768.0" y2="448.8" stroke="#eee"/>
<text x="60" y="451.8" font-size="10" text-anchor="end">1</text>
<line x1="66" y1="336.1" x2="768.0" y2="336.1" stroke="#eee"/>
<text x="60" y="339.1" font-size="10" text-anchor="end">10</text>
<line x1="66" y1="223.4" x2="768.0" y2="223.4" stroke="#eee"/>
<text x="60" y="226.4" font-size="10" text-anchor="end">100</text>
<line x1="66" y1="110.7" x2="768.0" y2="110.7" stroke="#eee"/>
<text x="60" y="113.7" font-size="10" text-anchor="end">1000</text>
<line x1="66.0" y1="62" x2="66.0" y2="484.0" stroke="#f3f4f6"/>
<text x="66.0" y="500.0" font-size="10" text-anchor="middle">1 B</text>
<line x1="124.5" y1="62" x2="124.5" y2="484.0" stroke="#f3f4f6"/>
<line x1="183.0" y1="62" x2="183.0" y2="484.0" stroke="#f3f4f6"/>
<text x="183.0" y="500.0" font-size="10" text-anchor="middle">4 B</text>
<line x1="241.5" y1="62" x2="241.5" y2="484.0" stroke="#f3f4f6"/>
<line x1="300.0" y1="62" x2="300.0" y2="484.0" stroke="#f3f4f6"/>
<text x="300.0" y="500.0" font-size="10" text-anchor="middle">16 B</text>
<line x1="358.5" y1="62" x2="358.5" y2="484.0" stroke="#f3f4f6"/>
<line x1="417.0" y1="62" x2="417.0" y2="484.0" stroke="#f3f4f6"/>
<text x="417.0" y="500.0" font-size="10" text-anchor="middle">64 B</text>
<line x1="475.5" y1="62" x2="475.5" y2="484.0" stroke="#f3f4f6"/>
<line x1="534.0" y1="62" x2="534.0" y2="484.0" stroke="#f3f4f6"/>
<text x="534.0" y="500.0" font-size="10" text-anchor="middle">256 B</text>
<line x1="592.5" y1="62" x2="592.5" y2="484.0" stroke="#f3f4f6"/>
<line x1="651.0" y1="62" x2="651.0" y2="484.0" stroke="#f3f4f6"/>
<text x="651.0" y="500.0" font-size="10" text-anchor="middle">1 KiB</text>
<line x1="709.5" y1="62" x2="709.5" y2="484.0" stroke="#f3f4f6"/>
<line x1="768.0" y1="62" x2="768.0" y2="484.0" stroke="#f3f4f6"/>
<text x="768.0" y="500.0" font-size="10" text-anchor="middle">4 KiB</text>
<text x="417" y="524" font-size="12" text-anchor="middle">key length (log scale)</text>
<text x="18" y="273" font-size="12" transform="rotate(-90 18 273)" text-anchor="middle">ns / op (log scale)</text>
<polyline points="66.0,341.1 124.5,341.3 158.7,338.9 183.0,339.8 201.8,338.0 217.2,337.3 230.2,340.8 241.5,339.1 251.4,339.2 268.4,339.1 275.7,341.7 282.5,343.4 294.6,336.2 300.0,337.0 309.9,338.4 314.5,336.2 326.9,335.2 330.6,333.2 334.2,340.5 337.7,333.1 344.2,331.4 350.2,332.2 355.8,331.4 358.5,332.7 373.0,339.8 377.3,329.0 389.1,330.9 390.9,326.8 392.7,328.0 394.5,328.3 404.2,325.0 415.7,323.8 417.0,329.3 419.6,322.8 426.9,383.0 434.8,350.0 435.8,333.2 450.3,383.0 460.4,315.2 465.7,356.1 474.8,318.4 475.5,313.8 481.2,324.7 496.9,314.2 512.3,314.8 527.5,308.7 534.0,304.8 543.1,304.1 558.4,303.6 573.7,304.4 589.1,299.3 604.6,297.8 620.0,293.2 635.4,290.8 650.8,287.0 651.0,287.3 666.1,283.5 681.5,287.1 696.9,291.2 712.3,272.0 727.7,270.6 743.1,258.9 758.4,262.5 768.0,251.2" fill="none" stroke="#2563eb" stroke-width="2"/>
<line x1="782.0" y1="70.0" x2="798.0" y2="70.0" stroke="#2563eb" stroke-width="2"/>
<text x="802.0" y="74.0" font-size="11" fill="#2563eb">mumbo</text>
<polyline points="66.0,350.7 124.5,349.9 158.7,347.8 183.0,345.1 201.8,350.7 217.2,349.9 230.2,339.5 241.5,342.7 251.4,335.2 268.4,335.8 275.7,335.7 282.5,333.2 294.6,338.9 300.0,334.4 309.9,334.1 314.5,336.2 326.9,335.8 330.6,345.7 334.2,333.7 337.7,333.7 344.2,331.4 350.2,334.0 355.8,331.0 358.5,335.7 373.0,332.2 377.3,329.7 389.1,329.0 390.9,329.2 392.7,329.6 394.5,367.4 404.2,326.5 415.7,328.9 417.0,328.9 419.6,325.1 426.9,326.0 434.8,318.0 435.8,318.8 450.3,316.2 460.4,319.5 465.7,314.3 474.8,316.3 475.5,313.7 481.2,316.0 496.9,312.3 512.3,308.3 527.5,305.9 534.0,309.5 543.1,305.8 558.4,311.7 573.7,304.0 589.1,297.8 604.6,302.0 620.0,301.0 635.4,290.8 650.8,299.6 651.0,288.3 666.1,290.1 681.5,280.2 696.9,278.1 712.3,270.5 727.7,281.3 743.1,261.7 758.4,256.5 768.0,243.7" fill="none" stroke="#dc2626" stroke-width="2"/>
<line x1="782.0" y1="87.0" x2="798.0" y2="87.0" stroke="#dc2626" stroke-width="2"/>
<text x="802.0" y="91.0" font-size="11" fill="#dc2626">rapidhash</text>
<polyline points="66.0,322.0 124.5,421.8 158.7,344.6 183.0,423.0 201.8,327.8 217.2,341.0 230.2,341.5 241.5,421.8 251.4,360.8 268.4,330.8 275.7,337.2 282.5,421.1 294.6,326.3 300.0,331.8 309.9,332.7 314.5,338.4 326.9,363.7 330.6,420.2 334.2,421.2 337.7,335.9 344.2,332.0 350.2,332.4 355.8,329.2 358.5,330.7 373.0,330.1 377.3,328.8 389.1,374.7 390.9,324.8 392.7,357.4 394.5,328.8 404.2,330.9 415.7,323.3 417.0,327.3 419.6,324.9 426.9,328.3 434.8,325.2 435.8,325.0 450.3,329.5 460.4,322.6 465.7,324.5 474.8,322.1 475.5,324.4 481.2,321.5 496.9,317.7 512.3,315.6 527.5,309.2 534.0,364.7 543.1,305.3 558.4,303.7 573.7,296.5 589.1,288.8 604.6,338.0 620.0,288.6 635.4,267.0 650.8,290.0 651.0,271.8 666.1,268.8 681.5,258.8 696.9,256.2 712.3,250.0 727.7,249.2 743.1,231.3 758.4,229.9 768.0,222.7" fill="none" stroke="#059669" stroke-width="2"/>
<line x1="782.0" y1="104.0" x2="798.0" y2="104.0" stroke="#059669" stroke-width="2"/>
<text x="802.0" y="108.0" font-size="11" fill="#059669">xxh3</text>
<polyline points="66.0,332.5 124.5,337.8 158.7,320.4 183.0,324.4 201.8,324.9 217.2,321.4 230.2,319.4 241.5,318.8 251.4,328.6 268.4,322.9 275.7,315.3 282.5,317.7 294.6,316.4 300.0,321.0 309.9,314.9 314.5,310.1 326.9,313.5 330.6,310.6 334.2,338.3 337.7,311.4 344.2,306.1 350.2,306.9 355.8,304.4 358.5,305.7 373.0,302.4 377.3,289.4 389.1,362.9 390.9,296.5 392.7,298.8 394.5,337.5 404.2,299.3 415.7,298.4 417.0,336.9 419.6,291.4 426.9,286.1 434.8,293.5 435.8,287.0 450.3,315.6 460.4,288.7 465.7,283.9 474.8,283.1 475.5,285.0 481.2,288.7 496.9,282.2 512.3,282.3 527.5,281.9 534.0,274.3 543.1,276.7 558.4,274.5 573.7,275.6 589.1,266.7 604.6,270.7 620.0,264.2 635.4,258.0 650.8,247.3 651.0,243.2 666.1,249.6 681.5,232.4 696.9,231.9 712.3,230.1 727.7,234.5 743.1,226.0 758.4,211.8 768.0,205.0" fill="none" stroke="#d97706" stroke-width="2"/>
<line x1="782.0" y1="121.0" x2="798.0" y2="121.0" stroke="#d97706" stroke-width="2"/>
<text x="802.0" y="125.0" font-size="11" fill="#d97706">xxh64</text>
<polyline points="66.0,331.8 124.5,330.4 158.7,328.1 183.0,330.5 201.8,318.4 217.2,330.4 230.2,322.2 241.5,322.8 251.4,314.4 268.4,316.7 275.7,316.1 282.5,314.3 294.6,322.9 300.0,315.9 309.9,323.5 314.5,315.9 326.9,318.2 330.6,317.6 334.2,313.2 337.7,331.2 344.2,317.5 350.2,335.1 355.8,342.9 358.5,307.9 373.0,368.6 377.3,310.7 389.1,306.8 390.9,301.0 392.7,304.9 394.5,302.0 404.2,303.4 415.7,303.8 417.0,302.6 419.6,301.0 426.9,295.6 434.8,303.9 435.8,295.5 450.3,296.8 460.4,295.6 465.7,292.8 474.8,294.1 475.5,291.3 481.2,291.2 496.9,298.3 512.3,304.3 527.5,271.4 534.0,272.9 543.1,265.7 558.4,257.9 573.7,256.7 589.1,251.1 604.6,236.8 620.0,239.7 635.4,227.8 650.8,223.7 651.0,241.4 666.1,224.6 681.5,202.0 696.9,196.5 712.3,191.4 727.7,174.3 743.1,176.5 758.4,163.3 768.0,172.6" fill="none" stroke="#7c3aed" stroke-width="2"/>
<line x1="782.0" y1="138.0" x2="798.0" y2="138.0" stroke="#7c3aed" stroke-width="2"/>
<text x="802.0" y="142.0" font-size="11" fill="#7c3aed">murmur3</text>
<polyline points="66.0,309.8 124.5,310.1 158.7,309.5 183.0,308.7 201.8,310.1 217.2,308.8 230.2,306.6 241.5,311.6 251.4,308.3 268.4,304.0 275.7,305.1 282.5,306.8 294.6,304.3 300.0,305.4 309.9,302.1 314.5,301.8 326.9,298.9 330.6,305.4 334.2,311.2 337.7,298.3 344.2,312.9 350.2,297.1 355.8,309.2 358.5,309.8 373.0,292.4 377.3,310.0 389.1,287.8 390.9,288.9 392.7,284.6 394.5,282.3 404.2,283.7 415.7,281.7 417.0,286.0 419.6,271.8 426.9,276.3 434.8,271.9 435.8,282.4 450.3,263.0 460.4,274.1 465.7,276.2 474.8,264.0 475.5,258.1 481.2,248.1 496.9,257.5 512.3,252.6 527.5,242.1 534.0,238.5 543.1,245.4 558.4,223.5 573.7,217.8 589.1,213.5 604.6,200.5 620.0,191.7 635.4,177.7 650.8,175.4 651.0,182.5 666.1,174.2 681.5,183.8 696.9,156.2 712.3,151.3 727.7,140.1 743.1,130.2 758.4,128.4 768.0,99.0" fill="none" stroke="#0891b2" stroke-width="2"/>
<line x1="782.0" y1="155.0" x2="798.0" y2="155.0" stroke="#0891b2" stroke-width="2"/>
<text x="802.0" y="159.0" font-size="11" fill="#0891b2">siphash24</text>
<polyline points="66.0,411.5 124.5,380.5 158.7,447.5 183.0,401.2 201.8,483.6 217.2,339.3 230.2,346.2 241.5,367.5 251.4,326.7 268.4,326.6 275.7,318.6 282.5,314.7 294.6,313.3 300.0,323.6 309.9,308.9 314.5,308.0 326.9,303.2 330.6,295.4 334.2,335.5 337.7,307.0 344.2,295.7 350.2,289.9 355.8,289.6 358.5,484.0 373.0,277.7 377.3,317.8 389.1,272.5 390.9,304.8 392.7,275.4 394.5,270.2 404.2,269.7 415.7,252.1 417.0,329.6 419.6,256.5 426.9,246.2 434.8,258.9 435.8,251.2 450.3,235.4 460.4,238.9 465.7,237.7 474.8,229.8 475.5,218.2 481.2,225.3 496.9,205.8 512.3,212.5 527.5,204.9 534.0,195.4 543.1,190.1 558.4,200.1 573.7,204.7 589.1,204.4 604.6,151.6 620.0,144.7 635.4,147.4 650.8,128.6 651.0,135.7 666.1,111.8 681.5,104.0 696.9,107.3 712.3,87.3 727.7,105.3 743.1,78.6 758.4,65.3 768.0,62.0" fill="none" stroke="#be185d" stroke-width="2"/>
<line x1="782.0" y1="172.0" x2="798.0" y2="172.0" stroke="#be185d" stroke-width="2"/>
<text x="802.0" y="176.0" font-size="11" fill="#be185d">fnv1a</text>
<polyline points="66.0,348.7 124.5,352.3 158.7,332.4 183.0,340.6 201.8,336.0 217.2,349.0 230.2,335.3 241.5,338.2 251.4,328.8 268.4,349.8 275.7,327.4 282.5,328.3 294.6,325.4 300.0,330.1 309.9,337.9 314.5,328.8 326.9,326.6 330.6,342.8 334.2,329.2 337.7,323.4 344.2,322.0 350.2,321.3 355.8,357.4 358.5,323.6 373.0,324.9 377.3,313.8 389.1,318.6 390.9,318.0 392.7,314.1 394.5,317.7 404.2,317.2 415.7,310.6 417.0,309.4 419.6,310.1 426.9,307.3 434.8,367.6 435.8,301.5 450.3,298.7 460.4,293.4 465.7,367.2 474.8,299.6 475.5,292.8 481.2,282.8 496.9,283.8 512.3,277.8 527.5,277.3 534.0,261.5 543.1,265.0 558.4,254.8 573.7,253.3 589.1,245.2 604.6,255.4 620.0,233.0 635.4,222.6 650.8,210.3 651.0,225.2 666.1,210.9 681.5,211.2 696.9,189.9 712.3,179.2 727.7,188.1 743.1,155.0 758.4,152.4 768.0,144.3" fill="none" stroke="#4b5563" stroke-width="2"/>
<line x1="782.0" y1="189.0" x2="798.0" y2="189.0" stroke="#4b5563" stroke-width="2"/>
<text x="802.0" y="193.0" font-size="11" fill="#4b5563">dumbo</text>
</svg>
