<svg xmlns="http://www.w3.org/2000/svg" width="900" height="536" font-family="sans-serif">
<rect width="900" height="536" fill="white"/>
<text x="450" y="24" font-size="15" font-weight="bold" text-anchor="middle">mbo/hash - 128-bit one-shot throughput</text>
<text x="450" y="44" font-size="12" fill="#6b7280" text-anchor="middle">Apple M5 Pro · arm64 · 18-core · clang-22 · 1417af5e</text>
<line x1="66" y1="379.6" x2="768.0" y2="379.6" stroke="#eee"/>
<text x="60" y="382.6" font-size="10" text-anchor="end">10</text>
<line x1="66" y1="207.5" x2="768.0" y2="207.5" stroke="#eee"/>
<text x="60" y="210.5" font-size="10" text-anchor="end">100</text>
<line x1="66.0" y1="62" x2="66.0" y2="484.0" stroke="#f3f4f6"/>
<text x="66.0" y="500.0" font-size="10" text-anchor="middle">1B</text>
<line x1="124.5" y1="62" x2="124.5" y2="484.0" stroke="#f3f4f6"/>
<line x1="183.0" y1="62" x2="183.0" y2="484.0" stroke="#f3f4f6"/>
<text x="183.0" y="500.0" font-size="10" text-anchor="middle">4B</text>
<line x1="241.5" y1="62" x2="241.5" y2="484.0" stroke="#f3f4f6"/>
<line x1="300.0" y1="62" x2="300.0" y2="484.0" stroke="#f3f4f6"/>
<text x="300.0" y="500.0" font-size="10" text-anchor="middle">16B</text>
<line x1="358.5" y1="62" x2="358.5" y2="484.0" stroke="#f3f4f6"/>
<line x1="417.0" y1="62" x2="417.0" y2="484.0" stroke="#f3f4f6"/>
<text x="417.0" y="500.0" font-size="10" text-anchor="middle">64B</text>
<line x1="475.5" y1="62" x2="475.5" y2="484.0" stroke="#f3f4f6"/>
<line x1="534.0" y1="62" x2="534.0" y2="484.0" stroke="#f3f4f6"/>
<text x="534.0" y="500.0" font-size="10" text-anchor="middle">256B</text>
<line x1="592.5" y1="62" x2="592.5" y2="484.0" stroke="#f3f4f6"/>
<line x1="651.0" y1="62" x2="651.0" y2="484.0" stroke="#f3f4f6"/>
<text x="651.0" y="500.0" font-size="10" text-anchor="middle">1Ki</text>
<line x1="709.5" y1="62" x2="709.5" y2="484.0" stroke="#f3f4f6"/>
<line x1="768.0" y1="62" x2="768.0" y2="484.0" stroke="#f3f4f6"/>
<text x="768.0" y="500.0" font-size="10" text-anchor="middle">4Ki</text>
<text x="417" y="524" font-size="12" text-anchor="middle">key length (log scale)</text>
<text x="18" y="273" font-size="12" transform="rotate(-90 18 273)" text-anchor="middle">ns / op (log scale)</text>
<polyline points="66.0,466.6 124.5,466.3 158.7,464.0 183.0,467.4 201.8,467.5 217.2,468.0 230.2,467.8 241.5,470.6 251.4,470.5 268.4,470.6 282.5,470.6 294.6,470.6 300.0,470.6 309.9,450.6 314.5,450.8 326.9,450.8 344.2,450.8 358.5,450.7 373.0,440.1 389.1,440.4 390.9,440.2 392.7,440.4 404.2,427.1 415.7,427.1 417.0,415.2 419.6,415.1 434.8,415.2 450.3,406.7 465.7,389.6 474.8,389.3 475.5,401.2 481.2,401.3 496.9,384.2 512.3,387.8 527.5,373.0 534.0,375.6 543.1,368.7 558.4,358.3 573.7,349.7 589.1,337.9 604.6,332.0 620.0,318.8 635.4,304.1 650.8,289.5 651.0,293.4 666.1,281.2 681.5,265.6 696.9,253.4 712.3,241.3 727.7,227.0 743.1,213.9 758.4,200.5 768.0,193.6" fill="none" stroke="#2563eb" stroke-width="2"/>
<line x1="782.0" y1="70.0" x2="798.0" y2="70.0" stroke="#2563eb" stroke-width="2"/>
<text x="802.0" y="74.0" font-size="11" fill="#2563eb">jumbo</text>
<polyline points="66.0,472.5 124.5,470.8 158.7,471.4 183.0,482.0 201.8,484.0 217.2,483.2 230.2,483.8 241.5,483.2 251.4,470.6 268.4,470.6 282.5,470.6 294.6,470.6 300.0,470.6 309.9,447.5 314.5,447.1 326.9,448.8 344.2,449.2 358.5,448.4 373.0,427.0 389.1,426.5 390.9,426.8 392.7,426.8 404.2,426.8 415.7,426.8 417.0,426.9 419.6,407.1 434.8,407.1 450.3,407.1 465.7,393.3 474.8,393.3 475.5,393.3 481.2,378.9 496.9,368.0 512.3,361.8 527.5,354.3 534.0,302.4 543.1,287.0 558.4,279.8 573.7,276.2 589.1,271.5 604.6,264.0 620.0,257.0 635.4,250.8 650.8,244.9 651.0,245.0 666.1,230.9 681.5,223.9 696.9,213.8 712.3,202.9 727.7,193.3 743.1,182.6 758.4,170.4 768.0,164.5" fill="none" stroke="#dc2626" stroke-width="2"/>
<line x1="782.0" y1="87.0" x2="798.0" y2="87.0" stroke="#dc2626" stroke-width="2"/>
<text x="802.0" y="91.0" font-size="11" fill="#dc2626">xxh3</text>
<polyline points="66.0,474.3 124.5,472.4 158.7,469.8 183.0,469.3 201.8,469.0 217.2,467.4 230.2,468.5 241.5,469.2 251.4,462.6 268.4,457.2 282.5,455.4 294.6,455.0 300.0,450.6 309.9,441.9 314.5,439.7 326.9,438.1 344.2,429.8 358.5,428.1 373.0,419.5 389.1,410.0 390.9,409.8 392.7,408.3 404.2,401.7 415.7,394.7 417.0,391.3 419.6,386.0 434.8,381.2 450.3,368.1 465.7,351.0 474.8,347.9 475.5,346.3 481.2,342.3 496.9,325.2 512.3,311.9 527.5,297.8 534.0,290.7 543.1,281.8 558.4,265.0 573.7,248.9 589.1,233.2 604.6,217.1 620.0,200.7 635.4,185.9 650.8,171.5 651.0,171.4 666.1,159.6 681.5,141.7 696.9,127.1 712.3,112.8 727.7,100.2 743.1,84.3 758.4,70.2 768.0,62.0" fill="none" stroke="#059669" stroke-width="2"/>
<line x1="782.0" y1="104.0" x2="798.0" y2="104.0" stroke="#059669" stroke-width="2"/>
<text x="802.0" y="108.0" font-size="11" fill="#059669">murmur3</text>
</svg>
