<svg xmlns="http://www.w3.org/2000/svg" width="900" height="536" font-family="sans-serif">
<rect width="900" height="536" fill="white"/>
<text x="450" y="24" font-size="15" font-weight="bold" text-anchor="middle">mbo/hash - 64-bit one-shot throughput</text>
<text x="450" y="44" font-size="12" fill="#6b7280" text-anchor="middle">Apple M5 Pro · MacOS · arm64 · 18-core · clang-21 · cc23c11a</text>
<line x1="66" y1="451.6" x2="768.0" y2="451.6" stroke="#eee"/>
<text x="60" y="454.6" font-size="10" text-anchor="end">1</text>
<line x1="66" y1="347.2" x2="768.0" y2="347.2" stroke="#eee"/>
<text x="60" y="350.2" font-size="10" text-anchor="end">10</text>
<line x1="66" y1="242.8" x2="768.0" y2="242.8" stroke="#eee"/>
<text x="60" y="245.8" font-size="10" text-anchor="end">100</text>
<line x1="66" y1="138.4" x2="768.0" y2="138.4" stroke="#eee"/>
<text x="60" y="141.4" font-size="10" text-anchor="end">1000</text>
<line x1="66.0" y1="62" x2="66.0" y2="484.0" stroke="#f3f4f6"/>
<text x="66.0" y="500.0" font-size="10" text-anchor="middle">1 B</text>
<line x1="124.5" y1="62" x2="124.5" y2="484.0" stroke="#f3f4f6"/>
<line x1="183.0" y1="62" x2="183.0" y2="484.0" stroke="#f3f4f6"/>
<text x="183.0" y="500.0" font-size="10" text-anchor="middle">4 B</text>
<line x1="241.5" y1="62" x2="241.5" y2="484.0" stroke="#f3f4f6"/>
<line x1="300.0" y1="62" x2="300.0" y2="484.0" stroke="#f3f4f6"/>
<text x="300.0" y="500.0" font-size="10" text-anchor="middle">16 B</text>
<line x1="358.5" y1="62" x2="358.5" y2="484.0" stroke="#f3f4f6"/>
<line x1="417.0" y1="62" x2="417.0" y2="484.0" stroke="#f3f4f6"/>
<text x="417.0" y="500.0" font-size="10" text-anchor="middle">64 B</text>
<line x1="475.5" y1="62" x2="475.5" y2="484.0" stroke="#f3f4f6"/>
<line x1="534.0" y1="62" x2="534.0" y2="484.0" stroke="#f3f4f6"/>
<text x="534.0" y="500.0" font-size="10" text-anchor="middle">256 B</text>
<line x1="592.5" y1="62" x2="592.5" y2="484.0" stroke="#f3f4f6"/>
<line x1="651.0" y1="62" x2="651.0" y2="484.0" stroke="#f3f4f6"/>
<text x="651.0" y="500.0" font-size="10" text-anchor="middle">1 KiB</text>
<line x1="709.5" y1="62" x2="709.5" y2="484.0" stroke="#f3f4f6"/>
<line x1="768.0" y1="62" x2="768.0" y2="484.0" stroke="#f3f4f6"/>
<text x="768.0" y="500.0" font-size="10" text-anchor="middle">4 KiB</text>
<text x="417" y="524" font-size="12" text-anchor="middle">key length (log scale)</text>
<text x="18" y="273" font-size="12" transform="rotate(-90 18 273)" text-anchor="middle">ns / op (log scale)</text>
<polyline points="66.0,415.9 124.5,414.3 158.7,413.4 183.0,411.2 201.8,414.9 217.2,414.0 230.2,413.0 241.5,418.4 251.4,419.7 268.4,419.0 275.7,420.4 282.5,420.1 294.6,420.2 300.0,419.6 309.9,411.2 314.5,411.2 326.9,411.1 330.6,411.2 334.2,411.2 337.7,411.2 344.2,411.2 350.2,411.2 355.8,411.2 358.5,411.2 373.0,404.5 377.3,404.4 389.1,404.5 390.9,404.4 392.7,404.4 394.5,396.8 404.2,397.1 415.7,397.2 417.0,397.0 419.6,389.9 426.9,389.8 434.8,389.8 435.8,390.4 450.3,382.5 460.4,375.7 465.7,369.7 474.8,369.9 475.5,366.4 481.2,366.4 496.9,361.1 512.3,353.9 527.5,346.3 534.0,353.6 543.1,351.2 558.4,339.7 573.7,340.3 589.1,328.1 604.6,325.7 620.0,318.3 635.4,309.4 650.8,301.1 651.0,308.1 666.1,297.2 681.5,291.4 696.9,281.4 712.3,275.7 727.7,267.0 743.1,258.9 758.4,253.4 768.0,251.6" fill="none" stroke="#2563eb" stroke-width="2"/>
<line x1="782.0" y1="70.0" x2="798.0" y2="70.0" stroke="#2563eb" stroke-width="2"/>
<text x="802.0" y="74.0" font-size="11" fill="#2563eb">mumbo</text>
<polyline points="66.0,422.9 124.5,423.1 158.7,423.6 183.0,426.5 201.8,426.5 217.2,426.5 230.2,426.5 241.5,428.3 251.4,427.8 268.4,428.4 275.7,427.5 282.5,427.9 294.6,428.0 300.0,427.2 309.9,421.4 314.5,421.6 326.9,419.5 330.6,420.3 334.2,420.5 337.7,421.1 344.2,419.7 350.2,420.8 355.8,421.1 358.5,421.8 373.0,411.6 377.3,411.3 389.1,411.3 390.9,411.3 392.7,411.2 394.5,403.9 404.2,404.0 415.7,403.8 417.0,403.8 419.6,396.1 426.9,395.9 434.8,396.2 435.8,396.3 450.3,389.2 460.4,382.7 465.7,380.0 474.8,379.6 475.5,380.1 481.2,376.9 496.9,368.7 512.3,360.0 527.5,363.6 534.0,360.4 543.1,355.1 558.4,350.6 573.7,342.0 589.1,337.1 604.6,331.3 620.0,323.5 635.4,314.1 650.8,310.5 651.0,310.5 666.1,296.2 681.5,295.7 696.9,283.6 712.3,274.5 727.7,270.1 743.1,264.4 758.4,254.8 768.0,250.8" fill="none" stroke="#dc2626" stroke-width="2"/>
<line x1="782.0" y1="87.0" x2="798.0" y2="87.0" stroke="#dc2626" stroke-width="2"/>
<text x="802.0" y="91.0" font-size="11" fill="#dc2626">rapidhash</text>
<polyline points="66.0,425.8 124.5,426.2 158.7,426.4 183.0,430.3 201.8,430.5 217.2,430.1 230.2,430.1 241.5,430.1 251.4,426.7 268.4,427.0 275.7,426.5 282.5,426.6 294.6,426.6 300.0,426.5 309.9,412.1 314.5,412.1 326.9,412.1 330.6,412.2 334.2,412.2 337.7,412.2 344.2,412.2 350.2,412.2 355.8,412.2 358.5,412.2 373.0,391.3 377.3,391.2 389.1,391.2 390.9,391.2 392.7,391.3 394.5,391.2 404.2,391.2 415.7,391.3 417.0,391.3 419.6,377.3 426.9,377.3 434.8,377.3 435.8,377.3 450.3,377.3 460.4,366.7 465.7,366.7 474.8,366.7 475.5,366.7 481.2,356.8 496.9,348.8 512.3,339.6 527.5,333.9 534.0,303.0 543.1,299.6 558.4,291.5 573.7,285.0 589.1,282.9 604.6,278.4 620.0,274.5 635.4,270.7 650.8,267.3 651.0,267.3 666.1,257.8 681.5,253.4 696.9,247.2 712.3,240.6 727.7,234.7 743.1,228.3 758.4,221.0 768.0,217.4" fill="none" stroke="#059669" stroke-width="2"/>
<line x1="782.0" y1="104.0" x2="798.0" y2="104.0" stroke="#059669" stroke-width="2"/>
<text x="802.0" y="108.0" font-size="11" fill="#059669">xxh3</text>
<polyline points="66.0,423.4 124.5,412.9 158.7,409.6 183.0,419.9 201.8,417.7 217.2,410.8 230.2,404.2 241.5,415.0 251.4,410.4 268.4,399.1 275.7,409.7 282.5,404.0 294.6,392.0 300.0,406.2 309.9,395.9 314.5,389.3 326.9,389.0 330.6,384.4 334.2,396.9 337.7,392.0 344.2,381.6 350.2,387.0 355.8,375.8 358.5,378.2 373.0,364.1 377.3,370.5 389.1,358.5 390.9,354.4 392.7,365.2 394.5,361.5 404.2,350.1 415.7,345.6 417.0,365.3 419.6,359.1 426.9,360.5 434.8,346.6 435.8,355.3 450.3,338.5 460.4,343.1 465.7,341.5 474.8,332.6 475.5,349.4 481.2,342.0 496.9,337.3 512.3,328.4 527.5,323.2 534.0,325.5 543.1,314.4 558.4,307.8 573.7,301.0 589.1,297.3 604.6,287.1 620.0,283.3 635.4,273.5 650.8,265.8 651.0,269.6 666.1,260.7 681.5,249.9 696.9,245.0 712.3,236.3 727.7,226.8 743.1,219.4 758.4,210.8 768.0,205.9" fill="none" stroke="#d97706" stroke-width="2"/>
<line x1="782.0" y1="121.0" x2="798.0" y2="121.0" stroke="#d97706" stroke-width="2"/>
<text x="802.0" y="125.0" font-size="11" fill="#d97706">xxh64</text>
<polyline points="66.0,406.0 124.5,403.2 158.7,401.9 183.0,401.7 201.8,402.3 217.2,401.3 230.2,401.1 241.5,401.5 251.4,397.7 268.4,394.5 275.7,393.8 282.5,393.7 294.6,393.7 300.0,389.1 309.9,384.9 314.5,383.7 326.9,382.2 330.6,382.1 334.2,383.4 337.7,380.9 344.2,377.7 350.2,378.3 355.8,378.0 358.5,374.0 373.0,370.4 377.3,371.0 389.1,367.4 390.9,367.6 392.7,364.0 394.5,362.0 404.2,359.5 415.7,357.4 417.0,354.0 419.6,351.0 426.9,350.0 434.8,348.6 435.8,344.7 450.3,341.5 460.4,334.2 465.7,330.2 474.8,327.7 475.5,325.8 481.2,324.1 496.9,314.6 512.3,306.0 527.5,298.1 534.0,292.7 543.1,288.2 558.4,277.3 573.7,268.1 589.1,258.2 604.6,248.8 620.0,238.8 635.4,229.6 650.8,220.8 651.0,220.0 666.1,211.7 681.5,203.6 696.9,193.7 712.3,185.0 727.7,176.5 743.1,168.8 758.4,159.6 768.0,155.6" fill="none" stroke="#7c3aed" stroke-width="2"/>
<line x1="782.0" y1="138.0" x2="798.0" y2="138.0" stroke="#7c3aed" stroke-width="2"/>
<text x="802.0" y="142.0" font-size="11" fill="#7c3aed">murmur3</text>
<polyline points="66.0,367.3 124.5,366.2 158.7,366.1 183.0,364.0 201.8,363.6 217.2,364.3 230.2,364.5 241.5,351.3 251.4,351.0 268.4,350.6 275.7,350.5 282.5,350.5 294.6,350.5 300.0,338.6 309.9,338.1 314.5,337.9 326.9,338.1 330.6,337.6 334.2,327.7 337.7,327.5 344.2,327.7 350.2,327.3 355.8,327.2 358.5,319.3 373.0,319.3 377.3,311.9 389.1,311.7 390.9,311.7 392.7,305.2 394.5,304.9 404.2,304.8 415.7,299.4 417.0,294.4 419.6,294.2 426.9,289.5 434.8,289.4 435.8,285.4 450.3,281.1 460.4,273.8 465.7,270.5 474.8,267.5 475.5,265.0 481.2,262.1 496.9,254.9 512.3,247.2 527.5,238.7 534.0,234.0 543.1,230.1 558.4,221.8 573.7,213.9 589.1,205.1 604.6,197.2 620.0,188.9 635.4,180.3 650.8,172.8 651.0,171.9 666.1,163.7 681.5,155.6 696.9,147.2 712.3,139.8 727.7,131.2 743.1,122.6 758.4,114.9 768.0,109.1" fill="none" stroke="#0891b2" stroke-width="2"/>
<line x1="782.0" y1="155.0" x2="798.0" y2="155.0" stroke="#0891b2" stroke-width="2"/>
<text x="802.0" y="159.0" font-size="11" fill="#0891b2">siphash24</text>
<polyline points="66.0,484.0 124.5,468.0 158.7,449.7 183.0,436.7 201.8,425.2 217.2,417.1 230.2,409.8 241.5,402.1 251.4,397.6 268.4,386.3 275.7,379.4 282.5,376.1 294.6,369.9 300.0,367.3 309.9,362.2 314.5,360.2 326.9,351.6 330.6,349.8 334.2,347.2 337.7,345.0 344.2,340.2 350.2,335.5 355.8,330.1 358.5,327.6 373.0,317.3 377.3,314.2 389.1,303.1 390.9,301.4 392.7,299.9 394.5,298.6 404.2,291.8 415.7,284.1 417.0,283.2 419.6,281.4 426.9,270.9 434.8,268.0 435.8,267.2 450.3,254.4 460.4,247.2 465.7,243.8 474.8,236.3 475.5,235.3 481.2,231.7 496.9,220.5 512.3,210.1 527.5,199.7 534.0,195.6 543.1,189.2 558.4,179.5 573.7,170.1 589.1,162.7 604.6,151.6 620.0,143.8 635.4,135.0 650.8,125.0 651.0,125.7 666.1,116.2 681.5,109.4 696.9,99.3 712.3,91.1 727.7,82.2 743.1,74.9 758.4,66.6 768.0,62.0" fill="none" stroke="#be185d" stroke-width="2"/>
<line x1="782.0" y1="172.0" x2="798.0" y2="172.0" stroke="#be185d" stroke-width="2"/>
<text x="802.0" y="176.0" font-size="11" fill="#be185d">fnv1a</text>
<polyline points="66.0,430.7 124.5,423.2 158.7,408.5 183.0,433.1 201.8,432.0 217.2,434.1 230.2,432.6 241.5,432.5 251.4,422.1 268.4,399.9 275.7,422.3 282.5,422.0 294.6,422.8 300.0,422.5 309.9,406.7 314.5,397.3 326.9,409.5 330.6,411.7 334.2,411.8 337.7,402.9 344.2,390.3 350.2,400.8 355.8,401.3 358.5,401.7 373.0,394.8 377.3,394.3 389.1,386.6 390.9,386.8 392.7,386.5 394.5,379.7 404.2,379.5 415.7,373.9 417.0,374.5 419.6,366.5 426.9,368.5 434.8,362.8 435.8,363.3 450.3,352.3 460.4,342.8 465.7,339.6 474.8,336.7 475.5,336.9 481.2,330.1 496.9,321.2 512.3,310.8 527.5,299.8 534.0,295.8 543.1,288.8 558.4,278.5 573.7,265.4 589.1,255.5 604.6,244.8 620.0,234.1 635.4,223.1 650.8,212.7 651.0,212.9 666.1,203.1 681.5,194.9 696.9,185.6 712.3,175.6 727.7,168.1 743.1,158.2 758.4,149.4 768.0,144.2" fill="none" stroke="#4b5563" stroke-width="2"/>
<line x1="782.0" y1="189.0" x2="798.0" y2="189.0" stroke="#4b5563" stroke-width="2"/>
<text x="802.0" y="193.0" font-size="11" fill="#4b5563">dumbo</text>
</svg>
