<svg xmlns="http://www.w3.org/2000/svg" width="900" height="536" font-family="sans-serif">
<rect width="900" height="536" fill="white"/>
<text x="450" y="24" font-size="15" font-weight="bold" text-anchor="middle">mbo/hash - 64-bit latency</text>
<text x="450" y="44" font-size="12" fill="#6b7280" text-anchor="middle">Apple M5 Pro · MacOS · arm64 · 18-core · clang-21 · 80a4c8a8</text>
<line x1="66" y1="483.0" x2="768.0" y2="483.0" stroke="#eee"/>
<text x="60" y="486.0" font-size="10" text-anchor="end">0.5</text>
<line x1="66" y1="451.7" x2="768.0" y2="451.7" stroke="#eee"/>
<text x="60" y="454.7" font-size="10" text-anchor="end">1</text>
<line x1="66" y1="420.4" x2="768.0" y2="420.4" stroke="#eee"/>
<text x="60" y="423.4" font-size="10" text-anchor="end">2</text>
<line x1="66" y1="379.1" x2="768.0" y2="379.1" stroke="#eee"/>
<text x="60" y="382.1" font-size="10" text-anchor="end">5</text>
<line x1="66" y1="347.8" x2="768.0" y2="347.8" stroke="#eee"/>
<text x="60" y="350.8" font-size="10" text-anchor="end">10</text>
<line x1="66" y1="316.5" x2="768.0" y2="316.5" stroke="#eee"/>
<text x="60" y="319.5" font-size="10" text-anchor="end">20</text>
<line x1="66" y1="275.1" x2="768.0" y2="275.1" stroke="#eee"/>
<text x="60" y="278.1" font-size="10" text-anchor="end">50</text>
<line x1="66" y1="243.8" x2="768.0" y2="243.8" stroke="#eee"/>
<text x="60" y="246.8" font-size="10" text-anchor="end">100</text>
<line x1="66" y1="212.5" x2="768.0" y2="212.5" stroke="#eee"/>
<text x="60" y="215.5" font-size="10" text-anchor="end">200</text>
<line x1="66" y1="171.2" x2="768.0" y2="171.2" stroke="#eee"/>
<text x="60" y="174.2" font-size="10" text-anchor="end">500</text>
<line x1="66" y1="139.9" x2="768.0" y2="139.9" stroke="#eee"/>
<text x="60" y="142.9" font-size="10" text-anchor="end">1000</text>
<line x1="66" y1="108.6" x2="768.0" y2="108.6" stroke="#eee"/>
<text x="60" y="111.6" font-size="10" text-anchor="end">2000</text>
<line x1="66" y1="67.2" x2="768.0" y2="67.2" stroke="#eee"/>
<text x="60" y="70.2" font-size="10" text-anchor="end">5000</text>
<line x1="66.0" y1="62" x2="66.0" y2="484.0" stroke="#f3f4f6"/>
<text x="66.0" y="500.0" font-size="10" text-anchor="middle">1 B</text>
<line x1="124.5" y1="62" x2="124.5" y2="484.0" stroke="#f3f4f6"/>
<line x1="183.0" y1="62" x2="183.0" y2="484.0" stroke="#f3f4f6"/>
<text x="183.0" y="500.0" font-size="10" text-anchor="middle">4 B</text>
<line x1="241.5" y1="62" x2="241.5" y2="484.0" stroke="#f3f4f6"/>
<line x1="300.0" y1="62" x2="300.0" y2="484.0" stroke="#f3f4f6"/>
<text x="300.0" y="500.0" font-size="10" text-anchor="middle">16 B</text>
<line x1="358.5" y1="62" x2="358.5" y2="484.0" stroke="#f3f4f6"/>
<line x1="417.0" y1="62" x2="417.0" y2="484.0" stroke="#f3f4f6"/>
<text x="417.0" y="500.0" font-size="10" text-anchor="middle">64 B</text>
<line x1="475.5" y1="62" x2="475.5" y2="484.0" stroke="#f3f4f6"/>
<line x1="534.0" y1="62" x2="534.0" y2="484.0" stroke="#f3f4f6"/>
<text x="534.0" y="500.0" font-size="10" text-anchor="middle">256 B</text>
<line x1="592.5" y1="62" x2="592.5" y2="484.0" stroke="#f3f4f6"/>
<line x1="651.0" y1="62" x2="651.0" y2="484.0" stroke="#f3f4f6"/>
<text x="651.0" y="500.0" font-size="10" text-anchor="middle">1 KiB</text>
<line x1="709.5" y1="62" x2="709.5" y2="484.0" stroke="#f3f4f6"/>
<line x1="768.0" y1="62" x2="768.0" y2="484.0" stroke="#f3f4f6"/>
<text x="768.0" y="500.0" font-size="10" text-anchor="middle">4 KiB</text>
<text x="417" y="524" font-size="12" text-anchor="middle">key length (log scale)</text>
<text x="18" y="273" font-size="12" transform="rotate(-90 18 273)" text-anchor="middle">ns / op (log scale)</text>
<polyline points="66.0,416.1 124.5,415.1 158.7,413.6 183.0,408.3 201.8,408.9 217.2,407.1 230.2,408.9 241.5,418.6 251.4,419.1 268.4,419.7 275.7,419.2 282.5,420.3 294.6,421.3 300.0,419.8 309.9,411.5 314.5,411.5 326.9,411.5 330.6,411.5 334.2,411.5 337.7,411.5 344.2,411.5 350.2,411.5 355.8,411.5 358.5,411.4 373.0,404.5 377.3,404.8 389.1,404.8 390.9,404.6 392.7,404.8 394.5,397.8 404.2,397.5 415.7,397.0 417.0,398.0 419.6,390.3 426.9,390.6 434.8,390.6 435.8,390.7 450.3,383.3 460.4,376.6 465.7,370.5 474.8,370.5 475.5,366.9 481.2,366.9 496.9,361.6 512.3,354.4 527.5,347.0 534.0,354.1 543.1,351.8 558.4,340.1 573.7,340.8 589.1,328.8 604.6,326.2 620.0,319.4 635.4,310.4 650.8,300.9 651.0,308.7 666.1,298.1 681.5,292.4 696.9,282.3 712.3,276.8 727.7,267.8 743.1,259.7 758.4,254.3 768.0,252.6" fill="none" stroke="#2563eb" stroke-width="2"/>
<line x1="782.0" y1="70.0" x2="798.0" y2="70.0" stroke="#2563eb" stroke-width="2"/>
<text x="802.0" y="74.0" font-size="11" fill="#2563eb">mumbo</text>
<polyline points="66.0,420.4 124.5,418.7 158.7,420.6 183.0,426.7 201.8,426.8 217.2,426.8 230.2,426.7 241.5,426.7 251.4,427.1 268.4,427.0 275.7,426.8 282.5,426.9 294.6,426.8 300.0,426.8 309.9,421.5 314.5,419.9 326.9,421.1 330.6,420.3 334.2,421.0 337.7,420.6 344.2,420.0 350.2,420.0 355.8,420.1 358.5,420.5 373.0,411.6 377.3,412.0 389.1,411.5 390.9,411.5 392.7,411.6 394.5,402.8 404.2,402.8 415.7,402.8 417.0,403.1 419.6,397.1 426.9,397.1 434.8,396.5 435.8,396.9 450.3,389.5 460.4,383.7 465.7,380.4 474.8,380.3 475.5,380.3 481.2,377.2 496.9,368.9 512.3,360.1 527.5,364.1 534.0,361.1 543.1,355.6 558.4,351.0 573.7,342.9 589.1,337.6 604.6,331.8 620.0,324.1 635.4,314.8 650.8,311.2 651.0,311.2 666.1,297.0 681.5,296.5 696.9,284.3 712.3,275.4 727.7,271.0 743.1,265.4 758.4,255.8 768.0,251.8" fill="none" stroke="#dc2626" stroke-width="2"/>
<line x1="782.0" y1="87.0" x2="798.0" y2="87.0" stroke="#dc2626" stroke-width="2"/>
<text x="802.0" y="91.0" font-size="11" fill="#dc2626">rapidhash</text>
<polyline points="66.0,424.4 124.5,425.6 158.7,421.9 183.0,429.5 201.8,429.8 217.2,429.9 230.2,429.4 241.5,430.2 251.4,426.8 268.4,427.0 275.7,426.8 282.5,426.9 294.6,426.8 300.0,426.8 309.9,412.4 314.5,412.4 326.9,412.5 330.6,412.5 334.2,412.5 337.7,412.5 344.2,412.4 350.2,412.5 355.8,412.4 358.5,412.5 373.0,391.6 377.3,391.6 389.1,391.6 390.9,391.6 392.7,391.7 394.5,391.6 404.2,391.6 415.7,391.6 417.0,391.7 419.6,377.5 426.9,377.5 434.8,377.5 435.8,377.5 450.3,377.5 460.4,367.1 465.7,367.1 474.8,367.2 475.5,367.1 481.2,357.2 496.9,349.2 512.3,340.0 527.5,334.6 534.0,303.6 543.1,300.2 558.4,291.6 573.7,284.2 589.1,283.8 604.6,279.1 620.0,275.2 635.4,271.4 650.8,267.9 651.0,267.9 666.1,258.7 681.5,254.2 696.9,248.2 712.3,241.6 727.7,235.7 743.1,229.4 758.4,222.0 768.0,218.5" fill="none" stroke="#059669" stroke-width="2"/>
<line x1="782.0" y1="104.0" x2="798.0" y2="104.0" stroke="#059669" stroke-width="2"/>
<text x="802.0" y="108.0" font-size="11" fill="#059669">xxh3</text>
<polyline points="66.0,419.1 124.5,414.4 158.7,406.5 183.0,418.5 201.8,417.8 217.2,411.1 230.2,405.0 241.5,414.9 251.4,410.7 268.4,398.8 275.7,410.7 282.5,404.8 294.6,393.4 300.0,406.4 309.9,395.5 314.5,391.0 326.9,389.2 330.6,384.0 334.2,398.7 337.7,393.6 344.2,381.5 350.2,387.6 355.8,377.9 358.5,378.2 373.0,364.6 377.3,370.8 389.1,359.2 390.9,355.0 392.7,365.8 394.5,361.7 404.2,350.7 415.7,346.4 417.0,366.2 419.6,358.5 426.9,360.6 434.8,347.0 435.8,356.6 450.3,338.6 460.4,343.4 465.7,342.4 474.8,333.3 475.5,349.4 481.2,342.1 496.9,337.8 512.3,328.9 527.5,323.7 534.0,326.0 543.1,315.0 558.4,308.6 573.7,301.6 589.1,297.9 604.6,287.9 620.0,283.9 635.4,274.3 650.8,266.8 651.0,270.5 666.1,261.5 681.5,250.2 696.9,245.8 712.3,237.5 727.7,228.1 743.1,220.1 758.4,211.6 768.0,207.1" fill="none" stroke="#d97706" stroke-width="2"/>
<line x1="782.0" y1="121.0" x2="798.0" y2="121.0" stroke="#d97706" stroke-width="2"/>
<text x="802.0" y="125.0" font-size="11" fill="#d97706">xxh64</text>
<polyline points="66.0,406.2 124.5,403.9 158.7,402.3 183.0,401.2 201.8,402.3 217.2,401.6 230.2,402.7 241.5,400.5 251.4,398.2 268.4,395.0 275.7,394.9 282.5,394.3 294.6,394.3 300.0,389.5 309.9,385.1 314.5,384.3 326.9,385.1 330.6,384.5 334.2,384.9 337.7,380.9 344.2,377.7 350.2,378.0 355.8,378.5 358.5,375.3 373.0,371.4 377.3,370.6 389.1,368.9 390.9,368.5 392.7,364.9 394.5,362.1 404.2,360.0 415.7,357.9 417.0,354.7 419.6,350.2 426.9,350.6 434.8,349.2 435.8,345.7 450.3,342.3 460.4,335.0 465.7,331.2 474.8,329.4 475.5,326.7 481.2,324.4 496.9,315.2 512.3,306.6 527.5,298.5 534.0,293.2 543.1,289.3 558.4,278.4 573.7,268.6 589.1,259.0 604.6,249.9 620.0,239.8 635.4,230.5 650.8,221.6 651.0,221.2 666.1,212.3 681.5,203.9 696.9,194.9 712.3,186.7 727.7,179.1 743.1,170.0 758.4,162.4 768.0,156.3" fill="none" stroke="#7c3aed" stroke-width="2"/>
<line x1="782.0" y1="138.0" x2="798.0" y2="138.0" stroke="#7c3aed" stroke-width="2"/>
<text x="802.0" y="142.0" font-size="11" fill="#7c3aed">murmur3</text>
<polyline points="66.0,367.3 124.5,366.2 158.7,366.7 183.0,364.7 201.8,365.6 217.2,365.3 230.2,364.5 241.5,351.7 251.4,352.0 268.4,350.7 275.7,350.8 282.5,351.0 294.6,350.8 300.0,339.0 309.9,338.6 314.5,338.4 326.9,338.4 330.6,338.7 334.2,328.4 337.7,328.5 344.2,328.3 350.2,328.3 355.8,328.4 358.5,320.1 373.0,319.6 377.3,312.7 389.1,312.5 390.9,312.5 392.7,306.2 394.5,306.1 404.2,306.1 415.7,300.2 417.0,295.2 419.6,294.8 426.9,290.3 434.8,290.4 435.8,286.1 450.3,282.0 460.4,274.6 465.7,271.5 474.8,268.5 475.5,265.9 481.2,263.0 496.9,256.2 512.3,248.0 527.5,239.4 534.0,235.2 543.1,231.1 558.4,223.0 573.7,214.6 589.1,206.3 604.6,198.6 620.0,189.9 635.4,181.5 650.8,173.6 651.0,173.3 666.1,165.3 681.5,156.9 696.9,149.0 712.3,140.4 727.7,132.2 743.1,123.9 758.4,115.8 768.0,110.5" fill="none" stroke="#0891b2" stroke-width="2"/>
<line x1="782.0" y1="155.0" x2="798.0" y2="155.0" stroke="#0891b2" stroke-width="2"/>
<text x="802.0" y="159.0" font-size="11" fill="#0891b2">siphash24</text>
<polyline points="66.0,484.0 124.5,468.0 158.7,450.1 183.0,436.7 201.8,425.0 217.2,417.1 230.2,407.6 241.5,404.5 251.4,397.9 268.4,384.8 275.7,379.5 282.5,377.0 294.6,369.8 300.0,367.1 309.9,362.4 314.5,360.2 326.9,352.6 330.6,350.2 334.2,347.9 337.7,345.6 344.2,341.0 350.2,336.1 355.8,330.7 358.5,328.4 373.0,318.1 377.3,314.9 389.1,303.9 390.9,302.2 392.7,300.6 394.5,299.4 404.2,292.6 415.7,284.9 417.0,284.0 419.6,282.3 426.9,271.7 434.8,268.9 435.8,267.8 450.3,255.2 460.4,248.0 465.7,244.8 474.8,236.6 475.5,236.2 481.2,233.0 496.9,222.0 512.3,210.9 527.5,200.9 534.0,196.2 543.1,190.2 558.4,180.5 573.7,171.0 589.1,162.3 604.6,153.1 620.0,144.7 635.4,135.0 650.8,126.5 651.0,126.2 666.1,118.2 681.5,109.2 696.9,101.8 712.3,92.2 727.7,84.4 743.1,76.1 758.4,67.3 768.0,62.0" fill="none" stroke="#be185d" stroke-width="2"/>
<line x1="782.0" y1="172.0" x2="798.0" y2="172.0" stroke="#be185d" stroke-width="2"/>
<text x="802.0" y="176.0" font-size="11" fill="#be185d">fnv1a</text>
<polyline points="66.0,431.1 124.5,420.9 158.7,404.6 183.0,433.0 201.8,433.8 217.2,433.6 230.2,434.5 241.5,432.7 251.4,422.3 268.4,406.8 275.7,423.2 282.5,422.6 294.6,422.1 300.0,423.2 309.9,407.5 314.5,400.3 326.9,410.9 330.6,412.3 334.2,410.7 337.7,402.8 344.2,393.0 350.2,400.0 355.8,400.6 358.5,400.4 373.0,393.0 377.3,395.3 389.1,386.7 390.9,386.3 392.7,386.4 394.5,380.2 404.2,379.5 415.7,372.6 417.0,373.4 419.6,367.2 426.9,368.0 434.8,362.4 435.8,362.6 450.3,353.9 460.4,342.7 465.7,339.7 474.8,336.8 475.5,337.4 481.2,330.3 496.9,322.2 512.3,310.8 527.5,300.5 534.0,296.6 543.1,288.9 558.4,279.1 573.7,266.5 589.1,256.5 604.6,245.1 620.0,234.7 635.4,224.0 650.8,214.3 651.0,213.8 666.1,204.6 681.5,195.0 696.9,185.8 712.3,177.0 727.7,168.1 743.1,159.5 758.4,150.8 768.0,145.5" fill="none" stroke="#4b5563" stroke-width="2"/>
<line x1="782.0" y1="189.0" x2="798.0" y2="189.0" stroke="#4b5563" stroke-width="2"/>
<text x="802.0" y="193.0" font-size="11" fill="#4b5563">dumbo</text>
</svg>
