<svg xmlns="http://www.w3.org/2000/svg" width="900" height="536" font-family="sans-serif">
<rect width="900" height="536" fill="white"/>
<text x="450" y="24" font-size="15" font-weight="bold" text-anchor="middle">mbo/hash - 128-bit one-shot throughput</text>
<text x="450" y="44" font-size="12" fill="#6b7280" text-anchor="middle">Apple M5 Pro · MacOS · arm64 · 18-core · clang-21 · cc23c11a</text>
<line x1="66" y1="372.8" x2="768.0" y2="372.8" stroke="#eee"/>
<text x="60" y="375.8" font-size="10" text-anchor="end">10</text>
<line x1="66" y1="203.9" x2="768.0" y2="203.9" stroke="#eee"/>
<text x="60" y="206.9" font-size="10" text-anchor="end">100</text>
<line x1="66.0" y1="62" x2="66.0" y2="484.0" stroke="#f3f4f6"/>
<text x="66.0" y="500.0" font-size="10" text-anchor="middle">1 B</text>
<line x1="124.5" y1="62" x2="124.5" y2="484.0" stroke="#f3f4f6"/>
<line x1="183.0" y1="62" x2="183.0" y2="484.0" stroke="#f3f4f6"/>
<text x="183.0" y="500.0" font-size="10" text-anchor="middle">4 B</text>
<line x1="241.5" y1="62" x2="241.5" y2="484.0" stroke="#f3f4f6"/>
<line x1="300.0" y1="62" x2="300.0" y2="484.0" stroke="#f3f4f6"/>
<text x="300.0" y="500.0" font-size="10" text-anchor="middle">16 B</text>
<line x1="358.5" y1="62" x2="358.5" y2="484.0" stroke="#f3f4f6"/>
<line x1="417.0" y1="62" x2="417.0" y2="484.0" stroke="#f3f4f6"/>
<text x="417.0" y="500.0" font-size="10" text-anchor="middle">64 B</text>
<line x1="475.5" y1="62" x2="475.5" y2="484.0" stroke="#f3f4f6"/>
<line x1="534.0" y1="62" x2="534.0" y2="484.0" stroke="#f3f4f6"/>
<text x="534.0" y="500.0" font-size="10" text-anchor="middle">256 B</text>
<line x1="592.5" y1="62" x2="592.5" y2="484.0" stroke="#f3f4f6"/>
<line x1="651.0" y1="62" x2="651.0" y2="484.0" stroke="#f3f4f6"/>
<text x="651.0" y="500.0" font-size="10" text-anchor="middle">1 KiB</text>
<line x1="709.5" y1="62" x2="709.5" y2="484.0" stroke="#f3f4f6"/>
<line x1="768.0" y1="62" x2="768.0" y2="484.0" stroke="#f3f4f6"/>
<text x="768.0" y="500.0" font-size="10" text-anchor="middle">4 KiB</text>
<text x="417" y="524" font-size="12" text-anchor="middle">key length (log scale)</text>
<text x="18" y="273" font-size="12" transform="rotate(-90 18 273)" text-anchor="middle">ns / op (log scale)</text>
<polyline points="66.0,458.8 124.5,458.2 158.7,454.4 183.0,458.9 201.8,458.7 217.2,459.1 230.2,459.3 241.5,462.9 251.4,462.9 268.4,462.9 275.7,462.9 282.5,463.0 294.6,462.9 300.0,462.9 309.9,443.5 314.5,443.6 326.9,443.6 330.6,443.4 334.2,443.5 337.7,443.5 344.2,443.4 350.2,443.4 355.8,443.4 358.5,443.4 373.0,432.8 377.3,432.4 389.1,432.4 390.9,432.5 392.7,432.7 394.5,419.8 404.2,419.8 415.7,419.8 417.0,408.3 419.6,408.2 426.9,408.2 434.8,408.2 435.8,408.2 450.3,399.9 460.4,390.7 465.7,382.8 474.8,382.7 475.5,394.4 481.2,394.6 496.9,377.6 512.3,380.9 527.5,366.5 534.0,368.9 543.1,362.4 558.4,352.4 573.7,343.5 589.1,332.1 604.6,326.3 620.0,313.5 635.4,298.8 650.8,284.4 651.0,288.4 666.1,276.7 681.5,260.9 696.9,248.9 712.3,236.8 727.7,223.1 743.1,209.7 758.4,197.1 768.0,188.5" fill="none" stroke="#2563eb" stroke-width="2"/>
<line x1="782.0" y1="70.0" x2="798.0" y2="70.0" stroke="#2563eb" stroke-width="2"/>
<text x="802.0" y="74.0" font-size="11" fill="#2563eb">jumbo</text>
<polyline points="66.0,479.8 124.5,479.9 158.7,479.9 183.0,483.8 201.8,483.4 217.2,483.3 230.2,483.4 241.5,484.0 251.4,469.7 268.4,469.9 275.7,470.0 282.5,470.0 294.6,470.0 300.0,470.0 309.9,450.9 314.5,451.4 326.9,450.4 330.6,450.8 334.2,450.6 337.7,450.6 344.2,450.7 350.2,450.8 355.8,451.0 358.5,450.7 373.0,423.7 377.3,423.9 389.1,423.9 390.9,423.8 392.7,423.9 394.5,423.9 404.2,423.8 415.7,423.9 417.0,423.9 419.6,404.3 426.9,404.5 434.8,404.7 435.8,404.4 450.3,404.6 460.4,388.9 465.7,389.1 474.8,389.0 475.5,389.0 481.2,373.9 496.9,364.5 512.3,356.6 527.5,348.8 534.0,297.5 543.1,292.2 558.4,272.9 573.7,268.2 589.1,265.7 604.6,258.7 620.0,252.1 635.4,246.2 650.8,241.0 651.0,241.0 666.1,226.6 681.5,219.5 696.9,209.6 712.3,199.5 727.7,189.9 743.1,179.5 758.4,167.7 768.0,161.9" fill="none" stroke="#dc2626" stroke-width="2"/>
<line x1="782.0" y1="87.0" x2="798.0" y2="87.0" stroke="#dc2626" stroke-width="2"/>
<text x="802.0" y="91.0" font-size="11" fill="#dc2626">xxh3</text>
<polyline points="66.0,467.5 124.5,463.3 158.7,461.4 183.0,461.0 201.8,460.4 217.2,459.8 230.2,460.2 241.5,460.8 251.4,454.5 268.4,449.3 275.7,448.3 282.5,448.9 294.6,448.0 300.0,440.9 309.9,433.4 314.5,431.7 326.9,430.9 330.6,431.1 334.2,431.2 337.7,427.1 344.2,422.4 350.2,423.4 355.8,423.9 358.5,415.9 373.0,411.6 377.3,410.4 389.1,405.5 390.9,405.6 392.7,400.2 394.5,396.9 404.2,393.3 415.7,388.5 417.0,381.9 419.6,378.7 426.9,377.9 434.8,375.6 435.8,369.1 450.3,363.5 460.4,352.3 465.7,345.8 474.8,342.8 475.5,338.6 481.2,335.4 496.9,320.1 512.3,305.9 527.5,292.8 534.0,284.5 543.1,277.5 558.4,259.9 573.7,245.2 589.1,230.2 604.6,213.3 620.0,197.3 635.4,183.5 650.8,169.7 651.0,167.9 666.1,153.5 681.5,140.6 696.9,124.6 712.3,111.4 727.7,96.6 743.1,82.7 758.4,69.0 768.0,62.0" fill="none" stroke="#059669" stroke-width="2"/>
<line x1="782.0" y1="104.0" x2="798.0" y2="104.0" stroke="#059669" stroke-width="2"/>
<text x="802.0" y="108.0" font-size="11" fill="#059669">murmur3</text>
</svg>
