<svg xmlns="http://www.w3.org/2000/svg" width="900" height="536" font-family="sans-serif">
<rect width="900" height="536" fill="white"/>
<text x="450" y="24" font-size="15" font-weight="bold" text-anchor="middle">mbo/hash - 128-bit latency</text>
<text x="450" y="44" font-size="12" fill="#6b7280" text-anchor="middle">Apple M5 Pro · MacOS · arm64 · 18-core · clang-21 · 29b54ccd</text>
<line x1="66" y1="424.9" x2="768.0" y2="424.9" stroke="#eee"/>
<text x="60" y="427.9" font-size="10" text-anchor="end">5</text>
<line x1="66" y1="374.1" x2="768.0" y2="374.1" stroke="#eee"/>
<text x="60" y="377.1" font-size="10" text-anchor="end">10</text>
<line x1="66" y1="323.3" x2="768.0" y2="323.3" stroke="#eee"/>
<text x="60" y="326.3" font-size="10" text-anchor="end">20</text>
<line x1="66" y1="256.1" x2="768.0" y2="256.1" stroke="#eee"/>
<text x="60" y="259.1" font-size="10" text-anchor="end">50</text>
<line x1="66" y1="205.4" x2="768.0" y2="205.4" stroke="#eee"/>
<text x="60" y="208.4" font-size="10" text-anchor="end">100</text>
<line x1="66" y1="154.6" x2="768.0" y2="154.6" stroke="#eee"/>
<text x="60" y="157.6" font-size="10" text-anchor="end">200</text>
<line x1="66" y1="87.4" x2="768.0" y2="87.4" stroke="#eee"/>
<text x="60" y="90.4" font-size="10" text-anchor="end">500</text>
<line x1="66.0" y1="62" x2="66.0" y2="484.0" stroke="#f3f4f6"/>
<text x="66.0" y="500.0" font-size="10" text-anchor="middle">1 B</text>
<line x1="124.5" y1="62" x2="124.5" y2="484.0" stroke="#f3f4f6"/>
<line x1="183.0" y1="62" x2="183.0" y2="484.0" stroke="#f3f4f6"/>
<text x="183.0" y="500.0" font-size="10" text-anchor="middle">4 B</text>
<line x1="241.5" y1="62" x2="241.5" y2="484.0" stroke="#f3f4f6"/>
<line x1="300.0" y1="62" x2="300.0" y2="484.0" stroke="#f3f4f6"/>
<text x="300.0" y="500.0" font-size="10" text-anchor="middle">16 B</text>
<line x1="358.5" y1="62" x2="358.5" y2="484.0" stroke="#f3f4f6"/>
<line x1="417.0" y1="62" x2="417.0" y2="484.0" stroke="#f3f4f6"/>
<text x="417.0" y="500.0" font-size="10" text-anchor="middle">64 B</text>
<line x1="475.5" y1="62" x2="475.5" y2="484.0" stroke="#f3f4f6"/>
<line x1="534.0" y1="62" x2="534.0" y2="484.0" stroke="#f3f4f6"/>
<text x="534.0" y="500.0" font-size="10" text-anchor="middle">256 B</text>
<line x1="592.5" y1="62" x2="592.5" y2="484.0" stroke="#f3f4f6"/>
<line x1="651.0" y1="62" x2="651.0" y2="484.0" stroke="#f3f4f6"/>
<text x="651.0" y="500.0" font-size="10" text-anchor="middle">1 KiB</text>
<line x1="709.5" y1="62" x2="709.5" y2="484.0" stroke="#f3f4f6"/>
<line x1="768.0" y1="62" x2="768.0" y2="484.0" stroke="#f3f4f6"/>
<text x="768.0" y="500.0" font-size="10" text-anchor="middle">4 KiB</text>
<text x="417" y="524" font-size="12" text-anchor="middle">key length (log scale)</text>
<text x="18" y="273" font-size="12" transform="rotate(-90 18 273)" text-anchor="middle">ns / op (log scale)</text>
<polyline points="66.0,459.2 124.5,459.4 158.7,454.9 183.0,459.8 201.8,458.6 217.2,459.3 230.2,459.4 241.5,463.6 251.4,462.9 268.4,463.9 275.7,463.9 282.5,463.9 294.6,464.3 300.0,463.5 309.9,444.7 314.5,444.8 326.9,444.6 330.6,444.5 334.2,444.4 337.7,444.5 344.2,444.2 350.2,444.7 355.8,444.7 358.5,444.5 373.0,433.3 377.3,433.8 389.1,434.0 390.9,433.3 392.7,433.3 394.5,420.4 404.2,420.4 415.7,420.8 417.0,409.5 419.6,409.6 426.9,409.4 434.8,409.1 435.8,409.4 450.3,401.0 460.4,390.9 465.7,383.8 474.8,383.9 475.5,395.2 481.2,395.4 496.9,378.7 512.3,382.0 527.5,367.6 534.0,370.1 543.1,362.9 558.4,353.7 573.7,344.7 589.1,333.4 604.6,327.3 620.0,314.8 635.4,300.1 650.8,285.7 651.0,289.5 666.1,277.7 681.5,262.3 696.9,250.3 712.3,238.2 727.7,224.1 743.1,211.2 758.4,198.1 768.0,190.0" fill="none" stroke="#2563eb" stroke-width="2"/>
<line x1="782.0" y1="70.0" x2="798.0" y2="70.0" stroke="#2563eb" stroke-width="2"/>
<text x="802.0" y="74.0" font-size="11" fill="#2563eb">jumbo</text>
<polyline points="66.0,474.3 124.5,479.4 158.7,478.8 183.0,483.8 201.8,481.8 217.2,484.0 230.2,484.0 241.5,483.8 251.4,471.1 268.4,470.6 275.7,470.7 282.5,471.0 294.6,471.1 300.0,470.5 309.9,449.7 314.5,450.5 326.9,450.8 330.6,450.9 334.2,451.4 337.7,450.3 344.2,449.1 350.2,451.4 355.8,450.6 358.5,451.2 373.0,424.8 377.3,425.1 389.1,424.7 390.9,424.9 392.7,424.4 394.5,425.1 404.2,425.3 415.7,425.1 417.0,424.5 419.6,405.7 426.9,405.1 434.8,405.7 435.8,405.6 450.3,405.6 460.4,389.6 465.7,389.1 474.8,390.5 475.5,390.0 481.2,375.1 496.9,365.5 512.3,357.4 527.5,350.2 534.0,298.6 543.1,293.4 558.4,273.3 573.7,269.1 589.1,266.8 604.6,259.4 620.0,252.5 635.4,247.3 650.8,242.1 651.0,241.7 666.1,227.5 681.5,219.5 696.9,210.8 712.3,200.7 727.7,190.5 743.1,180.9 758.4,169.1 768.0,162.1" fill="none" stroke="#dc2626" stroke-width="2"/>
<line x1="782.0" y1="87.0" x2="798.0" y2="87.0" stroke="#dc2626" stroke-width="2"/>
<text x="802.0" y="91.0" font-size="11" fill="#dc2626">xxh3</text>
<polyline points="66.0,467.4 124.5,462.2 158.7,461.4 183.0,458.8 201.8,458.7 217.2,459.1 230.2,459.1 241.5,457.7 251.4,448.7 268.4,450.4 275.7,449.2 282.5,449.0 294.6,448.1 300.0,441.2 309.9,433.8 314.5,432.7 326.9,431.3 330.6,432.5 334.2,431.7 337.7,425.8 344.2,422.7 350.2,423.9 355.8,424.1 358.5,417.2 373.0,412.8 377.3,411.6 389.1,406.4 390.9,406.6 392.7,397.7 394.5,396.8 404.2,393.6 415.7,388.1 417.0,384.6 419.6,379.5 426.9,379.0 434.8,376.3 435.8,368.9 450.3,363.7 460.4,352.7 465.7,346.5 474.8,343.0 475.5,340.0 481.2,336.4 496.9,320.1 512.3,306.9 527.5,294.4 534.0,285.9 543.1,278.7 558.4,260.7 573.7,245.9 589.1,230.5 604.6,215.2 620.0,198.3 635.4,183.7 650.8,169.3 651.0,168.5 666.1,154.2 681.5,140.2 696.9,125.6 712.3,111.8 727.7,99.2 743.1,84.3 758.4,70.6 768.0,62.0" fill="none" stroke="#059669" stroke-width="2"/>
<line x1="782.0" y1="104.0" x2="798.0" y2="104.0" stroke="#059669" stroke-width="2"/>
<text x="802.0" y="108.0" font-size="11" fill="#059669">murmur3</text>
</svg>
