<svg xmlns="http://www.w3.org/2000/svg" width="900" height="536" font-family="sans-serif">
<rect width="900" height="536" fill="white"/>
<text x="450" y="24" font-size="15" font-weight="bold" text-anchor="middle">mbo/hash - 128-bit latency</text>
<text x="450" y="44" font-size="12" fill="#6b7280" text-anchor="middle">Apple M5 Pro · MacOS · arm64 · 18-core · clang-21 · 80a4c8a8</text>
<line x1="66" y1="424.5" x2="768.0" y2="424.5" stroke="#eee"/>
<text x="60" y="427.5" font-size="10" text-anchor="end">5</text>
<line x1="66" y1="373.6" x2="768.0" y2="373.6" stroke="#eee"/>
<text x="60" y="376.6" font-size="10" text-anchor="end">10</text>
<line x1="66" y1="322.8" x2="768.0" y2="322.8" stroke="#eee"/>
<text x="60" y="325.8" font-size="10" text-anchor="end">20</text>
<line x1="66" y1="255.5" x2="768.0" y2="255.5" stroke="#eee"/>
<text x="60" y="258.5" font-size="10" text-anchor="end">50</text>
<line x1="66" y1="204.7" x2="768.0" y2="204.7" stroke="#eee"/>
<text x="60" y="207.7" font-size="10" text-anchor="end">100</text>
<line x1="66" y1="153.8" x2="768.0" y2="153.8" stroke="#eee"/>
<text x="60" y="156.8" font-size="10" text-anchor="end">200</text>
<line x1="66" y1="86.6" x2="768.0" y2="86.6" stroke="#eee"/>
<text x="60" y="89.6" font-size="10" text-anchor="end">500</text>
<line x1="66.0" y1="62" x2="66.0" y2="484.0" stroke="#f3f4f6"/>
<text x="66.0" y="500.0" font-size="10" text-anchor="middle">1 B</text>
<line x1="124.5" y1="62" x2="124.5" y2="484.0" stroke="#f3f4f6"/>
<line x1="183.0" y1="62" x2="183.0" y2="484.0" stroke="#f3f4f6"/>
<text x="183.0" y="500.0" font-size="10" text-anchor="middle">4 B</text>
<line x1="241.5" y1="62" x2="241.5" y2="484.0" stroke="#f3f4f6"/>
<line x1="300.0" y1="62" x2="300.0" y2="484.0" stroke="#f3f4f6"/>
<text x="300.0" y="500.0" font-size="10" text-anchor="middle">16 B</text>
<line x1="358.5" y1="62" x2="358.5" y2="484.0" stroke="#f3f4f6"/>
<line x1="417.0" y1="62" x2="417.0" y2="484.0" stroke="#f3f4f6"/>
<text x="417.0" y="500.0" font-size="10" text-anchor="middle">64 B</text>
<line x1="475.5" y1="62" x2="475.5" y2="484.0" stroke="#f3f4f6"/>
<line x1="534.0" y1="62" x2="534.0" y2="484.0" stroke="#f3f4f6"/>
<text x="534.0" y="500.0" font-size="10" text-anchor="middle">256 B</text>
<line x1="592.5" y1="62" x2="592.5" y2="484.0" stroke="#f3f4f6"/>
<line x1="651.0" y1="62" x2="651.0" y2="484.0" stroke="#f3f4f6"/>
<text x="651.0" y="500.0" font-size="10" text-anchor="middle">1 KiB</text>
<line x1="709.5" y1="62" x2="709.5" y2="484.0" stroke="#f3f4f6"/>
<line x1="768.0" y1="62" x2="768.0" y2="484.0" stroke="#f3f4f6"/>
<text x="768.0" y="500.0" font-size="10" text-anchor="middle">4 KiB</text>
<text x="417" y="524" font-size="12" text-anchor="middle">key length (log scale)</text>
<text x="18" y="273" font-size="12" transform="rotate(-90 18 273)" text-anchor="middle">ns / op (log scale)</text>
<polyline points="66.0,459.1 124.5,458.9 158.7,454.6 183.0,460.7 201.8,459.0 217.2,459.5 230.2,460.9 241.5,463.7 251.4,463.6 268.4,463.4 275.7,463.5 282.5,463.8 294.6,463.7 300.0,463.3 309.9,444.4 314.5,444.0 326.9,444.3 330.6,444.3 334.2,444.2 337.7,444.2 344.2,444.3 350.2,444.2 355.8,444.3 358.5,444.2 373.0,433.2 377.3,433.2 389.1,433.3 390.9,433.4 392.7,433.0 394.5,420.2 404.2,420.0 415.7,420.2 417.0,409.0 419.6,409.0 426.9,409.1 434.8,409.0 435.8,409.2 450.3,400.8 460.4,391.8 465.7,383.5 474.8,383.6 475.5,395.2 481.2,395.3 496.9,378.5 512.3,381.6 527.5,367.6 534.0,369.6 543.1,363.0 558.4,353.1 573.7,344.2 589.1,332.9 604.6,327.0 620.0,314.3 635.4,299.5 650.8,285.3 651.0,289.2 666.1,277.1 681.5,261.7 696.9,249.7 712.3,237.8 727.7,224.0 743.1,210.9 758.4,197.7 768.0,189.3" fill="none" stroke="#2563eb" stroke-width="2"/>
<line x1="782.0" y1="70.0" x2="798.0" y2="70.0" stroke="#2563eb" stroke-width="2"/>
<text x="802.0" y="74.0" font-size="11" fill="#2563eb">jumbo</text>
<polyline points="66.0,480.9 124.5,480.0 158.7,479.2 183.0,483.8 201.8,484.0 217.2,483.8 230.2,483.5 241.5,483.7 251.4,470.7 268.4,470.6 275.7,470.6 282.5,470.6 294.6,470.6 300.0,470.6 309.9,451.6 314.5,451.3 326.9,451.6 330.6,451.2 334.2,450.5 337.7,451.3 344.2,451.6 350.2,451.2 355.8,451.3 358.5,451.2 373.0,424.9 377.3,424.8 389.1,424.7 390.9,424.7 392.7,424.7 394.5,424.6 404.2,424.8 415.7,424.8 417.0,424.7 419.6,405.4 426.9,405.0 434.8,405.3 435.8,405.4 450.3,405.3 460.4,389.9 465.7,389.9 474.8,389.8 475.5,389.9 481.2,374.4 496.9,365.2 512.3,357.4 527.5,349.6 534.0,298.1 543.1,292.9 558.4,272.8 573.7,268.4 589.1,266.2 604.6,259.0 620.0,252.7 635.4,247.1 650.8,241.7 651.0,241.7 666.1,227.1 681.5,220.0 696.9,210.3 712.3,200.1 727.7,190.5 743.1,180.1 758.4,168.4 768.0,162.6" fill="none" stroke="#dc2626" stroke-width="2"/>
<line x1="782.0" y1="87.0" x2="798.0" y2="87.0" stroke="#dc2626" stroke-width="2"/>
<text x="802.0" y="91.0" font-size="11" fill="#dc2626">xxh3</text>
<polyline points="66.0,468.3 124.5,464.6 158.7,462.3 183.0,460.8 201.8,461.8 217.2,460.9 230.2,461.6 241.5,459.5 251.4,455.4 268.4,450.3 275.7,449.9 282.5,449.1 294.6,450.1 300.0,441.6 309.9,433.9 314.5,432.9 326.9,433.9 330.6,433.7 334.2,433.4 337.7,427.7 344.2,423.2 350.2,423.9 355.8,424.7 358.5,416.7 373.0,412.9 377.3,412.6 389.1,404.9 390.9,405.2 392.7,400.6 394.5,395.3 404.2,394.2 415.7,389.9 417.0,384.8 419.6,379.8 426.9,378.0 434.8,373.9 435.8,367.7 450.3,363.0 460.4,352.0 465.7,346.4 474.8,344.3 475.5,338.7 481.2,335.9 496.9,320.8 512.3,306.7 527.5,293.5 534.0,285.5 543.1,277.7 558.4,260.3 573.7,245.5 589.1,229.3 604.6,214.8 620.0,198.0 635.4,183.0 650.8,169.6 651.0,168.1 666.1,153.9 681.5,139.9 696.9,126.4 712.3,111.0 727.7,99.8 743.1,83.5 758.4,70.2 768.0,62.0" fill="none" stroke="#059669" stroke-width="2"/>
<line x1="782.0" y1="104.0" x2="798.0" y2="104.0" stroke="#059669" stroke-width="2"/>
<text x="802.0" y="108.0" font-size="11" fill="#059669">murmur3</text>
</svg>
