<svg xmlns="http://www.w3.org/2000/svg" width="900" height="536" font-family="sans-serif">
<rect width="900" height="536" fill="white"/>
<text x="450" y="24" font-size="15" font-weight="bold" text-anchor="middle">mbo/hash - 64-bit throughput (Web)</text>
<text x="450" y="44" font-size="12" fill="#6b7280" text-anchor="middle">Apple M5 Pro · MacOS · arm64 · 18-core · clang-21 · 80a4c8a8</text>
<line x1="66" y1="463.6" x2="768.0" y2="463.6" stroke="#eee"/>
<text x="60" y="466.6" font-size="10" text-anchor="end">1</text>
<line x1="66" y1="356.8" x2="768.0" y2="356.8" stroke="#eee"/>
<text x="60" y="359.8" font-size="10" text-anchor="end">2</text>
<line x1="66" y1="215.6" x2="768.0" y2="215.6" stroke="#eee"/>
<text x="60" y="218.6" font-size="10" text-anchor="end">5</text>
<line x1="66" y1="108.7" x2="768.0" y2="108.7" stroke="#eee"/>
<text x="60" y="111.7" font-size="10" text-anchor="end">10</text>
<line x1="74.1" y1="62" x2="74.1" y2="484.0" stroke="#f3f4f6"/>
<text x="74.1" y="500.0" font-size="10" text-anchor="middle">16 B</text>
<line x1="160.8" y1="62" x2="160.8" y2="484.0" stroke="#f3f4f6"/>
<line x1="247.6" y1="62" x2="247.6" y2="484.0" stroke="#f3f4f6"/>
<text x="247.6" y="500.0" font-size="10" text-anchor="middle">64 B</text>
<line x1="334.3" y1="62" x2="334.3" y2="484.0" stroke="#f3f4f6"/>
<line x1="421.0" y1="62" x2="421.0" y2="484.0" stroke="#f3f4f6"/>
<text x="421.0" y="500.0" font-size="10" text-anchor="middle">256 B</text>
<line x1="507.8" y1="62" x2="507.8" y2="484.0" stroke="#f3f4f6"/>
<line x1="594.5" y1="62" x2="594.5" y2="484.0" stroke="#f3f4f6"/>
<text x="594.5" y="500.0" font-size="10" text-anchor="middle">1 KiB</text>
<line x1="681.3" y1="62" x2="681.3" y2="484.0" stroke="#f3f4f6"/>
<line x1="768.0" y1="62" x2="768.0" y2="484.0" stroke="#f3f4f6"/>
<text x="768.0" y="500.0" font-size="10" text-anchor="middle">4 KiB</text>
<text x="417" y="524" font-size="12" text-anchor="middle">max length (log scale)</text>
<text x="18" y="273" font-size="12" transform="rotate(-90 18 273)" text-anchor="middle">GiB / s (log scale)</text>
<polyline points="66.0,353.7 144.1,278.7 203.5,200.3 267.4,155.0 326.2,127.5 402.1,110.3 507.8,93.9 681.3,68.7 768.0,73.8" fill="none" stroke="#2563eb" stroke-width="2"/>
<line x1="782.0" y1="70.0" x2="798.0" y2="70.0" stroke="#2563eb" stroke-width="2"/>
<text x="802.0" y="74.0" font-size="11" fill="#2563eb">mumbo</text>
<polyline points="66.0,394.9 144.1,252.2 203.5,182.7 267.4,171.4 326.2,123.4 402.1,104.6 507.8,95.1 681.3,62.0 768.0,64.0" fill="none" stroke="#dc2626" stroke-width="2"/>
<line x1="782.0" y1="87.0" x2="798.0" y2="87.0" stroke="#dc2626" stroke-width="2"/>
<text x="802.0" y="91.0" font-size="11" fill="#dc2626">rapidhash</text>
<polyline points="66.0,317.7 144.1,250.4 203.5,188.9 267.4,141.5 326.2,114.8 402.1,110.0 507.8,117.0 681.3,101.5 768.0,105.3" fill="none" stroke="#059669" stroke-width="2"/>
<line x1="782.0" y1="104.0" x2="798.0" y2="104.0" stroke="#059669" stroke-width="2"/>
<text x="802.0" y="108.0" font-size="11" fill="#059669">xxh3</text>
<polyline points="66.0,396.2 144.1,320.8 203.5,264.0 267.4,224.9 326.2,198.4 402.1,182.3 507.8,172.1 681.3,150.1 768.0,152.5" fill="none" stroke="#d97706" stroke-width="2"/>
<line x1="782.0" y1="121.0" x2="798.0" y2="121.0" stroke="#d97706" stroke-width="2"/>
<text x="802.0" y="125.0" font-size="11" fill="#d97706">xxh64</text>
<polyline points="66.0,396.6 144.1,322.2 203.5,250.6 267.4,214.1 326.2,199.8 402.1,192.8 507.8,195.8 681.3,195.1 768.0,195.2" fill="none" stroke="#7c3aed" stroke-width="2"/>
<line x1="782.0" y1="138.0" x2="798.0" y2="138.0" stroke="#7c3aed" stroke-width="2"/>
<text x="802.0" y="142.0" font-size="11" fill="#7c3aed">murmur3</text>
<polyline points="66.0,484.0 144.1,432.6 203.5,394.1 267.4,377.8 326.2,372.2 402.1,368.5 507.8,369.0 681.3,366.2 768.0,367.3" fill="none" stroke="#0891b2" stroke-width="2"/>
<line x1="782.0" y1="155.0" x2="798.0" y2="155.0" stroke="#0891b2" stroke-width="2"/>
<text x="802.0" y="159.0" font-size="11" fill="#0891b2">siphash24</text>
<polyline points="66.0,371.3 144.1,418.4 203.5,426.4 267.4,427.3 326.2,440.6 402.1,447.4 507.8,461.1 681.3,476.0 768.0,474.5" fill="none" stroke="#be185d" stroke-width="2"/>
<line x1="782.0" y1="172.0" x2="798.0" y2="172.0" stroke="#be185d" stroke-width="2"/>
<text x="802.0" y="176.0" font-size="11" fill="#be185d">fnv1a</text>
<polyline points="66.0,324.2 144.1,255.3 203.5,191.8 267.4,157.5 326.2,150.2 402.1,149.9 507.8,163.6 681.3,180.4 768.0,179.0" fill="none" stroke="#4b5563" stroke-width="2"/>
<line x1="782.0" y1="189.0" x2="798.0" y2="189.0" stroke="#4b5563" stroke-width="2"/>
<text x="802.0" y="193.0" font-size="11" fill="#4b5563">dumbo</text>
</svg>
