<svg xmlns="http://www.w3.org/2000/svg" width="900" height="536" font-family="sans-serif">
<rect width="900" height="536" fill="white"/>
<text x="450" y="24" font-size="15" font-weight="bold" text-anchor="middle">mbo/hash - 128-bit throughput (Short)</text>
<text x="450" y="44" font-size="12" fill="#6b7280" text-anchor="middle">Apple M5 Pro · MacOS · arm64 · 18-core · clang-21 · 29b54ccd</text>
<line x1="66" y1="393.0" x2="768.0" y2="393.0" stroke="#eee"/>
<text x="60" y="396.0" font-size="10" text-anchor="end">1</text>
<line x1="66" y1="219.5" x2="768.0" y2="219.5" stroke="#eee"/>
<text x="60" y="222.5" font-size="10" text-anchor="end">2</text>
<line x1="66.0" y1="62" x2="66.0" y2="484.0" stroke="#f3f4f6"/>
<line x1="241.5" y1="62" x2="241.5" y2="484.0" stroke="#f3f4f6"/>
<text x="241.5" y="500.0" font-size="10" text-anchor="middle">16 B</text>
<line x1="417.0" y1="62" x2="417.0" y2="484.0" stroke="#f3f4f6"/>
<line x1="592.5" y1="62" x2="592.5" y2="484.0" stroke="#f3f4f6"/>
<text x="592.5" y="500.0" font-size="10" text-anchor="middle">64 B</text>
<line x1="768.0" y1="62" x2="768.0" y2="484.0" stroke="#f3f4f6"/>
<text x="417" y="524" font-size="12" text-anchor="middle">max length (log scale)</text>
<text x="18" y="273" font-size="12" transform="rotate(-90 18 273)" text-anchor="middle">GiB / s (log scale)</text>
<polyline points="66.0,438.2 168.7,285.3 241.5,188.6 333.4,140.1 409.0,80.1 460.5,86.3 544.8,79.4 649.0,81.2 768.0,72.7" fill="none" stroke="#2563eb" stroke-width="2"/>
<line x1="782.0" y1="70.0" x2="798.0" y2="70.0" stroke="#2563eb" stroke-width="2"/>
<text x="802.0" y="74.0" font-size="11" fill="#2563eb">jumbo</text>
<polyline points="66.0,425.7 168.7,251.8 241.5,186.5 333.4,122.3 409.0,70.7 460.5,85.5 544.8,65.1 649.0,62.0 768.0,63.5" fill="none" stroke="#dc2626" stroke-width="2"/>
<line x1="782.0" y1="87.0" x2="798.0" y2="87.0" stroke="#dc2626" stroke-width="2"/>
<text x="802.0" y="91.0" font-size="11" fill="#dc2626">xxh3</text>
<polyline points="66.0,484.0 168.7,356.1 241.5,225.2 333.4,187.6 409.0,149.7 460.5,154.0 544.8,136.6 649.0,136.6 768.0,139.7" fill="none" stroke="#059669" stroke-width="2"/>
<line x1="782.0" y1="104.0" x2="798.0" y2="104.0" stroke="#059669" stroke-width="2"/>
<text x="802.0" y="108.0" font-size="11" fill="#059669">murmur3</text>
</svg>
