<svg xmlns="http://www.w3.org/2000/svg" width="900" height="536" font-family="sans-serif">
<rect width="900" height="536" fill="white"/>
<text x="450" y="24" font-size="15" font-weight="bold" text-anchor="middle">mbo/hash - 64-bit throughput (Short)</text>
<text x="450" y="44" font-size="12" fill="#6b7280" text-anchor="middle">Apple M5 Pro · MacOS · arm64 · 18-core · clang-21 · 80a4c8a8</text>
<line x1="66" y1="357.6" x2="768.0" y2="357.6" stroke="#eee"/>
<text x="60" y="360.6" font-size="10" text-anchor="end">1</text>
<line x1="66" y1="229.2" x2="768.0" y2="229.2" stroke="#eee"/>
<text x="60" y="232.2" font-size="10" text-anchor="end">2</text>
<line x1="66.0" y1="62" x2="66.0" y2="484.0" stroke="#f3f4f6"/>
<line x1="241.5" y1="62" x2="241.5" y2="484.0" stroke="#f3f4f6"/>
<text x="241.5" y="500.0" font-size="10" text-anchor="middle">16 B</text>
<line x1="417.0" y1="62" x2="417.0" y2="484.0" stroke="#f3f4f6"/>
<line x1="592.5" y1="62" x2="592.5" y2="484.0" stroke="#f3f4f6"/>
<text x="592.5" y="500.0" font-size="10" text-anchor="middle">64 B</text>
<line x1="768.0" y1="62" x2="768.0" y2="484.0" stroke="#f3f4f6"/>
<text x="417" y="524" font-size="12" text-anchor="middle">max length (log scale)</text>
<text x="18" y="273" font-size="12" transform="rotate(-90 18 273)" text-anchor="middle">GiB / s (log scale)</text>
<polyline points="66.0,376.1 168.7,243.6 241.5,178.3 333.4,134.2 409.0,106.2 460.5,111.1 544.8,97.1 649.0,97.1 768.0,98.9" fill="none" stroke="#2563eb" stroke-width="2"/>
<line x1="782.0" y1="70.0" x2="798.0" y2="70.0" stroke="#2563eb" stroke-width="2"/>
<text x="802.0" y="74.0" font-size="11" fill="#2563eb">mumbo</text>
<polyline points="66.0,418.9 168.7,290.5 241.5,191.6 333.4,128.8 409.0,80.0 460.5,83.2 544.8,73.0 649.0,70.6 768.0,81.4" fill="none" stroke="#dc2626" stroke-width="2"/>
<line x1="782.0" y1="87.0" x2="798.0" y2="87.0" stroke="#dc2626" stroke-width="2"/>
<text x="802.0" y="91.0" font-size="11" fill="#dc2626">rapidhash</text>
<polyline points="66.0,303.6 168.7,206.8 241.5,122.1 333.4,106.0 409.0,75.9 460.5,76.5 544.8,65.1 649.0,62.0 768.0,65.4" fill="none" stroke="#059669" stroke-width="2"/>
<line x1="782.0" y1="104.0" x2="798.0" y2="104.0" stroke="#059669" stroke-width="2"/>
<text x="802.0" y="108.0" font-size="11" fill="#059669">xxh3</text>
<polyline points="66.0,375.9 168.7,288.2 241.5,228.2 333.4,205.6 409.0,173.6 460.5,177.5 544.8,159.9 649.0,159.6 768.0,160.5" fill="none" stroke="#d97706" stroke-width="2"/>
<line x1="782.0" y1="121.0" x2="798.0" y2="121.0" stroke="#d97706" stroke-width="2"/>
<text x="802.0" y="125.0" font-size="11" fill="#d97706">xxh64</text>
<polyline points="66.0,445.4 168.7,346.8 241.5,212.6 333.4,191.2 409.0,164.3 460.5,170.1 544.8,157.1 649.0,157.7 768.0,159.2" fill="none" stroke="#7c3aed" stroke-width="2"/>
<line x1="782.0" y1="138.0" x2="798.0" y2="138.0" stroke="#7c3aed" stroke-width="2"/>
<text x="802.0" y="142.0" font-size="11" fill="#7c3aed">murmur3</text>
<polyline points="66.0,484.0 168.7,410.4 241.5,356.0 333.4,328.6 409.0,305.5 460.5,309.5 544.8,297.6 649.0,297.9 768.0,298.5" fill="none" stroke="#0891b2" stroke-width="2"/>
<line x1="782.0" y1="155.0" x2="798.0" y2="155.0" stroke="#0891b2" stroke-width="2"/>
<text x="802.0" y="159.0" font-size="11" fill="#0891b2">siphash24</text>
<polyline points="66.0,288.9 168.7,269.1 241.5,276.3 333.4,294.8 409.0,293.9 460.5,304.2 544.8,303.4 649.0,299.0 768.0,302.9" fill="none" stroke="#be185d" stroke-width="2"/>
<line x1="782.0" y1="172.0" x2="798.0" y2="172.0" stroke="#be185d" stroke-width="2"/>
<text x="802.0" y="176.0" font-size="11" fill="#be185d">fnv1a</text>
<polyline points="66.0,281.3 168.7,216.2 241.5,118.2 333.4,115.4 409.0,81.6 460.5,87.9 544.8,77.7 649.0,69.9 768.0,79.2" fill="none" stroke="#4b5563" stroke-width="2"/>
<line x1="782.0" y1="189.0" x2="798.0" y2="189.0" stroke="#4b5563" stroke-width="2"/>
<text x="802.0" y="193.0" font-size="11" fill="#4b5563">dumbo</text>
</svg>
